G04 (created by PCBNEW (2013-04-19 BZR 4011)-stable) date 14/07/2013 10:02:36 PM*
%MOIN*%
G04 Gerber Fmt 3.4, Leading zero omitted, Abs format*
%FSLAX34Y34*%
G01*
G70*
G90*
G04 APERTURE LIST*
%ADD10C,0*%
%ADD11C,0.09*%
%ADD12R,0.066X0.059*%
%ADD13C,0.066*%
%ADD14C,0.074*%
%ADD15R,0.074X0.074*%
%ADD16C,0.055*%
%ADD17R,0.055X0.055*%
%ADD18R,0.05X0.025*%
%ADD19R,0.1063X0.1575*%
%ADD20R,0.0394X0.0315*%
%ADD21C,0.06*%
%ADD22R,0.06X0.06*%
%ADD23C,0.0591*%
%ADD24R,0.125984X0.0787402*%
%ADD25C,0.045*%
%ADD26C,0.035*%
%ADD27C,0.01*%
%ADD28C,0.02*%
G04 APERTURE END LIST*
G54D10*
G54D11*
X110072Y-42095D03*
X107572Y-43095D03*
G54D12*
X109572Y-46095D03*
G54D13*
X108572Y-46095D03*
X128260Y-15970D03*
X129260Y-15970D03*
X135760Y-15970D03*
X136760Y-15970D03*
G54D14*
X123010Y-39595D03*
X124010Y-39595D03*
X125010Y-39595D03*
X126010Y-39595D03*
X127010Y-39595D03*
X128010Y-39595D03*
X129010Y-39595D03*
X130010Y-39595D03*
X131010Y-39595D03*
X132010Y-39595D03*
X133010Y-39595D03*
X134010Y-39595D03*
X135010Y-39595D03*
X136010Y-39595D03*
X137010Y-39595D03*
X138010Y-39595D03*
X139010Y-39595D03*
X140010Y-39595D03*
X141010Y-39595D03*
X142010Y-39595D03*
X142010Y-33595D03*
X141010Y-33595D03*
X140010Y-33595D03*
X139010Y-33595D03*
X138010Y-33595D03*
X137010Y-33595D03*
X136010Y-33595D03*
X135010Y-33595D03*
X134010Y-33595D03*
X133010Y-33595D03*
X132010Y-33595D03*
X131010Y-33595D03*
X130010Y-33595D03*
X129010Y-33595D03*
X128010Y-33595D03*
X127010Y-33595D03*
X126010Y-33595D03*
X125010Y-33595D03*
X124010Y-33595D03*
G54D15*
X123010Y-33595D03*
G54D16*
X65100Y-50900D03*
X65100Y-47900D03*
X69100Y-50900D03*
X69100Y-47900D03*
X71100Y-50900D03*
X71100Y-47900D03*
X111400Y-47700D03*
X114400Y-47700D03*
X118500Y-14900D03*
X118500Y-17900D03*
X119600Y-14900D03*
X119600Y-17900D03*
X120700Y-14900D03*
X120700Y-17900D03*
X98800Y-43700D03*
X98800Y-46700D03*
X121800Y-14900D03*
X121800Y-17900D03*
G54D11*
X11635Y-19595D03*
X9135Y-20595D03*
G54D12*
X11135Y-23595D03*
G54D13*
X10135Y-23595D03*
G54D11*
X141010Y-49595D03*
X138510Y-50595D03*
G54D12*
X140510Y-53595D03*
G54D13*
X139510Y-53595D03*
G54D11*
X133510Y-27095D03*
X131010Y-28095D03*
G54D12*
X133010Y-31095D03*
G54D13*
X132010Y-31095D03*
G54D11*
X109135Y-8345D03*
X106635Y-9345D03*
G54D12*
X108635Y-12345D03*
G54D13*
X107635Y-12345D03*
G54D11*
X105385Y-27095D03*
X102885Y-28095D03*
G54D12*
X104885Y-31095D03*
G54D13*
X103885Y-31095D03*
G54D11*
X101635Y-19595D03*
X99135Y-20595D03*
G54D12*
X101135Y-23595D03*
G54D13*
X100135Y-23595D03*
G54D11*
X126010Y-8345D03*
X123510Y-9345D03*
G54D12*
X125510Y-12345D03*
G54D13*
X124510Y-12345D03*
G54D11*
X133510Y-19595D03*
X131010Y-20595D03*
G54D12*
X133010Y-23595D03*
G54D13*
X132010Y-23595D03*
G54D11*
X99760Y-34595D03*
X97260Y-35595D03*
G54D12*
X99260Y-38595D03*
G54D13*
X98260Y-38595D03*
G54D11*
X79135Y-19595D03*
X76635Y-20595D03*
G54D12*
X78635Y-23595D03*
G54D13*
X77635Y-23595D03*
G54D11*
X126010Y-27095D03*
X123510Y-28095D03*
G54D12*
X125510Y-31095D03*
G54D13*
X124510Y-31095D03*
G54D11*
X133510Y-8345D03*
X131010Y-9345D03*
G54D12*
X133010Y-12345D03*
G54D13*
X132010Y-12345D03*
G54D11*
X116635Y-8345D03*
X114135Y-9345D03*
G54D12*
X116135Y-12345D03*
G54D13*
X115135Y-12345D03*
G54D11*
X36010Y-42095D03*
X33510Y-43095D03*
G54D12*
X35510Y-46095D03*
G54D13*
X34510Y-46095D03*
G54D11*
X60385Y-27095D03*
X57885Y-28095D03*
G54D12*
X59885Y-31095D03*
G54D13*
X58885Y-31095D03*
G54D11*
X56635Y-19595D03*
X54135Y-20595D03*
G54D12*
X56135Y-23595D03*
G54D13*
X55135Y-23595D03*
G54D11*
X49135Y-8345D03*
X46635Y-9345D03*
G54D12*
X48635Y-12345D03*
G54D13*
X47635Y-12345D03*
G54D11*
X51010Y-42095D03*
X48510Y-43095D03*
G54D12*
X50510Y-46095D03*
G54D13*
X49510Y-46095D03*
G54D11*
X47260Y-34595D03*
X44760Y-35595D03*
G54D12*
X46760Y-38595D03*
G54D13*
X45760Y-38595D03*
G54D11*
X52885Y-27095D03*
X50385Y-28095D03*
G54D12*
X52385Y-31095D03*
G54D13*
X51385Y-31095D03*
G54D11*
X49135Y-19595D03*
X46635Y-20595D03*
G54D12*
X48635Y-23595D03*
G54D13*
X47635Y-23595D03*
G54D11*
X41635Y-8345D03*
X39135Y-9345D03*
G54D12*
X41135Y-12345D03*
G54D13*
X40135Y-12345D03*
G54D11*
X43510Y-42095D03*
X41010Y-43095D03*
G54D12*
X43010Y-46095D03*
G54D13*
X42010Y-46095D03*
G54D11*
X39760Y-34595D03*
X37260Y-35595D03*
G54D12*
X39260Y-38595D03*
G54D13*
X38260Y-38595D03*
G54D11*
X45385Y-27095D03*
X42885Y-28095D03*
G54D12*
X44885Y-31095D03*
G54D13*
X43885Y-31095D03*
G54D11*
X41635Y-19595D03*
X39135Y-20595D03*
G54D12*
X41135Y-23595D03*
G54D13*
X40135Y-23595D03*
G54D11*
X34135Y-8345D03*
X31635Y-9345D03*
G54D12*
X33635Y-12345D03*
G54D13*
X32635Y-12345D03*
G54D11*
X101635Y-8345D03*
X99135Y-9345D03*
G54D12*
X101135Y-12345D03*
G54D13*
X100135Y-12345D03*
G54D11*
X32260Y-34595D03*
X29760Y-35595D03*
G54D12*
X31760Y-38595D03*
G54D13*
X30760Y-38595D03*
G54D11*
X37885Y-27095D03*
X35385Y-28095D03*
G54D12*
X37385Y-31095D03*
G54D13*
X36385Y-31095D03*
G54D11*
X34135Y-19595D03*
X31635Y-20595D03*
G54D12*
X33635Y-23595D03*
G54D13*
X32635Y-23595D03*
G54D11*
X26635Y-8345D03*
X24135Y-9345D03*
G54D12*
X26135Y-12345D03*
G54D13*
X25135Y-12345D03*
G54D11*
X28510Y-42095D03*
X26010Y-43095D03*
G54D12*
X28010Y-46095D03*
G54D13*
X27010Y-46095D03*
G54D11*
X24760Y-34595D03*
X22260Y-35595D03*
G54D12*
X24260Y-38595D03*
G54D13*
X23260Y-38595D03*
G54D11*
X30385Y-27095D03*
X27885Y-28095D03*
G54D12*
X29885Y-31095D03*
G54D13*
X28885Y-31095D03*
G54D11*
X26635Y-19595D03*
X24135Y-20595D03*
G54D12*
X26135Y-23595D03*
G54D13*
X25135Y-23595D03*
G54D11*
X22885Y-27095D03*
X20385Y-28095D03*
G54D12*
X22385Y-31095D03*
G54D13*
X21385Y-31095D03*
G54D11*
X19135Y-19595D03*
X16635Y-20595D03*
G54D12*
X18635Y-23595D03*
G54D13*
X17635Y-23595D03*
G54D11*
X11635Y-8345D03*
X9135Y-9345D03*
G54D12*
X11135Y-12345D03*
G54D13*
X10135Y-12345D03*
G54D11*
X54760Y-34595D03*
X52260Y-35595D03*
G54D12*
X54260Y-38595D03*
G54D13*
X53260Y-38595D03*
G54D11*
X96010Y-42095D03*
X93510Y-43095D03*
G54D12*
X95510Y-46095D03*
G54D13*
X94510Y-46095D03*
G54D11*
X92260Y-34595D03*
X89760Y-35595D03*
G54D12*
X91760Y-38595D03*
G54D13*
X90760Y-38595D03*
G54D11*
X97885Y-27095D03*
X95385Y-28095D03*
G54D12*
X97385Y-31095D03*
G54D13*
X96385Y-31095D03*
G54D11*
X94135Y-19595D03*
X91635Y-20595D03*
G54D12*
X93635Y-23595D03*
G54D13*
X92635Y-23595D03*
G54D11*
X94135Y-8345D03*
X91635Y-9345D03*
G54D12*
X93635Y-12345D03*
G54D13*
X92635Y-12345D03*
G54D11*
X88510Y-42095D03*
X86010Y-43095D03*
G54D12*
X88010Y-46095D03*
G54D13*
X87010Y-46095D03*
G54D11*
X84760Y-34595D03*
X82260Y-35595D03*
G54D12*
X84260Y-38595D03*
G54D13*
X83260Y-38595D03*
G54D11*
X90385Y-27095D03*
X87885Y-28095D03*
G54D12*
X89885Y-31095D03*
G54D13*
X88885Y-31095D03*
G54D11*
X86635Y-19595D03*
X84135Y-20595D03*
G54D12*
X86135Y-23595D03*
G54D13*
X85135Y-23595D03*
G54D11*
X82885Y-8345D03*
X80385Y-9345D03*
G54D12*
X82385Y-12345D03*
G54D13*
X81385Y-12345D03*
G54D11*
X81010Y-42095D03*
X78510Y-43095D03*
G54D12*
X80510Y-46095D03*
G54D13*
X79510Y-46095D03*
G54D11*
X77260Y-34595D03*
X74760Y-35595D03*
G54D12*
X76760Y-38595D03*
G54D13*
X75760Y-38595D03*
G54D11*
X82885Y-27095D03*
X80385Y-28095D03*
G54D12*
X82385Y-31095D03*
G54D13*
X81385Y-31095D03*
G54D11*
X75385Y-8345D03*
X72885Y-9345D03*
G54D12*
X74885Y-12345D03*
G54D13*
X73885Y-12345D03*
G54D11*
X73510Y-42095D03*
X71010Y-43095D03*
G54D12*
X73010Y-46095D03*
G54D13*
X72010Y-46095D03*
G54D11*
X69760Y-34595D03*
X67260Y-35595D03*
G54D12*
X69260Y-38595D03*
G54D13*
X68260Y-38595D03*
G54D11*
X75385Y-27095D03*
X72885Y-28095D03*
G54D12*
X74885Y-31095D03*
G54D13*
X73885Y-31095D03*
G54D11*
X71635Y-19595D03*
X69135Y-20595D03*
G54D12*
X71135Y-23595D03*
G54D13*
X70135Y-23595D03*
G54D11*
X67885Y-8345D03*
X65385Y-9345D03*
G54D12*
X67385Y-12345D03*
G54D13*
X66385Y-12345D03*
G54D11*
X66010Y-42095D03*
X63510Y-43095D03*
G54D12*
X65510Y-46095D03*
G54D13*
X64510Y-46095D03*
G54D11*
X62260Y-34595D03*
X59760Y-35595D03*
G54D12*
X61760Y-38595D03*
G54D13*
X60760Y-38595D03*
G54D11*
X67885Y-27095D03*
X65385Y-28095D03*
G54D12*
X67385Y-31095D03*
G54D13*
X66385Y-31095D03*
G54D11*
X64135Y-19595D03*
X61635Y-20595D03*
G54D12*
X63635Y-23595D03*
G54D13*
X62635Y-23595D03*
G54D11*
X60385Y-8345D03*
X57885Y-9345D03*
G54D12*
X59885Y-12345D03*
G54D13*
X58885Y-12345D03*
G54D11*
X58510Y-42095D03*
X56010Y-43095D03*
G54D12*
X58010Y-46095D03*
G54D13*
X57010Y-46095D03*
G54D11*
X133510Y-49595D03*
X131010Y-50595D03*
G54D12*
X133010Y-53595D03*
G54D13*
X132010Y-53595D03*
G54D11*
X133510Y-42095D03*
X131010Y-43095D03*
G54D12*
X133010Y-46095D03*
G54D13*
X132010Y-46095D03*
G54D11*
X126010Y-49595D03*
X123510Y-50595D03*
G54D12*
X125510Y-53595D03*
G54D13*
X124510Y-53595D03*
G54D11*
X126010Y-19595D03*
X123510Y-20595D03*
G54D12*
X125510Y-23595D03*
G54D13*
X124510Y-23595D03*
G54D11*
X141010Y-8345D03*
X138510Y-9345D03*
G54D12*
X140510Y-12345D03*
G54D13*
X139510Y-12345D03*
G54D11*
X141010Y-19595D03*
X138510Y-20595D03*
G54D12*
X140510Y-23595D03*
G54D13*
X139510Y-23595D03*
G54D11*
X141010Y-27095D03*
X138510Y-28095D03*
G54D12*
X140510Y-31095D03*
G54D13*
X139510Y-31095D03*
G54D11*
X114760Y-27095D03*
X112260Y-28095D03*
G54D12*
X114260Y-31095D03*
G54D13*
X113260Y-31095D03*
G54D11*
X13510Y-27095D03*
X11010Y-28095D03*
G54D12*
X13010Y-31095D03*
G54D13*
X12010Y-31095D03*
G54D11*
X31322Y-49595D03*
X28822Y-50595D03*
G54D12*
X30822Y-53595D03*
G54D13*
X29822Y-53595D03*
G54D11*
X21947Y-49595D03*
X19447Y-50595D03*
G54D12*
X21447Y-53595D03*
G54D13*
X20447Y-53595D03*
G54D11*
X12572Y-49595D03*
X10072Y-50595D03*
G54D12*
X12072Y-53595D03*
G54D13*
X11072Y-53595D03*
G54D11*
X106322Y-49595D03*
X103822Y-50595D03*
G54D12*
X105822Y-53595D03*
G54D13*
X104822Y-53595D03*
G54D11*
X115697Y-49595D03*
X113197Y-50595D03*
G54D12*
X115197Y-53595D03*
G54D13*
X114197Y-53595D03*
G54D11*
X96947Y-49595D03*
X94447Y-50595D03*
G54D12*
X96447Y-53595D03*
G54D13*
X95447Y-53595D03*
G54D11*
X87572Y-49595D03*
X85072Y-50595D03*
G54D12*
X87072Y-53595D03*
G54D13*
X86072Y-53595D03*
G54D11*
X59447Y-49595D03*
X56947Y-50595D03*
G54D12*
X58947Y-53595D03*
G54D13*
X57947Y-53595D03*
G54D11*
X111947Y-34595D03*
X109447Y-35595D03*
G54D12*
X111447Y-38595D03*
G54D13*
X110447Y-38595D03*
G54D11*
X16322Y-42095D03*
X13822Y-43095D03*
G54D12*
X15822Y-46095D03*
G54D13*
X14822Y-46095D03*
X12947Y-38595D03*
G54D12*
X13947Y-38595D03*
G54D11*
X11947Y-35595D03*
X14447Y-34595D03*
X12572Y-34595D03*
X10072Y-35595D03*
G54D12*
X12072Y-38595D03*
G54D13*
X11072Y-38595D03*
G54D11*
X112885Y-19595D03*
X110385Y-20595D03*
G54D12*
X112385Y-23595D03*
G54D13*
X111385Y-23595D03*
G54D17*
X65400Y-25400D03*
G54D16*
X68400Y-25400D03*
G54D17*
X76600Y-17900D03*
G54D16*
X79600Y-17900D03*
G54D17*
X70600Y-9300D03*
G54D16*
X70600Y-12300D03*
G54D17*
X71000Y-40400D03*
G54D16*
X74000Y-40400D03*
G54D17*
X67300Y-32900D03*
G54D16*
X70300Y-32900D03*
G54D17*
X72900Y-25400D03*
G54D16*
X75900Y-25400D03*
G54D17*
X69100Y-17900D03*
G54D16*
X72100Y-17900D03*
G54D17*
X63100Y-9300D03*
G54D16*
X63100Y-12300D03*
G54D17*
X111900Y-9300D03*
G54D16*
X111900Y-12300D03*
G54D17*
X63500Y-40400D03*
G54D16*
X66500Y-40400D03*
G54D17*
X59800Y-32900D03*
G54D16*
X62800Y-32900D03*
G54D17*
X123500Y-17900D03*
G54D16*
X126500Y-17900D03*
G54D17*
X80400Y-25400D03*
G54D16*
X83400Y-25400D03*
G54D17*
X61600Y-17900D03*
G54D16*
X64600Y-17900D03*
G54D17*
X123500Y-25400D03*
G54D16*
X126500Y-25400D03*
G54D17*
X55700Y-9300D03*
G54D16*
X55700Y-12300D03*
G54D17*
X56000Y-40400D03*
G54D16*
X59000Y-40400D03*
G54D17*
X57900Y-25400D03*
G54D16*
X60900Y-25400D03*
G54D17*
X121300Y-9300D03*
G54D16*
X121300Y-12300D03*
G54D17*
X54100Y-17900D03*
G54D16*
X57100Y-17900D03*
G54D17*
X44400Y-9300D03*
G54D16*
X44400Y-12300D03*
G54D17*
X131000Y-17900D03*
G54D16*
X134000Y-17900D03*
G54D17*
X86000Y-40400D03*
G54D16*
X89000Y-40400D03*
G54D17*
X99200Y-17900D03*
G54D16*
X102200Y-17900D03*
G54D17*
X96900Y-9300D03*
G54D16*
X96900Y-12300D03*
G54D17*
X56885Y-47845D03*
G54D16*
X59885Y-47845D03*
G54D17*
X93500Y-40400D03*
G54D16*
X96500Y-40400D03*
G54D17*
X101400Y-25400D03*
G54D16*
X104400Y-25400D03*
G54D17*
X89800Y-32900D03*
G54D16*
X92800Y-32900D03*
G54D17*
X95400Y-25400D03*
G54D16*
X98400Y-25400D03*
G54D17*
X97300Y-32900D03*
G54D16*
X100300Y-32900D03*
G54D17*
X91600Y-17900D03*
G54D16*
X94600Y-17900D03*
G54D17*
X89400Y-9300D03*
G54D16*
X89400Y-12300D03*
G54D17*
X14400Y-9300D03*
G54D16*
X14400Y-12300D03*
G54D17*
X82300Y-32900D03*
G54D16*
X85300Y-32900D03*
G54D17*
X104400Y-9300D03*
G54D16*
X104400Y-12300D03*
G54D17*
X87900Y-25400D03*
G54D16*
X90900Y-25400D03*
G54D17*
X84100Y-17900D03*
G54D16*
X87100Y-17900D03*
G54D17*
X110300Y-17900D03*
G54D16*
X113300Y-17900D03*
G54D17*
X78100Y-9300D03*
G54D16*
X78100Y-12300D03*
G54D17*
X78500Y-40400D03*
G54D16*
X81500Y-40400D03*
G54D17*
X112200Y-25400D03*
G54D16*
X115200Y-25400D03*
G54D17*
X74800Y-32900D03*
G54D16*
X77800Y-32900D03*
G54D17*
X52300Y-32900D03*
G54D16*
X55300Y-32900D03*
G54D17*
X26000Y-40400D03*
G54D16*
X29000Y-40400D03*
G54D17*
X29400Y-9300D03*
G54D16*
X29400Y-12300D03*
G54D17*
X28900Y-47900D03*
G54D16*
X31900Y-47900D03*
G54D17*
X33500Y-40400D03*
G54D16*
X36500Y-40400D03*
G54D17*
X29800Y-32900D03*
G54D16*
X32800Y-32900D03*
G54D17*
X48500Y-40400D03*
G54D16*
X51500Y-40400D03*
G54D17*
X31600Y-17900D03*
G54D16*
X34600Y-17900D03*
G54D17*
X94400Y-47900D03*
G54D16*
X97400Y-47900D03*
G54D17*
X21900Y-9300D03*
G54D16*
X21900Y-12300D03*
G54D17*
X19500Y-47900D03*
G54D16*
X22500Y-47900D03*
G54D17*
X35400Y-25400D03*
G54D16*
X38400Y-25400D03*
G54D17*
X22300Y-32900D03*
G54D16*
X25300Y-32900D03*
G54D17*
X11000Y-25400D03*
G54D16*
X14000Y-25400D03*
G54D17*
X27900Y-25400D03*
G54D16*
X30900Y-25400D03*
G54D17*
X24100Y-17900D03*
G54D16*
X27100Y-17900D03*
G54D17*
X9100Y-17900D03*
G54D16*
X12100Y-17900D03*
G54D17*
X10100Y-47900D03*
G54D16*
X13100Y-47900D03*
G54D17*
X13800Y-40400D03*
G54D16*
X16800Y-40400D03*
G54D17*
X10100Y-32900D03*
G54D16*
X13100Y-32900D03*
G54D17*
X20400Y-25400D03*
G54D16*
X23400Y-25400D03*
G54D17*
X16600Y-17900D03*
G54D16*
X19600Y-17900D03*
G54D17*
X85100Y-47900D03*
G54D16*
X88100Y-47900D03*
G54D17*
X46600Y-17900D03*
G54D16*
X49600Y-17900D03*
G54D17*
X50400Y-25400D03*
G54D16*
X53400Y-25400D03*
G54D17*
X36900Y-9300D03*
G54D16*
X36900Y-12300D03*
G54D17*
X131000Y-25400D03*
G54D16*
X134000Y-25400D03*
G54D17*
X41000Y-40400D03*
G54D16*
X44000Y-40400D03*
G54D17*
X37300Y-32900D03*
G54D16*
X40300Y-32900D03*
G54D17*
X44800Y-32900D03*
G54D16*
X47800Y-32900D03*
G54D17*
X42900Y-25400D03*
G54D16*
X45900Y-25400D03*
G54D17*
X128700Y-9300D03*
G54D16*
X128700Y-12300D03*
G54D17*
X39100Y-17900D03*
G54D16*
X42100Y-17900D03*
G54D17*
X106400Y-32800D03*
G54D16*
X109400Y-32800D03*
G54D17*
X116700Y-43100D03*
G54D16*
X116700Y-46100D03*
G54D17*
X118600Y-50700D03*
G54D16*
X118600Y-53700D03*
G54D17*
X123500Y-47900D03*
G54D16*
X126500Y-47900D03*
G54D17*
X100635Y-50595D03*
G54D16*
X100635Y-47595D03*
G54D17*
X128885Y-43095D03*
G54D16*
X128885Y-46095D03*
G54D17*
X131000Y-47900D03*
G54D16*
X134000Y-47900D03*
G54D17*
X136300Y-9300D03*
G54D16*
X136300Y-12300D03*
G54D17*
X138500Y-17900D03*
G54D16*
X141500Y-17900D03*
G54D17*
X138500Y-25400D03*
G54D16*
X141500Y-25400D03*
G54D17*
X138500Y-47900D03*
G54D16*
X141500Y-47900D03*
G54D13*
X73720Y-6820D03*
X74520Y-7320D03*
X75320Y-6820D03*
X76120Y-7320D03*
X76920Y-6820D03*
G54D18*
X121450Y-42400D03*
X121450Y-42900D03*
X121450Y-43400D03*
X121450Y-43900D03*
X119250Y-43900D03*
X119250Y-43400D03*
X119250Y-42900D03*
X119250Y-42400D03*
G54D19*
X124600Y-42469D03*
X124600Y-45531D03*
G54D20*
X119017Y-45600D03*
X119883Y-45975D03*
X119883Y-45225D03*
G54D21*
X136150Y-46000D03*
X136150Y-42000D03*
G54D16*
X117300Y-39950D03*
X120300Y-39950D03*
X102500Y-41850D03*
X99500Y-41850D03*
X99500Y-40350D03*
X102500Y-40350D03*
G54D22*
X137450Y-46000D03*
G54D21*
X137450Y-42000D03*
G54D23*
X126800Y-45400D03*
X126800Y-43400D03*
G54D19*
X103200Y-35269D03*
X103200Y-38331D03*
G54D24*
X140500Y-45850D03*
X140500Y-42149D03*
G54D16*
X127250Y-14900D03*
X130250Y-14900D03*
X134750Y-14900D03*
X137750Y-14900D03*
X63100Y-50900D03*
X63100Y-47900D03*
X67100Y-50900D03*
X67100Y-47900D03*
G54D25*
X121000Y-47800D03*
X121000Y-51800D03*
G54D26*
X115200Y-34900D03*
X12800Y-15200D03*
X109200Y-17500D03*
X114800Y-35500D03*
X108800Y-18000D03*
X20400Y-16500D03*
X117800Y-33200D03*
X88400Y-13900D03*
X115600Y-17500D03*
X118200Y-33800D03*
X95900Y-13700D03*
X116000Y-18000D03*
X118600Y-33200D03*
X116400Y-17500D03*
X104400Y-13300D03*
X118600Y-47700D03*
X107350Y-46550D03*
X119000Y-33800D03*
X118000Y-49350D03*
X140100Y-49300D03*
X115600Y-31700D03*
X111900Y-13300D03*
X116800Y-18000D03*
X119400Y-33200D03*
X107400Y-45900D03*
X106400Y-13300D03*
X126500Y-14100D03*
X142000Y-14600D03*
X117200Y-17500D03*
X131050Y-13000D03*
X129000Y-27450D03*
X122450Y-27450D03*
X120700Y-39400D03*
X129500Y-40350D03*
X134000Y-13000D03*
X129400Y-24500D03*
X28350Y-16600D03*
X114400Y-34900D03*
X108400Y-17500D03*
X36100Y-16600D03*
X114000Y-35500D03*
X108000Y-18000D03*
X113600Y-34900D03*
X107600Y-17500D03*
X43300Y-16800D03*
X50800Y-17300D03*
X108900Y-39300D03*
X107200Y-18000D03*
X106800Y-17500D03*
X108200Y-39200D03*
X58400Y-17400D03*
X121650Y-39000D03*
X65800Y-17900D03*
X106400Y-18000D03*
X108300Y-39900D03*
X114800Y-17500D03*
X73300Y-14100D03*
X117000Y-33200D03*
X117400Y-33800D03*
X80900Y-13700D03*
X115200Y-18000D03*
X120650Y-40850D03*
X122450Y-42900D03*
X104350Y-40350D03*
X134500Y-32600D03*
X132850Y-15200D03*
X142000Y-19400D03*
X108600Y-47700D03*
X100900Y-46400D03*
X76150Y-54250D03*
X108600Y-54250D03*
X121850Y-53800D03*
X8400Y-53600D03*
X69850Y-11700D03*
X127100Y-47150D03*
X64000Y-13800D03*
X120300Y-22550D03*
X121050Y-29050D03*
X123100Y-13700D03*
X121850Y-41750D03*
X120150Y-42350D03*
X135200Y-9600D03*
X136300Y-19500D03*
X136600Y-27000D03*
X138010Y-31300D03*
X142350Y-40500D03*
X133500Y-40750D03*
X142700Y-32600D03*
X109150Y-52950D03*
X118550Y-43400D03*
X121900Y-44450D03*
X111900Y-49250D03*
X113000Y-48150D03*
X104650Y-49200D03*
X125250Y-43850D03*
X122200Y-43400D03*
X111700Y-44850D03*
X107550Y-41850D03*
X111900Y-43550D03*
X117700Y-43900D03*
X122200Y-42400D03*
X140500Y-44200D03*
X117300Y-41600D03*
X122550Y-16850D03*
X113850Y-46250D03*
X115950Y-44750D03*
X110550Y-51950D03*
X99650Y-52800D03*
X108750Y-33300D03*
X116500Y-33800D03*
X118400Y-46700D03*
G54D27*
X14000Y-25400D02*
X15500Y-25400D01*
X13100Y-32900D02*
X15500Y-32900D01*
X15500Y-22700D02*
X15500Y-25400D01*
X15500Y-25400D02*
X15500Y-32900D01*
X15500Y-32900D02*
X15500Y-36600D01*
X18200Y-40400D02*
X18200Y-39300D01*
X15500Y-22700D02*
X14800Y-22000D01*
X18200Y-39300D02*
X15500Y-36600D01*
X12100Y-17900D02*
X12800Y-17900D01*
X12800Y-15200D02*
X12800Y-17900D01*
X12800Y-17900D02*
X12800Y-20000D01*
X12800Y-20000D02*
X14800Y-22000D01*
X16100Y-47900D02*
X18200Y-45800D01*
X16800Y-40400D02*
X18200Y-40400D01*
X13100Y-47900D02*
X16100Y-47900D01*
X18200Y-45800D02*
X18200Y-40400D01*
X115200Y-33900D02*
X110300Y-29000D01*
X110300Y-29000D02*
X110300Y-26300D01*
X109200Y-17500D02*
X109200Y-25200D01*
X109200Y-25200D02*
X110300Y-26300D01*
X115200Y-34900D02*
X115200Y-33900D01*
X12800Y-15200D02*
X12800Y-13900D01*
X12800Y-13900D02*
X14400Y-12300D01*
X25900Y-32300D02*
X25300Y-32900D01*
X26500Y-37900D02*
X22500Y-41900D01*
X22500Y-41900D02*
X22500Y-47900D01*
X24600Y-25400D02*
X24600Y-31000D01*
X26500Y-37900D02*
X29000Y-40400D01*
X26500Y-32900D02*
X26500Y-37900D01*
X24600Y-31000D02*
X25900Y-32300D01*
X25900Y-32300D02*
X26500Y-32900D01*
X23400Y-25400D02*
X24600Y-25400D01*
X24600Y-25400D02*
X24600Y-24400D01*
X24600Y-24400D02*
X20400Y-20200D01*
X20400Y-17900D02*
X20400Y-20200D01*
X20400Y-17900D02*
X20400Y-16500D01*
X114800Y-34000D02*
X109900Y-29100D01*
X109900Y-29100D02*
X109900Y-26400D01*
X108800Y-25300D02*
X109900Y-26400D01*
X108800Y-18000D02*
X108800Y-25300D01*
X114800Y-35500D02*
X114800Y-34000D01*
X19600Y-17900D02*
X20400Y-17900D01*
X117800Y-21100D02*
X117800Y-33200D01*
X97050Y-39850D02*
X96500Y-40400D01*
X93350Y-32350D02*
X92800Y-32900D01*
X91450Y-24850D02*
X90900Y-25400D01*
X87100Y-17900D02*
X88400Y-17900D01*
X89400Y-12300D02*
X88400Y-13300D01*
X97900Y-47400D02*
X97400Y-47900D01*
X97900Y-40700D02*
X97900Y-47400D01*
X94000Y-36800D02*
X97050Y-39850D01*
X97050Y-39850D02*
X97900Y-40700D01*
X94000Y-33000D02*
X94000Y-36800D01*
X92100Y-31100D02*
X93350Y-32350D01*
X93350Y-32350D02*
X94000Y-33000D01*
X92100Y-25500D02*
X92100Y-31100D01*
X88400Y-21800D02*
X91450Y-24850D01*
X91450Y-24850D02*
X92100Y-25500D01*
X88400Y-13300D02*
X88400Y-13900D01*
X88400Y-13900D02*
X88400Y-17900D01*
X88400Y-17900D02*
X88400Y-21800D01*
X115600Y-18900D02*
X117800Y-21100D01*
X115600Y-17500D02*
X115600Y-18900D01*
X118200Y-21000D02*
X118200Y-33800D01*
X100850Y-32350D02*
X100300Y-32900D01*
X99000Y-24800D02*
X98400Y-25400D01*
X94600Y-17900D02*
X95900Y-17900D01*
X116000Y-18800D02*
X118200Y-21000D01*
X116000Y-18000D02*
X116000Y-18800D01*
X96900Y-12300D02*
X95900Y-13300D01*
X101500Y-46730D02*
X100635Y-47595D01*
X101500Y-33000D02*
X101500Y-46730D01*
X99600Y-31100D02*
X100850Y-32350D01*
X100850Y-32350D02*
X101500Y-33000D01*
X99600Y-25400D02*
X99600Y-31100D01*
X95900Y-21700D02*
X99000Y-24800D01*
X99000Y-24800D02*
X99600Y-25400D01*
X95900Y-13300D02*
X95900Y-13700D01*
X95900Y-13700D02*
X95900Y-17900D01*
X95900Y-17900D02*
X95900Y-21700D01*
X118600Y-20900D02*
X118600Y-33200D01*
X116400Y-17500D02*
X116400Y-18700D01*
X116400Y-18700D02*
X118600Y-20900D01*
X118850Y-47950D02*
X118750Y-47850D01*
X118600Y-47700D02*
X118850Y-47950D01*
X118750Y-47850D02*
X118900Y-48000D01*
X104400Y-25400D02*
X105600Y-25400D01*
X102200Y-17900D02*
X104400Y-17900D01*
X105600Y-25400D02*
X105600Y-19100D01*
X119400Y-48500D02*
X118900Y-48000D01*
X118900Y-48000D02*
X118750Y-47850D01*
X119400Y-52900D02*
X119400Y-48500D01*
X118600Y-53700D02*
X119400Y-52900D01*
X107350Y-46550D02*
X105700Y-44900D01*
X105700Y-44900D02*
X105700Y-28700D01*
X105700Y-28700D02*
X106200Y-28200D01*
X106200Y-28200D02*
X106200Y-26700D01*
X105600Y-26100D02*
X105600Y-25400D01*
X106200Y-26700D02*
X105600Y-26100D01*
X105600Y-19100D02*
X104400Y-17900D01*
X104400Y-13300D02*
X104400Y-12300D01*
X104400Y-17900D02*
X104400Y-13300D01*
X116700Y-46100D02*
X116650Y-46100D01*
X116650Y-46100D02*
X115700Y-47050D01*
X115200Y-38600D02*
X114950Y-38850D01*
X114950Y-46300D02*
X115200Y-46550D01*
X114950Y-38850D02*
X114950Y-46300D01*
X119000Y-20800D02*
X119000Y-33800D01*
X118000Y-49350D02*
X117800Y-49150D01*
X115600Y-46950D02*
X115200Y-46550D01*
X115600Y-46950D02*
X115700Y-47050D01*
X115700Y-47050D02*
X117800Y-49150D01*
X141500Y-47900D02*
X140100Y-49300D01*
X115200Y-38600D02*
X115600Y-38200D01*
X115200Y-25400D02*
X116600Y-25400D01*
X113900Y-17300D02*
X113300Y-17900D01*
X113900Y-17300D02*
X114400Y-17800D01*
X116600Y-25400D02*
X116600Y-30700D01*
X116600Y-30700D02*
X115600Y-31700D01*
X116600Y-21400D02*
X116600Y-25400D01*
X114400Y-19200D02*
X116600Y-21400D01*
X114400Y-17800D02*
X114400Y-19200D01*
X115600Y-31700D02*
X115600Y-38200D01*
X116800Y-18000D02*
X116800Y-18600D01*
X116800Y-18600D02*
X119000Y-20800D01*
X113900Y-17300D02*
X111900Y-15300D01*
X111900Y-12300D02*
X111900Y-13300D01*
X111900Y-13300D02*
X111900Y-15300D01*
X119400Y-20700D02*
X119400Y-33200D01*
X142600Y-24300D02*
X142600Y-17900D01*
X142600Y-24300D02*
X141500Y-25400D01*
X141500Y-17900D02*
X142600Y-17900D01*
X107400Y-45900D02*
X106100Y-44600D01*
X106100Y-42000D02*
X107100Y-41000D01*
X107100Y-41000D02*
X107100Y-27100D01*
X107100Y-27100D02*
X106000Y-26000D01*
X106000Y-26000D02*
X106000Y-13700D01*
X106000Y-13700D02*
X106400Y-13300D01*
X106100Y-44600D02*
X106100Y-42000D01*
X126500Y-25400D02*
X127800Y-24100D01*
X127300Y-17100D02*
X126500Y-17100D01*
X127800Y-17600D02*
X127300Y-17100D01*
X127800Y-24100D02*
X127800Y-17600D01*
X126500Y-17900D02*
X126500Y-17100D01*
X126500Y-17100D02*
X126500Y-14100D01*
X142000Y-14600D02*
X142600Y-15200D01*
X142600Y-15200D02*
X142600Y-17900D01*
X117200Y-17500D02*
X117200Y-18500D01*
X117200Y-18500D02*
X119400Y-20700D01*
X131050Y-13000D02*
X131050Y-15500D01*
X129400Y-18000D02*
X129400Y-24500D01*
X130700Y-16700D02*
X131050Y-16350D01*
X131050Y-16350D02*
X131050Y-15500D01*
X129400Y-18000D02*
X130700Y-16700D01*
X129500Y-40750D02*
X129500Y-42500D01*
X129500Y-42500D02*
X129750Y-42750D01*
X120700Y-36250D02*
X120700Y-39400D01*
X129000Y-27450D02*
X129400Y-27050D01*
X129400Y-27050D02*
X129400Y-27000D01*
X122075Y-30225D02*
X122075Y-27825D01*
X122075Y-27825D02*
X122450Y-27450D01*
X121900Y-30400D02*
X122075Y-30225D01*
X129400Y-24500D02*
X129400Y-27000D01*
X121700Y-30600D02*
X121900Y-30400D01*
X121700Y-30600D02*
X121600Y-30700D01*
X121600Y-32500D02*
X121600Y-30700D01*
X121600Y-32500D02*
X121600Y-34100D01*
X121600Y-34100D02*
X121600Y-35200D01*
X121600Y-35200D02*
X121600Y-35350D01*
X121000Y-35950D02*
X121600Y-35350D01*
X120700Y-36250D02*
X121000Y-35950D01*
X129750Y-45250D02*
X129750Y-42750D01*
X129500Y-40750D02*
X129500Y-40350D01*
X129750Y-45250D02*
X132400Y-47900D01*
X132400Y-47900D02*
X134000Y-47900D01*
X134000Y-17900D02*
X134000Y-13000D01*
X129750Y-45250D02*
X129730Y-45250D01*
X129730Y-45250D02*
X128885Y-46095D01*
X34200Y-38100D02*
X34200Y-32700D01*
X34200Y-32700D02*
X33600Y-32100D01*
X31900Y-40400D02*
X34200Y-38100D01*
X34200Y-38100D02*
X36500Y-40400D01*
X33600Y-32100D02*
X32800Y-32900D01*
X30900Y-25400D02*
X31750Y-24550D01*
X31750Y-24550D02*
X31700Y-24500D01*
X27100Y-17900D02*
X28350Y-17900D01*
X28350Y-13250D02*
X28350Y-16600D01*
X26700Y-11600D02*
X28350Y-13250D01*
X24000Y-11600D02*
X26700Y-11600D01*
X23300Y-12300D02*
X24000Y-11600D01*
X21900Y-12300D02*
X23300Y-12300D01*
X28350Y-16600D02*
X28350Y-17900D01*
X28350Y-17900D02*
X28350Y-21150D01*
X31900Y-40400D02*
X31900Y-47900D01*
X32300Y-30800D02*
X33600Y-32100D01*
X31700Y-24500D02*
X32300Y-25100D01*
X32300Y-25100D02*
X32300Y-30800D01*
X28350Y-21150D02*
X31700Y-24500D01*
X114400Y-34100D02*
X109500Y-29200D01*
X109500Y-29200D02*
X109500Y-26500D01*
X108400Y-25400D02*
X109500Y-26500D01*
X108400Y-17500D02*
X108400Y-25400D01*
X114400Y-34900D02*
X114400Y-34100D01*
X40900Y-32300D02*
X40300Y-32900D01*
X39100Y-24700D02*
X38400Y-25400D01*
X34600Y-17900D02*
X36100Y-17900D01*
X29400Y-12300D02*
X30400Y-12300D01*
X30400Y-12300D02*
X31100Y-11600D01*
X31100Y-11600D02*
X35000Y-11600D01*
X35000Y-11600D02*
X36100Y-12700D01*
X36100Y-12700D02*
X36100Y-16600D01*
X41600Y-38000D02*
X44000Y-40400D01*
X36100Y-16600D02*
X36100Y-17900D01*
X36100Y-17900D02*
X36100Y-21700D01*
X36100Y-21700D02*
X39100Y-24700D01*
X39100Y-24700D02*
X39700Y-25300D01*
X39700Y-25300D02*
X39700Y-31100D01*
X39700Y-31100D02*
X40900Y-32300D01*
X40900Y-32300D02*
X41600Y-33000D01*
X41600Y-33000D02*
X41600Y-38000D01*
X114000Y-34200D02*
X109100Y-29300D01*
X109100Y-29300D02*
X109100Y-26600D01*
X108000Y-25500D02*
X109100Y-26600D01*
X108000Y-18000D02*
X108000Y-25500D01*
X114000Y-35500D02*
X114000Y-34200D01*
X48400Y-32300D02*
X47800Y-32900D01*
X46500Y-24800D02*
X45900Y-25400D01*
X42100Y-17900D02*
X43300Y-17900D01*
X108700Y-29400D02*
X113600Y-34300D01*
X113600Y-34300D02*
X113600Y-34900D01*
X108700Y-29400D02*
X108700Y-26700D01*
X107600Y-25600D02*
X108700Y-26700D01*
X107600Y-17500D02*
X107600Y-25600D01*
X36900Y-12300D02*
X38100Y-12300D01*
X38100Y-12300D02*
X38800Y-11600D01*
X38800Y-11600D02*
X42600Y-11600D01*
X42600Y-11600D02*
X43300Y-12300D01*
X43300Y-12300D02*
X43300Y-16800D01*
X49000Y-37900D02*
X51500Y-40400D01*
X43300Y-16800D02*
X43300Y-17900D01*
X43300Y-17900D02*
X43300Y-21600D01*
X43300Y-21600D02*
X46500Y-24800D01*
X46500Y-24800D02*
X47100Y-25400D01*
X47100Y-25400D02*
X47100Y-31000D01*
X47100Y-31000D02*
X48400Y-32300D01*
X48400Y-32300D02*
X49000Y-32900D01*
X49000Y-32900D02*
X49000Y-37900D01*
X59550Y-39850D02*
X59000Y-40400D01*
X56500Y-36800D02*
X59550Y-39850D01*
X59550Y-39850D02*
X59900Y-40200D01*
X60500Y-47230D02*
X59885Y-47845D01*
X60500Y-40800D02*
X60500Y-47230D01*
X59900Y-40200D02*
X60500Y-40800D01*
X55850Y-32350D02*
X55300Y-32900D01*
X53950Y-24850D02*
X53400Y-25400D01*
X49600Y-17900D02*
X50800Y-17900D01*
X44400Y-12300D02*
X45400Y-12300D01*
X45400Y-12300D02*
X46100Y-11600D01*
X46100Y-11600D02*
X49400Y-11600D01*
X49400Y-11600D02*
X50800Y-13000D01*
X50800Y-13000D02*
X50800Y-17300D01*
X50800Y-17300D02*
X50800Y-17900D01*
X50800Y-17900D02*
X50800Y-21700D01*
X50800Y-21700D02*
X53950Y-24850D01*
X53950Y-24850D02*
X54700Y-25600D01*
X54700Y-25600D02*
X54700Y-31200D01*
X54700Y-31200D02*
X55850Y-32350D01*
X55850Y-32350D02*
X56500Y-33000D01*
X56500Y-33000D02*
X56500Y-36800D01*
X108300Y-38700D02*
X108900Y-39300D01*
X107200Y-18000D02*
X107200Y-25700D01*
X108300Y-26800D02*
X108300Y-38700D01*
X107200Y-25700D02*
X108300Y-26800D01*
X66500Y-40400D02*
X66050Y-40400D01*
X64700Y-39050D02*
X64700Y-33400D01*
X66050Y-40400D02*
X64700Y-39050D01*
X64700Y-33400D02*
X63500Y-32200D01*
X106800Y-17500D02*
X106800Y-25800D01*
X106800Y-25800D02*
X107900Y-26900D01*
X107900Y-38900D02*
X107900Y-26900D01*
X107900Y-38900D02*
X108200Y-39200D01*
X57100Y-17900D02*
X58400Y-17900D01*
X56500Y-12300D02*
X58400Y-14200D01*
X55700Y-12300D02*
X56500Y-12300D01*
X63500Y-32200D02*
X62800Y-32900D01*
X63500Y-32200D02*
X62100Y-30800D01*
X58400Y-14200D02*
X58400Y-17400D01*
X58400Y-17400D02*
X58400Y-17900D01*
X58400Y-17900D02*
X58400Y-21800D01*
X58400Y-21800D02*
X61450Y-24850D01*
X61450Y-24850D02*
X60900Y-25400D01*
X62100Y-25500D02*
X62100Y-30800D01*
X61450Y-24850D02*
X62100Y-25500D01*
X64600Y-17900D02*
X65800Y-17900D01*
X121650Y-39000D02*
X121650Y-37300D01*
X124010Y-33595D02*
X124000Y-33605D01*
X124000Y-34950D02*
X124000Y-33605D01*
X121900Y-37050D02*
X124000Y-34950D01*
X106400Y-25900D02*
X107500Y-27000D01*
X106400Y-18000D02*
X106400Y-25900D01*
X107500Y-39100D02*
X107500Y-27000D01*
X107500Y-39100D02*
X108300Y-39900D01*
X121650Y-37300D02*
X121900Y-37050D01*
X71400Y-32800D02*
X71400Y-37800D01*
X71400Y-37800D02*
X74000Y-40400D01*
X70900Y-32300D02*
X70300Y-32900D01*
X68950Y-24850D02*
X68400Y-25400D01*
X68950Y-24850D02*
X69500Y-25400D01*
X65800Y-17900D02*
X65800Y-21700D01*
X65800Y-21700D02*
X68950Y-24850D01*
X69500Y-30900D02*
X70900Y-32300D01*
X70900Y-32300D02*
X71400Y-32800D01*
X69500Y-25400D02*
X69500Y-30900D01*
X63100Y-12300D02*
X64000Y-12300D01*
X64000Y-12300D02*
X65800Y-14100D01*
X65800Y-14100D02*
X65800Y-17900D01*
X117000Y-21300D02*
X117000Y-33200D01*
X114800Y-19100D02*
X117000Y-21300D01*
X114800Y-17500D02*
X114800Y-19100D01*
X78350Y-32350D02*
X77800Y-32900D01*
X76450Y-24850D02*
X75900Y-25400D01*
X72100Y-17900D02*
X73300Y-17900D01*
X70600Y-12300D02*
X71500Y-12300D01*
X71500Y-12300D02*
X73300Y-14100D01*
X79000Y-37900D02*
X81500Y-40400D01*
X73300Y-14100D02*
X73300Y-17900D01*
X73300Y-17900D02*
X73300Y-21700D01*
X73300Y-21700D02*
X76450Y-24850D01*
X76450Y-24850D02*
X77100Y-25500D01*
X77100Y-25500D02*
X77100Y-31100D01*
X77100Y-31100D02*
X78350Y-32350D01*
X78350Y-32350D02*
X79000Y-33000D01*
X79000Y-33000D02*
X79000Y-37900D01*
X117400Y-21200D02*
X117400Y-33800D01*
X89500Y-39900D02*
X89000Y-40400D01*
X85900Y-32300D02*
X85300Y-32900D01*
X84000Y-24800D02*
X83400Y-25400D01*
X79600Y-17900D02*
X80900Y-17900D01*
X80900Y-13700D02*
X80900Y-17900D01*
X80900Y-17900D02*
X80900Y-21700D01*
X80900Y-21700D02*
X84000Y-24800D01*
X84000Y-24800D02*
X84600Y-25400D01*
X84600Y-25400D02*
X84600Y-31000D01*
X84600Y-31000D02*
X85900Y-32300D01*
X85900Y-32300D02*
X86500Y-32900D01*
X90300Y-40700D02*
X90300Y-45700D01*
X90300Y-45700D02*
X88100Y-47900D01*
X86500Y-36900D02*
X89500Y-39900D01*
X89500Y-39900D02*
X90300Y-40700D01*
X86500Y-32900D02*
X86500Y-36900D01*
X78100Y-12300D02*
X79500Y-12300D01*
X79500Y-12300D02*
X80900Y-13700D01*
X115200Y-18000D02*
X115200Y-19000D01*
X115200Y-19000D02*
X117400Y-21200D01*
G54D28*
X123010Y-33595D02*
X123010Y-32740D01*
X128400Y-17850D02*
X129260Y-16990D01*
X129260Y-16990D02*
X129260Y-15970D01*
X126800Y-31800D02*
X128400Y-30200D01*
X128400Y-30200D02*
X128400Y-17850D01*
X126300Y-32300D02*
X126800Y-31800D01*
X126100Y-32500D02*
X126300Y-32300D01*
X123250Y-32500D02*
X126100Y-32500D01*
X123010Y-32740D02*
X123250Y-32500D01*
X123010Y-33595D02*
X123010Y-34990D01*
X123010Y-34990D02*
X121150Y-36850D01*
X121150Y-40350D02*
X120650Y-40850D01*
X121150Y-40350D02*
X121150Y-36850D01*
X120325Y-45975D02*
X120525Y-45975D01*
X121100Y-45400D02*
X121100Y-45200D01*
X120525Y-45975D02*
X121100Y-45400D01*
X121100Y-44750D02*
X120650Y-44300D01*
X121100Y-45200D02*
X121100Y-44750D01*
X120650Y-43950D02*
X120650Y-44300D01*
X120325Y-45975D02*
X119883Y-45975D01*
X121450Y-43900D02*
X120650Y-43900D01*
X120650Y-43900D02*
X120650Y-43950D01*
X120650Y-43950D02*
X120650Y-43450D01*
X120650Y-43450D02*
X120650Y-42900D01*
X103200Y-35269D02*
X104069Y-35269D01*
X104069Y-35269D02*
X104350Y-35550D01*
X122450Y-42900D02*
X121450Y-42900D01*
X121450Y-42900D02*
X120650Y-42900D01*
X120650Y-40850D02*
X120650Y-42200D01*
X120650Y-42200D02*
X120650Y-42900D01*
X124600Y-42469D02*
X125800Y-42469D01*
X125869Y-42469D02*
X126800Y-43400D01*
X125800Y-42469D02*
X125869Y-42469D01*
X104350Y-35700D02*
X104350Y-40350D01*
X104350Y-35550D02*
X104350Y-35700D01*
X133200Y-16600D02*
X133200Y-15550D01*
X135300Y-29550D02*
X134500Y-30350D01*
X134500Y-30350D02*
X134500Y-32600D01*
X134400Y-19300D02*
X133200Y-18100D01*
X133200Y-18100D02*
X133200Y-16600D01*
X135300Y-28500D02*
X135300Y-29550D01*
X135300Y-28500D02*
X135300Y-20200D01*
X135300Y-20200D02*
X134400Y-19300D01*
X133200Y-15550D02*
X132850Y-15200D01*
X141010Y-32440D02*
X142700Y-30750D01*
X142700Y-27550D02*
X142700Y-30750D01*
X140700Y-25550D02*
X142050Y-26900D01*
X140700Y-24850D02*
X140700Y-25550D01*
X141650Y-23900D02*
X140700Y-24850D01*
X141650Y-22550D02*
X141650Y-23900D01*
X141300Y-22200D02*
X141650Y-22550D01*
X141300Y-21050D02*
X141300Y-22200D01*
X142000Y-20350D02*
X141300Y-21050D01*
X142000Y-19400D02*
X142000Y-20350D01*
X142050Y-26900D02*
X142700Y-27550D01*
X141010Y-33595D02*
X141010Y-32440D01*
X100550Y-41850D02*
X100550Y-46050D01*
X100550Y-46050D02*
X100900Y-46400D01*
X75000Y-38595D02*
X75000Y-42125D01*
X76150Y-43275D02*
X76150Y-54250D01*
X75000Y-42125D02*
X76150Y-43275D01*
X108600Y-47700D02*
X108600Y-54250D01*
X108600Y-47550D02*
X108600Y-47700D01*
X108600Y-47500D02*
X108600Y-46122D01*
X108600Y-47550D02*
X108600Y-47500D01*
X7800Y-46100D02*
X7800Y-53000D01*
X8400Y-53600D02*
X7800Y-53000D01*
X123269Y-45531D02*
X124600Y-45531D01*
X122300Y-46500D02*
X123269Y-45531D01*
G54D27*
X108600Y-46122D02*
X108572Y-46095D01*
G54D28*
X71700Y-31700D02*
X73600Y-33600D01*
X71700Y-31700D02*
X71700Y-31100D01*
X73600Y-37200D02*
X74995Y-38595D01*
X74995Y-38595D02*
X75000Y-38595D01*
X73600Y-33600D02*
X73600Y-37200D01*
X69600Y-24100D02*
X71700Y-26200D01*
X71700Y-26200D02*
X71700Y-31100D01*
X75000Y-38595D02*
X75760Y-38595D01*
X69600Y-24100D02*
X68000Y-22500D01*
X68000Y-22500D02*
X68000Y-13050D01*
X69850Y-11700D02*
X69350Y-11700D01*
X68000Y-13050D02*
X69350Y-11700D01*
X70105Y-23595D02*
X69600Y-24100D01*
X70105Y-23595D02*
X70135Y-23595D01*
X71700Y-31100D02*
X73880Y-31100D01*
X73880Y-31100D02*
X73885Y-31095D01*
G54D27*
X70130Y-23600D02*
X70135Y-23595D01*
G54D28*
X12947Y-38047D02*
X12700Y-37800D01*
X12700Y-37800D02*
X11000Y-37800D01*
X12947Y-38047D02*
X12947Y-38595D01*
G54D27*
X108600Y-46122D02*
X108572Y-46095D01*
X11072Y-38595D02*
X11072Y-37800D01*
X11072Y-37800D02*
X11000Y-37800D01*
G54D28*
X11000Y-37800D02*
X7800Y-37800D01*
X14822Y-46095D02*
X7800Y-46095D01*
X7800Y-46095D02*
X7800Y-46100D01*
X7800Y-37800D02*
X7800Y-46100D01*
X10135Y-23595D02*
X7800Y-23595D01*
X7800Y-23595D02*
X7800Y-23600D01*
X12010Y-31095D02*
X7800Y-31095D01*
X7800Y-31095D02*
X7800Y-31100D01*
X10135Y-12345D02*
X8755Y-12345D01*
X7800Y-13300D02*
X7800Y-23600D01*
X8755Y-12345D02*
X7800Y-13300D01*
X7800Y-23600D02*
X7800Y-31100D01*
X7800Y-31100D02*
X7800Y-37800D01*
X122300Y-47150D02*
X127100Y-47150D01*
X122300Y-53350D02*
X122300Y-47150D01*
X122300Y-47150D02*
X122300Y-47000D01*
X121850Y-53800D02*
X122300Y-53350D01*
X122300Y-47000D02*
X122300Y-46500D01*
X100550Y-41400D02*
X99500Y-40350D01*
X99500Y-41850D02*
X100550Y-41850D01*
X100550Y-41850D02*
X100550Y-41400D01*
X63300Y-20050D02*
X63200Y-19950D01*
X63200Y-14600D02*
X63450Y-14350D01*
X63200Y-19950D02*
X63200Y-14600D01*
X64400Y-21150D02*
X63300Y-20050D01*
X68125Y-28525D02*
X68000Y-28400D01*
X63450Y-14350D02*
X64000Y-13800D01*
X66950Y-27350D02*
X66950Y-24950D01*
X66950Y-24950D02*
X64400Y-22400D01*
X64400Y-22400D02*
X64400Y-21150D01*
X68000Y-28400D02*
X66950Y-27350D01*
X68125Y-34275D02*
X68125Y-28525D01*
X69950Y-36100D02*
X68125Y-34275D01*
X67100Y-47900D02*
X68750Y-46250D01*
X68650Y-40200D02*
X68750Y-40300D01*
X68750Y-40300D02*
X68750Y-46250D01*
X68650Y-40200D02*
X68250Y-39800D01*
X69950Y-37350D02*
X69950Y-36100D01*
X69450Y-37850D02*
X69950Y-37350D01*
X67850Y-37850D02*
X69450Y-37850D01*
X68250Y-39800D02*
X67400Y-38950D01*
X67400Y-38950D02*
X67400Y-38300D01*
X67400Y-38300D02*
X67850Y-37850D01*
X65400Y-38350D02*
X65400Y-38050D01*
X63635Y-30035D02*
X63635Y-23595D01*
X65400Y-38050D02*
X65400Y-31800D01*
X65400Y-31800D02*
X63635Y-30035D01*
X67725Y-40675D02*
X67650Y-40600D01*
X67650Y-40600D02*
X65400Y-38350D01*
X63100Y-47900D02*
X63800Y-47900D01*
X64800Y-46900D02*
X66000Y-46900D01*
X63800Y-47900D02*
X64800Y-46900D01*
X67650Y-45250D02*
X67725Y-45175D01*
X67725Y-45175D02*
X67725Y-40675D01*
X66250Y-46650D02*
X67650Y-45250D01*
X66000Y-46900D02*
X66200Y-46700D01*
X66200Y-46700D02*
X66250Y-46650D01*
X67385Y-31615D02*
X67385Y-31095D01*
G54D27*
X67385Y-31095D02*
X67385Y-31615D01*
G54D28*
X66100Y-32900D02*
X67385Y-31615D01*
X65900Y-33100D02*
X66050Y-32950D01*
X66050Y-32950D02*
X66100Y-32900D01*
X65900Y-38200D02*
X65900Y-33100D01*
X66050Y-38350D02*
X65900Y-38200D01*
X68150Y-40450D02*
X66050Y-38350D01*
X68225Y-40525D02*
X68150Y-40450D01*
X65100Y-47900D02*
X65850Y-47900D01*
X65850Y-47900D02*
X68225Y-45525D01*
X68225Y-45525D02*
X68225Y-40525D01*
X69100Y-47900D02*
X69600Y-47400D01*
X69600Y-46900D02*
X69260Y-46560D01*
X69600Y-47400D02*
X69600Y-46900D01*
X69260Y-38595D02*
X69260Y-46560D01*
X73010Y-46990D02*
X73010Y-46095D01*
X71100Y-47900D02*
X72100Y-47900D01*
X72100Y-47900D02*
X73010Y-46990D01*
X115905Y-53595D02*
X115197Y-53595D01*
X115905Y-53595D02*
X117375Y-52125D01*
X117375Y-52125D02*
X117375Y-49825D01*
X115250Y-47700D02*
X117375Y-49825D01*
X114400Y-47700D02*
X115250Y-47700D01*
X118500Y-19100D02*
X119700Y-20300D01*
X118500Y-17900D02*
X118500Y-19100D01*
X119900Y-20500D02*
X119900Y-22150D01*
X119800Y-20400D02*
X119900Y-20500D01*
X119700Y-20300D02*
X119800Y-20400D01*
X120300Y-22550D02*
X119900Y-22150D01*
X119600Y-17900D02*
X119600Y-19100D01*
X119600Y-19100D02*
X121050Y-20550D01*
X121050Y-20550D02*
X121050Y-20900D01*
X121050Y-29050D02*
X121050Y-20900D01*
X123100Y-13700D02*
X122500Y-14300D01*
X122500Y-14300D02*
X122500Y-15400D01*
X120700Y-17200D02*
X122500Y-15400D01*
X120700Y-17900D02*
X120700Y-17200D01*
X122150Y-39150D02*
X122150Y-38750D01*
X122150Y-38750D02*
X126010Y-34890D01*
X119883Y-45225D02*
X119883Y-42617D01*
X126010Y-34890D02*
X126010Y-33595D01*
X122150Y-41450D02*
X122150Y-39150D01*
X121850Y-41750D02*
X122150Y-41450D01*
X119883Y-42617D02*
X120150Y-42350D01*
G54D27*
X138250Y-16700D02*
X138650Y-16300D01*
X138650Y-16300D02*
X138650Y-13050D01*
X135700Y-19300D02*
X135700Y-19250D01*
X135700Y-19250D02*
X138250Y-16700D01*
X138650Y-13050D02*
X135200Y-9600D01*
X135010Y-33595D02*
X135010Y-32590D01*
X135010Y-32590D02*
X135700Y-31900D01*
X135700Y-31900D02*
X135700Y-19300D01*
X136000Y-20200D02*
X136300Y-19900D01*
X136000Y-20200D02*
X136000Y-33585D01*
X136000Y-33585D02*
X136010Y-33595D01*
X136300Y-19900D02*
X136300Y-19500D01*
X137010Y-33595D02*
X137010Y-27410D01*
X137010Y-27410D02*
X136600Y-27000D01*
X140995Y-19595D02*
X140400Y-19000D01*
X140400Y-15300D02*
X142600Y-13100D01*
X140400Y-17000D02*
X140400Y-15300D01*
X140400Y-19000D02*
X140400Y-17000D01*
X138500Y-17000D02*
X140400Y-17000D01*
X138500Y-17000D02*
X138400Y-17000D01*
X137300Y-29500D02*
X137300Y-18100D01*
X138010Y-30210D02*
X137300Y-29500D01*
X138010Y-30210D02*
X138010Y-31300D01*
X138400Y-17000D02*
X137300Y-18100D01*
X138010Y-33595D02*
X138010Y-31300D01*
X142600Y-9935D02*
X141010Y-8345D01*
X142600Y-13100D02*
X142600Y-9935D01*
X141010Y-19595D02*
X140995Y-19595D01*
X138000Y-33585D02*
X138010Y-33595D01*
X142700Y-40150D02*
X142700Y-40100D01*
X142350Y-40500D02*
X142700Y-40150D01*
X133510Y-42095D02*
X133510Y-40760D01*
X133510Y-40760D02*
X133500Y-40750D01*
X142700Y-35050D02*
X142700Y-40100D01*
X142700Y-32600D02*
X142700Y-35050D01*
X139010Y-33595D02*
X139010Y-34460D01*
X139010Y-34460D02*
X139600Y-35050D01*
X139600Y-35050D02*
X142700Y-35050D01*
X141010Y-27095D02*
X141010Y-27110D01*
X59760Y-35595D02*
X59760Y-32940D01*
X59760Y-32940D02*
X59800Y-32900D01*
G54D28*
X109150Y-52500D02*
X109150Y-52950D01*
X109600Y-46122D02*
X109572Y-46095D01*
X109600Y-47000D02*
X109600Y-46122D01*
X109150Y-47450D02*
X109150Y-52500D01*
X109600Y-47000D02*
X109150Y-47450D01*
X123010Y-45040D02*
X121750Y-46300D01*
X123010Y-44890D02*
X123010Y-45040D01*
X123010Y-39595D02*
X123010Y-44890D01*
X121750Y-51050D02*
X121750Y-46300D01*
X121750Y-51050D02*
X121000Y-51800D01*
G54D27*
X78100Y-9300D02*
X80330Y-9300D01*
X80330Y-9300D02*
X80385Y-9355D01*
X80050Y-9300D02*
X80105Y-9355D01*
G54D28*
X119250Y-43400D02*
X118550Y-43400D01*
X121000Y-46200D02*
X121900Y-45300D01*
X121900Y-45300D02*
X121900Y-45150D01*
X121900Y-45150D02*
X121900Y-44750D01*
X121900Y-44750D02*
X121900Y-44450D01*
X103200Y-38331D02*
X103200Y-40850D01*
X104350Y-48900D02*
X104350Y-45881D01*
X104350Y-42000D02*
X104350Y-45881D01*
X103200Y-40850D02*
X104350Y-42000D01*
X111900Y-49250D02*
X113000Y-48150D01*
X104650Y-49200D02*
X104350Y-48900D01*
X121000Y-47800D02*
X121000Y-46200D01*
X126800Y-45400D02*
X125250Y-43850D01*
X121450Y-43400D02*
X122200Y-43400D01*
X112100Y-44450D02*
X112550Y-44000D01*
X112550Y-40550D02*
X112100Y-40100D01*
X112550Y-44000D02*
X112550Y-40550D01*
X111447Y-39447D02*
X111447Y-38595D01*
X111700Y-44850D02*
X112100Y-44450D01*
X112100Y-40100D02*
X111447Y-39447D01*
X111200Y-43000D02*
X111350Y-43000D01*
X109900Y-43000D02*
X109800Y-43000D01*
X111200Y-43000D02*
X109900Y-43000D01*
X109800Y-43000D02*
X108650Y-41850D01*
X107550Y-41850D02*
X108650Y-41850D01*
X111350Y-43000D02*
X111900Y-43550D01*
X119250Y-43900D02*
X117700Y-43900D01*
X121450Y-42400D02*
X122200Y-42400D01*
X140500Y-44200D02*
X140500Y-45850D01*
X137850Y-42775D02*
X137925Y-42775D01*
X138550Y-42149D02*
X138750Y-42149D01*
X137925Y-42775D02*
X138550Y-42149D01*
X136925Y-42775D02*
X137850Y-42775D01*
X136150Y-42000D02*
X136925Y-42775D01*
X117300Y-41600D02*
X117300Y-41700D01*
X140500Y-42149D02*
X138750Y-42149D01*
X117825Y-42900D02*
X119250Y-42900D01*
X117300Y-41700D02*
X117300Y-42375D01*
X117300Y-42375D02*
X117825Y-42900D01*
X117300Y-39950D02*
X117300Y-41700D01*
X120300Y-39950D02*
X119250Y-41000D01*
X119250Y-41000D02*
X119250Y-42400D01*
G54D27*
X20385Y-28095D02*
X20385Y-25415D01*
X20385Y-25415D02*
X20400Y-25400D01*
X76600Y-17900D02*
X76600Y-20560D01*
X76600Y-20560D02*
X76635Y-20595D01*
X10600Y-8600D02*
X11300Y-9300D01*
X11300Y-9300D02*
X14400Y-9300D01*
X9135Y-9345D02*
X9155Y-9345D01*
X9900Y-8600D02*
X10600Y-8600D01*
X9155Y-9345D02*
X9900Y-8600D01*
X9135Y-9355D02*
X9345Y-9355D01*
X16635Y-20595D02*
X16635Y-17935D01*
X16635Y-17935D02*
X16600Y-17900D01*
X11947Y-35595D02*
X11947Y-35447D01*
X10700Y-34200D02*
X10072Y-34200D01*
X11947Y-35447D02*
X10700Y-34200D01*
X10072Y-35595D02*
X10072Y-34200D01*
X10072Y-34200D02*
X10072Y-32927D01*
X10072Y-32927D02*
X10100Y-32900D01*
X13822Y-43095D02*
X13822Y-40422D01*
X13822Y-40422D02*
X13800Y-40400D01*
X80385Y-28095D02*
X80385Y-25415D01*
X80385Y-25415D02*
X80400Y-25400D01*
X74760Y-35595D02*
X74760Y-32940D01*
X74760Y-32940D02*
X74800Y-32900D01*
X22260Y-35595D02*
X22260Y-32940D01*
X22260Y-32940D02*
X22300Y-32900D01*
X26010Y-43095D02*
X26010Y-40410D01*
X26010Y-40410D02*
X26000Y-40400D01*
X19447Y-50595D02*
X19447Y-47952D01*
X19447Y-47952D02*
X19500Y-47900D01*
X69100Y-17900D02*
X69100Y-20560D01*
X69100Y-20560D02*
X69135Y-20595D01*
X10072Y-50595D02*
X10072Y-47927D01*
X10072Y-47927D02*
X10100Y-47900D01*
X24135Y-20595D02*
X24135Y-17935D01*
X24135Y-17935D02*
X24100Y-17900D01*
X27885Y-28095D02*
X27885Y-25415D01*
X27885Y-25415D02*
X27900Y-25400D01*
X72885Y-28095D02*
X72885Y-25415D01*
X72885Y-25415D02*
X72900Y-25400D01*
X67260Y-35595D02*
X67260Y-32940D01*
X67260Y-32940D02*
X67300Y-32900D01*
G54D28*
X115950Y-44750D02*
X118167Y-44750D01*
X118167Y-44750D02*
X119017Y-45600D01*
X121150Y-34850D02*
X121150Y-35050D01*
X122400Y-20050D02*
X122550Y-19900D01*
X121550Y-20900D02*
X122400Y-20050D01*
X122550Y-19900D02*
X122550Y-16850D01*
X121400Y-30300D02*
X121550Y-30150D01*
X121550Y-30150D02*
X121550Y-20900D01*
X121250Y-30450D02*
X121400Y-30300D01*
X121250Y-30450D02*
X121150Y-30550D01*
X121150Y-34850D02*
X121150Y-34800D01*
X121150Y-30550D02*
X121150Y-33950D01*
X121150Y-34800D02*
X121150Y-33950D01*
X112400Y-47700D02*
X111875Y-48225D01*
X112400Y-47700D02*
X113850Y-46250D01*
X115950Y-40250D02*
X115950Y-44750D01*
X121150Y-35050D02*
X115950Y-40250D01*
X111400Y-47700D02*
X111400Y-47750D01*
X111400Y-47750D02*
X111875Y-48225D01*
X111875Y-48225D02*
X111000Y-49100D01*
X111000Y-51500D02*
X110550Y-51950D01*
X111000Y-49100D02*
X111000Y-51500D01*
X99650Y-44650D02*
X99650Y-44550D01*
X99650Y-45250D02*
X99650Y-44650D01*
X99650Y-44550D02*
X98800Y-43700D01*
X99650Y-52800D02*
X99650Y-45250D01*
G54D27*
X71010Y-43095D02*
X71010Y-40410D01*
X71010Y-40410D02*
X71000Y-40400D01*
X39100Y-20560D02*
X39135Y-20595D01*
X39100Y-17900D02*
X39100Y-20560D01*
X61600Y-20560D02*
X61635Y-20595D01*
X61600Y-17900D02*
X61600Y-20560D01*
X28900Y-47900D02*
X28900Y-50517D01*
X28900Y-50517D02*
X28822Y-50595D01*
X9135Y-20595D02*
X9135Y-17935D01*
X9135Y-17935D02*
X9100Y-17900D01*
X42885Y-28095D02*
X42885Y-25415D01*
X42885Y-25415D02*
X42900Y-25400D01*
X37260Y-35595D02*
X37260Y-32940D01*
X37260Y-32940D02*
X37300Y-32900D01*
X29760Y-35595D02*
X29760Y-32940D01*
X29760Y-32940D02*
X29800Y-32900D01*
X31600Y-20560D02*
X31635Y-20595D01*
X31600Y-17900D02*
X31600Y-20560D01*
X35385Y-28095D02*
X35385Y-25415D01*
X35385Y-25415D02*
X35400Y-25400D01*
X33510Y-43095D02*
X33510Y-40410D01*
X33510Y-40410D02*
X33500Y-40400D01*
X44760Y-35595D02*
X44760Y-32940D01*
X44760Y-32940D02*
X44800Y-32900D01*
X48510Y-43095D02*
X48510Y-40410D01*
X48510Y-40410D02*
X48500Y-40400D01*
X65385Y-28095D02*
X65385Y-25415D01*
X65385Y-25415D02*
X65400Y-25400D01*
X54100Y-20560D02*
X54135Y-20595D01*
X54100Y-17900D02*
X54100Y-20560D01*
X41010Y-43095D02*
X41010Y-40410D01*
X41010Y-40410D02*
X41000Y-40400D01*
X46600Y-20560D02*
X46635Y-20595D01*
X46600Y-17900D02*
X46600Y-20560D01*
X50385Y-28095D02*
X50385Y-25415D01*
X50385Y-25415D02*
X50400Y-25400D01*
X109447Y-33997D02*
X109447Y-35595D01*
X108750Y-33300D02*
X109447Y-33997D01*
X123510Y-20595D02*
X123510Y-17910D01*
X123510Y-17910D02*
X123500Y-17900D01*
X123510Y-28095D02*
X123510Y-25410D01*
X123510Y-25410D02*
X123500Y-25400D01*
X123510Y-50595D02*
X123510Y-47910D01*
X123510Y-47910D02*
X123500Y-47900D01*
X110300Y-17900D02*
X110300Y-20510D01*
X110300Y-20510D02*
X110385Y-20595D01*
X63510Y-43095D02*
X63510Y-40410D01*
X63510Y-40410D02*
X63500Y-40400D01*
X112260Y-28095D02*
X112260Y-25460D01*
X112260Y-25460D02*
X112200Y-25400D01*
X138500Y-17900D02*
X138500Y-20585D01*
X138500Y-20585D02*
X138510Y-20595D01*
X138500Y-25400D02*
X138500Y-28085D01*
X138500Y-28085D02*
X138510Y-28095D01*
X138510Y-50595D02*
X138510Y-47910D01*
X138510Y-47910D02*
X138500Y-47900D01*
X11010Y-28095D02*
X11010Y-25410D01*
X11010Y-25410D02*
X11000Y-25400D01*
X131010Y-20595D02*
X131010Y-17910D01*
X131010Y-17910D02*
X131000Y-17900D01*
X97260Y-35595D02*
X97260Y-32940D01*
X97260Y-32940D02*
X97300Y-32900D01*
X131010Y-28095D02*
X131010Y-25410D01*
X131010Y-25410D02*
X131000Y-25400D01*
X131010Y-50595D02*
X131010Y-47910D01*
X131010Y-47910D02*
X131000Y-47900D01*
X82260Y-35595D02*
X82260Y-32940D01*
X82260Y-32940D02*
X82300Y-32900D01*
X86010Y-43095D02*
X86010Y-40410D01*
X86010Y-40410D02*
X86000Y-40400D01*
X57885Y-28095D02*
X57885Y-25415D01*
X57885Y-25415D02*
X57900Y-25400D01*
X87885Y-28095D02*
X87885Y-25415D01*
X87885Y-25415D02*
X87900Y-25400D01*
X85072Y-50595D02*
X85072Y-47927D01*
X85072Y-47927D02*
X85100Y-47900D01*
X78510Y-43095D02*
X78510Y-40410D01*
X78510Y-40410D02*
X78500Y-40400D01*
X56885Y-47845D02*
X56885Y-50532D01*
X56885Y-50532D02*
X56947Y-50595D01*
X84100Y-17900D02*
X84100Y-20560D01*
X84100Y-20560D02*
X84135Y-20595D01*
X99200Y-17900D02*
X99200Y-20530D01*
X99200Y-20530D02*
X99135Y-20595D01*
X94447Y-50595D02*
X94447Y-47947D01*
X94447Y-47947D02*
X94400Y-47900D01*
X52260Y-35595D02*
X52260Y-32940D01*
X52260Y-32940D02*
X52300Y-32900D01*
X102885Y-28095D02*
X102885Y-25885D01*
X102400Y-25400D02*
X101400Y-25400D01*
X102885Y-25885D02*
X102400Y-25400D01*
X91600Y-17900D02*
X91600Y-20560D01*
X91600Y-20560D02*
X91635Y-20595D01*
X95385Y-28095D02*
X95385Y-25415D01*
X95385Y-25415D02*
X95400Y-25400D01*
X89760Y-35595D02*
X89760Y-32940D01*
X89760Y-32940D02*
X89800Y-32900D01*
X93510Y-43095D02*
X93510Y-40410D01*
X93510Y-40410D02*
X93500Y-40400D01*
X56010Y-43095D02*
X56010Y-40410D01*
X56010Y-40410D02*
X56000Y-40400D01*
G54D28*
X115400Y-45050D02*
X115400Y-40000D01*
X115800Y-45450D02*
X115850Y-45450D01*
X115850Y-45450D02*
X117150Y-45450D01*
X115400Y-45050D02*
X115800Y-45450D01*
X115600Y-39800D02*
X115400Y-40000D01*
X116500Y-38900D02*
X116500Y-34300D01*
X116500Y-33800D02*
X116500Y-34300D01*
X115650Y-39750D02*
X116500Y-38900D01*
X115600Y-39800D02*
X115650Y-39750D01*
X117150Y-45450D02*
X118400Y-46700D01*
X141200Y-28500D02*
X141200Y-31000D01*
X139500Y-26800D02*
X139500Y-23605D01*
X139500Y-23605D02*
X139510Y-23595D01*
X141200Y-28500D02*
X139500Y-26800D01*
X141200Y-31000D02*
X141105Y-31095D01*
X141105Y-31095D02*
X140510Y-31095D01*
X136300Y-52900D02*
X140400Y-52900D01*
X135500Y-52100D02*
X136300Y-52900D01*
X135500Y-52100D02*
X135500Y-48300D01*
X135500Y-48300D02*
X134400Y-47200D01*
X132010Y-46650D02*
X132010Y-46660D01*
X134392Y-47192D02*
X134400Y-47200D01*
X132010Y-46650D02*
X132010Y-46095D01*
X140510Y-53595D02*
X140510Y-53010D01*
X140400Y-52900D02*
X140510Y-53010D01*
X132010Y-46660D02*
X132400Y-47050D01*
X132400Y-47050D02*
X134250Y-47050D01*
X134250Y-47050D02*
X134392Y-47192D01*
X135760Y-15970D02*
X135120Y-15970D01*
X134750Y-15600D02*
X134750Y-14900D01*
X135120Y-15970D02*
X134750Y-15600D01*
X128260Y-15970D02*
X127620Y-15970D01*
X127250Y-15600D02*
X127250Y-14900D01*
X127620Y-15970D02*
X127250Y-15600D01*
M02*
