M48
;DRILL file {Pcbnew (2013-04-19 BZR 4011)-stable} date 14/07/2013 10:02:50 PM
;FORMAT={-:-/ absolute / inch / decimal}
FMAT,2
INCH,TZ
T1C0.025
T2C0.030
T3C0.032
T4C0.032
T5C0.035
T6C0.040
T7C0.059
%
G90
G05
M72
T1
X0.84Y-5.36
X1.28Y-1.52
X2.04Y-1.65
X2.835Y-1.66
X3.61Y-1.66
X4.33Y-1.68
X5.08Y-1.73
X5.84Y-1.74
X6.4Y-1.38
X6.58Y-1.79
X6.985Y-1.17
X7.33Y-1.41
X7.615Y-5.425
X8.09Y-1.37
X8.84Y-1.39
X9.59Y-1.37
X9.965Y-5.28
X10.09Y-4.64
X10.435Y-4.035
X10.44Y-1.33
X10.465Y-4.92
X10.64Y-1.33
X10.64Y-1.8
X10.68Y-1.75
X10.72Y-1.8
X10.735Y-4.655
X10.74Y-4.59
X10.755Y-4.185
X10.76Y-1.75
X10.8Y-1.8
X10.82Y-3.92
X10.83Y-3.99
X10.84Y-1.75
X10.86Y-4.77
X10.86Y-5.425
X10.875Y-3.33
X10.88Y-1.8
X10.89Y-3.93
X10.915Y-5.295
X10.92Y-1.75
X11.055Y-5.195
X11.17Y-4.485
X11.19Y-1.33
X11.19Y-4.355
X11.19Y-4.925
X11.3Y-4.815
X11.36Y-3.49
X11.385Y-4.625
X11.4Y-3.55
X11.44Y-3.49
X11.48Y-1.75
X11.48Y-3.55
X11.52Y-1.8
X11.52Y-3.49
X11.56Y-1.75
X11.56Y-3.17
X11.595Y-4.475
X11.6Y-1.8
X11.64Y-1.75
X11.65Y-3.38
X11.68Y-1.8
X11.7Y-3.32
X11.72Y-1.75
X11.73Y-4.16
X11.74Y-3.38
X11.77Y-4.39
X11.78Y-3.32
X11.8Y-4.935
X11.82Y-3.38
X11.84Y-4.67
X11.855Y-4.34
X11.86Y-3.32
X11.86Y-4.77
X11.9Y-3.38
X11.94Y-3.32
X12.015Y-4.235
X12.03Y-2.255
X12.065Y-4.085
X12.07Y-3.94
X12.105Y-2.905
X12.165Y-3.9
X12.185Y-4.175
X12.185Y-5.38
X12.19Y-4.445
X12.22Y-4.24
X12.22Y-4.34
X12.245Y-2.745
X12.245Y-4.29
X12.255Y-1.685
X12.31Y-1.37
X12.525Y-4.385
X12.65Y-1.41
X12.71Y-4.715
X12.9Y-2.745
X12.94Y-2.45
X12.95Y-4.035
X13.105Y-1.3
X13.285Y-1.52
X13.35Y-4.075
X13.4Y-1.3
X13.45Y-3.26
X13.52Y-0.96
X13.63Y-1.95
X13.66Y-2.7
X13.801Y-3.13
X14.01Y-4.93
X14.05Y-4.42
X14.2Y-1.46
X14.2Y-1.94
X14.235Y-4.05
X14.27Y-3.26
T2
X12.1Y-4.78
X12.1Y-5.18
T3
X12.68Y-4.34
X12.68Y-4.54
T4
X0.91Y-1.79
X1.01Y-3.29
X1.01Y-4.79
X1.0135Y-1.2345
X1.0135Y-2.3595
X1.1Y-2.54
X1.1073Y-3.8595
X1.1073Y-5.3595
X1.1135Y-1.2345
X1.1135Y-2.3595
X1.201Y-3.1095
X1.2072Y-3.8595
X1.2072Y-5.3595
X1.21Y-1.79
X1.2948Y-3.8595
X1.301Y-3.1095
X1.31Y-3.29
X1.31Y-4.79
X1.38Y-4.04
X1.3947Y-3.8595
X1.4Y-2.54
X1.44Y-0.93
X1.44Y-1.23
X1.4823Y-4.6095
X1.5822Y-4.6095
X1.66Y-1.79
X1.68Y-4.04
X1.7635Y-2.3595
X1.8635Y-2.3595
X1.95Y-4.79
X1.96Y-1.79
X2.04Y-2.54
X2.0448Y-5.3595
X2.1385Y-3.1095
X2.1448Y-5.3595
X2.19Y-0.93
X2.19Y-1.23
X2.23Y-3.29
X2.2385Y-3.1095
X2.25Y-4.79
X2.326Y-3.8595
X2.34Y-2.54
X2.41Y-1.79
X2.426Y-3.8595
X2.5135Y-1.2345
X2.5135Y-2.3595
X2.53Y-3.29
X2.6Y-4.04
X2.6135Y-1.2345
X2.6135Y-2.3595
X2.701Y-4.6095
X2.71Y-1.79
X2.79Y-2.54
X2.801Y-4.6095
X2.8885Y-3.1095
X2.89Y-4.79
X2.9Y-4.04
X2.94Y-0.93
X2.94Y-1.23
X2.98Y-3.29
X2.9823Y-5.3595
X2.9885Y-3.1095
X3.076Y-3.8595
X3.0822Y-5.3595
X3.09Y-2.54
X3.16Y-1.79
X3.176Y-3.8595
X3.19Y-4.79
X3.2635Y-1.2345
X3.2635Y-2.3595
X3.28Y-3.29
X3.35Y-4.04
X3.3635Y-1.2345
X3.3635Y-2.3595
X3.451Y-4.6095
X3.46Y-1.79
X3.54Y-2.54
X3.551Y-4.6095
X3.6385Y-3.1095
X3.65Y-4.04
X3.69Y-0.93
X3.69Y-1.23
X3.73Y-3.29
X3.7385Y-3.1095
X3.826Y-3.8595
X3.84Y-2.54
X3.91Y-1.79
X3.926Y-3.8595
X4.0135Y-1.2345
X4.0135Y-2.3595
X4.03Y-3.29
X4.1Y-4.04
X4.1135Y-1.2345
X4.1135Y-2.3595
X4.201Y-4.6095
X4.21Y-1.79
X4.29Y-2.54
X4.301Y-4.6095
X4.3885Y-3.1095
X4.4Y-4.04
X4.44Y-0.93
X4.44Y-1.23
X4.48Y-3.29
X4.4885Y-3.1095
X4.576Y-3.8595
X4.59Y-2.54
X4.66Y-1.79
X4.676Y-3.8595
X4.7635Y-1.2345
X4.7635Y-2.3595
X4.78Y-3.29
X4.85Y-4.04
X4.8635Y-1.2345
X4.8635Y-2.3595
X4.951Y-4.6095
X4.96Y-1.79
X5.04Y-2.54
X5.051Y-4.6095
X5.1385Y-3.1095
X5.15Y-4.04
X5.23Y-3.29
X5.2385Y-3.1095
X5.326Y-3.8595
X5.34Y-2.54
X5.41Y-1.79
X5.426Y-3.8595
X5.5135Y-2.3595
X5.53Y-3.29
X5.57Y-0.93
X5.57Y-1.23
X5.6Y-4.04
X5.6135Y-2.3595
X5.6885Y-4.7845
X5.701Y-4.6095
X5.71Y-1.79
X5.79Y-2.54
X5.7947Y-5.3595
X5.801Y-4.6095
X5.8885Y-1.2345
X5.8885Y-3.1095
X5.8948Y-5.3595
X5.9Y-4.04
X5.98Y-3.29
X5.9885Y-1.2345
X5.9885Y-3.1095
X5.9885Y-4.7845
X6.076Y-3.8595
X6.09Y-2.54
X6.16Y-1.79
X6.176Y-3.8595
X6.2635Y-2.3595
X6.28Y-3.29
X6.31Y-0.93
X6.31Y-1.23
X6.31Y-4.79
X6.31Y-5.09
X6.35Y-4.04
X6.3635Y-2.3595
X6.451Y-4.6095
X6.46Y-1.79
X6.51Y-4.79
X6.51Y-5.09
X6.54Y-2.54
X6.551Y-4.6095
X6.6385Y-1.2345
X6.6385Y-3.1095
X6.65Y-4.04
X6.71Y-4.79
X6.71Y-5.09
X6.73Y-3.29
X6.7385Y-1.2345
X6.7385Y-3.1095
X6.826Y-3.8595
X6.84Y-2.54
X6.91Y-1.79
X6.91Y-4.79
X6.91Y-5.09
X6.926Y-3.8595
X7.0135Y-2.3595
X7.03Y-3.29
X7.06Y-0.93
X7.06Y-1.23
X7.1Y-4.04
X7.11Y-4.79
X7.11Y-5.09
X7.1135Y-2.3595
X7.201Y-4.6095
X7.21Y-1.79
X7.29Y-2.54
X7.301Y-4.6095
X7.372Y-0.682
X7.3885Y-1.2345
X7.3885Y-3.1095
X7.4Y-4.04
X7.452Y-0.732
X7.48Y-3.29
X7.4885Y-1.2345
X7.4885Y-3.1095
X7.532Y-0.682
X7.576Y-3.8595
X7.59Y-2.54
X7.612Y-0.732
X7.66Y-1.79
X7.676Y-3.8595
X7.692Y-0.682
X7.7635Y-2.3595
X7.78Y-3.29
X7.81Y-0.93
X7.81Y-1.23
X7.85Y-4.04
X7.8635Y-2.3595
X7.951Y-4.6095
X7.96Y-1.79
X8.04Y-2.54
X8.051Y-4.6095
X8.1385Y-1.2345
X8.1385Y-3.1095
X8.15Y-4.04
X8.23Y-3.29
X8.2385Y-1.2345
X8.2385Y-3.1095
X8.326Y-3.8595
X8.34Y-2.54
X8.41Y-1.79
X8.426Y-3.8595
X8.51Y-4.79
X8.5135Y-2.3595
X8.53Y-3.29
X8.6Y-4.04
X8.6073Y-5.3595
X8.6135Y-2.3595
X8.701Y-4.6095
X8.7073Y-5.3595
X8.71Y-1.79
X8.79Y-2.54
X8.801Y-4.6095
X8.81Y-4.79
X8.8885Y-3.1095
X8.9Y-4.04
X8.94Y-0.93
X8.94Y-1.23
X8.98Y-3.29
X8.9885Y-3.1095
X9.076Y-3.8595
X9.09Y-2.54
X9.16Y-1.79
X9.176Y-3.8595
X9.2635Y-1.2345
X9.2635Y-2.3595
X9.28Y-3.29
X9.35Y-4.04
X9.3635Y-1.2345
X9.3635Y-2.3595
X9.44Y-4.79
X9.451Y-4.6095
X9.46Y-1.79
X9.54Y-2.54
X9.5448Y-5.3595
X9.551Y-4.6095
X9.6385Y-3.1095
X9.6448Y-5.3595
X9.65Y-4.04
X9.69Y-0.93
X9.69Y-1.23
X9.73Y-3.29
X9.7385Y-3.1095
X9.74Y-4.79
X9.826Y-3.8595
X9.84Y-2.54
X9.88Y-4.37
X9.88Y-4.67
X9.92Y-1.79
X9.926Y-3.8595
X9.95Y-4.035
X9.95Y-4.185
X10.0135Y-1.2345
X10.0135Y-2.3595
X10.03Y-3.29
X10.0635Y-4.7595
X10.0635Y-5.0595
X10.1135Y-1.2345
X10.1135Y-2.3595
X10.14Y-2.54
X10.22Y-1.79
X10.25Y-4.035
X10.25Y-4.185
X10.3885Y-3.1095
X10.44Y-0.93
X10.44Y-1.23
X10.44Y-2.54
X10.4823Y-5.3595
X10.4885Y-3.1095
X10.5823Y-5.3595
X10.64Y-3.28
X10.7635Y-1.2345
X10.8573Y-4.6095
X10.8635Y-1.2345
X10.94Y-3.28
X10.9573Y-4.6095
X11.03Y-1.79
X11.0448Y-3.8595
X11.1385Y-2.3595
X11.14Y-4.77
X11.1448Y-3.8595
X11.19Y-0.93
X11.19Y-1.23
X11.22Y-2.54
X11.2385Y-2.3595
X11.326Y-3.1095
X11.33Y-1.79
X11.4198Y-5.3595
X11.426Y-3.1095
X11.44Y-4.77
X11.5135Y-1.2345
X11.5198Y-5.3595
X11.52Y-2.54
X11.6135Y-1.2345
X11.67Y-4.31
X11.67Y-4.61
X11.73Y-3.995
X11.85Y-1.49
X11.85Y-1.79
X11.86Y-5.07
X11.86Y-5.37
X11.96Y-1.49
X11.96Y-1.79
X12.03Y-3.995
X12.07Y-1.49
X12.07Y-1.79
X12.13Y-0.93
X12.13Y-1.23
X12.18Y-1.49
X12.18Y-1.79
X12.35Y-1.79
X12.35Y-2.54
X12.35Y-4.79
X12.451Y-1.2345
X12.451Y-2.3595
X12.451Y-3.1095
X12.451Y-5.3595
X12.551Y-1.2345
X12.551Y-2.3595
X12.551Y-3.1095
X12.551Y-5.3595
X12.65Y-1.79
X12.65Y-2.54
X12.65Y-4.79
X12.725Y-1.49
X12.826Y-1.597
X12.87Y-0.93
X12.87Y-1.23
X12.8885Y-4.3095
X12.8885Y-4.6095
X12.926Y-1.597
X13.025Y-1.49
X13.1Y-1.79
X13.1Y-2.54
X13.1Y-4.79
X13.201Y-1.2345
X13.201Y-2.3595
X13.201Y-3.1095
X13.201Y-4.6095
X13.201Y-5.3595
X13.301Y-1.2345
X13.301Y-2.3595
X13.301Y-3.1095
X13.301Y-4.6095
X13.301Y-5.3595
X13.4Y-1.79
X13.4Y-2.54
X13.4Y-4.79
X13.475Y-1.49
X13.576Y-1.597
X13.615Y-4.2
X13.615Y-4.6
X13.63Y-0.93
X13.63Y-1.23
X13.676Y-1.597
X13.775Y-1.49
X13.85Y-1.79
X13.85Y-2.54
X13.85Y-4.79
X13.951Y-1.2345
X13.951Y-2.3595
X13.951Y-3.1095
X13.951Y-5.3595
X14.051Y-1.2345
X14.051Y-2.3595
X14.051Y-3.1095
X14.051Y-5.3595
X14.15Y-1.79
X14.15Y-2.54
X14.15Y-4.79
T5
X13.745Y-4.2
X13.745Y-4.6
T6
X12.301Y-3.3595
X12.301Y-3.9595
X12.401Y-3.3595
X12.401Y-3.9595
X12.501Y-3.3595
X12.501Y-3.9595
X12.601Y-3.3595
X12.601Y-3.9595
X12.701Y-3.3595
X12.701Y-3.9595
X12.801Y-3.3595
X12.801Y-3.9595
X12.901Y-3.3595
X12.901Y-3.9595
X13.001Y-3.3595
X13.001Y-3.9595
X13.101Y-3.3595
X13.101Y-3.9595
X13.201Y-3.3595
X13.201Y-3.9595
X13.301Y-3.3595
X13.301Y-3.9595
X13.401Y-3.3595
X13.401Y-3.9595
X13.501Y-3.3595
X13.501Y-3.9595
X13.601Y-3.3595
X13.601Y-3.9595
X13.701Y-3.3595
X13.701Y-3.9595
X13.801Y-3.3595
X13.801Y-3.9595
X13.901Y-3.3595
X13.901Y-3.9595
X14.001Y-3.3595
X14.001Y-3.9595
X14.101Y-3.3595
X14.101Y-3.9595
X14.201Y-3.3595
X14.201Y-3.9595
T7
X0.9135Y-0.9345
X0.9135Y-2.0595
X1.0072Y-3.5595
X1.0072Y-5.0595
X1.101Y-2.8095
X1.1635Y-0.8345
X1.1635Y-1.9595
X1.1947Y-3.5595
X1.2572Y-3.4595
X1.2572Y-4.9595
X1.351Y-2.7095
X1.3822Y-4.3095
X1.4447Y-3.4595
X1.6322Y-4.2095
X1.6635Y-2.0595
X1.9135Y-1.9595
X1.9447Y-5.0595
X2.0385Y-2.8095
X2.1947Y-4.9595
X2.226Y-3.5595
X2.2885Y-2.7095
X2.4135Y-0.9345
X2.4135Y-2.0595
X2.476Y-3.4595
X2.601Y-4.3095
X2.6635Y-0.8345
X2.6635Y-1.9595
X2.7885Y-2.8095
X2.851Y-4.2095
X2.8822Y-5.0595
X2.976Y-3.5595
X3.0385Y-2.7095
X3.1322Y-4.9595
X3.1635Y-0.9345
X3.1635Y-2.0595
X3.226Y-3.4595
X3.351Y-4.3095
X3.4135Y-0.8345
X3.4135Y-1.9595
X3.5385Y-2.8095
X3.601Y-4.2095
X3.726Y-3.5595
X3.7885Y-2.7095
X3.9135Y-0.9345
X3.9135Y-2.0595
X3.976Y-3.4595
X4.101Y-4.3095
X4.1635Y-0.8345
X4.1635Y-1.9595
X4.2885Y-2.8095
X4.351Y-4.2095
X4.476Y-3.5595
X4.5385Y-2.7095
X4.6635Y-0.9345
X4.6635Y-2.0595
X4.726Y-3.4595
X4.851Y-4.3095
X4.9135Y-0.8345
X4.9135Y-1.9595
X5.0385Y-2.8095
X5.101Y-4.2095
X5.226Y-3.5595
X5.2885Y-2.7095
X5.4135Y-2.0595
X5.476Y-3.4595
X5.601Y-4.3095
X5.6635Y-1.9595
X5.6947Y-5.0595
X5.7885Y-0.9345
X5.7885Y-2.8095
X5.851Y-4.2095
X5.9447Y-4.9595
X5.976Y-3.5595
X6.0385Y-0.8345
X6.0385Y-2.7095
X6.1635Y-2.0595
X6.226Y-3.4595
X6.351Y-4.3095
X6.4135Y-1.9595
X6.5385Y-0.9345
X6.5385Y-2.8095
X6.601Y-4.2095
X6.726Y-3.5595
X6.7885Y-0.8345
X6.7885Y-2.7095
X6.9135Y-2.0595
X6.976Y-3.4595
X7.101Y-4.3095
X7.1635Y-1.9595
X7.2885Y-0.9345
X7.2885Y-2.8095
X7.351Y-4.2095
X7.476Y-3.5595
X7.5385Y-0.8345
X7.5385Y-2.7095
X7.6635Y-2.0595
X7.726Y-3.4595
X7.851Y-4.3095
X7.9135Y-1.9595
X8.0385Y-0.9345
X8.0385Y-2.8095
X8.101Y-4.2095
X8.226Y-3.5595
X8.2885Y-0.8345
X8.2885Y-2.7095
X8.4135Y-2.0595
X8.476Y-3.4595
X8.5072Y-5.0595
X8.601Y-4.3095
X8.6635Y-1.9595
X8.7572Y-4.9595
X8.7885Y-2.8095
X8.851Y-4.2095
X8.976Y-3.5595
X9.0385Y-2.7095
X9.1635Y-0.9345
X9.1635Y-2.0595
X9.226Y-3.4595
X9.351Y-4.3095
X9.4135Y-0.8345
X9.4135Y-1.9595
X9.4447Y-5.0595
X9.5385Y-2.8095
X9.601Y-4.2095
X9.6947Y-4.9595
X9.726Y-3.5595
X9.7885Y-2.7095
X9.9135Y-0.9345
X9.9135Y-2.0595
X9.976Y-3.4595
X10.1635Y-0.8345
X10.1635Y-1.9595
X10.2885Y-2.8095
X10.3822Y-5.0595
X10.5385Y-2.7095
X10.6322Y-4.9595
X10.6635Y-0.9345
X10.7572Y-4.3095
X10.9135Y-0.8345
X10.9447Y-3.5595
X11.0072Y-4.2095
X11.0385Y-2.0595
X11.1947Y-3.4595
X11.226Y-2.8095
X11.2885Y-1.9595
X11.3197Y-5.0595
X11.4135Y-0.9345
X11.476Y-2.7095
X11.5697Y-4.9595
X11.6635Y-0.8345
X12.351Y-0.9345
X12.351Y-2.0595
X12.351Y-2.8095
X12.351Y-5.0595
X12.601Y-0.8345
X12.601Y-1.9595
X12.601Y-2.7095
X12.601Y-4.9595
X13.101Y-0.9345
X13.101Y-2.0595
X13.101Y-2.8095
X13.101Y-4.3095
X13.101Y-5.0595
X13.351Y-0.8345
X13.351Y-1.9595
X13.351Y-2.7095
X13.351Y-4.2095
X13.351Y-4.9595
X13.851Y-0.9345
X13.851Y-2.0595
X13.851Y-2.8095
X13.851Y-5.0595
X14.101Y-0.8345
X14.101Y-1.9595
X14.101Y-2.7095
X14.101Y-4.9595
T0
M30
