G04 (created by PCBNEW (2013-04-19 BZR 4011)-stable) date 14/07/2013 10:02:36 PM*
%MOIN*%
G04 Gerber Fmt 3.4, Leading zero omitted, Abs format*
%FSLAX34Y34*%
G01*
G70*
G90*
G04 APERTURE LIST*
%ADD10C,0*%
%ADD11C,0.007*%
%ADD12C,0.015*%
%ADD13C,0.01*%
%ADD14C,0.006*%
%ADD15C,0.012*%
G04 APERTURE END LIST*
G54D10*
G54D11*
X135700Y-17461D02*
X135509Y-17461D01*
X135509Y-17061D01*
X135833Y-17252D02*
X135966Y-17252D01*
X136023Y-17461D02*
X135833Y-17461D01*
X135833Y-17061D01*
X136023Y-17061D01*
X136195Y-17461D02*
X136195Y-17061D01*
X136290Y-17061D01*
X136347Y-17080D01*
X136385Y-17119D01*
X136404Y-17157D01*
X136423Y-17233D01*
X136423Y-17290D01*
X136404Y-17366D01*
X136385Y-17404D01*
X136347Y-17442D01*
X136290Y-17461D01*
X136195Y-17461D01*
X136500Y-17500D02*
X136804Y-17500D01*
X137109Y-17461D02*
X136880Y-17461D01*
X136995Y-17461D02*
X136995Y-17061D01*
X136957Y-17119D01*
X136919Y-17157D01*
X136880Y-17176D01*
X128200Y-17461D02*
X128009Y-17461D01*
X128009Y-17061D01*
X128333Y-17252D02*
X128466Y-17252D01*
X128523Y-17461D02*
X128333Y-17461D01*
X128333Y-17061D01*
X128523Y-17061D01*
X128695Y-17461D02*
X128695Y-17061D01*
X128790Y-17061D01*
X128847Y-17080D01*
X128885Y-17119D01*
X128904Y-17157D01*
X128923Y-17233D01*
X128923Y-17290D01*
X128904Y-17366D01*
X128885Y-17404D01*
X128847Y-17442D01*
X128790Y-17461D01*
X128695Y-17461D01*
X129000Y-17500D02*
X129304Y-17500D01*
X129476Y-17061D02*
X129514Y-17061D01*
X129552Y-17080D01*
X129571Y-17100D01*
X129590Y-17138D01*
X129609Y-17214D01*
X129609Y-17309D01*
X129590Y-17385D01*
X129571Y-17423D01*
X129552Y-17442D01*
X129514Y-17461D01*
X129476Y-17461D01*
X129438Y-17442D01*
X129419Y-17423D01*
X129400Y-17385D01*
X129380Y-17309D01*
X129380Y-17214D01*
X129400Y-17138D01*
X129419Y-17100D01*
X129438Y-17080D01*
X129476Y-17061D01*
G54D12*
X106572Y-41595D02*
X107272Y-41595D01*
X110872Y-41595D02*
X111572Y-41595D01*
X111572Y-41595D02*
X111572Y-42295D01*
X111572Y-45895D02*
X111572Y-46595D01*
X111572Y-46595D02*
X110872Y-46595D01*
X107272Y-46595D02*
X106572Y-46595D01*
X106572Y-46595D02*
X106572Y-45895D01*
X106572Y-42295D02*
X106572Y-41595D01*
G54D13*
X129480Y-16470D02*
X129480Y-15470D01*
G54D14*
X128399Y-15585D02*
G75*
G03X128260Y-15970I460J-384D01*
G74*
G01*
X128260Y-15970D02*
G75*
G03X128411Y-16367I599J0D01*
G74*
G01*
X129459Y-15970D02*
G75*
G03X129315Y-15580I-599J0D01*
G74*
G01*
X129320Y-16354D02*
G75*
G03X129460Y-15970I-460J384D01*
G74*
G01*
X129347Y-15620D02*
G75*
G03X128860Y-15370I-487J-349D01*
G74*
G01*
X128860Y-15370D02*
G75*
G03X128380Y-15609I0J-600D01*
G74*
G01*
X128860Y-16569D02*
G75*
G03X129332Y-16338I0J599D01*
G74*
G01*
X128386Y-16338D02*
G75*
G03X128860Y-16570I473J368D01*
G74*
G01*
X128860Y-15720D02*
G75*
G03X128610Y-15970I0J-250D01*
G74*
G01*
X128860Y-15570D02*
G75*
G03X128460Y-15970I0J-400D01*
G74*
G01*
X128860Y-16220D02*
G75*
G03X129110Y-15970I0J250D01*
G74*
G01*
X128860Y-16370D02*
G75*
G03X129260Y-15970I0J400D01*
G74*
G01*
G54D13*
X129473Y-15456D02*
G75*
G03X128860Y-15170I-613J-513D01*
G74*
G01*
X128860Y-15171D02*
G75*
G03X128155Y-15593I0J-799D01*
G74*
G01*
X128861Y-16768D02*
G75*
G03X129470Y-16485I-1J798D01*
G74*
G01*
X128165Y-16367D02*
G75*
G03X128860Y-16770I694J397D01*
G74*
G01*
X128155Y-15590D02*
G75*
G03X128060Y-15970I704J-379D01*
G74*
G01*
X128060Y-15970D02*
G75*
G03X128178Y-16388I799J0D01*
G74*
G01*
X136980Y-16470D02*
X136980Y-15470D01*
G54D14*
X135899Y-15585D02*
G75*
G03X135760Y-15970I460J-384D01*
G74*
G01*
X135760Y-15970D02*
G75*
G03X135911Y-16367I599J0D01*
G74*
G01*
X136959Y-15970D02*
G75*
G03X136815Y-15580I-599J0D01*
G74*
G01*
X136820Y-16354D02*
G75*
G03X136960Y-15970I-460J384D01*
G74*
G01*
X136847Y-15620D02*
G75*
G03X136360Y-15370I-487J-349D01*
G74*
G01*
X136360Y-15370D02*
G75*
G03X135880Y-15609I0J-600D01*
G74*
G01*
X136360Y-16569D02*
G75*
G03X136832Y-16338I0J599D01*
G74*
G01*
X135886Y-16338D02*
G75*
G03X136360Y-16570I473J368D01*
G74*
G01*
X136360Y-15720D02*
G75*
G03X136110Y-15970I0J-250D01*
G74*
G01*
X136360Y-15570D02*
G75*
G03X135960Y-15970I0J-400D01*
G74*
G01*
X136360Y-16220D02*
G75*
G03X136610Y-15970I0J250D01*
G74*
G01*
X136360Y-16370D02*
G75*
G03X136760Y-15970I0J400D01*
G74*
G01*
G54D13*
X136973Y-15456D02*
G75*
G03X136360Y-15170I-613J-513D01*
G74*
G01*
X136360Y-15171D02*
G75*
G03X135655Y-15593I0J-799D01*
G74*
G01*
X136361Y-16768D02*
G75*
G03X136970Y-16485I-1J798D01*
G74*
G01*
X135665Y-16367D02*
G75*
G03X136360Y-16770I694J397D01*
G74*
G01*
X135655Y-15590D02*
G75*
G03X135560Y-15970I704J-379D01*
G74*
G01*
X135560Y-15970D02*
G75*
G03X135678Y-16388I799J0D01*
G74*
G01*
G54D12*
X8135Y-19095D02*
X8835Y-19095D01*
X12435Y-19095D02*
X13135Y-19095D01*
X13135Y-19095D02*
X13135Y-19795D01*
X13135Y-23395D02*
X13135Y-24095D01*
X13135Y-24095D02*
X12435Y-24095D01*
X8835Y-24095D02*
X8135Y-24095D01*
X8135Y-24095D02*
X8135Y-23395D01*
X8135Y-19795D02*
X8135Y-19095D01*
X137510Y-49095D02*
X138210Y-49095D01*
X141810Y-49095D02*
X142510Y-49095D01*
X142510Y-49095D02*
X142510Y-49795D01*
X142510Y-53395D02*
X142510Y-54095D01*
X142510Y-54095D02*
X141810Y-54095D01*
X138210Y-54095D02*
X137510Y-54095D01*
X137510Y-54095D02*
X137510Y-53395D01*
X137510Y-49795D02*
X137510Y-49095D01*
X130010Y-26595D02*
X130710Y-26595D01*
X134310Y-26595D02*
X135010Y-26595D01*
X135010Y-26595D02*
X135010Y-27295D01*
X135010Y-30895D02*
X135010Y-31595D01*
X135010Y-31595D02*
X134310Y-31595D01*
X130710Y-31595D02*
X130010Y-31595D01*
X130010Y-31595D02*
X130010Y-30895D01*
X130010Y-27295D02*
X130010Y-26595D01*
X105635Y-7845D02*
X106335Y-7845D01*
X109935Y-7845D02*
X110635Y-7845D01*
X110635Y-7845D02*
X110635Y-8545D01*
X110635Y-12145D02*
X110635Y-12845D01*
X110635Y-12845D02*
X109935Y-12845D01*
X106335Y-12845D02*
X105635Y-12845D01*
X105635Y-12845D02*
X105635Y-12145D01*
X105635Y-8545D02*
X105635Y-7845D01*
X101885Y-26595D02*
X102585Y-26595D01*
X106185Y-26595D02*
X106885Y-26595D01*
X106885Y-26595D02*
X106885Y-27295D01*
X106885Y-30895D02*
X106885Y-31595D01*
X106885Y-31595D02*
X106185Y-31595D01*
X102585Y-31595D02*
X101885Y-31595D01*
X101885Y-31595D02*
X101885Y-30895D01*
X101885Y-27295D02*
X101885Y-26595D01*
X98135Y-19095D02*
X98835Y-19095D01*
X102435Y-19095D02*
X103135Y-19095D01*
X103135Y-19095D02*
X103135Y-19795D01*
X103135Y-23395D02*
X103135Y-24095D01*
X103135Y-24095D02*
X102435Y-24095D01*
X98835Y-24095D02*
X98135Y-24095D01*
X98135Y-24095D02*
X98135Y-23395D01*
X98135Y-19795D02*
X98135Y-19095D01*
X122510Y-7845D02*
X123210Y-7845D01*
X126810Y-7845D02*
X127510Y-7845D01*
X127510Y-7845D02*
X127510Y-8545D01*
X127510Y-12145D02*
X127510Y-12845D01*
X127510Y-12845D02*
X126810Y-12845D01*
X123210Y-12845D02*
X122510Y-12845D01*
X122510Y-12845D02*
X122510Y-12145D01*
X122510Y-8545D02*
X122510Y-7845D01*
X130010Y-19095D02*
X130710Y-19095D01*
X134310Y-19095D02*
X135010Y-19095D01*
X135010Y-19095D02*
X135010Y-19795D01*
X135010Y-23395D02*
X135010Y-24095D01*
X135010Y-24095D02*
X134310Y-24095D01*
X130710Y-24095D02*
X130010Y-24095D01*
X130010Y-24095D02*
X130010Y-23395D01*
X130010Y-19795D02*
X130010Y-19095D01*
X96260Y-34095D02*
X96960Y-34095D01*
X100560Y-34095D02*
X101260Y-34095D01*
X101260Y-34095D02*
X101260Y-34795D01*
X101260Y-38395D02*
X101260Y-39095D01*
X101260Y-39095D02*
X100560Y-39095D01*
X96960Y-39095D02*
X96260Y-39095D01*
X96260Y-39095D02*
X96260Y-38395D01*
X96260Y-34795D02*
X96260Y-34095D01*
X75635Y-19095D02*
X76335Y-19095D01*
X79935Y-19095D02*
X80635Y-19095D01*
X80635Y-19095D02*
X80635Y-19795D01*
X80635Y-23395D02*
X80635Y-24095D01*
X80635Y-24095D02*
X79935Y-24095D01*
X76335Y-24095D02*
X75635Y-24095D01*
X75635Y-24095D02*
X75635Y-23395D01*
X75635Y-19795D02*
X75635Y-19095D01*
X122510Y-26595D02*
X123210Y-26595D01*
X126810Y-26595D02*
X127510Y-26595D01*
X127510Y-26595D02*
X127510Y-27295D01*
X127510Y-30895D02*
X127510Y-31595D01*
X127510Y-31595D02*
X126810Y-31595D01*
X123210Y-31595D02*
X122510Y-31595D01*
X122510Y-31595D02*
X122510Y-30895D01*
X122510Y-27295D02*
X122510Y-26595D01*
X130010Y-7845D02*
X130710Y-7845D01*
X134310Y-7845D02*
X135010Y-7845D01*
X135010Y-7845D02*
X135010Y-8545D01*
X135010Y-12145D02*
X135010Y-12845D01*
X135010Y-12845D02*
X134310Y-12845D01*
X130710Y-12845D02*
X130010Y-12845D01*
X130010Y-12845D02*
X130010Y-12145D01*
X130010Y-8545D02*
X130010Y-7845D01*
X113135Y-7845D02*
X113835Y-7845D01*
X117435Y-7845D02*
X118135Y-7845D01*
X118135Y-7845D02*
X118135Y-8545D01*
X118135Y-12145D02*
X118135Y-12845D01*
X118135Y-12845D02*
X117435Y-12845D01*
X113835Y-12845D02*
X113135Y-12845D01*
X113135Y-12845D02*
X113135Y-12145D01*
X113135Y-8545D02*
X113135Y-7845D01*
X32510Y-41595D02*
X33210Y-41595D01*
X36810Y-41595D02*
X37510Y-41595D01*
X37510Y-41595D02*
X37510Y-42295D01*
X37510Y-45895D02*
X37510Y-46595D01*
X37510Y-46595D02*
X36810Y-46595D01*
X33210Y-46595D02*
X32510Y-46595D01*
X32510Y-46595D02*
X32510Y-45895D01*
X32510Y-42295D02*
X32510Y-41595D01*
X56885Y-26595D02*
X57585Y-26595D01*
X61185Y-26595D02*
X61885Y-26595D01*
X61885Y-26595D02*
X61885Y-27295D01*
X61885Y-30895D02*
X61885Y-31595D01*
X61885Y-31595D02*
X61185Y-31595D01*
X57585Y-31595D02*
X56885Y-31595D01*
X56885Y-31595D02*
X56885Y-30895D01*
X56885Y-27295D02*
X56885Y-26595D01*
X53135Y-19095D02*
X53835Y-19095D01*
X57435Y-19095D02*
X58135Y-19095D01*
X58135Y-19095D02*
X58135Y-19795D01*
X58135Y-23395D02*
X58135Y-24095D01*
X58135Y-24095D02*
X57435Y-24095D01*
X53835Y-24095D02*
X53135Y-24095D01*
X53135Y-24095D02*
X53135Y-23395D01*
X53135Y-19795D02*
X53135Y-19095D01*
X45635Y-7845D02*
X46335Y-7845D01*
X49935Y-7845D02*
X50635Y-7845D01*
X50635Y-7845D02*
X50635Y-8545D01*
X50635Y-12145D02*
X50635Y-12845D01*
X50635Y-12845D02*
X49935Y-12845D01*
X46335Y-12845D02*
X45635Y-12845D01*
X45635Y-12845D02*
X45635Y-12145D01*
X45635Y-8545D02*
X45635Y-7845D01*
X47510Y-41595D02*
X48210Y-41595D01*
X51810Y-41595D02*
X52510Y-41595D01*
X52510Y-41595D02*
X52510Y-42295D01*
X52510Y-45895D02*
X52510Y-46595D01*
X52510Y-46595D02*
X51810Y-46595D01*
X48210Y-46595D02*
X47510Y-46595D01*
X47510Y-46595D02*
X47510Y-45895D01*
X47510Y-42295D02*
X47510Y-41595D01*
X43760Y-34095D02*
X44460Y-34095D01*
X48060Y-34095D02*
X48760Y-34095D01*
X48760Y-34095D02*
X48760Y-34795D01*
X48760Y-38395D02*
X48760Y-39095D01*
X48760Y-39095D02*
X48060Y-39095D01*
X44460Y-39095D02*
X43760Y-39095D01*
X43760Y-39095D02*
X43760Y-38395D01*
X43760Y-34795D02*
X43760Y-34095D01*
X49385Y-26595D02*
X50085Y-26595D01*
X53685Y-26595D02*
X54385Y-26595D01*
X54385Y-26595D02*
X54385Y-27295D01*
X54385Y-30895D02*
X54385Y-31595D01*
X54385Y-31595D02*
X53685Y-31595D01*
X50085Y-31595D02*
X49385Y-31595D01*
X49385Y-31595D02*
X49385Y-30895D01*
X49385Y-27295D02*
X49385Y-26595D01*
X45635Y-19095D02*
X46335Y-19095D01*
X49935Y-19095D02*
X50635Y-19095D01*
X50635Y-19095D02*
X50635Y-19795D01*
X50635Y-23395D02*
X50635Y-24095D01*
X50635Y-24095D02*
X49935Y-24095D01*
X46335Y-24095D02*
X45635Y-24095D01*
X45635Y-24095D02*
X45635Y-23395D01*
X45635Y-19795D02*
X45635Y-19095D01*
X38135Y-7845D02*
X38835Y-7845D01*
X42435Y-7845D02*
X43135Y-7845D01*
X43135Y-7845D02*
X43135Y-8545D01*
X43135Y-12145D02*
X43135Y-12845D01*
X43135Y-12845D02*
X42435Y-12845D01*
X38835Y-12845D02*
X38135Y-12845D01*
X38135Y-12845D02*
X38135Y-12145D01*
X38135Y-8545D02*
X38135Y-7845D01*
X40010Y-41595D02*
X40710Y-41595D01*
X44310Y-41595D02*
X45010Y-41595D01*
X45010Y-41595D02*
X45010Y-42295D01*
X45010Y-45895D02*
X45010Y-46595D01*
X45010Y-46595D02*
X44310Y-46595D01*
X40710Y-46595D02*
X40010Y-46595D01*
X40010Y-46595D02*
X40010Y-45895D01*
X40010Y-42295D02*
X40010Y-41595D01*
X36260Y-34095D02*
X36960Y-34095D01*
X40560Y-34095D02*
X41260Y-34095D01*
X41260Y-34095D02*
X41260Y-34795D01*
X41260Y-38395D02*
X41260Y-39095D01*
X41260Y-39095D02*
X40560Y-39095D01*
X36960Y-39095D02*
X36260Y-39095D01*
X36260Y-39095D02*
X36260Y-38395D01*
X36260Y-34795D02*
X36260Y-34095D01*
X41885Y-26595D02*
X42585Y-26595D01*
X46185Y-26595D02*
X46885Y-26595D01*
X46885Y-26595D02*
X46885Y-27295D01*
X46885Y-30895D02*
X46885Y-31595D01*
X46885Y-31595D02*
X46185Y-31595D01*
X42585Y-31595D02*
X41885Y-31595D01*
X41885Y-31595D02*
X41885Y-30895D01*
X41885Y-27295D02*
X41885Y-26595D01*
X38135Y-19095D02*
X38835Y-19095D01*
X42435Y-19095D02*
X43135Y-19095D01*
X43135Y-19095D02*
X43135Y-19795D01*
X43135Y-23395D02*
X43135Y-24095D01*
X43135Y-24095D02*
X42435Y-24095D01*
X38835Y-24095D02*
X38135Y-24095D01*
X38135Y-24095D02*
X38135Y-23395D01*
X38135Y-19795D02*
X38135Y-19095D01*
X30635Y-7845D02*
X31335Y-7845D01*
X34935Y-7845D02*
X35635Y-7845D01*
X35635Y-7845D02*
X35635Y-8545D01*
X35635Y-12145D02*
X35635Y-12845D01*
X35635Y-12845D02*
X34935Y-12845D01*
X31335Y-12845D02*
X30635Y-12845D01*
X30635Y-12845D02*
X30635Y-12145D01*
X30635Y-8545D02*
X30635Y-7845D01*
X98135Y-7845D02*
X98835Y-7845D01*
X102435Y-7845D02*
X103135Y-7845D01*
X103135Y-7845D02*
X103135Y-8545D01*
X103135Y-12145D02*
X103135Y-12845D01*
X103135Y-12845D02*
X102435Y-12845D01*
X98835Y-12845D02*
X98135Y-12845D01*
X98135Y-12845D02*
X98135Y-12145D01*
X98135Y-8545D02*
X98135Y-7845D01*
X28760Y-34095D02*
X29460Y-34095D01*
X33060Y-34095D02*
X33760Y-34095D01*
X33760Y-34095D02*
X33760Y-34795D01*
X33760Y-38395D02*
X33760Y-39095D01*
X33760Y-39095D02*
X33060Y-39095D01*
X29460Y-39095D02*
X28760Y-39095D01*
X28760Y-39095D02*
X28760Y-38395D01*
X28760Y-34795D02*
X28760Y-34095D01*
X34385Y-26595D02*
X35085Y-26595D01*
X38685Y-26595D02*
X39385Y-26595D01*
X39385Y-26595D02*
X39385Y-27295D01*
X39385Y-30895D02*
X39385Y-31595D01*
X39385Y-31595D02*
X38685Y-31595D01*
X35085Y-31595D02*
X34385Y-31595D01*
X34385Y-31595D02*
X34385Y-30895D01*
X34385Y-27295D02*
X34385Y-26595D01*
X30635Y-19095D02*
X31335Y-19095D01*
X34935Y-19095D02*
X35635Y-19095D01*
X35635Y-19095D02*
X35635Y-19795D01*
X35635Y-23395D02*
X35635Y-24095D01*
X35635Y-24095D02*
X34935Y-24095D01*
X31335Y-24095D02*
X30635Y-24095D01*
X30635Y-24095D02*
X30635Y-23395D01*
X30635Y-19795D02*
X30635Y-19095D01*
X23135Y-7845D02*
X23835Y-7845D01*
X27435Y-7845D02*
X28135Y-7845D01*
X28135Y-7845D02*
X28135Y-8545D01*
X28135Y-12145D02*
X28135Y-12845D01*
X28135Y-12845D02*
X27435Y-12845D01*
X23835Y-12845D02*
X23135Y-12845D01*
X23135Y-12845D02*
X23135Y-12145D01*
X23135Y-8545D02*
X23135Y-7845D01*
X25010Y-41595D02*
X25710Y-41595D01*
X29310Y-41595D02*
X30010Y-41595D01*
X30010Y-41595D02*
X30010Y-42295D01*
X30010Y-45895D02*
X30010Y-46595D01*
X30010Y-46595D02*
X29310Y-46595D01*
X25710Y-46595D02*
X25010Y-46595D01*
X25010Y-46595D02*
X25010Y-45895D01*
X25010Y-42295D02*
X25010Y-41595D01*
X21260Y-34095D02*
X21960Y-34095D01*
X25560Y-34095D02*
X26260Y-34095D01*
X26260Y-34095D02*
X26260Y-34795D01*
X26260Y-38395D02*
X26260Y-39095D01*
X26260Y-39095D02*
X25560Y-39095D01*
X21960Y-39095D02*
X21260Y-39095D01*
X21260Y-39095D02*
X21260Y-38395D01*
X21260Y-34795D02*
X21260Y-34095D01*
X26885Y-26595D02*
X27585Y-26595D01*
X31185Y-26595D02*
X31885Y-26595D01*
X31885Y-26595D02*
X31885Y-27295D01*
X31885Y-30895D02*
X31885Y-31595D01*
X31885Y-31595D02*
X31185Y-31595D01*
X27585Y-31595D02*
X26885Y-31595D01*
X26885Y-31595D02*
X26885Y-30895D01*
X26885Y-27295D02*
X26885Y-26595D01*
X23135Y-19095D02*
X23835Y-19095D01*
X27435Y-19095D02*
X28135Y-19095D01*
X28135Y-19095D02*
X28135Y-19795D01*
X28135Y-23395D02*
X28135Y-24095D01*
X28135Y-24095D02*
X27435Y-24095D01*
X23835Y-24095D02*
X23135Y-24095D01*
X23135Y-24095D02*
X23135Y-23395D01*
X23135Y-19795D02*
X23135Y-19095D01*
X19385Y-26595D02*
X20085Y-26595D01*
X23685Y-26595D02*
X24385Y-26595D01*
X24385Y-26595D02*
X24385Y-27295D01*
X24385Y-30895D02*
X24385Y-31595D01*
X24385Y-31595D02*
X23685Y-31595D01*
X20085Y-31595D02*
X19385Y-31595D01*
X19385Y-31595D02*
X19385Y-30895D01*
X19385Y-27295D02*
X19385Y-26595D01*
X15635Y-19095D02*
X16335Y-19095D01*
X19935Y-19095D02*
X20635Y-19095D01*
X20635Y-19095D02*
X20635Y-19795D01*
X20635Y-23395D02*
X20635Y-24095D01*
X20635Y-24095D02*
X19935Y-24095D01*
X16335Y-24095D02*
X15635Y-24095D01*
X15635Y-24095D02*
X15635Y-23395D01*
X15635Y-19795D02*
X15635Y-19095D01*
X8135Y-7845D02*
X8835Y-7845D01*
X12435Y-7845D02*
X13135Y-7845D01*
X13135Y-7845D02*
X13135Y-8545D01*
X13135Y-12145D02*
X13135Y-12845D01*
X13135Y-12845D02*
X12435Y-12845D01*
X8835Y-12845D02*
X8135Y-12845D01*
X8135Y-12845D02*
X8135Y-12145D01*
X8135Y-8545D02*
X8135Y-7845D01*
X51260Y-34095D02*
X51960Y-34095D01*
X55560Y-34095D02*
X56260Y-34095D01*
X56260Y-34095D02*
X56260Y-34795D01*
X56260Y-38395D02*
X56260Y-39095D01*
X56260Y-39095D02*
X55560Y-39095D01*
X51960Y-39095D02*
X51260Y-39095D01*
X51260Y-39095D02*
X51260Y-38395D01*
X51260Y-34795D02*
X51260Y-34095D01*
X92510Y-41595D02*
X93210Y-41595D01*
X96810Y-41595D02*
X97510Y-41595D01*
X97510Y-41595D02*
X97510Y-42295D01*
X97510Y-45895D02*
X97510Y-46595D01*
X97510Y-46595D02*
X96810Y-46595D01*
X93210Y-46595D02*
X92510Y-46595D01*
X92510Y-46595D02*
X92510Y-45895D01*
X92510Y-42295D02*
X92510Y-41595D01*
X88760Y-34095D02*
X89460Y-34095D01*
X93060Y-34095D02*
X93760Y-34095D01*
X93760Y-34095D02*
X93760Y-34795D01*
X93760Y-38395D02*
X93760Y-39095D01*
X93760Y-39095D02*
X93060Y-39095D01*
X89460Y-39095D02*
X88760Y-39095D01*
X88760Y-39095D02*
X88760Y-38395D01*
X88760Y-34795D02*
X88760Y-34095D01*
X94385Y-26595D02*
X95085Y-26595D01*
X98685Y-26595D02*
X99385Y-26595D01*
X99385Y-26595D02*
X99385Y-27295D01*
X99385Y-30895D02*
X99385Y-31595D01*
X99385Y-31595D02*
X98685Y-31595D01*
X95085Y-31595D02*
X94385Y-31595D01*
X94385Y-31595D02*
X94385Y-30895D01*
X94385Y-27295D02*
X94385Y-26595D01*
X90635Y-19095D02*
X91335Y-19095D01*
X94935Y-19095D02*
X95635Y-19095D01*
X95635Y-19095D02*
X95635Y-19795D01*
X95635Y-23395D02*
X95635Y-24095D01*
X95635Y-24095D02*
X94935Y-24095D01*
X91335Y-24095D02*
X90635Y-24095D01*
X90635Y-24095D02*
X90635Y-23395D01*
X90635Y-19795D02*
X90635Y-19095D01*
X90635Y-7845D02*
X91335Y-7845D01*
X94935Y-7845D02*
X95635Y-7845D01*
X95635Y-7845D02*
X95635Y-8545D01*
X95635Y-12145D02*
X95635Y-12845D01*
X95635Y-12845D02*
X94935Y-12845D01*
X91335Y-12845D02*
X90635Y-12845D01*
X90635Y-12845D02*
X90635Y-12145D01*
X90635Y-8545D02*
X90635Y-7845D01*
X85010Y-41595D02*
X85710Y-41595D01*
X89310Y-41595D02*
X90010Y-41595D01*
X90010Y-41595D02*
X90010Y-42295D01*
X90010Y-45895D02*
X90010Y-46595D01*
X90010Y-46595D02*
X89310Y-46595D01*
X85710Y-46595D02*
X85010Y-46595D01*
X85010Y-46595D02*
X85010Y-45895D01*
X85010Y-42295D02*
X85010Y-41595D01*
X81260Y-34095D02*
X81960Y-34095D01*
X85560Y-34095D02*
X86260Y-34095D01*
X86260Y-34095D02*
X86260Y-34795D01*
X86260Y-38395D02*
X86260Y-39095D01*
X86260Y-39095D02*
X85560Y-39095D01*
X81960Y-39095D02*
X81260Y-39095D01*
X81260Y-39095D02*
X81260Y-38395D01*
X81260Y-34795D02*
X81260Y-34095D01*
X86885Y-26595D02*
X87585Y-26595D01*
X91185Y-26595D02*
X91885Y-26595D01*
X91885Y-26595D02*
X91885Y-27295D01*
X91885Y-30895D02*
X91885Y-31595D01*
X91885Y-31595D02*
X91185Y-31595D01*
X87585Y-31595D02*
X86885Y-31595D01*
X86885Y-31595D02*
X86885Y-30895D01*
X86885Y-27295D02*
X86885Y-26595D01*
X83135Y-19095D02*
X83835Y-19095D01*
X87435Y-19095D02*
X88135Y-19095D01*
X88135Y-19095D02*
X88135Y-19795D01*
X88135Y-23395D02*
X88135Y-24095D01*
X88135Y-24095D02*
X87435Y-24095D01*
X83835Y-24095D02*
X83135Y-24095D01*
X83135Y-24095D02*
X83135Y-23395D01*
X83135Y-19795D02*
X83135Y-19095D01*
X79385Y-7845D02*
X80085Y-7845D01*
X83685Y-7845D02*
X84385Y-7845D01*
X84385Y-7845D02*
X84385Y-8545D01*
X84385Y-12145D02*
X84385Y-12845D01*
X84385Y-12845D02*
X83685Y-12845D01*
X80085Y-12845D02*
X79385Y-12845D01*
X79385Y-12845D02*
X79385Y-12145D01*
X79385Y-8545D02*
X79385Y-7845D01*
X77510Y-41595D02*
X78210Y-41595D01*
X81810Y-41595D02*
X82510Y-41595D01*
X82510Y-41595D02*
X82510Y-42295D01*
X82510Y-45895D02*
X82510Y-46595D01*
X82510Y-46595D02*
X81810Y-46595D01*
X78210Y-46595D02*
X77510Y-46595D01*
X77510Y-46595D02*
X77510Y-45895D01*
X77510Y-42295D02*
X77510Y-41595D01*
X73760Y-34095D02*
X74460Y-34095D01*
X78060Y-34095D02*
X78760Y-34095D01*
X78760Y-34095D02*
X78760Y-34795D01*
X78760Y-38395D02*
X78760Y-39095D01*
X78760Y-39095D02*
X78060Y-39095D01*
X74460Y-39095D02*
X73760Y-39095D01*
X73760Y-39095D02*
X73760Y-38395D01*
X73760Y-34795D02*
X73760Y-34095D01*
X79385Y-26595D02*
X80085Y-26595D01*
X83685Y-26595D02*
X84385Y-26595D01*
X84385Y-26595D02*
X84385Y-27295D01*
X84385Y-30895D02*
X84385Y-31595D01*
X84385Y-31595D02*
X83685Y-31595D01*
X80085Y-31595D02*
X79385Y-31595D01*
X79385Y-31595D02*
X79385Y-30895D01*
X79385Y-27295D02*
X79385Y-26595D01*
X71885Y-7845D02*
X72585Y-7845D01*
X76185Y-7845D02*
X76885Y-7845D01*
X76885Y-7845D02*
X76885Y-8545D01*
X76885Y-12145D02*
X76885Y-12845D01*
X76885Y-12845D02*
X76185Y-12845D01*
X72585Y-12845D02*
X71885Y-12845D01*
X71885Y-12845D02*
X71885Y-12145D01*
X71885Y-8545D02*
X71885Y-7845D01*
X70010Y-41595D02*
X70710Y-41595D01*
X74310Y-41595D02*
X75010Y-41595D01*
X75010Y-41595D02*
X75010Y-42295D01*
X75010Y-45895D02*
X75010Y-46595D01*
X75010Y-46595D02*
X74310Y-46595D01*
X70710Y-46595D02*
X70010Y-46595D01*
X70010Y-46595D02*
X70010Y-45895D01*
X70010Y-42295D02*
X70010Y-41595D01*
X66260Y-34095D02*
X66960Y-34095D01*
X70560Y-34095D02*
X71260Y-34095D01*
X71260Y-34095D02*
X71260Y-34795D01*
X71260Y-38395D02*
X71260Y-39095D01*
X71260Y-39095D02*
X70560Y-39095D01*
X66960Y-39095D02*
X66260Y-39095D01*
X66260Y-39095D02*
X66260Y-38395D01*
X66260Y-34795D02*
X66260Y-34095D01*
X71885Y-26595D02*
X72585Y-26595D01*
X76185Y-26595D02*
X76885Y-26595D01*
X76885Y-26595D02*
X76885Y-27295D01*
X76885Y-30895D02*
X76885Y-31595D01*
X76885Y-31595D02*
X76185Y-31595D01*
X72585Y-31595D02*
X71885Y-31595D01*
X71885Y-31595D02*
X71885Y-30895D01*
X71885Y-27295D02*
X71885Y-26595D01*
X68135Y-19095D02*
X68835Y-19095D01*
X72435Y-19095D02*
X73135Y-19095D01*
X73135Y-19095D02*
X73135Y-19795D01*
X73135Y-23395D02*
X73135Y-24095D01*
X73135Y-24095D02*
X72435Y-24095D01*
X68835Y-24095D02*
X68135Y-24095D01*
X68135Y-24095D02*
X68135Y-23395D01*
X68135Y-19795D02*
X68135Y-19095D01*
X64385Y-7845D02*
X65085Y-7845D01*
X68685Y-7845D02*
X69385Y-7845D01*
X69385Y-7845D02*
X69385Y-8545D01*
X69385Y-12145D02*
X69385Y-12845D01*
X69385Y-12845D02*
X68685Y-12845D01*
X65085Y-12845D02*
X64385Y-12845D01*
X64385Y-12845D02*
X64385Y-12145D01*
X64385Y-8545D02*
X64385Y-7845D01*
X62510Y-41595D02*
X63210Y-41595D01*
X66810Y-41595D02*
X67510Y-41595D01*
X67510Y-41595D02*
X67510Y-42295D01*
X67510Y-45895D02*
X67510Y-46595D01*
X67510Y-46595D02*
X66810Y-46595D01*
X63210Y-46595D02*
X62510Y-46595D01*
X62510Y-46595D02*
X62510Y-45895D01*
X62510Y-42295D02*
X62510Y-41595D01*
X58760Y-34095D02*
X59460Y-34095D01*
X63060Y-34095D02*
X63760Y-34095D01*
X63760Y-34095D02*
X63760Y-34795D01*
X63760Y-38395D02*
X63760Y-39095D01*
X63760Y-39095D02*
X63060Y-39095D01*
X59460Y-39095D02*
X58760Y-39095D01*
X58760Y-39095D02*
X58760Y-38395D01*
X58760Y-34795D02*
X58760Y-34095D01*
X64385Y-26595D02*
X65085Y-26595D01*
X68685Y-26595D02*
X69385Y-26595D01*
X69385Y-26595D02*
X69385Y-27295D01*
X69385Y-30895D02*
X69385Y-31595D01*
X69385Y-31595D02*
X68685Y-31595D01*
X65085Y-31595D02*
X64385Y-31595D01*
X64385Y-31595D02*
X64385Y-30895D01*
X64385Y-27295D02*
X64385Y-26595D01*
X60635Y-19095D02*
X61335Y-19095D01*
X64935Y-19095D02*
X65635Y-19095D01*
X65635Y-19095D02*
X65635Y-19795D01*
X65635Y-23395D02*
X65635Y-24095D01*
X65635Y-24095D02*
X64935Y-24095D01*
X61335Y-24095D02*
X60635Y-24095D01*
X60635Y-24095D02*
X60635Y-23395D01*
X60635Y-19795D02*
X60635Y-19095D01*
X56885Y-7845D02*
X57585Y-7845D01*
X61185Y-7845D02*
X61885Y-7845D01*
X61885Y-7845D02*
X61885Y-8545D01*
X61885Y-12145D02*
X61885Y-12845D01*
X61885Y-12845D02*
X61185Y-12845D01*
X57585Y-12845D02*
X56885Y-12845D01*
X56885Y-12845D02*
X56885Y-12145D01*
X56885Y-8545D02*
X56885Y-7845D01*
X55010Y-41595D02*
X55710Y-41595D01*
X59310Y-41595D02*
X60010Y-41595D01*
X60010Y-41595D02*
X60010Y-42295D01*
X60010Y-45895D02*
X60010Y-46595D01*
X60010Y-46595D02*
X59310Y-46595D01*
X55710Y-46595D02*
X55010Y-46595D01*
X55010Y-46595D02*
X55010Y-45895D01*
X55010Y-42295D02*
X55010Y-41595D01*
X130010Y-49095D02*
X130710Y-49095D01*
X134310Y-49095D02*
X135010Y-49095D01*
X135010Y-49095D02*
X135010Y-49795D01*
X135010Y-53395D02*
X135010Y-54095D01*
X135010Y-54095D02*
X134310Y-54095D01*
X130710Y-54095D02*
X130010Y-54095D01*
X130010Y-54095D02*
X130010Y-53395D01*
X130010Y-49795D02*
X130010Y-49095D01*
X130010Y-41595D02*
X130710Y-41595D01*
X134310Y-41595D02*
X135010Y-41595D01*
X135010Y-41595D02*
X135010Y-42295D01*
X135010Y-45895D02*
X135010Y-46595D01*
X135010Y-46595D02*
X134310Y-46595D01*
X130710Y-46595D02*
X130010Y-46595D01*
X130010Y-46595D02*
X130010Y-45895D01*
X130010Y-42295D02*
X130010Y-41595D01*
X122510Y-49095D02*
X123210Y-49095D01*
X126810Y-49095D02*
X127510Y-49095D01*
X127510Y-49095D02*
X127510Y-49795D01*
X127510Y-53395D02*
X127510Y-54095D01*
X127510Y-54095D02*
X126810Y-54095D01*
X123210Y-54095D02*
X122510Y-54095D01*
X122510Y-54095D02*
X122510Y-53395D01*
X122510Y-49795D02*
X122510Y-49095D01*
X122510Y-19095D02*
X123210Y-19095D01*
X126810Y-19095D02*
X127510Y-19095D01*
X127510Y-19095D02*
X127510Y-19795D01*
X127510Y-23395D02*
X127510Y-24095D01*
X127510Y-24095D02*
X126810Y-24095D01*
X123210Y-24095D02*
X122510Y-24095D01*
X122510Y-24095D02*
X122510Y-23395D01*
X122510Y-19795D02*
X122510Y-19095D01*
X137510Y-7845D02*
X138210Y-7845D01*
X141810Y-7845D02*
X142510Y-7845D01*
X142510Y-7845D02*
X142510Y-8545D01*
X142510Y-12145D02*
X142510Y-12845D01*
X142510Y-12845D02*
X141810Y-12845D01*
X138210Y-12845D02*
X137510Y-12845D01*
X137510Y-12845D02*
X137510Y-12145D01*
X137510Y-8545D02*
X137510Y-7845D01*
X137510Y-19095D02*
X138210Y-19095D01*
X141810Y-19095D02*
X142510Y-19095D01*
X142510Y-19095D02*
X142510Y-19795D01*
X142510Y-23395D02*
X142510Y-24095D01*
X142510Y-24095D02*
X141810Y-24095D01*
X138210Y-24095D02*
X137510Y-24095D01*
X137510Y-24095D02*
X137510Y-23395D01*
X137510Y-19795D02*
X137510Y-19095D01*
X137510Y-26595D02*
X138210Y-26595D01*
X141810Y-26595D02*
X142510Y-26595D01*
X142510Y-26595D02*
X142510Y-27295D01*
X142510Y-30895D02*
X142510Y-31595D01*
X142510Y-31595D02*
X141810Y-31595D01*
X138210Y-31595D02*
X137510Y-31595D01*
X137510Y-31595D02*
X137510Y-30895D01*
X137510Y-27295D02*
X137510Y-26595D01*
X111260Y-26595D02*
X111960Y-26595D01*
X115560Y-26595D02*
X116260Y-26595D01*
X116260Y-26595D02*
X116260Y-27295D01*
X116260Y-30895D02*
X116260Y-31595D01*
X116260Y-31595D02*
X115560Y-31595D01*
X111960Y-31595D02*
X111260Y-31595D01*
X111260Y-31595D02*
X111260Y-30895D01*
X111260Y-27295D02*
X111260Y-26595D01*
X10010Y-26595D02*
X10710Y-26595D01*
X14310Y-26595D02*
X15010Y-26595D01*
X15010Y-26595D02*
X15010Y-27295D01*
X15010Y-30895D02*
X15010Y-31595D01*
X15010Y-31595D02*
X14310Y-31595D01*
X10710Y-31595D02*
X10010Y-31595D01*
X10010Y-31595D02*
X10010Y-30895D01*
X10010Y-27295D02*
X10010Y-26595D01*
X27822Y-49095D02*
X28522Y-49095D01*
X32122Y-49095D02*
X32822Y-49095D01*
X32822Y-49095D02*
X32822Y-49795D01*
X32822Y-53395D02*
X32822Y-54095D01*
X32822Y-54095D02*
X32122Y-54095D01*
X28522Y-54095D02*
X27822Y-54095D01*
X27822Y-54095D02*
X27822Y-53395D01*
X27822Y-49795D02*
X27822Y-49095D01*
X18447Y-49095D02*
X19147Y-49095D01*
X22747Y-49095D02*
X23447Y-49095D01*
X23447Y-49095D02*
X23447Y-49795D01*
X23447Y-53395D02*
X23447Y-54095D01*
X23447Y-54095D02*
X22747Y-54095D01*
X19147Y-54095D02*
X18447Y-54095D01*
X18447Y-54095D02*
X18447Y-53395D01*
X18447Y-49795D02*
X18447Y-49095D01*
X9072Y-49095D02*
X9772Y-49095D01*
X13372Y-49095D02*
X14072Y-49095D01*
X14072Y-49095D02*
X14072Y-49795D01*
X14072Y-53395D02*
X14072Y-54095D01*
X14072Y-54095D02*
X13372Y-54095D01*
X9772Y-54095D02*
X9072Y-54095D01*
X9072Y-54095D02*
X9072Y-53395D01*
X9072Y-49795D02*
X9072Y-49095D01*
X102822Y-49095D02*
X103522Y-49095D01*
X107122Y-49095D02*
X107822Y-49095D01*
X107822Y-49095D02*
X107822Y-49795D01*
X107822Y-53395D02*
X107822Y-54095D01*
X107822Y-54095D02*
X107122Y-54095D01*
X103522Y-54095D02*
X102822Y-54095D01*
X102822Y-54095D02*
X102822Y-53395D01*
X102822Y-49795D02*
X102822Y-49095D01*
X112197Y-49095D02*
X112897Y-49095D01*
X116497Y-49095D02*
X117197Y-49095D01*
X117197Y-49095D02*
X117197Y-49795D01*
X117197Y-53395D02*
X117197Y-54095D01*
X117197Y-54095D02*
X116497Y-54095D01*
X112897Y-54095D02*
X112197Y-54095D01*
X112197Y-54095D02*
X112197Y-53395D01*
X112197Y-49795D02*
X112197Y-49095D01*
X93447Y-49095D02*
X94147Y-49095D01*
X97747Y-49095D02*
X98447Y-49095D01*
X98447Y-49095D02*
X98447Y-49795D01*
X98447Y-53395D02*
X98447Y-54095D01*
X98447Y-54095D02*
X97747Y-54095D01*
X94147Y-54095D02*
X93447Y-54095D01*
X93447Y-54095D02*
X93447Y-53395D01*
X93447Y-49795D02*
X93447Y-49095D01*
X84072Y-49095D02*
X84772Y-49095D01*
X88372Y-49095D02*
X89072Y-49095D01*
X89072Y-49095D02*
X89072Y-49795D01*
X89072Y-53395D02*
X89072Y-54095D01*
X89072Y-54095D02*
X88372Y-54095D01*
X84772Y-54095D02*
X84072Y-54095D01*
X84072Y-54095D02*
X84072Y-53395D01*
X84072Y-49795D02*
X84072Y-49095D01*
X55947Y-49095D02*
X56647Y-49095D01*
X60247Y-49095D02*
X60947Y-49095D01*
X60947Y-49095D02*
X60947Y-49795D01*
X60947Y-53395D02*
X60947Y-54095D01*
X60947Y-54095D02*
X60247Y-54095D01*
X56647Y-54095D02*
X55947Y-54095D01*
X55947Y-54095D02*
X55947Y-53395D01*
X55947Y-49795D02*
X55947Y-49095D01*
X108447Y-34095D02*
X109147Y-34095D01*
X112747Y-34095D02*
X113447Y-34095D01*
X113447Y-34095D02*
X113447Y-34795D01*
X113447Y-38395D02*
X113447Y-39095D01*
X113447Y-39095D02*
X112747Y-39095D01*
X109147Y-39095D02*
X108447Y-39095D01*
X108447Y-39095D02*
X108447Y-38395D01*
X108447Y-34795D02*
X108447Y-34095D01*
X12822Y-41595D02*
X13522Y-41595D01*
X17122Y-41595D02*
X17822Y-41595D01*
X17822Y-41595D02*
X17822Y-42295D01*
X17822Y-45895D02*
X17822Y-46595D01*
X17822Y-46595D02*
X17122Y-46595D01*
X13522Y-46595D02*
X12822Y-46595D01*
X12822Y-46595D02*
X12822Y-45895D01*
X12822Y-42295D02*
X12822Y-41595D01*
X10947Y-34795D02*
X10947Y-34095D01*
X10947Y-39095D02*
X10947Y-38395D01*
X11647Y-39095D02*
X10947Y-39095D01*
X15947Y-39095D02*
X15247Y-39095D01*
X15947Y-38395D02*
X15947Y-39095D01*
X15947Y-34095D02*
X15947Y-34795D01*
X15247Y-34095D02*
X15947Y-34095D01*
X10947Y-34095D02*
X11647Y-34095D01*
X9072Y-34095D02*
X9772Y-34095D01*
X13372Y-34095D02*
X14072Y-34095D01*
X14072Y-34095D02*
X14072Y-34795D01*
X14072Y-38395D02*
X14072Y-39095D01*
X14072Y-39095D02*
X13372Y-39095D01*
X9772Y-39095D02*
X9072Y-39095D01*
X9072Y-39095D02*
X9072Y-38395D01*
X9072Y-34795D02*
X9072Y-34095D01*
X109385Y-19095D02*
X110085Y-19095D01*
X113685Y-19095D02*
X114385Y-19095D01*
X114385Y-19095D02*
X114385Y-19795D01*
X114385Y-23395D02*
X114385Y-24095D01*
X114385Y-24095D02*
X113685Y-24095D01*
X110085Y-24095D02*
X109385Y-24095D01*
X109385Y-24095D02*
X109385Y-23395D01*
X109385Y-19795D02*
X109385Y-19095D01*
G54D15*
X65400Y-25400D02*
X65700Y-25400D01*
X65700Y-25400D02*
X65700Y-25800D01*
X65700Y-25800D02*
X68100Y-25800D01*
X68100Y-25800D02*
X68100Y-25400D01*
X68100Y-25400D02*
X68400Y-25400D01*
X68100Y-25400D02*
X68100Y-25000D01*
X68100Y-25000D02*
X65700Y-25000D01*
X65700Y-25000D02*
X65700Y-25400D01*
X65900Y-25800D02*
X65900Y-25000D01*
X66000Y-25000D02*
X66000Y-25800D01*
X76600Y-17900D02*
X76900Y-17900D01*
X76900Y-17900D02*
X76900Y-18300D01*
X76900Y-18300D02*
X79300Y-18300D01*
X79300Y-18300D02*
X79300Y-17900D01*
X79300Y-17900D02*
X79600Y-17900D01*
X79300Y-17900D02*
X79300Y-17500D01*
X79300Y-17500D02*
X76900Y-17500D01*
X76900Y-17500D02*
X76900Y-17900D01*
X77100Y-18300D02*
X77100Y-17500D01*
X77200Y-17500D02*
X77200Y-18300D01*
X70600Y-9300D02*
X70600Y-9600D01*
X70600Y-9600D02*
X70200Y-9600D01*
X70200Y-9600D02*
X70200Y-12000D01*
X70200Y-12000D02*
X70600Y-12000D01*
X70600Y-12000D02*
X70600Y-12300D01*
X70600Y-12000D02*
X71000Y-12000D01*
X71000Y-12000D02*
X71000Y-9600D01*
X71000Y-9600D02*
X70600Y-9600D01*
X70200Y-9800D02*
X71000Y-9800D01*
X71000Y-9900D02*
X70200Y-9900D01*
X71000Y-40400D02*
X71300Y-40400D01*
X71300Y-40400D02*
X71300Y-40800D01*
X71300Y-40800D02*
X73700Y-40800D01*
X73700Y-40800D02*
X73700Y-40400D01*
X73700Y-40400D02*
X74000Y-40400D01*
X73700Y-40400D02*
X73700Y-40000D01*
X73700Y-40000D02*
X71300Y-40000D01*
X71300Y-40000D02*
X71300Y-40400D01*
X71500Y-40800D02*
X71500Y-40000D01*
X71600Y-40000D02*
X71600Y-40800D01*
X67300Y-32900D02*
X67600Y-32900D01*
X67600Y-32900D02*
X67600Y-33300D01*
X67600Y-33300D02*
X70000Y-33300D01*
X70000Y-33300D02*
X70000Y-32900D01*
X70000Y-32900D02*
X70300Y-32900D01*
X70000Y-32900D02*
X70000Y-32500D01*
X70000Y-32500D02*
X67600Y-32500D01*
X67600Y-32500D02*
X67600Y-32900D01*
X67800Y-33300D02*
X67800Y-32500D01*
X67900Y-32500D02*
X67900Y-33300D01*
X72900Y-25400D02*
X73200Y-25400D01*
X73200Y-25400D02*
X73200Y-25800D01*
X73200Y-25800D02*
X75600Y-25800D01*
X75600Y-25800D02*
X75600Y-25400D01*
X75600Y-25400D02*
X75900Y-25400D01*
X75600Y-25400D02*
X75600Y-25000D01*
X75600Y-25000D02*
X73200Y-25000D01*
X73200Y-25000D02*
X73200Y-25400D01*
X73400Y-25800D02*
X73400Y-25000D01*
X73500Y-25000D02*
X73500Y-25800D01*
X69100Y-17900D02*
X69400Y-17900D01*
X69400Y-17900D02*
X69400Y-18300D01*
X69400Y-18300D02*
X71800Y-18300D01*
X71800Y-18300D02*
X71800Y-17900D01*
X71800Y-17900D02*
X72100Y-17900D01*
X71800Y-17900D02*
X71800Y-17500D01*
X71800Y-17500D02*
X69400Y-17500D01*
X69400Y-17500D02*
X69400Y-17900D01*
X69600Y-18300D02*
X69600Y-17500D01*
X69700Y-17500D02*
X69700Y-18300D01*
X63100Y-9300D02*
X63100Y-9600D01*
X63100Y-9600D02*
X62700Y-9600D01*
X62700Y-9600D02*
X62700Y-12000D01*
X62700Y-12000D02*
X63100Y-12000D01*
X63100Y-12000D02*
X63100Y-12300D01*
X63100Y-12000D02*
X63500Y-12000D01*
X63500Y-12000D02*
X63500Y-9600D01*
X63500Y-9600D02*
X63100Y-9600D01*
X62700Y-9800D02*
X63500Y-9800D01*
X63500Y-9900D02*
X62700Y-9900D01*
X111900Y-9300D02*
X111900Y-9600D01*
X111900Y-9600D02*
X111500Y-9600D01*
X111500Y-9600D02*
X111500Y-12000D01*
X111500Y-12000D02*
X111900Y-12000D01*
X111900Y-12000D02*
X111900Y-12300D01*
X111900Y-12000D02*
X112300Y-12000D01*
X112300Y-12000D02*
X112300Y-9600D01*
X112300Y-9600D02*
X111900Y-9600D01*
X111500Y-9800D02*
X112300Y-9800D01*
X112300Y-9900D02*
X111500Y-9900D01*
X63500Y-40400D02*
X63800Y-40400D01*
X63800Y-40400D02*
X63800Y-40800D01*
X63800Y-40800D02*
X66200Y-40800D01*
X66200Y-40800D02*
X66200Y-40400D01*
X66200Y-40400D02*
X66500Y-40400D01*
X66200Y-40400D02*
X66200Y-40000D01*
X66200Y-40000D02*
X63800Y-40000D01*
X63800Y-40000D02*
X63800Y-40400D01*
X64000Y-40800D02*
X64000Y-40000D01*
X64100Y-40000D02*
X64100Y-40800D01*
X59800Y-32900D02*
X60100Y-32900D01*
X60100Y-32900D02*
X60100Y-33300D01*
X60100Y-33300D02*
X62500Y-33300D01*
X62500Y-33300D02*
X62500Y-32900D01*
X62500Y-32900D02*
X62800Y-32900D01*
X62500Y-32900D02*
X62500Y-32500D01*
X62500Y-32500D02*
X60100Y-32500D01*
X60100Y-32500D02*
X60100Y-32900D01*
X60300Y-33300D02*
X60300Y-32500D01*
X60400Y-32500D02*
X60400Y-33300D01*
X123500Y-17900D02*
X123800Y-17900D01*
X123800Y-17900D02*
X123800Y-18300D01*
X123800Y-18300D02*
X126200Y-18300D01*
X126200Y-18300D02*
X126200Y-17900D01*
X126200Y-17900D02*
X126500Y-17900D01*
X126200Y-17900D02*
X126200Y-17500D01*
X126200Y-17500D02*
X123800Y-17500D01*
X123800Y-17500D02*
X123800Y-17900D01*
X124000Y-18300D02*
X124000Y-17500D01*
X124100Y-17500D02*
X124100Y-18300D01*
X80400Y-25400D02*
X80700Y-25400D01*
X80700Y-25400D02*
X80700Y-25800D01*
X80700Y-25800D02*
X83100Y-25800D01*
X83100Y-25800D02*
X83100Y-25400D01*
X83100Y-25400D02*
X83400Y-25400D01*
X83100Y-25400D02*
X83100Y-25000D01*
X83100Y-25000D02*
X80700Y-25000D01*
X80700Y-25000D02*
X80700Y-25400D01*
X80900Y-25800D02*
X80900Y-25000D01*
X81000Y-25000D02*
X81000Y-25800D01*
X61600Y-17900D02*
X61900Y-17900D01*
X61900Y-17900D02*
X61900Y-18300D01*
X61900Y-18300D02*
X64300Y-18300D01*
X64300Y-18300D02*
X64300Y-17900D01*
X64300Y-17900D02*
X64600Y-17900D01*
X64300Y-17900D02*
X64300Y-17500D01*
X64300Y-17500D02*
X61900Y-17500D01*
X61900Y-17500D02*
X61900Y-17900D01*
X62100Y-18300D02*
X62100Y-17500D01*
X62200Y-17500D02*
X62200Y-18300D01*
X123500Y-25400D02*
X123800Y-25400D01*
X123800Y-25400D02*
X123800Y-25800D01*
X123800Y-25800D02*
X126200Y-25800D01*
X126200Y-25800D02*
X126200Y-25400D01*
X126200Y-25400D02*
X126500Y-25400D01*
X126200Y-25400D02*
X126200Y-25000D01*
X126200Y-25000D02*
X123800Y-25000D01*
X123800Y-25000D02*
X123800Y-25400D01*
X124000Y-25800D02*
X124000Y-25000D01*
X124100Y-25000D02*
X124100Y-25800D01*
X55700Y-9300D02*
X55700Y-9600D01*
X55700Y-9600D02*
X55300Y-9600D01*
X55300Y-9600D02*
X55300Y-12000D01*
X55300Y-12000D02*
X55700Y-12000D01*
X55700Y-12000D02*
X55700Y-12300D01*
X55700Y-12000D02*
X56100Y-12000D01*
X56100Y-12000D02*
X56100Y-9600D01*
X56100Y-9600D02*
X55700Y-9600D01*
X55300Y-9800D02*
X56100Y-9800D01*
X56100Y-9900D02*
X55300Y-9900D01*
X56000Y-40400D02*
X56300Y-40400D01*
X56300Y-40400D02*
X56300Y-40800D01*
X56300Y-40800D02*
X58700Y-40800D01*
X58700Y-40800D02*
X58700Y-40400D01*
X58700Y-40400D02*
X59000Y-40400D01*
X58700Y-40400D02*
X58700Y-40000D01*
X58700Y-40000D02*
X56300Y-40000D01*
X56300Y-40000D02*
X56300Y-40400D01*
X56500Y-40800D02*
X56500Y-40000D01*
X56600Y-40000D02*
X56600Y-40800D01*
X57900Y-25400D02*
X58200Y-25400D01*
X58200Y-25400D02*
X58200Y-25800D01*
X58200Y-25800D02*
X60600Y-25800D01*
X60600Y-25800D02*
X60600Y-25400D01*
X60600Y-25400D02*
X60900Y-25400D01*
X60600Y-25400D02*
X60600Y-25000D01*
X60600Y-25000D02*
X58200Y-25000D01*
X58200Y-25000D02*
X58200Y-25400D01*
X58400Y-25800D02*
X58400Y-25000D01*
X58500Y-25000D02*
X58500Y-25800D01*
X121300Y-9300D02*
X121300Y-9600D01*
X121300Y-9600D02*
X120900Y-9600D01*
X120900Y-9600D02*
X120900Y-12000D01*
X120900Y-12000D02*
X121300Y-12000D01*
X121300Y-12000D02*
X121300Y-12300D01*
X121300Y-12000D02*
X121700Y-12000D01*
X121700Y-12000D02*
X121700Y-9600D01*
X121700Y-9600D02*
X121300Y-9600D01*
X120900Y-9800D02*
X121700Y-9800D01*
X121700Y-9900D02*
X120900Y-9900D01*
X54100Y-17900D02*
X54400Y-17900D01*
X54400Y-17900D02*
X54400Y-18300D01*
X54400Y-18300D02*
X56800Y-18300D01*
X56800Y-18300D02*
X56800Y-17900D01*
X56800Y-17900D02*
X57100Y-17900D01*
X56800Y-17900D02*
X56800Y-17500D01*
X56800Y-17500D02*
X54400Y-17500D01*
X54400Y-17500D02*
X54400Y-17900D01*
X54600Y-18300D02*
X54600Y-17500D01*
X54700Y-17500D02*
X54700Y-18300D01*
X44400Y-9300D02*
X44400Y-9600D01*
X44400Y-9600D02*
X44000Y-9600D01*
X44000Y-9600D02*
X44000Y-12000D01*
X44000Y-12000D02*
X44400Y-12000D01*
X44400Y-12000D02*
X44400Y-12300D01*
X44400Y-12000D02*
X44800Y-12000D01*
X44800Y-12000D02*
X44800Y-9600D01*
X44800Y-9600D02*
X44400Y-9600D01*
X44000Y-9800D02*
X44800Y-9800D01*
X44800Y-9900D02*
X44000Y-9900D01*
X131000Y-17900D02*
X131300Y-17900D01*
X131300Y-17900D02*
X131300Y-18300D01*
X131300Y-18300D02*
X133700Y-18300D01*
X133700Y-18300D02*
X133700Y-17900D01*
X133700Y-17900D02*
X134000Y-17900D01*
X133700Y-17900D02*
X133700Y-17500D01*
X133700Y-17500D02*
X131300Y-17500D01*
X131300Y-17500D02*
X131300Y-17900D01*
X131500Y-18300D02*
X131500Y-17500D01*
X131600Y-17500D02*
X131600Y-18300D01*
X86000Y-40400D02*
X86300Y-40400D01*
X86300Y-40400D02*
X86300Y-40800D01*
X86300Y-40800D02*
X88700Y-40800D01*
X88700Y-40800D02*
X88700Y-40400D01*
X88700Y-40400D02*
X89000Y-40400D01*
X88700Y-40400D02*
X88700Y-40000D01*
X88700Y-40000D02*
X86300Y-40000D01*
X86300Y-40000D02*
X86300Y-40400D01*
X86500Y-40800D02*
X86500Y-40000D01*
X86600Y-40000D02*
X86600Y-40800D01*
X99200Y-17900D02*
X99500Y-17900D01*
X99500Y-17900D02*
X99500Y-18300D01*
X99500Y-18300D02*
X101900Y-18300D01*
X101900Y-18300D02*
X101900Y-17900D01*
X101900Y-17900D02*
X102200Y-17900D01*
X101900Y-17900D02*
X101900Y-17500D01*
X101900Y-17500D02*
X99500Y-17500D01*
X99500Y-17500D02*
X99500Y-17900D01*
X99700Y-18300D02*
X99700Y-17500D01*
X99800Y-17500D02*
X99800Y-18300D01*
X96900Y-9300D02*
X96900Y-9600D01*
X96900Y-9600D02*
X96500Y-9600D01*
X96500Y-9600D02*
X96500Y-12000D01*
X96500Y-12000D02*
X96900Y-12000D01*
X96900Y-12000D02*
X96900Y-12300D01*
X96900Y-12000D02*
X97300Y-12000D01*
X97300Y-12000D02*
X97300Y-9600D01*
X97300Y-9600D02*
X96900Y-9600D01*
X96500Y-9800D02*
X97300Y-9800D01*
X97300Y-9900D02*
X96500Y-9900D01*
X56885Y-47845D02*
X57185Y-47845D01*
X57185Y-47845D02*
X57185Y-48245D01*
X57185Y-48245D02*
X59585Y-48245D01*
X59585Y-48245D02*
X59585Y-47845D01*
X59585Y-47845D02*
X59885Y-47845D01*
X59585Y-47845D02*
X59585Y-47445D01*
X59585Y-47445D02*
X57185Y-47445D01*
X57185Y-47445D02*
X57185Y-47845D01*
X57385Y-48245D02*
X57385Y-47445D01*
X57485Y-47445D02*
X57485Y-48245D01*
X93500Y-40400D02*
X93800Y-40400D01*
X93800Y-40400D02*
X93800Y-40800D01*
X93800Y-40800D02*
X96200Y-40800D01*
X96200Y-40800D02*
X96200Y-40400D01*
X96200Y-40400D02*
X96500Y-40400D01*
X96200Y-40400D02*
X96200Y-40000D01*
X96200Y-40000D02*
X93800Y-40000D01*
X93800Y-40000D02*
X93800Y-40400D01*
X94000Y-40800D02*
X94000Y-40000D01*
X94100Y-40000D02*
X94100Y-40800D01*
X101400Y-25400D02*
X101700Y-25400D01*
X101700Y-25400D02*
X101700Y-25800D01*
X101700Y-25800D02*
X104100Y-25800D01*
X104100Y-25800D02*
X104100Y-25400D01*
X104100Y-25400D02*
X104400Y-25400D01*
X104100Y-25400D02*
X104100Y-25000D01*
X104100Y-25000D02*
X101700Y-25000D01*
X101700Y-25000D02*
X101700Y-25400D01*
X101900Y-25800D02*
X101900Y-25000D01*
X102000Y-25000D02*
X102000Y-25800D01*
X89800Y-32900D02*
X90100Y-32900D01*
X90100Y-32900D02*
X90100Y-33300D01*
X90100Y-33300D02*
X92500Y-33300D01*
X92500Y-33300D02*
X92500Y-32900D01*
X92500Y-32900D02*
X92800Y-32900D01*
X92500Y-32900D02*
X92500Y-32500D01*
X92500Y-32500D02*
X90100Y-32500D01*
X90100Y-32500D02*
X90100Y-32900D01*
X90300Y-33300D02*
X90300Y-32500D01*
X90400Y-32500D02*
X90400Y-33300D01*
X95400Y-25400D02*
X95700Y-25400D01*
X95700Y-25400D02*
X95700Y-25800D01*
X95700Y-25800D02*
X98100Y-25800D01*
X98100Y-25800D02*
X98100Y-25400D01*
X98100Y-25400D02*
X98400Y-25400D01*
X98100Y-25400D02*
X98100Y-25000D01*
X98100Y-25000D02*
X95700Y-25000D01*
X95700Y-25000D02*
X95700Y-25400D01*
X95900Y-25800D02*
X95900Y-25000D01*
X96000Y-25000D02*
X96000Y-25800D01*
X97300Y-32900D02*
X97600Y-32900D01*
X97600Y-32900D02*
X97600Y-33300D01*
X97600Y-33300D02*
X100000Y-33300D01*
X100000Y-33300D02*
X100000Y-32900D01*
X100000Y-32900D02*
X100300Y-32900D01*
X100000Y-32900D02*
X100000Y-32500D01*
X100000Y-32500D02*
X97600Y-32500D01*
X97600Y-32500D02*
X97600Y-32900D01*
X97800Y-33300D02*
X97800Y-32500D01*
X97900Y-32500D02*
X97900Y-33300D01*
X91600Y-17900D02*
X91900Y-17900D01*
X91900Y-17900D02*
X91900Y-18300D01*
X91900Y-18300D02*
X94300Y-18300D01*
X94300Y-18300D02*
X94300Y-17900D01*
X94300Y-17900D02*
X94600Y-17900D01*
X94300Y-17900D02*
X94300Y-17500D01*
X94300Y-17500D02*
X91900Y-17500D01*
X91900Y-17500D02*
X91900Y-17900D01*
X92100Y-18300D02*
X92100Y-17500D01*
X92200Y-17500D02*
X92200Y-18300D01*
X89400Y-9300D02*
X89400Y-9600D01*
X89400Y-9600D02*
X89000Y-9600D01*
X89000Y-9600D02*
X89000Y-12000D01*
X89000Y-12000D02*
X89400Y-12000D01*
X89400Y-12000D02*
X89400Y-12300D01*
X89400Y-12000D02*
X89800Y-12000D01*
X89800Y-12000D02*
X89800Y-9600D01*
X89800Y-9600D02*
X89400Y-9600D01*
X89000Y-9800D02*
X89800Y-9800D01*
X89800Y-9900D02*
X89000Y-9900D01*
X14400Y-9300D02*
X14400Y-9600D01*
X14400Y-9600D02*
X14000Y-9600D01*
X14000Y-9600D02*
X14000Y-12000D01*
X14000Y-12000D02*
X14400Y-12000D01*
X14400Y-12000D02*
X14400Y-12300D01*
X14400Y-12000D02*
X14800Y-12000D01*
X14800Y-12000D02*
X14800Y-9600D01*
X14800Y-9600D02*
X14400Y-9600D01*
X14000Y-9800D02*
X14800Y-9800D01*
X14800Y-9900D02*
X14000Y-9900D01*
X82300Y-32900D02*
X82600Y-32900D01*
X82600Y-32900D02*
X82600Y-33300D01*
X82600Y-33300D02*
X85000Y-33300D01*
X85000Y-33300D02*
X85000Y-32900D01*
X85000Y-32900D02*
X85300Y-32900D01*
X85000Y-32900D02*
X85000Y-32500D01*
X85000Y-32500D02*
X82600Y-32500D01*
X82600Y-32500D02*
X82600Y-32900D01*
X82800Y-33300D02*
X82800Y-32500D01*
X82900Y-32500D02*
X82900Y-33300D01*
X104400Y-9300D02*
X104400Y-9600D01*
X104400Y-9600D02*
X104000Y-9600D01*
X104000Y-9600D02*
X104000Y-12000D01*
X104000Y-12000D02*
X104400Y-12000D01*
X104400Y-12000D02*
X104400Y-12300D01*
X104400Y-12000D02*
X104800Y-12000D01*
X104800Y-12000D02*
X104800Y-9600D01*
X104800Y-9600D02*
X104400Y-9600D01*
X104000Y-9800D02*
X104800Y-9800D01*
X104800Y-9900D02*
X104000Y-9900D01*
X87900Y-25400D02*
X88200Y-25400D01*
X88200Y-25400D02*
X88200Y-25800D01*
X88200Y-25800D02*
X90600Y-25800D01*
X90600Y-25800D02*
X90600Y-25400D01*
X90600Y-25400D02*
X90900Y-25400D01*
X90600Y-25400D02*
X90600Y-25000D01*
X90600Y-25000D02*
X88200Y-25000D01*
X88200Y-25000D02*
X88200Y-25400D01*
X88400Y-25800D02*
X88400Y-25000D01*
X88500Y-25000D02*
X88500Y-25800D01*
X84100Y-17900D02*
X84400Y-17900D01*
X84400Y-17900D02*
X84400Y-18300D01*
X84400Y-18300D02*
X86800Y-18300D01*
X86800Y-18300D02*
X86800Y-17900D01*
X86800Y-17900D02*
X87100Y-17900D01*
X86800Y-17900D02*
X86800Y-17500D01*
X86800Y-17500D02*
X84400Y-17500D01*
X84400Y-17500D02*
X84400Y-17900D01*
X84600Y-18300D02*
X84600Y-17500D01*
X84700Y-17500D02*
X84700Y-18300D01*
X110300Y-17900D02*
X110600Y-17900D01*
X110600Y-17900D02*
X110600Y-18300D01*
X110600Y-18300D02*
X113000Y-18300D01*
X113000Y-18300D02*
X113000Y-17900D01*
X113000Y-17900D02*
X113300Y-17900D01*
X113000Y-17900D02*
X113000Y-17500D01*
X113000Y-17500D02*
X110600Y-17500D01*
X110600Y-17500D02*
X110600Y-17900D01*
X110800Y-18300D02*
X110800Y-17500D01*
X110900Y-17500D02*
X110900Y-18300D01*
X78100Y-9300D02*
X78100Y-9600D01*
X78100Y-9600D02*
X77700Y-9600D01*
X77700Y-9600D02*
X77700Y-12000D01*
X77700Y-12000D02*
X78100Y-12000D01*
X78100Y-12000D02*
X78100Y-12300D01*
X78100Y-12000D02*
X78500Y-12000D01*
X78500Y-12000D02*
X78500Y-9600D01*
X78500Y-9600D02*
X78100Y-9600D01*
X77700Y-9800D02*
X78500Y-9800D01*
X78500Y-9900D02*
X77700Y-9900D01*
X78500Y-40400D02*
X78800Y-40400D01*
X78800Y-40400D02*
X78800Y-40800D01*
X78800Y-40800D02*
X81200Y-40800D01*
X81200Y-40800D02*
X81200Y-40400D01*
X81200Y-40400D02*
X81500Y-40400D01*
X81200Y-40400D02*
X81200Y-40000D01*
X81200Y-40000D02*
X78800Y-40000D01*
X78800Y-40000D02*
X78800Y-40400D01*
X79000Y-40800D02*
X79000Y-40000D01*
X79100Y-40000D02*
X79100Y-40800D01*
X112200Y-25400D02*
X112500Y-25400D01*
X112500Y-25400D02*
X112500Y-25800D01*
X112500Y-25800D02*
X114900Y-25800D01*
X114900Y-25800D02*
X114900Y-25400D01*
X114900Y-25400D02*
X115200Y-25400D01*
X114900Y-25400D02*
X114900Y-25000D01*
X114900Y-25000D02*
X112500Y-25000D01*
X112500Y-25000D02*
X112500Y-25400D01*
X112700Y-25800D02*
X112700Y-25000D01*
X112800Y-25000D02*
X112800Y-25800D01*
X74800Y-32900D02*
X75100Y-32900D01*
X75100Y-32900D02*
X75100Y-33300D01*
X75100Y-33300D02*
X77500Y-33300D01*
X77500Y-33300D02*
X77500Y-32900D01*
X77500Y-32900D02*
X77800Y-32900D01*
X77500Y-32900D02*
X77500Y-32500D01*
X77500Y-32500D02*
X75100Y-32500D01*
X75100Y-32500D02*
X75100Y-32900D01*
X75300Y-33300D02*
X75300Y-32500D01*
X75400Y-32500D02*
X75400Y-33300D01*
X52300Y-32900D02*
X52600Y-32900D01*
X52600Y-32900D02*
X52600Y-33300D01*
X52600Y-33300D02*
X55000Y-33300D01*
X55000Y-33300D02*
X55000Y-32900D01*
X55000Y-32900D02*
X55300Y-32900D01*
X55000Y-32900D02*
X55000Y-32500D01*
X55000Y-32500D02*
X52600Y-32500D01*
X52600Y-32500D02*
X52600Y-32900D01*
X52800Y-33300D02*
X52800Y-32500D01*
X52900Y-32500D02*
X52900Y-33300D01*
X26000Y-40400D02*
X26300Y-40400D01*
X26300Y-40400D02*
X26300Y-40800D01*
X26300Y-40800D02*
X28700Y-40800D01*
X28700Y-40800D02*
X28700Y-40400D01*
X28700Y-40400D02*
X29000Y-40400D01*
X28700Y-40400D02*
X28700Y-40000D01*
X28700Y-40000D02*
X26300Y-40000D01*
X26300Y-40000D02*
X26300Y-40400D01*
X26500Y-40800D02*
X26500Y-40000D01*
X26600Y-40000D02*
X26600Y-40800D01*
X29400Y-9300D02*
X29400Y-9600D01*
X29400Y-9600D02*
X29000Y-9600D01*
X29000Y-9600D02*
X29000Y-12000D01*
X29000Y-12000D02*
X29400Y-12000D01*
X29400Y-12000D02*
X29400Y-12300D01*
X29400Y-12000D02*
X29800Y-12000D01*
X29800Y-12000D02*
X29800Y-9600D01*
X29800Y-9600D02*
X29400Y-9600D01*
X29000Y-9800D02*
X29800Y-9800D01*
X29800Y-9900D02*
X29000Y-9900D01*
X28900Y-47900D02*
X29200Y-47900D01*
X29200Y-47900D02*
X29200Y-48300D01*
X29200Y-48300D02*
X31600Y-48300D01*
X31600Y-48300D02*
X31600Y-47900D01*
X31600Y-47900D02*
X31900Y-47900D01*
X31600Y-47900D02*
X31600Y-47500D01*
X31600Y-47500D02*
X29200Y-47500D01*
X29200Y-47500D02*
X29200Y-47900D01*
X29400Y-48300D02*
X29400Y-47500D01*
X29500Y-47500D02*
X29500Y-48300D01*
X33500Y-40400D02*
X33800Y-40400D01*
X33800Y-40400D02*
X33800Y-40800D01*
X33800Y-40800D02*
X36200Y-40800D01*
X36200Y-40800D02*
X36200Y-40400D01*
X36200Y-40400D02*
X36500Y-40400D01*
X36200Y-40400D02*
X36200Y-40000D01*
X36200Y-40000D02*
X33800Y-40000D01*
X33800Y-40000D02*
X33800Y-40400D01*
X34000Y-40800D02*
X34000Y-40000D01*
X34100Y-40000D02*
X34100Y-40800D01*
X29800Y-32900D02*
X30100Y-32900D01*
X30100Y-32900D02*
X30100Y-33300D01*
X30100Y-33300D02*
X32500Y-33300D01*
X32500Y-33300D02*
X32500Y-32900D01*
X32500Y-32900D02*
X32800Y-32900D01*
X32500Y-32900D02*
X32500Y-32500D01*
X32500Y-32500D02*
X30100Y-32500D01*
X30100Y-32500D02*
X30100Y-32900D01*
X30300Y-33300D02*
X30300Y-32500D01*
X30400Y-32500D02*
X30400Y-33300D01*
X48500Y-40400D02*
X48800Y-40400D01*
X48800Y-40400D02*
X48800Y-40800D01*
X48800Y-40800D02*
X51200Y-40800D01*
X51200Y-40800D02*
X51200Y-40400D01*
X51200Y-40400D02*
X51500Y-40400D01*
X51200Y-40400D02*
X51200Y-40000D01*
X51200Y-40000D02*
X48800Y-40000D01*
X48800Y-40000D02*
X48800Y-40400D01*
X49000Y-40800D02*
X49000Y-40000D01*
X49100Y-40000D02*
X49100Y-40800D01*
X31600Y-17900D02*
X31900Y-17900D01*
X31900Y-17900D02*
X31900Y-18300D01*
X31900Y-18300D02*
X34300Y-18300D01*
X34300Y-18300D02*
X34300Y-17900D01*
X34300Y-17900D02*
X34600Y-17900D01*
X34300Y-17900D02*
X34300Y-17500D01*
X34300Y-17500D02*
X31900Y-17500D01*
X31900Y-17500D02*
X31900Y-17900D01*
X32100Y-18300D02*
X32100Y-17500D01*
X32200Y-17500D02*
X32200Y-18300D01*
X94400Y-47900D02*
X94700Y-47900D01*
X94700Y-47900D02*
X94700Y-48300D01*
X94700Y-48300D02*
X97100Y-48300D01*
X97100Y-48300D02*
X97100Y-47900D01*
X97100Y-47900D02*
X97400Y-47900D01*
X97100Y-47900D02*
X97100Y-47500D01*
X97100Y-47500D02*
X94700Y-47500D01*
X94700Y-47500D02*
X94700Y-47900D01*
X94900Y-48300D02*
X94900Y-47500D01*
X95000Y-47500D02*
X95000Y-48300D01*
X21900Y-9300D02*
X21900Y-9600D01*
X21900Y-9600D02*
X21500Y-9600D01*
X21500Y-9600D02*
X21500Y-12000D01*
X21500Y-12000D02*
X21900Y-12000D01*
X21900Y-12000D02*
X21900Y-12300D01*
X21900Y-12000D02*
X22300Y-12000D01*
X22300Y-12000D02*
X22300Y-9600D01*
X22300Y-9600D02*
X21900Y-9600D01*
X21500Y-9800D02*
X22300Y-9800D01*
X22300Y-9900D02*
X21500Y-9900D01*
X19500Y-47900D02*
X19800Y-47900D01*
X19800Y-47900D02*
X19800Y-48300D01*
X19800Y-48300D02*
X22200Y-48300D01*
X22200Y-48300D02*
X22200Y-47900D01*
X22200Y-47900D02*
X22500Y-47900D01*
X22200Y-47900D02*
X22200Y-47500D01*
X22200Y-47500D02*
X19800Y-47500D01*
X19800Y-47500D02*
X19800Y-47900D01*
X20000Y-48300D02*
X20000Y-47500D01*
X20100Y-47500D02*
X20100Y-48300D01*
X35400Y-25400D02*
X35700Y-25400D01*
X35700Y-25400D02*
X35700Y-25800D01*
X35700Y-25800D02*
X38100Y-25800D01*
X38100Y-25800D02*
X38100Y-25400D01*
X38100Y-25400D02*
X38400Y-25400D01*
X38100Y-25400D02*
X38100Y-25000D01*
X38100Y-25000D02*
X35700Y-25000D01*
X35700Y-25000D02*
X35700Y-25400D01*
X35900Y-25800D02*
X35900Y-25000D01*
X36000Y-25000D02*
X36000Y-25800D01*
X22300Y-32900D02*
X22600Y-32900D01*
X22600Y-32900D02*
X22600Y-33300D01*
X22600Y-33300D02*
X25000Y-33300D01*
X25000Y-33300D02*
X25000Y-32900D01*
X25000Y-32900D02*
X25300Y-32900D01*
X25000Y-32900D02*
X25000Y-32500D01*
X25000Y-32500D02*
X22600Y-32500D01*
X22600Y-32500D02*
X22600Y-32900D01*
X22800Y-33300D02*
X22800Y-32500D01*
X22900Y-32500D02*
X22900Y-33300D01*
X11000Y-25400D02*
X11300Y-25400D01*
X11300Y-25400D02*
X11300Y-25800D01*
X11300Y-25800D02*
X13700Y-25800D01*
X13700Y-25800D02*
X13700Y-25400D01*
X13700Y-25400D02*
X14000Y-25400D01*
X13700Y-25400D02*
X13700Y-25000D01*
X13700Y-25000D02*
X11300Y-25000D01*
X11300Y-25000D02*
X11300Y-25400D01*
X11500Y-25800D02*
X11500Y-25000D01*
X11600Y-25000D02*
X11600Y-25800D01*
X27900Y-25400D02*
X28200Y-25400D01*
X28200Y-25400D02*
X28200Y-25800D01*
X28200Y-25800D02*
X30600Y-25800D01*
X30600Y-25800D02*
X30600Y-25400D01*
X30600Y-25400D02*
X30900Y-25400D01*
X30600Y-25400D02*
X30600Y-25000D01*
X30600Y-25000D02*
X28200Y-25000D01*
X28200Y-25000D02*
X28200Y-25400D01*
X28400Y-25800D02*
X28400Y-25000D01*
X28500Y-25000D02*
X28500Y-25800D01*
X24100Y-17900D02*
X24400Y-17900D01*
X24400Y-17900D02*
X24400Y-18300D01*
X24400Y-18300D02*
X26800Y-18300D01*
X26800Y-18300D02*
X26800Y-17900D01*
X26800Y-17900D02*
X27100Y-17900D01*
X26800Y-17900D02*
X26800Y-17500D01*
X26800Y-17500D02*
X24400Y-17500D01*
X24400Y-17500D02*
X24400Y-17900D01*
X24600Y-18300D02*
X24600Y-17500D01*
X24700Y-17500D02*
X24700Y-18300D01*
X9100Y-17900D02*
X9400Y-17900D01*
X9400Y-17900D02*
X9400Y-18300D01*
X9400Y-18300D02*
X11800Y-18300D01*
X11800Y-18300D02*
X11800Y-17900D01*
X11800Y-17900D02*
X12100Y-17900D01*
X11800Y-17900D02*
X11800Y-17500D01*
X11800Y-17500D02*
X9400Y-17500D01*
X9400Y-17500D02*
X9400Y-17900D01*
X9600Y-18300D02*
X9600Y-17500D01*
X9700Y-17500D02*
X9700Y-18300D01*
X10100Y-47900D02*
X10400Y-47900D01*
X10400Y-47900D02*
X10400Y-48300D01*
X10400Y-48300D02*
X12800Y-48300D01*
X12800Y-48300D02*
X12800Y-47900D01*
X12800Y-47900D02*
X13100Y-47900D01*
X12800Y-47900D02*
X12800Y-47500D01*
X12800Y-47500D02*
X10400Y-47500D01*
X10400Y-47500D02*
X10400Y-47900D01*
X10600Y-48300D02*
X10600Y-47500D01*
X10700Y-47500D02*
X10700Y-48300D01*
X13800Y-40400D02*
X14100Y-40400D01*
X14100Y-40400D02*
X14100Y-40800D01*
X14100Y-40800D02*
X16500Y-40800D01*
X16500Y-40800D02*
X16500Y-40400D01*
X16500Y-40400D02*
X16800Y-40400D01*
X16500Y-40400D02*
X16500Y-40000D01*
X16500Y-40000D02*
X14100Y-40000D01*
X14100Y-40000D02*
X14100Y-40400D01*
X14300Y-40800D02*
X14300Y-40000D01*
X14400Y-40000D02*
X14400Y-40800D01*
X10100Y-32900D02*
X10400Y-32900D01*
X10400Y-32900D02*
X10400Y-33300D01*
X10400Y-33300D02*
X12800Y-33300D01*
X12800Y-33300D02*
X12800Y-32900D01*
X12800Y-32900D02*
X13100Y-32900D01*
X12800Y-32900D02*
X12800Y-32500D01*
X12800Y-32500D02*
X10400Y-32500D01*
X10400Y-32500D02*
X10400Y-32900D01*
X10600Y-33300D02*
X10600Y-32500D01*
X10700Y-32500D02*
X10700Y-33300D01*
X20400Y-25400D02*
X20700Y-25400D01*
X20700Y-25400D02*
X20700Y-25800D01*
X20700Y-25800D02*
X23100Y-25800D01*
X23100Y-25800D02*
X23100Y-25400D01*
X23100Y-25400D02*
X23400Y-25400D01*
X23100Y-25400D02*
X23100Y-25000D01*
X23100Y-25000D02*
X20700Y-25000D01*
X20700Y-25000D02*
X20700Y-25400D01*
X20900Y-25800D02*
X20900Y-25000D01*
X21000Y-25000D02*
X21000Y-25800D01*
X16600Y-17900D02*
X16900Y-17900D01*
X16900Y-17900D02*
X16900Y-18300D01*
X16900Y-18300D02*
X19300Y-18300D01*
X19300Y-18300D02*
X19300Y-17900D01*
X19300Y-17900D02*
X19600Y-17900D01*
X19300Y-17900D02*
X19300Y-17500D01*
X19300Y-17500D02*
X16900Y-17500D01*
X16900Y-17500D02*
X16900Y-17900D01*
X17100Y-18300D02*
X17100Y-17500D01*
X17200Y-17500D02*
X17200Y-18300D01*
X85100Y-47900D02*
X85400Y-47900D01*
X85400Y-47900D02*
X85400Y-48300D01*
X85400Y-48300D02*
X87800Y-48300D01*
X87800Y-48300D02*
X87800Y-47900D01*
X87800Y-47900D02*
X88100Y-47900D01*
X87800Y-47900D02*
X87800Y-47500D01*
X87800Y-47500D02*
X85400Y-47500D01*
X85400Y-47500D02*
X85400Y-47900D01*
X85600Y-48300D02*
X85600Y-47500D01*
X85700Y-47500D02*
X85700Y-48300D01*
X46600Y-17900D02*
X46900Y-17900D01*
X46900Y-17900D02*
X46900Y-18300D01*
X46900Y-18300D02*
X49300Y-18300D01*
X49300Y-18300D02*
X49300Y-17900D01*
X49300Y-17900D02*
X49600Y-17900D01*
X49300Y-17900D02*
X49300Y-17500D01*
X49300Y-17500D02*
X46900Y-17500D01*
X46900Y-17500D02*
X46900Y-17900D01*
X47100Y-18300D02*
X47100Y-17500D01*
X47200Y-17500D02*
X47200Y-18300D01*
X50400Y-25400D02*
X50700Y-25400D01*
X50700Y-25400D02*
X50700Y-25800D01*
X50700Y-25800D02*
X53100Y-25800D01*
X53100Y-25800D02*
X53100Y-25400D01*
X53100Y-25400D02*
X53400Y-25400D01*
X53100Y-25400D02*
X53100Y-25000D01*
X53100Y-25000D02*
X50700Y-25000D01*
X50700Y-25000D02*
X50700Y-25400D01*
X50900Y-25800D02*
X50900Y-25000D01*
X51000Y-25000D02*
X51000Y-25800D01*
X36900Y-9300D02*
X36900Y-9600D01*
X36900Y-9600D02*
X36500Y-9600D01*
X36500Y-9600D02*
X36500Y-12000D01*
X36500Y-12000D02*
X36900Y-12000D01*
X36900Y-12000D02*
X36900Y-12300D01*
X36900Y-12000D02*
X37300Y-12000D01*
X37300Y-12000D02*
X37300Y-9600D01*
X37300Y-9600D02*
X36900Y-9600D01*
X36500Y-9800D02*
X37300Y-9800D01*
X37300Y-9900D02*
X36500Y-9900D01*
X131000Y-25400D02*
X131300Y-25400D01*
X131300Y-25400D02*
X131300Y-25800D01*
X131300Y-25800D02*
X133700Y-25800D01*
X133700Y-25800D02*
X133700Y-25400D01*
X133700Y-25400D02*
X134000Y-25400D01*
X133700Y-25400D02*
X133700Y-25000D01*
X133700Y-25000D02*
X131300Y-25000D01*
X131300Y-25000D02*
X131300Y-25400D01*
X131500Y-25800D02*
X131500Y-25000D01*
X131600Y-25000D02*
X131600Y-25800D01*
X41000Y-40400D02*
X41300Y-40400D01*
X41300Y-40400D02*
X41300Y-40800D01*
X41300Y-40800D02*
X43700Y-40800D01*
X43700Y-40800D02*
X43700Y-40400D01*
X43700Y-40400D02*
X44000Y-40400D01*
X43700Y-40400D02*
X43700Y-40000D01*
X43700Y-40000D02*
X41300Y-40000D01*
X41300Y-40000D02*
X41300Y-40400D01*
X41500Y-40800D02*
X41500Y-40000D01*
X41600Y-40000D02*
X41600Y-40800D01*
X37300Y-32900D02*
X37600Y-32900D01*
X37600Y-32900D02*
X37600Y-33300D01*
X37600Y-33300D02*
X40000Y-33300D01*
X40000Y-33300D02*
X40000Y-32900D01*
X40000Y-32900D02*
X40300Y-32900D01*
X40000Y-32900D02*
X40000Y-32500D01*
X40000Y-32500D02*
X37600Y-32500D01*
X37600Y-32500D02*
X37600Y-32900D01*
X37800Y-33300D02*
X37800Y-32500D01*
X37900Y-32500D02*
X37900Y-33300D01*
X44800Y-32900D02*
X45100Y-32900D01*
X45100Y-32900D02*
X45100Y-33300D01*
X45100Y-33300D02*
X47500Y-33300D01*
X47500Y-33300D02*
X47500Y-32900D01*
X47500Y-32900D02*
X47800Y-32900D01*
X47500Y-32900D02*
X47500Y-32500D01*
X47500Y-32500D02*
X45100Y-32500D01*
X45100Y-32500D02*
X45100Y-32900D01*
X45300Y-33300D02*
X45300Y-32500D01*
X45400Y-32500D02*
X45400Y-33300D01*
X42900Y-25400D02*
X43200Y-25400D01*
X43200Y-25400D02*
X43200Y-25800D01*
X43200Y-25800D02*
X45600Y-25800D01*
X45600Y-25800D02*
X45600Y-25400D01*
X45600Y-25400D02*
X45900Y-25400D01*
X45600Y-25400D02*
X45600Y-25000D01*
X45600Y-25000D02*
X43200Y-25000D01*
X43200Y-25000D02*
X43200Y-25400D01*
X43400Y-25800D02*
X43400Y-25000D01*
X43500Y-25000D02*
X43500Y-25800D01*
X128700Y-9300D02*
X128700Y-9600D01*
X128700Y-9600D02*
X128300Y-9600D01*
X128300Y-9600D02*
X128300Y-12000D01*
X128300Y-12000D02*
X128700Y-12000D01*
X128700Y-12000D02*
X128700Y-12300D01*
X128700Y-12000D02*
X129100Y-12000D01*
X129100Y-12000D02*
X129100Y-9600D01*
X129100Y-9600D02*
X128700Y-9600D01*
X128300Y-9800D02*
X129100Y-9800D01*
X129100Y-9900D02*
X128300Y-9900D01*
X39100Y-17900D02*
X39400Y-17900D01*
X39400Y-17900D02*
X39400Y-18300D01*
X39400Y-18300D02*
X41800Y-18300D01*
X41800Y-18300D02*
X41800Y-17900D01*
X41800Y-17900D02*
X42100Y-17900D01*
X41800Y-17900D02*
X41800Y-17500D01*
X41800Y-17500D02*
X39400Y-17500D01*
X39400Y-17500D02*
X39400Y-17900D01*
X39600Y-18300D02*
X39600Y-17500D01*
X39700Y-17500D02*
X39700Y-18300D01*
X106400Y-32800D02*
X106700Y-32800D01*
X106700Y-32800D02*
X106700Y-33200D01*
X106700Y-33200D02*
X109100Y-33200D01*
X109100Y-33200D02*
X109100Y-32800D01*
X109100Y-32800D02*
X109400Y-32800D01*
X109100Y-32800D02*
X109100Y-32400D01*
X109100Y-32400D02*
X106700Y-32400D01*
X106700Y-32400D02*
X106700Y-32800D01*
X106900Y-33200D02*
X106900Y-32400D01*
X107000Y-32400D02*
X107000Y-33200D01*
X116700Y-43100D02*
X116700Y-43400D01*
X116700Y-43400D02*
X116300Y-43400D01*
X116300Y-43400D02*
X116300Y-45800D01*
X116300Y-45800D02*
X116700Y-45800D01*
X116700Y-45800D02*
X116700Y-46100D01*
X116700Y-45800D02*
X117100Y-45800D01*
X117100Y-45800D02*
X117100Y-43400D01*
X117100Y-43400D02*
X116700Y-43400D01*
X116300Y-43600D02*
X117100Y-43600D01*
X117100Y-43700D02*
X116300Y-43700D01*
X118600Y-50700D02*
X118600Y-51000D01*
X118600Y-51000D02*
X118200Y-51000D01*
X118200Y-51000D02*
X118200Y-53400D01*
X118200Y-53400D02*
X118600Y-53400D01*
X118600Y-53400D02*
X118600Y-53700D01*
X118600Y-53400D02*
X119000Y-53400D01*
X119000Y-53400D02*
X119000Y-51000D01*
X119000Y-51000D02*
X118600Y-51000D01*
X118200Y-51200D02*
X119000Y-51200D01*
X119000Y-51300D02*
X118200Y-51300D01*
X123500Y-47900D02*
X123800Y-47900D01*
X123800Y-47900D02*
X123800Y-48300D01*
X123800Y-48300D02*
X126200Y-48300D01*
X126200Y-48300D02*
X126200Y-47900D01*
X126200Y-47900D02*
X126500Y-47900D01*
X126200Y-47900D02*
X126200Y-47500D01*
X126200Y-47500D02*
X123800Y-47500D01*
X123800Y-47500D02*
X123800Y-47900D01*
X124000Y-48300D02*
X124000Y-47500D01*
X124100Y-47500D02*
X124100Y-48300D01*
X100635Y-50595D02*
X100635Y-50295D01*
X100635Y-50295D02*
X101035Y-50295D01*
X101035Y-50295D02*
X101035Y-47895D01*
X101035Y-47895D02*
X100635Y-47895D01*
X100635Y-47895D02*
X100635Y-47595D01*
X100635Y-47895D02*
X100235Y-47895D01*
X100235Y-47895D02*
X100235Y-50295D01*
X100235Y-50295D02*
X100635Y-50295D01*
X101035Y-50095D02*
X100235Y-50095D01*
X100235Y-49995D02*
X101035Y-49995D01*
X128885Y-43095D02*
X128885Y-43395D01*
X128885Y-43395D02*
X128485Y-43395D01*
X128485Y-43395D02*
X128485Y-45795D01*
X128485Y-45795D02*
X128885Y-45795D01*
X128885Y-45795D02*
X128885Y-46095D01*
X128885Y-45795D02*
X129285Y-45795D01*
X129285Y-45795D02*
X129285Y-43395D01*
X129285Y-43395D02*
X128885Y-43395D01*
X128485Y-43595D02*
X129285Y-43595D01*
X129285Y-43695D02*
X128485Y-43695D01*
X131000Y-47900D02*
X131300Y-47900D01*
X131300Y-47900D02*
X131300Y-48300D01*
X131300Y-48300D02*
X133700Y-48300D01*
X133700Y-48300D02*
X133700Y-47900D01*
X133700Y-47900D02*
X134000Y-47900D01*
X133700Y-47900D02*
X133700Y-47500D01*
X133700Y-47500D02*
X131300Y-47500D01*
X131300Y-47500D02*
X131300Y-47900D01*
X131500Y-48300D02*
X131500Y-47500D01*
X131600Y-47500D02*
X131600Y-48300D01*
X136300Y-9300D02*
X136300Y-9600D01*
X136300Y-9600D02*
X135900Y-9600D01*
X135900Y-9600D02*
X135900Y-12000D01*
X135900Y-12000D02*
X136300Y-12000D01*
X136300Y-12000D02*
X136300Y-12300D01*
X136300Y-12000D02*
X136700Y-12000D01*
X136700Y-12000D02*
X136700Y-9600D01*
X136700Y-9600D02*
X136300Y-9600D01*
X135900Y-9800D02*
X136700Y-9800D01*
X136700Y-9900D02*
X135900Y-9900D01*
X138500Y-17900D02*
X138800Y-17900D01*
X138800Y-17900D02*
X138800Y-18300D01*
X138800Y-18300D02*
X141200Y-18300D01*
X141200Y-18300D02*
X141200Y-17900D01*
X141200Y-17900D02*
X141500Y-17900D01*
X141200Y-17900D02*
X141200Y-17500D01*
X141200Y-17500D02*
X138800Y-17500D01*
X138800Y-17500D02*
X138800Y-17900D01*
X139000Y-18300D02*
X139000Y-17500D01*
X139100Y-17500D02*
X139100Y-18300D01*
X138500Y-25400D02*
X138800Y-25400D01*
X138800Y-25400D02*
X138800Y-25800D01*
X138800Y-25800D02*
X141200Y-25800D01*
X141200Y-25800D02*
X141200Y-25400D01*
X141200Y-25400D02*
X141500Y-25400D01*
X141200Y-25400D02*
X141200Y-25000D01*
X141200Y-25000D02*
X138800Y-25000D01*
X138800Y-25000D02*
X138800Y-25400D01*
X139000Y-25800D02*
X139000Y-25000D01*
X139100Y-25000D02*
X139100Y-25800D01*
X138500Y-47900D02*
X138800Y-47900D01*
X138800Y-47900D02*
X138800Y-48300D01*
X138800Y-48300D02*
X141200Y-48300D01*
X141200Y-48300D02*
X141200Y-47900D01*
X141200Y-47900D02*
X141500Y-47900D01*
X141200Y-47900D02*
X141200Y-47500D01*
X141200Y-47500D02*
X138800Y-47500D01*
X138800Y-47500D02*
X138800Y-47900D01*
X139000Y-48300D02*
X139000Y-47500D01*
X139100Y-47500D02*
X139100Y-48300D01*
X76855Y-5474D02*
X77289Y-5474D01*
X77289Y-5474D02*
X77289Y-4883D01*
X77289Y-4883D02*
X76855Y-4883D01*
X73351Y-4882D02*
X73785Y-4882D01*
X73351Y-5473D02*
X73351Y-4882D01*
X73785Y-5473D02*
X73351Y-5473D01*
X73785Y-3307D02*
X73351Y-3307D01*
X73351Y-3307D02*
X73351Y-2716D01*
X73351Y-2716D02*
X73785Y-2716D01*
X76855Y-3307D02*
X77289Y-3307D01*
X77289Y-3307D02*
X77289Y-2716D01*
X77289Y-2716D02*
X76855Y-2716D01*
X76855Y-1771D02*
X73785Y-1771D01*
X73785Y-1771D02*
X73785Y-5709D01*
X73785Y-5709D02*
X76855Y-5709D01*
X76855Y-5709D02*
X76855Y-1771D01*
M02*
