<?xml version="1.0" encoding="utf-8"?>
<!-- Generator: Adobe Illustrator 20.1.0, SVG Export Plug-In . SVG Version: 6.00 Build 0)  -->
<svg version="1.1" id="Layer_1" xmlns="http://www.w3.org/2000/svg" xmlns:xlink="http://www.w3.org/1999/xlink" x="0px" y="0px"
	 viewBox="0 0 1058.3 1290.8" style="enable-background:new 0 0 1058.3 1290.8;" xml:space="preserve">
<style type="text/css">
	.st0{fill-opacity:0;stroke:#000000;stroke-linecap:round;stroke-linejoin:round;}
</style>
<title>SVG Picture created as openclack-tkl-brd.svg date 2016/09/06 14:23:42</title>
<desc>Picture generated by PCBNEW</desc>
<g transform="translate(0 0) scale(1 1)">
</g>
<g>
	<circle class="st0" cx="569.5" cy="884.5" r="4.3"/>
	<circle class="st0" cx="488.8" cy="884.5" r="4.3"/>
	<circle class="st0" cx="699.7" cy="1273.3" r="4.3"/>
	<circle class="st0" cx="358.6" cy="1273.3" r="4.3"/>
	<circle class="st0" cx="17.5" cy="1273.3" r="4.3"/>
	<circle class="st0" cx="17.5" cy="884.5" r="4.3"/>
	<circle class="st0" cx="1040.8" cy="884.5" r="4.3"/>
	<circle class="st0" cx="1040.8" cy="1273.3" r="4.3"/>
	<path class="st0" d="M4,867.5H1054"/>
	<path class="st0" d="M4,867.5L0.5,871"/>
	<path class="st0" d="M4,1290.3l-3.5-3.5"/>
	<path class="st0" d="M1053.9,1290.3H4"/>
	<path class="st0" d="M1057.8,1286.4l-3.9,3.9"/>
	<path class="st0" d="M1054,867.5l3.8,3.8"/>
	<path class="st0" d="M1057.8,1286.4V871.3"/>
	<path class="st0" d="M0.5,871v415.7"/>
</g>
<g>
	<circle class="st0" cx="569.5" cy="449.6" r="4.3"/>
	<circle class="st0" cx="488.8" cy="449.6" r="4.3"/>
	<circle class="st0" cx="699.7" cy="838.4" r="4.3"/>
	<circle class="st0" cx="358.6" cy="838.4" r="4.3"/>
	<circle class="st0" cx="17.5" cy="838.4" r="4.3"/>
	<circle class="st0" cx="17.5" cy="449.6" r="4.3"/>
	<circle class="st0" cx="1040.8" cy="449.6" r="4.3"/>
	<circle class="st0" cx="1040.8" cy="838.4" r="4.3"/>
	<path class="st0" d="M1057.8,436.4l-3.8-3.8"/>
	<path class="st0" d="M1053.9,855.4H4"/>
	<path class="st0" d="M1057.8,851.5l-3.9,3.9"/>
	<path class="st0" d="M0.5,851.9l3.5,3.5"/>
	<path class="st0" d="M0.5,436.1l3.5-3.5"/>
	<path class="st0" d="M1057.8,851.5V436.4"/>
	<path class="st0" d="M0.5,436.1v415.7"/>
	<path class="st0" d="M505.7,432.6v33.9"/>
	<path class="st0" d="M505.7,432.6H4"/>
	<path class="st0" d="M552.5,466.5v-33.9"/>
	<path class="st0" d="M552.5,432.6H1054"/>
	<path class="st0" d="M505.7,466.5H34.4"/>
	<path class="st0" d="M34.4,466.5v355"/>
	<path class="st0" d="M34.4,821.5h989.5"/>
	<path class="st0" d="M1023.9,821.5v-355"/>
	<path class="st0" d="M1023.9,466.5H552.5"/>
</g>
<g>
	<circle class="st0" cx="488.8" cy="17.5" r="4.3"/>
	<circle class="st0" cx="17.5" cy="17.5" r="4.3"/>
	<circle class="st0" cx="569.5" cy="17.5" r="4.3"/>
	<circle class="st0" cx="699.7" cy="406.3" r="4.3"/>
	<circle class="st0" cx="358.6" cy="406.3" r="4.3"/>
	<circle class="st0" cx="17.5" cy="406.3" r="4.3"/>
	<circle class="st0" cx="1040.8" cy="17.5" r="4.3"/>
	<circle class="st0" cx="1040.8" cy="406.3" r="4.3"/>
	<circle class="st0" cx="967.9" cy="103.9" r="5.4"/>
	<circle class="st0" cx="913.9" cy="103.9" r="5.4"/>
	<path class="st0" d="M1057.8,4.3l-3.8-3.8"/>
	<path class="st0" d="M1053.9,423.3H4"/>
	<path class="st0" d="M1053.9,423.3l3.9-3.9"/>
	<path class="st0" d="M0.5,419.8l3.5,3.5"/>
	<path class="st0" d="M0.5,4L4,0.5"/>
	<circle class="st0" cx="17" cy="21.6" r="0"/>
	<circle class="st0" cx="17" cy="21.6" r="0"/>
	<path class="st0" d="M1054,0.5H542.3"/>
	<path class="st0" d="M1057.8,419.4V4.3"/>
	<circle class="st0" cx="17" cy="21.6" r="0"/>
	<path class="st0" d="M515.9,32.3h26.4"/>
	<path class="st0" d="M542.3,32.3V0.5"/>
	<path class="st0" d="M515.9,32.3V0.5"/>
	<path class="st0" d="M515.9,0.5H4"/>
	<circle class="st0" cx="17" cy="21.6" r="0"/>
	<path class="st0" d="M0.5,4v415.7"/>
	<path class="st0" d="M752.3,286.6h39.6"/>
	<path class="st0" d="M728.9,299.9v-9.6"/>
	<path class="st0" d="M726.4,299.9h2.4"/>
	<path class="st0" d="M726.4,307.8v-7.9"/>
	<path class="st0" d="M728.9,307.8h-2.4"/>
	<path class="st0" d="M728.9,325.1v-17.3"/>
	<path class="st0" d="M791.9,326.2h-39.6"/>
	<path class="st0" d="M815.4,307.8v17.3"/>
	<path class="st0" d="M817.9,307.8h-2.4"/>
	<path class="st0" d="M817.9,299.9v7.9"/>
	<path class="st0" d="M815.4,299.9h2.4"/>
	<path class="st0" d="M815.4,290.3v9.6"/>
	<path class="st0" d="M815.4,325.1h-4.8"/>
	<path class="st0" d="M810.7,325.1v3.2"/>
	<path class="st0" d="M810.7,328.4h-9.4"/>
	<path class="st0" d="M796.5,325.1h4.8"/>
	<path class="st0" d="M801.3,325.1v3.2"/>
	<path class="st0" d="M733.6,325.1v3.2"/>
	<path class="st0" d="M733.6,328.4h9.4"/>
	<path class="st0" d="M743,328.4v-3.2"/>
	<path class="st0" d="M747.7,325.1H743"/>
	<path class="st0" d="M728.9,325.1h4.8"/>
	<path class="st0" d="M796.5,325.1v-17.3"/>
	<path class="st0" d="M796.5,307.8h-4.6"/>
	<path class="st0" d="M791.9,307.8v18.4"/>
	<path class="st0" d="M747.7,325.1v-17.3"/>
	<path class="st0" d="M747.7,307.8h4.6"/>
	<path class="st0" d="M752.3,307.8v18.4"/>
	<path class="st0" d="M815.4,290.3h-4.8"/>
	<path class="st0" d="M810.7,290.3v-1.5"/>
	<path class="st0" d="M810.7,288.8h-9.4"/>
	<path class="st0" d="M801.3,288.8v1.5"/>
	<path class="st0" d="M796.5,299.9v-9.6"/>
	<path class="st0" d="M796.5,290.3h4.8"/>
	<path class="st0" d="M791.9,286.6v13.3"/>
	<path class="st0" d="M791.9,299.9h4.6"/>
	<path class="st0" d="M747.7,290.3v9.6"/>
	<path class="st0" d="M747.7,299.9h4.6"/>
	<path class="st0" d="M752.3,299.9v-13.3"/>
	<path class="st0" d="M728.9,290.3h4.8"/>
	<path class="st0" d="M733.6,290.3v-1.5"/>
	<path class="st0" d="M733.6,288.8h9.4"/>
	<path class="st0" d="M747.7,290.3H743"/>
	<path class="st0" d="M743,290.3v-1.5"/>
	<path class="st0" d="M43.6,124.6h39.6"/>
	<path class="st0" d="M83.2,124.6v39.6"/>
	<path class="st0" d="M83.2,164.2H43.6"/>
	<path class="st0" d="M43.6,164.2v-39.6"/>
	<path class="st0" d="M975.1,340.6h39.6"/>
	<path class="st0" d="M1014.7,340.6v39.6"/>
	<path class="st0" d="M1014.7,380.2h-39.6"/>
	<path class="st0" d="M975.1,380.2v-39.6"/>
	<path class="st0" d="M921.1,178.6h39.6"/>
	<path class="st0" d="M960.7,178.6v39.6"/>
	<path class="st0" d="M960.7,218.2h-39.6"/>
	<path class="st0" d="M921.1,218.2v-39.6"/>
	<path class="st0" d="M745.6,43.6h39.6"/>
	<path class="st0" d="M785.2,43.6v39.6"/>
	<path class="st0" d="M785.2,83.2h-39.6"/>
	<path class="st0" d="M745.6,83.2V43.6"/>
	<path class="st0" d="M718.6,178.6h39.6"/>
	<path class="st0" d="M758.2,178.6v39.6"/>
	<path class="st0" d="M758.2,218.2h-39.6"/>
	<path class="st0" d="M718.6,218.2v-39.6"/>
	<path class="st0" d="M691.6,124.6h39.6"/>
	<path class="st0" d="M731.2,124.6v39.6"/>
	<path class="st0" d="M731.2,164.2h-39.6"/>
	<path class="st0" d="M691.6,164.2v-39.6"/>
	<path class="st0" d="M867.1,43.6h39.6"/>
	<path class="st0" d="M906.7,43.6v39.6"/>
	<path class="st0" d="M906.7,83.2h-39.6"/>
	<path class="st0" d="M867.1,83.2V43.6"/>
	<path class="st0" d="M921.1,124.6h39.6"/>
	<path class="st0" d="M960.7,124.6v39.6"/>
	<path class="st0" d="M960.7,164.2h-39.6"/>
	<path class="st0" d="M921.1,164.2v-39.6"/>
	<path class="st0" d="M678.1,232.6h39.6"/>
	<path class="st0" d="M717.7,232.6v39.6"/>
	<path class="st0" d="M717.7,272.2h-39.6"/>
	<path class="st0" d="M678.1,272.2v-39.6"/>
	<path class="st0" d="M529.6,124.6h39.6"/>
	<path class="st0" d="M569.2,124.6v39.6"/>
	<path class="st0" d="M569.2,164.2h-39.6"/>
	<path class="st0" d="M529.6,164.2v-39.6"/>
	<path class="st0" d="M867.1,178.6h39.6"/>
	<path class="st0" d="M906.7,178.6v39.6"/>
	<path class="st0" d="M906.7,218.2h-39.6"/>
	<path class="st0" d="M867.1,218.2v-39.6"/>
	<path class="st0" d="M921.1,43.6h39.6"/>
	<path class="st0" d="M960.7,43.6v39.6"/>
	<path class="st0" d="M960.7,83.2h-39.6"/>
	<path class="st0" d="M921.1,83.2V43.6"/>
	<path class="st0" d="M799.6,43.6h39.6"/>
	<path class="st0" d="M839.2,43.6v39.6"/>
	<path class="st0" d="M839.2,83.2h-39.6"/>
	<path class="st0" d="M799.6,83.2V43.6"/>
	<path class="st0" d="M219.1,286.6h39.6"/>
	<path class="st0" d="M258.7,286.6v39.6"/>
	<path class="st0" d="M258.7,326.2h-39.6"/>
	<path class="st0" d="M219.1,326.2v-39.6"/>
	<path class="st0" d="M394.6,178.6h39.6"/>
	<path class="st0" d="M434.2,178.6v39.6"/>
	<path class="st0" d="M434.2,218.2h-39.6"/>
	<path class="st0" d="M394.6,218.2v-39.6"/>
	<path class="st0" d="M367.6,124.6h39.6"/>
	<path class="st0" d="M407.2,124.6v39.6"/>
	<path class="st0" d="M407.2,164.2h-39.6"/>
	<path class="st0" d="M367.6,164.2v-39.6"/>
	<path class="st0" d="M313.6,43.6h39.6"/>
	<path class="st0" d="M353.2,43.6v39.6"/>
	<path class="st0" d="M353.2,83.2h-39.6"/>
	<path class="st0" d="M313.6,83.2V43.6"/>
	<path class="st0" d="M327.1,286.6h39.6"/>
	<path class="st0" d="M366.7,286.6v39.6"/>
	<path class="st0" d="M366.7,326.2h-39.6"/>
	<path class="st0" d="M327.1,326.2v-39.6"/>
	<path class="st0" d="M300.1,232.6h39.6"/>
	<path class="st0" d="M339.7,232.6v39.6"/>
	<path class="st0" d="M339.7,272.2h-39.6"/>
	<path class="st0" d="M300.1,272.2v-39.6"/>
	<path class="st0" d="M340.6,178.6h39.6"/>
	<path class="st0" d="M380.2,178.6v39.6"/>
	<path class="st0" d="M380.2,218.2h-39.6"/>
	<path class="st0" d="M340.6,218.2v-39.6"/>
	<path class="st0" d="M313.6,124.6h39.6"/>
	<path class="st0" d="M353.2,124.6v39.6"/>
	<path class="st0" d="M353.2,164.2h-39.6"/>
	<path class="st0" d="M313.6,164.2v-39.6"/>
	<path class="st0" d="M259.6,43.6h39.6"/>
	<path class="st0" d="M299.2,43.6v39.6"/>
	<path class="st0" d="M299.2,83.2h-39.6"/>
	<path class="st0" d="M259.6,83.2V43.6"/>
	<path class="st0" d="M273.1,286.6h39.6"/>
	<path class="st0" d="M312.7,286.6v39.6"/>
	<path class="st0" d="M312.7,326.2h-39.6"/>
	<path class="st0" d="M273.1,326.2v-39.6"/>
	<path class="st0" d="M246.1,232.6h39.6"/>
	<path class="st0" d="M285.7,232.6v39.6"/>
	<path class="st0" d="M285.7,272.2h-39.6"/>
	<path class="st0" d="M246.1,272.2v-39.6"/>
	<path class="st0" d="M286.6,178.6h39.6"/>
	<path class="st0" d="M326.2,178.6v39.6"/>
	<path class="st0" d="M326.2,218.2h-39.6"/>
	<path class="st0" d="M286.6,218.2v-39.6"/>
	<path class="st0" d="M259.6,124.6h39.6"/>
	<path class="st0" d="M299.2,124.6v39.6"/>
	<path class="st0" d="M299.2,164.2h-39.6"/>
	<path class="st0" d="M259.6,164.2v-39.6"/>
	<path class="st0" d="M205.6,43.6h39.6"/>
	<path class="st0" d="M245.2,43.6v39.6"/>
	<path class="st0" d="M245.2,83.2h-39.6"/>
	<path class="st0" d="M205.6,83.2V43.6"/>
	<path class="st0" d="M691.6,43.6h39.6"/>
	<path class="st0" d="M731.2,43.6v39.6"/>
	<path class="st0" d="M731.2,83.2h-39.6"/>
	<path class="st0" d="M691.6,83.2V43.6"/>
	<path class="st0" d="M192.1,232.6h39.6"/>
	<path class="st0" d="M231.7,232.6v39.6"/>
	<path class="st0" d="M231.7,272.2h-39.6"/>
	<path class="st0" d="M192.1,272.2v-39.6"/>
	<path class="st0" d="M232.6,178.6h39.6"/>
	<path class="st0" d="M272.2,178.6v39.6"/>
	<path class="st0" d="M272.2,218.2h-39.6"/>
	<path class="st0" d="M232.6,218.2v-39.6"/>
	<path class="st0" d="M205.6,124.6h39.6"/>
	<path class="st0" d="M245.2,124.6v39.6"/>
	<path class="st0" d="M245.2,164.2h-39.6"/>
	<path class="st0" d="M205.6,164.2v-39.6"/>
	<path class="st0" d="M151.6,43.6h39.6"/>
	<path class="st0" d="M191.2,43.6v39.6"/>
	<path class="st0" d="M191.2,83.2h-39.6"/>
	<path class="st0" d="M151.6,83.2V43.6"/>
	<path class="st0" d="M165.1,286.6h39.6"/>
	<path class="st0" d="M204.7,286.6v39.6"/>
	<path class="st0" d="M204.7,326.2h-39.6"/>
	<path class="st0" d="M165.1,326.2v-39.6"/>
	<path class="st0" d="M138.1,232.6h39.6"/>
	<path class="st0" d="M177.7,232.6v39.6"/>
	<path class="st0" d="M177.7,272.2h-39.6"/>
	<path class="st0" d="M138.1,272.2v-39.6"/>
	<path class="st0" d="M178.6,178.6h39.6"/>
	<path class="st0" d="M218.2,178.6v39.6"/>
	<path class="st0" d="M218.2,218.2h-39.6"/>
	<path class="st0" d="M178.6,218.2v-39.6"/>
	<path class="st0" d="M151.6,124.6h39.6"/>
	<path class="st0" d="M191.2,124.6v39.6"/>
	<path class="st0" d="M191.2,164.2h-39.6"/>
	<path class="st0" d="M151.6,164.2v-39.6"/>
	<path class="st0" d="M124.6,178.6h39.6"/>
	<path class="st0" d="M164.2,178.6v39.6"/>
	<path class="st0" d="M164.2,218.2h-39.6"/>
	<path class="st0" d="M124.6,218.2v-39.6"/>
	<path class="st0" d="M97.6,124.6h39.6"/>
	<path class="st0" d="M137.2,124.6v39.6"/>
	<path class="st0" d="M137.2,164.2H97.6"/>
	<path class="st0" d="M97.6,164.2v-39.6"/>
	<path class="st0" d="M43.6,43.6h39.6"/>
	<path class="st0" d="M83.2,43.6v39.6"/>
	<path class="st0" d="M83.2,83.2H43.6"/>
	<path class="st0" d="M43.6,83.2V43.6"/>
	<path class="st0" d="M354.1,232.6h39.6"/>
	<path class="st0" d="M393.7,232.6v39.6"/>
	<path class="st0" d="M393.7,272.2h-39.6"/>
	<path class="st0" d="M354.1,272.2v-39.6"/>
	<path class="st0" d="M651.1,286.6h39.6"/>
	<path class="st0" d="M690.7,286.6v39.6"/>
	<path class="st0" d="M690.7,326.2h-39.6"/>
	<path class="st0" d="M651.1,326.2v-39.6"/>
	<path class="st0" d="M624.1,232.6h39.6"/>
	<path class="st0" d="M663.7,232.6v39.6"/>
	<path class="st0" d="M663.7,272.2h-39.6"/>
	<path class="st0" d="M624.1,272.2v-39.6"/>
	<path class="st0" d="M664.6,178.6h39.6"/>
	<path class="st0" d="M704.2,178.6v39.6"/>
	<path class="st0" d="M704.2,218.2h-39.6"/>
	<path class="st0" d="M664.6,218.2v-39.6"/>
	<path class="st0" d="M637.6,124.6h39.6"/>
	<path class="st0" d="M677.2,124.6v39.6"/>
	<path class="st0" d="M677.2,164.2h-39.6"/>
	<path class="st0" d="M637.6,164.2v-39.6"/>
	<path class="st0" d="M637.6,43.6h39.6"/>
	<path class="st0" d="M677.2,43.6v39.6"/>
	<path class="st0" d="M677.2,83.2h-39.6"/>
	<path class="st0" d="M637.6,83.2V43.6"/>
	<path class="st0" d="M597.1,286.6h39.6"/>
	<path class="st0" d="M636.7,286.6v39.6"/>
	<path class="st0" d="M636.7,326.2h-39.6"/>
	<path class="st0" d="M597.1,326.2v-39.6"/>
	<path class="st0" d="M570.1,232.6h39.6"/>
	<path class="st0" d="M609.7,232.6v39.6"/>
	<path class="st0" d="M609.7,272.2h-39.6"/>
	<path class="st0" d="M570.1,272.2v-39.6"/>
	<path class="st0" d="M610.6,178.6h39.6"/>
	<path class="st0" d="M650.2,178.6v39.6"/>
	<path class="st0" d="M650.2,218.2h-39.6"/>
	<path class="st0" d="M610.6,218.2v-39.6"/>
	<path class="st0" d="M583.6,124.6h39.6"/>
	<path class="st0" d="M623.2,124.6v39.6"/>
	<path class="st0" d="M623.2,164.2h-39.6"/>
	<path class="st0" d="M583.6,164.2v-39.6"/>
	<path class="st0" d="M556.6,43.6h39.6"/>
	<path class="st0" d="M596.2,43.6v39.6"/>
	<path class="st0" d="M596.2,83.2h-39.6"/>
	<path class="st0" d="M556.6,83.2V43.6"/>
	<path class="st0" d="M543.1,286.6h39.6"/>
	<path class="st0" d="M582.7,286.6v39.6"/>
	<path class="st0" d="M582.7,326.2h-39.6"/>
	<path class="st0" d="M543.1,326.2v-39.6"/>
	<path class="st0" d="M516.1,232.6h39.6"/>
	<path class="st0" d="M555.7,232.6v39.6"/>
	<path class="st0" d="M555.7,272.2h-39.6"/>
	<path class="st0" d="M516.1,272.2v-39.6"/>
	<path class="st0" d="M556.6,178.6h39.6"/>
	<path class="st0" d="M596.2,178.6v39.6"/>
	<path class="st0" d="M596.2,218.2h-39.6"/>
	<path class="st0" d="M556.6,218.2v-39.6"/>
	<path class="st0" d="M502.6,43.6h39.6"/>
	<path class="st0" d="M542.2,43.6v39.6"/>
	<path class="st0" d="M542.2,83.2h-39.6"/>
	<path class="st0" d="M502.6,83.2V43.6"/>
	<path class="st0" d="M489.1,286.6h39.6"/>
	<path class="st0" d="M528.7,286.6v39.6"/>
	<path class="st0" d="M528.7,326.2h-39.6"/>
	<path class="st0" d="M489.1,326.2v-39.6"/>
	<path class="st0" d="M462.1,232.6h39.6"/>
	<path class="st0" d="M501.7,232.6v39.6"/>
	<path class="st0" d="M501.7,272.2h-39.6"/>
	<path class="st0" d="M462.1,272.2v-39.6"/>
	<path class="st0" d="M502.6,178.6h39.6"/>
	<path class="st0" d="M542.2,178.6v39.6"/>
	<path class="st0" d="M542.2,218.2h-39.6"/>
	<path class="st0" d="M502.6,218.2v-39.6"/>
	<path class="st0" d="M475.6,124.6h39.6"/>
	<path class="st0" d="M515.2,124.6v39.6"/>
	<path class="st0" d="M515.2,164.2h-39.6"/>
	<path class="st0" d="M475.6,164.2v-39.6"/>
	<path class="st0" d="M448.6,43.6h39.6"/>
	<path class="st0" d="M488.2,43.6v39.6"/>
	<path class="st0" d="M488.2,83.2h-39.6"/>
	<path class="st0" d="M448.6,83.2V43.6"/>
	<path class="st0" d="M435.1,286.6h39.6"/>
	<path class="st0" d="M474.7,286.6v39.6"/>
	<path class="st0" d="M474.7,326.2h-39.6"/>
	<path class="st0" d="M435.1,326.2v-39.6"/>
	<path class="st0" d="M408.1,232.6h39.6"/>
	<path class="st0" d="M447.7,232.6v39.6"/>
	<path class="st0" d="M447.7,272.2h-39.6"/>
	<path class="st0" d="M408.1,272.2v-39.6"/>
	<path class="st0" d="M448.6,178.6h39.6"/>
	<path class="st0" d="M488.2,178.6v39.6"/>
	<path class="st0" d="M488.2,218.2h-39.6"/>
	<path class="st0" d="M448.6,218.2v-39.6"/>
	<path class="st0" d="M421.6,124.6h39.6"/>
	<path class="st0" d="M461.2,124.6v39.6"/>
	<path class="st0" d="M461.2,164.2h-39.6"/>
	<path class="st0" d="M421.6,164.2v-39.6"/>
	<path class="st0" d="M394.6,43.6h39.6"/>
	<path class="st0" d="M434.2,43.6v39.6"/>
	<path class="st0" d="M434.2,83.2h-39.6"/>
	<path class="st0" d="M394.6,83.2V43.6"/>
	<path class="st0" d="M381.1,286.6h39.6"/>
	<path class="st0" d="M420.7,286.6v39.6"/>
	<path class="st0" d="M420.7,326.2h-39.6"/>
	<path class="st0" d="M381.1,326.2v-39.6"/>
	<path class="st0" d="M921.1,340.6h39.6"/>
	<path class="st0" d="M960.7,340.6v39.6"/>
	<path class="st0" d="M960.7,380.2h-39.6"/>
	<path class="st0" d="M921.1,380.2v-39.6"/>
	<path class="st0" d="M921.1,286.6h39.6"/>
	<path class="st0" d="M960.7,286.6v39.6"/>
	<path class="st0" d="M960.7,326.2h-39.6"/>
	<path class="st0" d="M921.1,326.2v-39.6"/>
	<path class="st0" d="M867.1,340.6h39.6"/>
	<path class="st0" d="M906.7,340.6v39.6"/>
	<path class="st0" d="M906.7,380.2h-39.6"/>
	<path class="st0" d="M867.1,380.2v-39.6"/>
	<path class="st0" d="M867.1,124.6h39.6"/>
	<path class="st0" d="M906.7,124.6v39.6"/>
	<path class="st0" d="M906.7,164.2h-39.6"/>
	<path class="st0" d="M867.1,164.2v-39.6"/>
	<path class="st0" d="M975.1,43.6h39.6"/>
	<path class="st0" d="M1014.7,43.6v39.6"/>
	<path class="st0" d="M1014.7,83.2h-39.6"/>
	<path class="st0" d="M975.1,83.2V43.6"/>
	<path class="st0" d="M975.1,124.6h39.6"/>
	<path class="st0" d="M1014.7,124.6v39.6"/>
	<path class="st0" d="M1014.7,164.2h-39.6"/>
	<path class="st0" d="M975.1,164.2v-39.6"/>
	<path class="st0" d="M975.1,178.6h39.6"/>
	<path class="st0" d="M1014.7,178.6v39.6"/>
	<path class="st0" d="M1014.7,218.2h-39.6"/>
	<path class="st0" d="M975.1,218.2v-39.6"/>
	<path class="st0" d="M786.1,178.6h39.6"/>
	<path class="st0" d="M825.7,178.6v39.6"/>
	<path class="st0" d="M825.7,218.2h-39.6"/>
	<path class="st0" d="M786.1,218.2v-39.6"/>
	<path class="st0" d="M57.1,178.6h39.6"/>
	<path class="st0" d="M96.7,178.6v39.6"/>
	<path class="st0" d="M96.7,218.2H57.1"/>
	<path class="st0" d="M57.1,218.2v-39.6"/>
	<path class="st0" d="M185.3,340.6h39.6"/>
	<path class="st0" d="M224.9,340.6v39.6"/>
	<path class="st0" d="M224.9,380.2h-39.6"/>
	<path class="st0" d="M185.3,380.2v-39.6"/>
	<path class="st0" d="M117.8,340.6h39.6"/>
	<path class="st0" d="M157.4,340.6v39.6"/>
	<path class="st0" d="M157.4,380.2h-39.6"/>
	<path class="st0" d="M117.8,380.2v-39.6"/>
	<path class="st0" d="M50.3,340.6h39.6"/>
	<path class="st0" d="M89.9,340.6v39.6"/>
	<path class="st0" d="M89.9,380.2H50.3"/>
	<path class="st0" d="M50.3,380.2v-39.6"/>
	<path class="st0" d="M725.3,340.6h39.6"/>
	<path class="st0" d="M764.9,340.6v39.6"/>
	<path class="st0" d="M764.9,380.2h-39.6"/>
	<path class="st0" d="M725.3,380.2v-39.6"/>
	<path class="st0" d="M792.8,340.6h39.6"/>
	<path class="st0" d="M832.4,340.6v39.6"/>
	<path class="st0" d="M832.4,380.2h-39.6"/>
	<path class="st0" d="M792.8,380.2v-39.6"/>
	<path class="st0" d="M657.8,340.6h39.6"/>
	<path class="st0" d="M697.4,340.6v39.6"/>
	<path class="st0" d="M697.4,380.2h-39.6"/>
	<path class="st0" d="M657.8,380.2v-39.6"/>
	<path class="st0" d="M590.3,340.6h39.6"/>
	<path class="st0" d="M629.9,340.6v39.6"/>
	<path class="st0" d="M629.9,380.2h-39.6"/>
	<path class="st0" d="M590.3,380.2v-39.6"/>
	<path class="st0" d="M427.4,380.2v-18.4"/>
	<path class="st0" d="M256.4,361.8v17.3"/>
	<path class="st0" d="M253.9,361.8h2.4"/>
	<path class="st0" d="M253.9,353.9v7.9"/>
	<path class="st0" d="M256.4,353.9h-2.4"/>
	<path class="st0" d="M256.4,344.3v9.6"/>
	<path class="st0" d="M275.2,353.9v-9.6"/>
	<path class="st0" d="M284.8,353.9v-9.6"/>
	<path class="st0" d="M303.7,353.9v-9.6"/>
	<path class="st0" d="M530.5,344.3v9.6"/>
	<path class="st0" d="M511.6,353.9v-9.6"/>
	<path class="st0" d="M540,353.9v-9.6"/>
	<path class="st0" d="M558.9,361.8v17.3"/>
	<path class="st0" d="M561.4,361.8h-2.4"/>
	<path class="st0" d="M561.4,353.9v7.9"/>
	<path class="st0" d="M558.9,353.9h2.4"/>
	<path class="st0" d="M558.9,344.3v9.6"/>
	<path class="st0" d="M387.8,380.2h39.6"/>
	<path class="st0" d="M387.8,380.2v-18.4"/>
	<path class="st0" d="M427.4,340.6v13.3"/>
	<path class="st0" d="M387.8,340.6h39.6"/>
	<path class="st0" d="M387.8,353.9v-13.3"/>
	<path class="st0" d="M530.5,379.1h-4.8"/>
	<path class="st0" d="M525.7,379.1v3.2"/>
	<path class="st0" d="M525.7,382.4h-9.4"/>
	<path class="st0" d="M511.6,379.1h4.8"/>
	<path class="st0" d="M516.4,379.1v3.2"/>
	<path class="st0" d="M303.7,379.1h-4.8"/>
	<path class="st0" d="M298.9,379.1v3.2"/>
	<path class="st0" d="M298.9,382.4h-9.4"/>
	<path class="st0" d="M284.8,379.1h4.8"/>
	<path class="st0" d="M289.6,379.1v3.2"/>
	<path class="st0" d="M558.9,379.1h-4.8"/>
	<path class="st0" d="M554.2,379.1v3.2"/>
	<path class="st0" d="M554.2,382.4h-9.4"/>
	<path class="st0" d="M540,379.1h4.8"/>
	<path class="st0" d="M544.8,379.1v3.2"/>
	<path class="st0" d="M261.1,379.1v3.2"/>
	<path class="st0" d="M261.1,382.4h9.4"/>
	<path class="st0" d="M270.5,382.4v-3.2"/>
	<path class="st0" d="M275.2,379.1h-4.8"/>
	<path class="st0" d="M256.4,379.1h4.8"/>
	<path class="st0" d="M530.5,344.3h-4.8"/>
	<path class="st0" d="M525.7,344.3v-1.5"/>
	<path class="st0" d="M525.7,342.8h-9.4"/>
	<path class="st0" d="M511.6,344.3h4.8"/>
	<path class="st0" d="M516.4,344.3v-1.5"/>
	<path class="st0" d="M303.7,344.3h-4.8"/>
	<path class="st0" d="M298.9,344.3v-1.5"/>
	<path class="st0" d="M298.9,342.8h-9.4"/>
	<path class="st0" d="M289.6,344.3v-1.5"/>
	<path class="st0" d="M284.8,344.3h4.8"/>
	<path class="st0" d="M540,344.3h4.8"/>
	<path class="st0" d="M544.8,344.3v-1.5"/>
	<path class="st0" d="M544.8,342.8h9.4"/>
	<path class="st0" d="M558.9,344.3h-4.8"/>
	<path class="st0" d="M554.2,344.3v-1.5"/>
	<path class="st0" d="M261.1,344.3v-1.5"/>
	<path class="st0" d="M261.1,342.8h9.4"/>
	<path class="st0" d="M270.5,342.8v1.5"/>
	<path class="st0" d="M256.4,344.3h4.8"/>
	<path class="st0" d="M275.2,344.3h-4.8"/>
	<path class="st0" d="M511.6,379.1v-17.3"/>
	<path class="st0" d="M511.6,361.8h-84.2"/>
	<path class="st0" d="M540,379.1v-17.3"/>
	<path class="st0" d="M540,361.8h-9.6"/>
	<path class="st0" d="M530.5,361.8v17.3"/>
	<path class="st0" d="M303.7,379.1v-17.3"/>
	<path class="st0" d="M303.7,361.8h84.2"/>
	<path class="st0" d="M275.2,379.1v-17.3"/>
	<path class="st0" d="M275.2,361.8h9.6"/>
	<path class="st0" d="M284.8,361.8v17.3"/>
	<path class="st0" d="M530.5,353.9h9.6"/>
	<path class="st0" d="M427.4,353.9h84.2"/>
	<path class="st0" d="M303.7,353.9h84.2"/>
	<path class="st0" d="M275.2,353.9h9.6"/>
	<path class="st0" d="M765.8,232.6h39.6"/>
	<path class="st0" d="M742.4,245.9v-9.6"/>
	<path class="st0" d="M739.9,245.9h2.4"/>
	<path class="st0" d="M739.9,253.8v-7.9"/>
	<path class="st0" d="M742.4,253.8h-2.4"/>
	<path class="st0" d="M742.4,271.1v-17.3"/>
	<path class="st0" d="M805.4,272.2h-39.6"/>
	<path class="st0" d="M828.9,253.8v17.3"/>
	<path class="st0" d="M831.4,253.8h-2.4"/>
	<path class="st0" d="M831.4,245.9v7.9"/>
	<path class="st0" d="M828.9,245.9h2.4"/>
	<path class="st0" d="M828.9,236.3v9.6"/>
	<path class="st0" d="M828.9,271.1h-4.8"/>
	<path class="st0" d="M824.2,271.1v3.2"/>
	<path class="st0" d="M824.2,274.4h-9.4"/>
	<path class="st0" d="M810,271.1h4.8"/>
	<path class="st0" d="M814.8,271.1v3.2"/>
	<path class="st0" d="M810,271.1v-17.3"/>
	<path class="st0" d="M810,253.8h-4.6"/>
	<path class="st0" d="M805.4,253.8v18.4"/>
	<path class="st0" d="M810,236.3v9.6"/>
	<path class="st0" d="M810,245.9h-4.6"/>
	<path class="st0" d="M805.4,245.9v-13.3"/>
	<path class="st0" d="M828.9,236.3h-4.8"/>
	<path class="st0" d="M824.2,236.3v-1.5"/>
	<path class="st0" d="M824.2,234.8h-9.4"/>
	<path class="st0" d="M810,236.3h4.8"/>
	<path class="st0" d="M814.8,236.3v-1.5"/>
	<path class="st0" d="M761.2,271.1h-4.8"/>
	<path class="st0" d="M756.5,271.1v3.2"/>
	<path class="st0" d="M756.5,274.4h-9.4"/>
	<path class="st0" d="M747.1,274.4v-3.2"/>
	<path class="st0" d="M742.4,271.1h4.8"/>
	<path class="st0" d="M761.2,271.1v-17.3"/>
	<path class="st0" d="M761.2,253.8h4.6"/>
	<path class="st0" d="M765.8,253.8v18.4"/>
	<path class="st0" d="M761.2,236.3v9.6"/>
	<path class="st0" d="M761.2,245.9h4.6"/>
	<path class="st0" d="M765.8,245.9v-13.3"/>
	<path class="st0" d="M756.5,236.3v-1.5"/>
	<path class="st0" d="M756.5,234.8h-9.4"/>
	<path class="st0" d="M747.1,236.3v-1.5"/>
	<path class="st0" d="M742.4,236.3h4.8"/>
	<path class="st0" d="M761.2,236.3h-4.8"/>
	<path class="st0" d="M77.3,286.6h39.6"/>
	<path class="st0" d="M53.9,299.9v-9.6"/>
	<path class="st0" d="M51.4,299.9h2.4"/>
	<path class="st0" d="M51.4,307.8v-7.9"/>
	<path class="st0" d="M53.9,307.8h-2.4"/>
	<path class="st0" d="M53.9,325.1v-17.3"/>
	<path class="st0" d="M116.9,326.2H77.3"/>
	<path class="st0" d="M140.4,307.8v17.3"/>
	<path class="st0" d="M142.9,307.8h-2.4"/>
	<path class="st0" d="M142.9,299.9v7.9"/>
	<path class="st0" d="M140.4,299.9h2.4"/>
	<path class="st0" d="M140.4,290.3v9.6"/>
	<path class="st0" d="M140.4,325.1h-4.8"/>
	<path class="st0" d="M135.7,325.1v3.2"/>
	<path class="st0" d="M135.7,328.4h-9.4"/>
	<path class="st0" d="M121.5,325.1h4.8"/>
	<path class="st0" d="M126.3,325.1v3.2"/>
	<path class="st0" d="M121.5,325.1v-17.3"/>
	<path class="st0" d="M121.5,307.8h-4.6"/>
	<path class="st0" d="M116.9,307.8v18.4"/>
	<path class="st0" d="M121.5,290.3v9.6"/>
	<path class="st0" d="M121.5,299.9h-4.6"/>
	<path class="st0" d="M116.9,299.9v-13.3"/>
	<path class="st0" d="M140.4,290.3h-4.8"/>
	<path class="st0" d="M135.7,290.3v-1.5"/>
	<path class="st0" d="M135.7,288.8h-9.4"/>
	<path class="st0" d="M121.5,290.3h4.8"/>
	<path class="st0" d="M126.3,290.3v-1.5"/>
	<path class="st0" d="M72.7,325.1H68"/>
	<path class="st0" d="M68,325.1v3.2"/>
	<path class="st0" d="M68,328.4h-9.4"/>
	<path class="st0" d="M58.6,328.4v-3.2"/>
	<path class="st0" d="M53.9,325.1h4.8"/>
	<path class="st0" d="M72.7,325.1v-17.3"/>
	<path class="st0" d="M72.7,307.8h4.6"/>
	<path class="st0" d="M77.3,307.8v18.4"/>
	<path class="st0" d="M72.7,290.3v9.6"/>
	<path class="st0" d="M72.7,299.9h4.6"/>
	<path class="st0" d="M77.3,299.9v-13.3"/>
	<path class="st0" d="M68,290.3v-1.5"/>
	<path class="st0" d="M68,288.8h-9.4"/>
	<path class="st0" d="M58.6,290.3v-1.5"/>
	<path class="st0" d="M53.9,290.3h4.8"/>
	<path class="st0" d="M72.7,290.3H68"/>
	<path class="st0" d="M103.4,272.2H50.3"/>
	<path class="st0" d="M103.4,232.6v39.6"/>
	<path class="st0" d="M50.3,232.6h53.1"/>
	<path class="st0" d="M50.3,272.2v-39.6"/>
	<path class="st0" d="M749.1,145.8v17.3"/>
	<path class="st0" d="M746.7,145.8h2.4"/>
	<path class="st0" d="M746.7,137.9v7.9"/>
	<path class="st0" d="M749.1,137.9h-2.4"/>
	<path class="st0" d="M749.1,128.3v9.6"/>
	<path class="st0" d="M835.7,145.8v17.3"/>
	<path class="st0" d="M838.1,145.8h-2.4"/>
	<path class="st0" d="M838.1,137.9v7.9"/>
	<path class="st0" d="M835.7,137.9h2.4"/>
	<path class="st0" d="M835.7,128.3v9.6"/>
	<path class="st0" d="M812.2,164.2h-39.6"/>
	<path class="st0" d="M812.2,124.6h-39.6"/>
	<path class="st0" d="M830.9,163.1v3.2"/>
	<path class="st0" d="M830.9,166.4h-9.4"/>
	<path class="st0" d="M821.6,163.1v3.2"/>
	<path class="st0" d="M763.2,163.1v3.2"/>
	<path class="st0" d="M763.2,166.4h-9.4"/>
	<path class="st0" d="M835.7,163.1h-4.8"/>
	<path class="st0" d="M816.8,163.1h4.8"/>
	<path class="st0" d="M812.2,124.6v13.3"/>
	<path class="st0" d="M812.2,137.9h4.6"/>
	<path class="st0" d="M816.8,128.3v9.6"/>
	<path class="st0" d="M812.2,164.2v-18.4"/>
	<path class="st0" d="M812.2,145.8h4.6"/>
	<path class="st0" d="M816.8,163.1v-17.3"/>
	<path class="st0" d="M830.9,126.8h-9.4"/>
	<path class="st0" d="M830.9,128.3v-1.5"/>
	<path class="st0" d="M821.6,128.3v-1.5"/>
	<path class="st0" d="M835.7,128.3h-4.8"/>
	<path class="st0" d="M816.8,128.3h4.8"/>
	<path class="st0" d="M772.6,137.9v-13.3"/>
	<path class="st0" d="M772.6,164.2v-18.4"/>
	<path class="st0" d="M768,128.3v9.6"/>
	<path class="st0" d="M749.1,163.1h4.8"/>
	<path class="st0" d="M768,163.1h-4.8"/>
	<path class="st0" d="M768,163.1v-17.3"/>
	<path class="st0" d="M772.6,145.8H768"/>
	<path class="st0" d="M772.6,137.9H768"/>
	<path class="st0" d="M753.9,163.1v3.2"/>
	<path class="st0" d="M763.2,126.8h-9.4"/>
	<path class="st0" d="M763.2,128.3v-1.5"/>
	<path class="st0" d="M753.9,128.3v-1.5"/>
	<path class="st0" d="M768,128.3h-4.8"/>
	<path class="st0" d="M749.1,128.3h4.8"/>
</g>
</svg>
