999
dxflib 2.2.0.0
  0
SECTION
  2
HEADER
  9
$ACADVER
  1
AC1015
  9
$HANDSEED
  5
FFFF
  9
$DIMASZ
 40
2.5
  9
$PLIMMIN
 10
0.0
 20
0.0
  9
$DIMEXE
 40
1.25
  9
$DIMGAP
 40
0.625
  9
$PLIMMAX
 10
210.0
 20
297.0
  9
$ANGBASE
 50
0.0
  9
$ANGDIR
 70
1
  9
$INSUNITS
 70
4
  9
$DIMSTYLE
  2
Standard
  9
$MEASUREMENT
 70
0
  9
$DIMEXO
 40
0.625
  9
$DIMTXT
 40
2.5
  0
ENDSEC
  0
SECTION
  2
TABLES
  0
TABLE
  2
VPORT
  5
8
100
AcDbSymbolTable
 70
1
  0
VPORT
  5
30
100
AcDbSymbolTableRecord
100
AcDbViewportTableRecord
  2
*Active
 70
0
 10
0.0
 20
0.0
 11
1.0
 21
1.0
 12
286.30555555555549
 22
148.5
 13
0.0
 23
0.0
 14
10.0
 24
10.0
 15
10.0
 25
10.0
 16
0.0
 26
0.0
 36
1.0
 17
0.0
 27
0.0
 37
0.0
 40
297.0
 41
1.92798353909465
 42
50.0
 43
0.0
 44
0.0
 50
0.0
 51
0.0
 71
0
 72
100
 73
1
 74
3
 75
1
 76
1
 77
0
 78
0
281
0
 65
1
110
0.0
120
0.0
130
0.0
111
1.0
121
0.0
131
0.0
112
0.0
122
1.0
132
0.0
 79
0
146
0.0
  0
ENDTAB
  0
TABLE
  2
LTYPE
  5
5
100
AcDbSymbolTable
 70
21
  0
LTYPE
  5
14
100
AcDbSymbolTableRecord
100
AcDbLinetypeTableRecord
  2
ByBlock
 70
0
  3

 72
65
 73
0
 40
0.0
  0
LTYPE
  5
15
100
AcDbSymbolTableRecord
100
AcDbLinetypeTableRecord
  2
ByLayer
 70
0
  3

 72
65
 73
0
 40
0.0
  0
LTYPE
  5
16
100
AcDbSymbolTableRecord
100
AcDbLinetypeTableRecord
  2
CONTINUOUS
 70
0
  3
Solid line
 72
65
 73
0
 40
0.0
  0
LTYPE
  5
31
100
AcDbSymbolTableRecord
100
AcDbLinetypeTableRecord
  2
DOT
 70
0
  3
Dot . . . . . . . . . . . . . . . . . . . . . .
 72
65
 73
2
 40
6.3499999999999996
 49
0.0
 74
0
 49
-6.3499999999999996
 74
0
  0
LTYPE
  5
32
100
AcDbSymbolTableRecord
100
AcDbLinetypeTableRecord
  2
DOT2
 70
0
  3
Dot (.5x) .....................................
 72
65
 73
2
 40
3.1749999999999998
 49
0.0
 74
0
 49
-3.1749999999999998
 74
0
  0
LTYPE
  5
33
100
AcDbSymbolTableRecord
100
AcDbLinetypeTableRecord
  2
DOTX2
 70
0
  3
Dot (2x) .  .  .  .  .  .  .  .  .  .  .  .  .
 72
65
 73
2
 40
12.699999999999999
 49
0.0
 74
0
 49
-12.699999999999999
 74
0
  0
LTYPE
  5
34
100
AcDbSymbolTableRecord
100
AcDbLinetypeTableRecord
  2
DASHED
 70
0
  3
Dashed __ __ __ __ __ __ __ __ __ __ __ __ __ _
 72
65
 73
2
 40
19.050000000000001
 49
12.699999999999999
 74
0
 49
-6.3499999999999996
 74
0
  0
LTYPE
  5
35
100
AcDbSymbolTableRecord
100
AcDbLinetypeTableRecord
  2
DASHED2
 70
0
  3
Dashed (.5x) _ _ _ _ _ _ _ _ _ _ _ _ _ _ _ _ _
 72
65
 73
2
 40
9.5250000000000004
 49
6.3499999999999996
 74
0
 49
-3.1749999999999998
 74
0
  0
LTYPE
  5
36
100
AcDbSymbolTableRecord
100
AcDbLinetypeTableRecord
  2
DASHEDX2
 70
0
  3
Dashed (2x) ____  ____  ____  ____  ____  ___
 72
65
 73
2
 40
38.100000000000001
 49
25.399999999999999
 74
0
 49
-12.699999999999999
 74
0
  0
LTYPE
  5
37
100
AcDbSymbolTableRecord
100
AcDbLinetypeTableRecord
  2
DASHDOT
 70
0
  3
Dash dot __ . __ . __ . __ . __ . __ . __ . __
 72
65
 73
4
 40
25.399999999999999
 49
12.699999999999999
 74
0
 49
-6.3499999999999996
 74
0
 49
0.0
 74
0
 49
-6.3499999999999996
 74
0
  0
LTYPE
  5
38
100
AcDbSymbolTableRecord
100
AcDbLinetypeTableRecord
  2
DASHDOT2
 70
0
  3
Dash dot (.5x) _._._._._._._._._._._._._._._.
 72
65
 73
4
 40
12.699999999999999
 49
6.3499999999999996
 74
0
 49
-3.1749999999999998
 74
0
 49
0.0
 74
0
 49
-3.1749999999999998
 74
0
  0
LTYPE
  5
39
100
AcDbSymbolTableRecord
100
AcDbLinetypeTableRecord
  2
DASHDOTX2
 70
0
  3
Dash dot (2x) ____  .  ____  .  ____  .  ___
 72
65
 73
4
 40
50.799999999999997
 49
25.399999999999999
 74
0
 49
-12.699999999999999
 74
0
 49
0.0
 74
0
 49
-12.699999999999999
 74
0
  0
LTYPE
  5
3A
100
AcDbSymbolTableRecord
100
AcDbLinetypeTableRecord
  2
DIVIDE
 70
0
  3
Divide ____ . . ____ . . ____ . . ____ . . ____
 72
65
 73
6
 40
31.75
 49
12.699999999999999
 74
0
 49
-6.3499999999999996
 74
0
 49
0.0
 74
0
 49
-6.3499999999999996
 74
0
 49
0.0
 74
0
 49
-6.3499999999999996
 74
0
  0
LTYPE
  5
3B
100
AcDbSymbolTableRecord
100
AcDbLinetypeTableRecord
  2
DIVIDE2
 70
0
  3
Divide (.5x) __..__..__..__..__..__..__..__.._
 72
65
 73
6
 40
15.875
 49
6.3499999999999996
 74
0
 49
-3.1749999999999998
 74
0
 49
0.0
 74
0
 49
-3.1749999999999998
 74
0
 49
0.0
 74
0
 49
-3.1749999999999998
 74
0
  0
LTYPE
  5
3C
100
AcDbSymbolTableRecord
100
AcDbLinetypeTableRecord
  2
DIVIDEX2
 70
0
  3
Divide (2x) ________  .  .  ________  .  .  _
 72
65
 73
6
 40
63.5
 49
25.399999999999999
 74
0
 49
-12.699999999999999
 74
0
 49
0.0
 74
0
 49
-12.699999999999999
 74
0
 49
0.0
 74
0
 49
-12.699999999999999
 74
0
  0
LTYPE
  5
3D
100
AcDbSymbolTableRecord
100
AcDbLinetypeTableRecord
  2
CENTER
 70
0
  3
Center ____ _ ____ _ ____ _ ____ _ ____ _ ____
 72
65
 73
4
 40
50.799999999999997
 49
31.75
 74
0
 49
-6.3499999999999996
 74
0
 49
6.3499999999999996
 74
0
 49
-6.3499999999999996
 74
0
  0
LTYPE
  5
3E
100
AcDbSymbolTableRecord
100
AcDbLinetypeTableRecord
  2
CENTER2
 70
0
  3
Center (.5x) ___ _ ___ _ ___ _ ___ _ ___ _ ___
 72
65
 73
4
 40
28.574999999999999
 49
19.050000000000001
 74
0
 49
-3.1749999999999998
 74
0
 49
3.1749999999999998
 74
0
 49
-3.1749999999999998
 74
0
  0
LTYPE
  5
3F
100
AcDbSymbolTableRecord
100
AcDbLinetypeTableRecord
  2
CENTERX2
 70
0
  3
Center (2x) ________  __  ________  __  _____
 72
65
 73
4
 40
101.59999999999999
 49
63.5
 74
0
 49
-12.699999999999999
 74
0
 49
12.699999999999999
 74
0
 49
-12.699999999999999
 74
0
  0
LTYPE
  5
40
100
AcDbSymbolTableRecord
100
AcDbLinetypeTableRecord
  2
BORDER
 70
0
  3
Border __ __ . __ __ . __ __ . __ __ . __ __ .
 72
65
 73
6
 40
44.450000000000003
 49
12.699999999999999
 74
0
 49
-6.3499999999999996
 74
0
 49
12.699999999999999
 74
0
 49
-6.3499999999999996
 74
0
 49
0.0
 74
0
 49
-6.3499999999999996
 74
0
  0
LTYPE
  5
41
100
AcDbSymbolTableRecord
100
AcDbLinetypeTableRecord
  2
BORDER2
 70
0
  3
Border (.5x) __.__.__.__.__.__.__.__.__.__.__.
 72
65
 73
6
 40
22.225000000000001
 49
6.3499999999999996
 74
0
 49
-3.1749999999999998
 74
0
 49
6.3499999999999996
 74
0
 49
-3.1749999999999998
 74
0
 49
0.0
 74
0
 49
-3.1749999999999998
 74
0
  0
LTYPE
  5
42
100
AcDbSymbolTableRecord
100
AcDbLinetypeTableRecord
  2
BORDERX2
 70
0
  3
Border (2x) ____  ____  .  ____  ____  .  ___
 72
65
 73
6
 40
88.900000000000006
 49
25.399999999999999
 74
0
 49
-12.699999999999999
 74
0
 49
25.399999999999999
 74
0
 49
-12.699999999999999
 74
0
 49
0.0
 74
0
 49
-12.699999999999999
 74
0
  0
ENDTAB
  0
TABLE
  2
LAYER
  5
2
100
AcDbSymbolTable
 70
1
  0
LAYER
  5
10
100
AcDbSymbolTableRecord
100
AcDbLayerTableRecord
  2
0
 70
0
 62
7
  6
CONTINUOUS
370
0
390
F
  0
ENDTAB
  0
TABLE
  2
STYLE
  5
3
100
AcDbSymbolTable
 70
1
  0
STYLE
  5
11
100
AcDbSymbolTableRecord
100
AcDbTextStyleTableRecord
  2
Standard
 70
0
 40
0.0
 41
0.75
 50
0.0
 71
0
 42
2.5
  3
txt
  4

  0
ENDTAB
  0
TABLE
  2
VIEW
  5
6
100
AcDbSymbolTable
 70
0
  0
ENDTAB
  0
TABLE
  2
UCS
  5
7
100
AcDbSymbolTable
 70
0
  0
ENDTAB
  0
TABLE
  2
APPID
  5
9
100
AcDbSymbolTable
 70
1
  0
APPID
  5
12
100
AcDbSymbolTableRecord
100
AcDbRegAppTableRecord
  2
ACAD
 70
0
  0
ENDTAB
  0
TABLE
  2
DIMSTYLE
  5
A
100
AcDbSymbolTable
 70
1
100
AcDbDimStyleTable
 71
0
  0
DIMSTYLE
105
27
100
AcDbSymbolTableRecord
100
AcDbDimStyleTableRecord
  2
Standard
 41
2.5
 42
0.625
 43
3.75
 44
1.25
 70
0
 73
0
 74
0
 77
1
 78
8
140
2.5
141
2.5
143
0.03937007874016
147
0.625
171
3
172
1
271
2
272
2
274
3
278
44
283
0
284
8
340
11
  0
ENDTAB
  0
TABLE
  2
BLOCK_RECORD
  5
1
100
AcDbSymbolTable
 70
1
  0
BLOCK_RECORD
  5
1F
100
AcDbSymbolTableRecord
100
AcDbBlockTableRecord
  2
*Model_Space
340
22
  0
BLOCK_RECORD
  5
1B
100
AcDbSymbolTableRecord
100
AcDbBlockTableRecord
  2
*Paper_Space
340
1E
  0
BLOCK_RECORD
  5
23
100
AcDbSymbolTableRecord
100
AcDbBlockTableRecord
  2
*Paper_Space0
340
26
  0
ENDTAB
  0
ENDSEC
  0
SECTION
  2
BLOCKS
  0
BLOCK
  5
20
100
AcDbEntity
  8
0
100
AcDbBlockBegin
  2
*Model_Space
 70
0
 10
0.0
 20
0.0
 30
0.0
  3
*Model_Space
  1

  0
ENDBLK
  5
21
100
AcDbEntity
  8
0
100
AcDbBlockEnd
  0
BLOCK
  5
1C
100
AcDbEntity
 67
1
  8
0
100
AcDbBlockBegin
  2
*Paper_Space
 70
0
 10
0.0
 20
0.0
 30
0.0
  3
*Paper_Space
  1

  0
ENDBLK
  5
1D
100
AcDbEntity
 67
1
  8
0
100
AcDbBlockEnd
  0
BLOCK
  5
24
100
AcDbEntity
  8
0
100
AcDbBlockBegin
  2
*Paper_Space0
 70
0
 10
0.0
 20
0.0
 30
0.0
  3
*Paper_Space0
  1

  0
ENDBLK
  5
25
100
AcDbEntity
  8
0
100
AcDbBlockEnd
  0
ENDSEC
  0
SECTION
  2
ENTITIES
  0
CIRCLE
  5
43
100
AcDbEntity
100
AcDbCircle
  8
0
 62
5
370
9
  6
CONTINUOUS
 10
177.07599999999999
 20
-10.071099999999999
 30
0.0
 40
1.4732000000000001
  0
CIRCLE
  5
44
100
AcDbEntity
100
AcDbCircle
  8
0
 62
5
370
9
  6
CONTINUOUS
 10
10.807700000000001
 20
-10.071099999999999
 30
0.0
 40
1.4732000000000001
  0
CIRCLE
  5
45
100
AcDbEntity
100
AcDbCircle
  8
0
 62
5
370
9
  6
CONTINUOUS
 10
205.55000000000001
 20
-10.071099999999999
 30
0.0
 40
1.4732000000000001
  0
CIRCLE
  5
46
100
AcDbEntity
100
AcDbCircle
  8
0
 62
5
370
9
  6
CONTINUOUS
 10
251.49799999999999
 20
-147.25700000000001
 30
0.0
 40
1.4732000000000001
  0
CIRCLE
  5
47
100
AcDbEntity
100
AcDbCircle
  8
0
 62
5
370
9
  6
CONTINUOUS
 10
131.15299999999999
 20
-147.25700000000001
 30
0.0
 40
1.4732000000000001
  0
CIRCLE
  5
48
100
AcDbEntity
100
AcDbCircle
  8
0
 62
5
370
9
  6
CONTINUOUS
 10
10.807700000000001
 20
-147.25700000000001
 30
0.0
 40
1.4732000000000001
  0
CIRCLE
  5
49
100
AcDbEntity
100
AcDbCircle
  8
0
 62
5
370
9
  6
CONTINUOUS
 10
371.83100000000002
 20
-10.071099999999999
 30
0.0
 40
1.4732000000000001
  0
CIRCLE
  5
4A
100
AcDbEntity
100
AcDbCircle
  8
0
 62
5
370
9
  6
CONTINUOUS
 10
371.83100000000002
 20
-147.25700000000001
 30
0.0
 40
1.4732000000000001
  0
CIRCLE
  5
4B
100
AcDbEntity
100
AcDbCircle
  8
0
 62
5
370
9
  6
CONTINUOUS
 10
346.10000000000002
 20
-40.563800000000001
 30
0.0
 40
1.905
  0
CIRCLE
  5
4C
100
AcDbEntity
100
AcDbCircle
  8
0
 62
5
370
9
  6
CONTINUOUS
 10
327.05000000000001
 20
-40.563800000000001
 30
0.0
 40
1.905
  0
LINE
  5
4D
100
AcDbEntity
100
AcDbLine
  8
0
 62
5
370
9
  6
CONTINUOUS
 10
377.81200000000001
 20
-5.4356
 30
0.0
 11
376.46600000000001
 21
-4.0894000000000004
 31
0.0
  0
LINE
  5
4E
100
AcDbEntity
100
AcDbLine
  8
0
 62
5
370
9
  6
CONTINUOUS
 10
376.428
 20
-153.238
 30
0.0
 11
6.0705999999999998
 21
-153.238
 31
0.0
  0
LINE
  5
4F
100
AcDbEntity
100
AcDbLine
  8
0
 62
5
370
9
  6
CONTINUOUS
 10
376.44099999999997
 20
-153.238
 30
0.0
 11
377.81200000000001
 21
-151.86699999999999
 31
0.0
  0
LINE
  5
50
100
AcDbEntity
100
AcDbLine
  8
0
 62
5
370
9
  6
CONTINUOUS
 10
4.8259999999999996
 20
-151.994
 30
0.0
 11
6.0705999999999998
 21
-153.238
 31
0.0
  0
LINE
  5
51
100
AcDbEntity
100
AcDbLine
  8
0
 62
5
370
9
  6
CONTINUOUS
 10
4.8259999999999996
 20
-5.3339999999999996
 30
0.0
 11
6.0705999999999998
 21
-4.0894000000000004
 31
0.0
  0
LINE
  5
52
100
AcDbEntity
100
AcDbLine
  8
0
 62
5
370
9
  6
CONTINUOUS
 10
376.46600000000001
 20
-4.0894000000000004
 30
0.0
 11
195.96100000000001
 21
-4.0894000000000004
 31
0.0
  0
LINE
  5
53
100
AcDbEntity
100
AcDbLine
  8
0
 62
5
370
9
  6
CONTINUOUS
 10
377.81200000000001
 20
-151.86699999999999
 30
0.0
 11
377.81200000000001
 21
-5.4356
 31
0.0
  0
LINE
  5
54
100
AcDbEntity
100
AcDbLine
  8
0
 62
5
370
9
  6
CONTINUOUS
 10
186.66499999999999
 20
-15.3162
 30
0.0
 11
195.96100000000001
 21
-15.3162
 31
0.0
  0
LINE
  5
55
100
AcDbEntity
100
AcDbLine
  8
0
 62
5
370
9
  6
CONTINUOUS
 10
195.96100000000001
 20
-15.3162
 30
0.0
 11
195.96100000000001
 21
-4.0894000000000004
 31
0.0
  0
LINE
  5
56
100
AcDbEntity
100
AcDbLine
  8
0
 62
5
370
9
  6
CONTINUOUS
 10
186.66499999999999
 20
-15.3162
 30
0.0
 11
186.66499999999999
 21
-4.0894000000000004
 31
0.0
  0
LINE
  5
57
100
AcDbEntity
100
AcDbLine
  8
0
 62
5
370
9
  6
CONTINUOUS
 10
186.66499999999999
 20
-4.0894000000000004
 30
0.0
 11
6.0705999999999998
 21
-4.0894000000000004
 31
0.0
  0
LINE
  5
58
100
AcDbEntity
100
AcDbLine
  8
0
 62
5
370
9
  6
CONTINUOUS
 10
4.8259999999999996
 20
-5.3339999999999996
 30
0.0
 11
4.8259999999999996
 21
-151.994
 31
0.0
  0
LINE
  5
59
100
AcDbEntity
100
AcDbLine
  8
0
 62
5
370
9
  6
CONTINUOUS
 10
270.05900000000003
 20
-105.01600000000001
 30
0.0
 11
284.029
 21
-105.01600000000001
 31
0.0
  0
LINE
  5
5A
100
AcDbEntity
100
AcDbLine
  8
0
 62
5
370
9
  6
CONTINUOUS
 10
261.779
 20
-109.715
 30
0.0
 11
261.779
 21
-106.312
 31
0.0
  0
LINE
  5
5B
100
AcDbEntity
100
AcDbLine
  8
0
 62
5
370
9
  6
CONTINUOUS
 10
260.91500000000002
 20
-109.715
 30
0.0
 11
261.779
 21
-109.715
 31
0.0
  0
LINE
  5
5C
100
AcDbEntity
100
AcDbLine
  8
0
 62
5
370
9
  6
CONTINUOUS
 10
260.91500000000002
 20
-112.509
 30
0.0
 11
260.91500000000002
 21
-109.715
 31
0.0
  0
LINE
  5
5D
100
AcDbEntity
100
AcDbLine
  8
0
 62
5
370
9
  6
CONTINUOUS
 10
261.779
 20
-112.509
 30
0.0
 11
260.91500000000002
 21
-112.509
 31
0.0
  0
LINE
  5
5E
100
AcDbEntity
100
AcDbLine
  8
0
 62
5
370
9
  6
CONTINUOUS
 10
261.779
 20
-118.605
 30
0.0
 11
261.779
 21
-112.509
 31
0.0
  0
LINE
  5
5F
100
AcDbEntity
100
AcDbLine
  8
0
 62
5
370
9
  6
CONTINUOUS
 10
284.029
 20
-118.986
 30
0.0
 11
270.05900000000003
 21
-118.986
 31
0.0
  0
LINE
  5
60
100
AcDbEntity
100
AcDbLine
  8
0
 62
5
370
9
  6
CONTINUOUS
 10
292.31
 20
-112.509
 30
0.0
 11
292.31
 21
-118.605
 31
0.0
  0
LINE
  5
61
100
AcDbEntity
100
AcDbLine
  8
0
 62
5
370
9
  6
CONTINUOUS
 10
293.173
 20
-112.509
 30
0.0
 11
292.31
 21
-112.509
 31
0.0
  0
LINE
  5
62
100
AcDbEntity
100
AcDbLine
  8
0
 62
5
370
9
  6
CONTINUOUS
 10
293.173
 20
-109.715
 30
0.0
 11
293.173
 21
-112.509
 31
0.0
  0
LINE
  5
63
100
AcDbEntity
100
AcDbLine
  8
0
 62
5
370
9
  6
CONTINUOUS
 10
292.31
 20
-109.715
 30
0.0
 11
293.173
 21
-109.715
 31
0.0
  0
LINE
  5
64
100
AcDbEntity
100
AcDbLine
  8
0
 62
5
370
9
  6
CONTINUOUS
 10
292.31
 20
-106.312
 30
0.0
 11
292.31
 21
-109.715
 31
0.0
  0
LINE
  5
65
100
AcDbEntity
100
AcDbLine
  8
0
 62
5
370
9
  6
CONTINUOUS
 10
292.31
 20
-118.605
 30
0.0
 11
290.63299999999998
 21
-118.605
 31
0.0
  0
LINE
  5
66
100
AcDbEntity
100
AcDbLine
  8
0
 62
5
370
9
  6
CONTINUOUS
 10
290.63299999999998
 20
-118.605
 30
0.0
 11
290.63299999999998
 21
-119.748
 31
0.0
  0
LINE
  5
67
100
AcDbEntity
100
AcDbLine
  8
0
 62
5
370
9
  6
CONTINUOUS
 10
290.63299999999998
 20
-119.748
 30
0.0
 11
287.33100000000002
 21
-119.748
 31
0.0
  0
LINE
  5
68
100
AcDbEntity
100
AcDbLine
  8
0
 62
5
370
9
  6
CONTINUOUS
 10
285.65499999999997
 20
-118.605
 30
0.0
 11
287.33100000000002
 21
-118.605
 31
0.0
  0
LINE
  5
69
100
AcDbEntity
100
AcDbLine
  8
0
 62
5
370
9
  6
CONTINUOUS
 10
287.33100000000002
 20
-118.605
 30
0.0
 11
287.33100000000002
 21
-119.748
 31
0.0
  0
LINE
  5
6A
100
AcDbEntity
100
AcDbLine
  8
0
 62
5
370
9
  6
CONTINUOUS
 10
263.45499999999998
 20
-118.605
 30
0.0
 11
263.45499999999998
 21
-119.748
 31
0.0
  0
LINE
  5
6B
100
AcDbEntity
100
AcDbLine
  8
0
 62
5
370
9
  6
CONTINUOUS
 10
263.45499999999998
 20
-119.748
 30
0.0
 11
266.75700000000001
 21
-119.748
 31
0.0
  0
LINE
  5
6C
100
AcDbEntity
100
AcDbLine
  8
0
 62
5
370
9
  6
CONTINUOUS
 10
266.75700000000001
 20
-119.748
 30
0.0
 11
266.75700000000001
 21
-118.605
 31
0.0
  0
LINE
  5
6D
100
AcDbEntity
100
AcDbLine
  8
0
 62
5
370
9
  6
CONTINUOUS
 10
268.43400000000003
 20
-118.605
 30
0.0
 11
266.75700000000001
 21
-118.605
 31
0.0
  0
LINE
  5
6E
100
AcDbEntity
100
AcDbLine
  8
0
 62
5
370
9
  6
CONTINUOUS
 10
261.779
 20
-118.605
 30
0.0
 11
263.45499999999998
 21
-118.605
 31
0.0
  0
LINE
  5
6F
100
AcDbEntity
100
AcDbLine
  8
0
 62
5
370
9
  6
CONTINUOUS
 10
285.65499999999997
 20
-118.605
 30
0.0
 11
285.65499999999997
 21
-112.509
 31
0.0
  0
LINE
  5
70
100
AcDbEntity
100
AcDbLine
  8
0
 62
5
370
9
  6
CONTINUOUS
 10
285.65499999999997
 20
-112.509
 30
0.0
 11
284.029
 21
-112.509
 31
0.0
  0
LINE
  5
71
100
AcDbEntity
100
AcDbLine
  8
0
 62
5
370
9
  6
CONTINUOUS
 10
284.029
 20
-112.509
 30
0.0
 11
284.029
 21
-118.986
 31
0.0
  0
LINE
  5
72
100
AcDbEntity
100
AcDbLine
  8
0
 62
5
370
9
  6
CONTINUOUS
 10
268.43400000000003
 20
-118.605
 30
0.0
 11
268.43400000000003
 21
-112.509
 31
0.0
  0
LINE
  5
73
100
AcDbEntity
100
AcDbLine
  8
0
 62
5
370
9
  6
CONTINUOUS
 10
268.43400000000003
 20
-112.509
 30
0.0
 11
270.05900000000003
 21
-112.509
 31
0.0
  0
LINE
  5
74
100
AcDbEntity
100
AcDbLine
  8
0
 62
5
370
9
  6
CONTINUOUS
 10
270.05900000000003
 20
-112.509
 30
0.0
 11
270.05900000000003
 21
-118.986
 31
0.0
  0
LINE
  5
75
100
AcDbEntity
100
AcDbLine
  8
0
 62
5
370
9
  6
CONTINUOUS
 10
292.31
 20
-106.312
 30
0.0
 11
290.63299999999998
 21
-106.312
 31
0.0
  0
LINE
  5
76
100
AcDbEntity
100
AcDbLine
  8
0
 62
5
370
9
  6
CONTINUOUS
 10
290.63299999999998
 20
-106.312
 30
0.0
 11
290.63299999999998
 21
-105.77800000000001
 31
0.0
  0
LINE
  5
77
100
AcDbEntity
100
AcDbLine
  8
0
 62
5
370
9
  6
CONTINUOUS
 10
290.63299999999998
 20
-105.77800000000001
 30
0.0
 11
287.33100000000002
 21
-105.77800000000001
 31
0.0
  0
LINE
  5
78
100
AcDbEntity
100
AcDbLine
  8
0
 62
5
370
9
  6
CONTINUOUS
 10
287.33100000000002
 20
-105.77800000000001
 30
0.0
 11
287.33100000000002
 21
-106.312
 31
0.0
  0
LINE
  5
79
100
AcDbEntity
100
AcDbLine
  8
0
 62
5
370
9
  6
CONTINUOUS
 10
285.65499999999997
 20
-109.715
 30
0.0
 11
285.65499999999997
 21
-106.312
 31
0.0
  0
LINE
  5
7A
100
AcDbEntity
100
AcDbLine
  8
0
 62
5
370
9
  6
CONTINUOUS
 10
285.65499999999997
 20
-106.312
 30
0.0
 11
287.33100000000002
 21
-106.312
 31
0.0
  0
LINE
  5
7B
100
AcDbEntity
100
AcDbLine
  8
0
 62
5
370
9
  6
CONTINUOUS
 10
284.029
 20
-105.01600000000001
 30
0.0
 11
284.029
 21
-109.715
 31
0.0
  0
LINE
  5
7C
100
AcDbEntity
100
AcDbLine
  8
0
 62
5
370
9
  6
CONTINUOUS
 10
284.029
 20
-109.715
 30
0.0
 11
285.65499999999997
 21
-109.715
 31
0.0
  0
LINE
  5
7D
100
AcDbEntity
100
AcDbLine
  8
0
 62
5
370
9
  6
CONTINUOUS
 10
268.43400000000003
 20
-106.312
 30
0.0
 11
268.43400000000003
 21
-109.715
 31
0.0
  0
LINE
  5
7E
100
AcDbEntity
100
AcDbLine
  8
0
 62
5
370
9
  6
CONTINUOUS
 10
268.43400000000003
 20
-109.715
 30
0.0
 11
270.05900000000003
 21
-109.715
 31
0.0
  0
LINE
  5
7F
100
AcDbEntity
100
AcDbLine
  8
0
 62
5
370
9
  6
CONTINUOUS
 10
270.05900000000003
 20
-109.715
 30
0.0
 11
270.05900000000003
 21
-105.01600000000001
 31
0.0
  0
LINE
  5
80
100
AcDbEntity
100
AcDbLine
  8
0
 62
5
370
9
  6
CONTINUOUS
 10
261.779
 20
-106.312
 30
0.0
 11
263.45499999999998
 21
-106.312
 31
0.0
  0
LINE
  5
81
100
AcDbEntity
100
AcDbLine
  8
0
 62
5
370
9
  6
CONTINUOUS
 10
263.45499999999998
 20
-106.312
 30
0.0
 11
263.45499999999998
 21
-105.77800000000001
 31
0.0
  0
LINE
  5
82
100
AcDbEntity
100
AcDbLine
  8
0
 62
5
370
9
  6
CONTINUOUS
 10
263.45499999999998
 20
-105.77800000000001
 30
0.0
 11
266.75700000000001
 21
-105.77800000000001
 31
0.0
  0
LINE
  5
83
100
AcDbEntity
100
AcDbLine
  8
0
 62
5
370
9
  6
CONTINUOUS
 10
268.43400000000003
 20
-106.312
 30
0.0
 11
266.75700000000001
 21
-106.312
 31
0.0
  0
LINE
  5
84
100
AcDbEntity
100
AcDbLine
  8
0
 62
5
370
9
  6
CONTINUOUS
 10
266.75700000000001
 20
-106.312
 30
0.0
 11
266.75700000000001
 21
-105.77800000000001
 31
0.0
  0
LINE
  5
85
100
AcDbEntity
100
AcDbLine
  8
0
 62
5
370
9
  6
CONTINUOUS
 10
20.027899999999999
 20
-47.866300000000003
 30
0.0
 11
33.997900000000001
 21
-47.866300000000003
 31
0.0
  0
LINE
  5
86
100
AcDbEntity
100
AcDbLine
  8
0
 62
5
370
9
  6
CONTINUOUS
 10
33.997900000000001
 20
-47.866300000000003
 30
0.0
 11
33.997900000000001
 21
-61.836300000000001
 31
0.0
  0
LINE
  5
87
100
AcDbEntity
100
AcDbLine
  8
0
 62
5
370
9
  6
CONTINUOUS
 10
33.997900000000001
 20
-61.836300000000001
 30
0.0
 11
20.027899999999999
 21
-61.836300000000001
 31
0.0
  0
LINE
  5
88
100
AcDbEntity
100
AcDbLine
  8
0
 62
5
370
9
  6
CONTINUOUS
 10
20.027899999999999
 20
-61.836300000000001
 30
0.0
 11
20.027899999999999
 21
-47.866300000000003
 31
0.0
  0
LINE
  5
89
100
AcDbEntity
100
AcDbLine
  8
0
 62
5
370
9
  6
CONTINUOUS
 10
348.63999999999999
 20
-124.066
 30
0.0
 11
362.61000000000001
 21
-124.066
 31
0.0
  0
LINE
  5
8A
100
AcDbEntity
100
AcDbLine
  8
0
 62
5
370
9
  6
CONTINUOUS
 10
362.61000000000001
 20
-124.066
 30
0.0
 11
362.61000000000001
 21
-138.036
 31
0.0
  0
LINE
  5
8B
100
AcDbEntity
100
AcDbLine
  8
0
 62
5
370
9
  6
CONTINUOUS
 10
362.61000000000001
 20
-138.036
 30
0.0
 11
348.63999999999999
 21
-138.036
 31
0.0
  0
LINE
  5
8C
100
AcDbEntity
100
AcDbLine
  8
0
 62
5
370
9
  6
CONTINUOUS
 10
348.63999999999999
 20
-138.036
 30
0.0
 11
348.63999999999999
 21
-124.066
 31
0.0
  0
LINE
  5
8D
100
AcDbEntity
100
AcDbLine
  8
0
 62
5
370
9
  6
CONTINUOUS
 10
329.58999999999997
 20
-66.916300000000007
 30
0.0
 11
343.56
 21
-66.916300000000007
 31
0.0
  0
LINE
  5
8E
100
AcDbEntity
100
AcDbLine
  8
0
 62
5
370
9
  6
CONTINUOUS
 10
343.56
 20
-66.916300000000007
 30
0.0
 11
343.56
 21
-80.886300000000006
 31
0.0
  0
LINE
  5
8F
100
AcDbEntity
100
AcDbLine
  8
0
 62
5
370
9
  6
CONTINUOUS
 10
343.56
 20
-80.886300000000006
 30
0.0
 11
329.58999999999997
 21
-80.886300000000006
 31
0.0
  0
LINE
  5
90
100
AcDbEntity
100
AcDbLine
  8
0
 62
5
370
9
  6
CONTINUOUS
 10
329.58999999999997
 20
-80.886300000000006
 30
0.0
 11
329.58999999999997
 21
-66.916300000000007
 31
0.0
  0
LINE
  5
91
100
AcDbEntity
100
AcDbLine
  8
0
 62
5
370
9
  6
CONTINUOUS
 10
267.678
 20
-19.2913
 30
0.0
 11
281.64800000000002
 21
-19.2913
 31
0.0
  0
LINE
  5
92
100
AcDbEntity
100
AcDbLine
  8
0
 62
5
370
9
  6
CONTINUOUS
 10
281.64800000000002
 20
-19.2913
 30
0.0
 11
281.64800000000002
 21
-33.261299999999999
 31
0.0
  0
LINE
  5
93
100
AcDbEntity
100
AcDbLine
  8
0
 62
5
370
9
  6
CONTINUOUS
 10
281.64800000000002
 20
-33.261299999999999
 30
0.0
 11
267.678
 21
-33.261299999999999
 31
0.0
  0
LINE
  5
94
100
AcDbEntity
100
AcDbLine
  8
0
 62
5
370
9
  6
CONTINUOUS
 10
267.678
 20
-33.261299999999999
 30
0.0
 11
267.678
 21
-19.2913
 31
0.0
  0
LINE
  5
95
100
AcDbEntity
100
AcDbLine
  8
0
 62
5
370
9
  6
CONTINUOUS
 10
258.15300000000002
 20
-66.916300000000007
 30
0.0
 11
272.12299999999999
 21
-66.916300000000007
 31
0.0
  0
LINE
  5
96
100
AcDbEntity
100
AcDbLine
  8
0
 62
5
370
9
  6
CONTINUOUS
 10
272.12299999999999
 20
-66.916300000000007
 30
0.0
 11
272.12299999999999
 21
-80.886300000000006
 31
0.0
  0
LINE
  5
97
100
AcDbEntity
100
AcDbLine
  8
0
 62
5
370
9
  6
CONTINUOUS
 10
272.12299999999999
 20
-80.886300000000006
 30
0.0
 11
258.15300000000002
 21
-80.886300000000006
 31
0.0
  0
LINE
  5
98
100
AcDbEntity
100
AcDbLine
  8
0
 62
5
370
9
  6
CONTINUOUS
 10
258.15300000000002
 20
-80.886300000000006
 30
0.0
 11
258.15300000000002
 21
-66.916300000000007
 31
0.0
  0
LINE
  5
99
100
AcDbEntity
100
AcDbLine
  8
0
 62
5
370
9
  6
CONTINUOUS
 10
248.62799999999999
 20
-47.866300000000003
 30
0.0
 11
262.59800000000001
 21
-47.866300000000003
 31
0.0
  0
LINE
  5
9A
100
AcDbEntity
100
AcDbLine
  8
0
 62
5
370
9
  6
CONTINUOUS
 10
262.59800000000001
 20
-47.866300000000003
 30
0.0
 11
262.59800000000001
 21
-61.836300000000001
 31
0.0
  0
LINE
  5
9B
100
AcDbEntity
100
AcDbLine
  8
0
 62
5
370
9
  6
CONTINUOUS
 10
262.59800000000001
 20
-61.836300000000001
 30
0.0
 11
248.62799999999999
 21
-61.836300000000001
 31
0.0
  0
LINE
  5
9C
100
AcDbEntity
100
AcDbLine
  8
0
 62
5
370
9
  6
CONTINUOUS
 10
248.62799999999999
 20
-61.836300000000001
 30
0.0
 11
248.62799999999999
 21
-47.866300000000003
 31
0.0
  0
LINE
  5
9D
100
AcDbEntity
100
AcDbLine
  8
0
 62
5
370
9
  6
CONTINUOUS
 10
310.54000000000002
 20
-19.2913
 30
0.0
 11
324.50999999999999
 21
-19.2913
 31
0.0
  0
LINE
  5
9E
100
AcDbEntity
100
AcDbLine
  8
0
 62
5
370
9
  6
CONTINUOUS
 10
324.50999999999999
 20
-19.2913
 30
0.0
 11
324.50999999999999
 21
-33.261299999999999
 31
0.0
  0
LINE
  5
9F
100
AcDbEntity
100
AcDbLine
  8
0
 62
5
370
9
  6
CONTINUOUS
 10
324.50999999999999
 20
-33.261299999999999
 30
0.0
 11
310.54000000000002
 21
-33.261299999999999
 31
0.0
  0
LINE
  5
A0
100
AcDbEntity
100
AcDbLine
  8
0
 62
5
370
9
  6
CONTINUOUS
 10
310.54000000000002
 20
-33.261299999999999
 30
0.0
 11
310.54000000000002
 21
-19.2913
 31
0.0
  0
LINE
  5
A1
100
AcDbEntity
100
AcDbLine
  8
0
 62
5
370
9
  6
CONTINUOUS
 10
329.58999999999997
 20
-47.866300000000003
 30
0.0
 11
343.56
 21
-47.866300000000003
 31
0.0
  0
LINE
  5
A2
100
AcDbEntity
100
AcDbLine
  8
0
 62
5
370
9
  6
CONTINUOUS
 10
343.56
 20
-47.866300000000003
 30
0.0
 11
343.56
 21
-61.836300000000001
 31
0.0
  0
LINE
  5
A3
100
AcDbEntity
100
AcDbLine
  8
0
 62
5
370
9
  6
CONTINUOUS
 10
343.56
 20
-61.836300000000001
 30
0.0
 11
329.58999999999997
 21
-61.836300000000001
 31
0.0
  0
LINE
  5
A4
100
AcDbEntity
100
AcDbLine
  8
0
 62
5
370
9
  6
CONTINUOUS
 10
329.58999999999997
 20
-61.836300000000001
 30
0.0
 11
329.58999999999997
 21
-47.866300000000003
 31
0.0
  0
LINE
  5
A5
100
AcDbEntity
100
AcDbLine
  8
0
 62
5
370
9
  6
CONTINUOUS
 10
243.86500000000001
 20
-85.966300000000004
 30
0.0
 11
257.83499999999998
 21
-85.966300000000004
 31
0.0
  0
LINE
  5
A6
100
AcDbEntity
100
AcDbLine
  8
0
 62
5
370
9
  6
CONTINUOUS
 10
257.83499999999998
 20
-85.966300000000004
 30
0.0
 11
257.83499999999998
 21
-99.936300000000003
 31
0.0
  0
LINE
  5
A7
100
AcDbEntity
100
AcDbLine
  8
0
 62
5
370
9
  6
CONTINUOUS
 10
257.83499999999998
 20
-99.936300000000003
 30
0.0
 11
243.86500000000001
 21
-99.936300000000003
 31
0.0
  0
LINE
  5
A8
100
AcDbEntity
100
AcDbLine
  8
0
 62
5
370
9
  6
CONTINUOUS
 10
243.86500000000001
 20
-99.936300000000003
 30
0.0
 11
243.86500000000001
 21
-85.966300000000004
 31
0.0
  0
LINE
  5
A9
100
AcDbEntity
100
AcDbLine
  8
0
 62
5
370
9
  6
CONTINUOUS
 10
191.47800000000001
 20
-47.866300000000003
 30
0.0
 11
205.44800000000001
 21
-47.866300000000003
 31
0.0
  0
LINE
  5
AA
100
AcDbEntity
100
AcDbLine
  8
0
 62
5
370
9
  6
CONTINUOUS
 10
205.44800000000001
 20
-47.866300000000003
 30
0.0
 11
205.44800000000001
 21
-61.836300000000001
 31
0.0
  0
LINE
  5
AB
100
AcDbEntity
100
AcDbLine
  8
0
 62
5
370
9
  6
CONTINUOUS
 10
205.44800000000001
 20
-61.836300000000001
 30
0.0
 11
191.47800000000001
 21
-61.836300000000001
 31
0.0
  0
LINE
  5
AC
100
AcDbEntity
100
AcDbLine
  8
0
 62
5
370
9
  6
CONTINUOUS
 10
191.47800000000001
 20
-61.836300000000001
 30
0.0
 11
191.47800000000001
 21
-47.866300000000003
 31
0.0
  0
LINE
  5
AD
100
AcDbEntity
100
AcDbLine
  8
0
 62
5
370
9
  6
CONTINUOUS
 10
310.54000000000002
 20
-66.916300000000007
 30
0.0
 11
324.50999999999999
 21
-66.916300000000007
 31
0.0
  0
LINE
  5
AE
100
AcDbEntity
100
AcDbLine
  8
0
 62
5
370
9
  6
CONTINUOUS
 10
324.50999999999999
 20
-66.916300000000007
 30
0.0
 11
324.50999999999999
 21
-80.886300000000006
 31
0.0
  0
LINE
  5
AF
100
AcDbEntity
100
AcDbLine
  8
0
 62
5
370
9
  6
CONTINUOUS
 10
324.50999999999999
 20
-80.886300000000006
 30
0.0
 11
310.54000000000002
 21
-80.886300000000006
 31
0.0
  0
LINE
  5
B0
100
AcDbEntity
100
AcDbLine
  8
0
 62
5
370
9
  6
CONTINUOUS
 10
310.54000000000002
 20
-80.886300000000006
 30
0.0
 11
310.54000000000002
 21
-66.916300000000007
 31
0.0
  0
LINE
  5
B1
100
AcDbEntity
100
AcDbLine
  8
0
 62
5
370
9
  6
CONTINUOUS
 10
329.58999999999997
 20
-19.2913
 30
0.0
 11
343.56
 21
-19.2913
 31
0.0
  0
LINE
  5
B2
100
AcDbEntity
100
AcDbLine
  8
0
 62
5
370
9
  6
CONTINUOUS
 10
343.56
 20
-19.2913
 30
0.0
 11
343.56
 21
-33.261299999999999
 31
0.0
  0
LINE
  5
B3
100
AcDbEntity
100
AcDbLine
  8
0
 62
5
370
9
  6
CONTINUOUS
 10
343.56
 20
-33.261299999999999
 30
0.0
 11
329.58999999999997
 21
-33.261299999999999
 31
0.0
  0
LINE
  5
B4
100
AcDbEntity
100
AcDbLine
  8
0
 62
5
370
9
  6
CONTINUOUS
 10
329.58999999999997
 20
-33.261299999999999
 30
0.0
 11
329.58999999999997
 21
-19.2913
 31
0.0
  0
LINE
  5
B5
100
AcDbEntity
100
AcDbLine
  8
0
 62
5
370
9
  6
CONTINUOUS
 10
286.72800000000001
 20
-19.2913
 30
0.0
 11
300.69799999999998
 21
-19.2913
 31
0.0
  0
LINE
  5
B6
100
AcDbEntity
100
AcDbLine
  8
0
 62
5
370
9
  6
CONTINUOUS
 10
300.69799999999998
 20
-19.2913
 30
0.0
 11
300.69799999999998
 21
-33.261299999999999
 31
0.0
  0
LINE
  5
B7
100
AcDbEntity
100
AcDbLine
  8
0
 62
5
370
9
  6
CONTINUOUS
 10
300.69799999999998
 20
-33.261299999999999
 30
0.0
 11
286.72800000000001
 21
-33.261299999999999
 31
0.0
  0
LINE
  5
B8
100
AcDbEntity
100
AcDbLine
  8
0
 62
5
370
9
  6
CONTINUOUS
 10
286.72800000000001
 20
-33.261299999999999
 30
0.0
 11
286.72800000000001
 21
-19.2913
 31
0.0
  0
LINE
  5
B9
100
AcDbEntity
100
AcDbLine
  8
0
 62
5
370
9
  6
CONTINUOUS
 10
81.940399999999997
 20
-105.01600000000001
 30
0.0
 11
95.910399999999996
 21
-105.01600000000001
 31
0.0
  0
LINE
  5
BA
100
AcDbEntity
100
AcDbLine
  8
0
 62
5
370
9
  6
CONTINUOUS
 10
95.910399999999996
 20
-105.01600000000001
 30
0.0
 11
95.910399999999996
 21
-118.986
 31
0.0
  0
LINE
  5
BB
100
AcDbEntity
100
AcDbLine
  8
0
 62
5
370
9
  6
CONTINUOUS
 10
95.910399999999996
 20
-118.986
 30
0.0
 11
81.940399999999997
 21
-118.986
 31
0.0
  0
LINE
  5
BC
100
AcDbEntity
100
AcDbLine
  8
0
 62
5
370
9
  6
CONTINUOUS
 10
81.940399999999997
 20
-118.986
 30
0.0
 11
81.940399999999997
 21
-105.01600000000001
 31
0.0
  0
LINE
  5
BD
100
AcDbEntity
100
AcDbLine
  8
0
 62
5
370
9
  6
CONTINUOUS
 10
143.85300000000001
 20
-66.916300000000007
 30
0.0
 11
157.82300000000001
 21
-66.916300000000007
 31
0.0
  0
LINE
  5
BE
100
AcDbEntity
100
AcDbLine
  8
0
 62
5
370
9
  6
CONTINUOUS
 10
157.82300000000001
 20
-66.916300000000007
 30
0.0
 11
157.82300000000001
 21
-80.886300000000006
 31
0.0
  0
LINE
  5
BF
100
AcDbEntity
100
AcDbLine
  8
0
 62
5
370
9
  6
CONTINUOUS
 10
157.82300000000001
 20
-80.886300000000006
 30
0.0
 11
143.85300000000001
 21
-80.886300000000006
 31
0.0
  0
LINE
  5
C0
100
AcDbEntity
100
AcDbLine
  8
0
 62
5
370
9
  6
CONTINUOUS
 10
143.85300000000001
 20
-80.886300000000006
 30
0.0
 11
143.85300000000001
 21
-66.916300000000007
 31
0.0
  0
LINE
  5
C1
100
AcDbEntity
100
AcDbLine
  8
0
 62
5
370
9
  6
CONTINUOUS
 10
134.328
 20
-47.866300000000003
 30
0.0
 11
148.298
 21
-47.866300000000003
 31
0.0
  0
LINE
  5
C2
100
AcDbEntity
100
AcDbLine
  8
0
 62
5
370
9
  6
CONTINUOUS
 10
148.298
 20
-47.866300000000003
 30
0.0
 11
148.298
 21
-61.836300000000001
 31
0.0
  0
LINE
  5
C3
100
AcDbEntity
100
AcDbLine
  8
0
 62
5
370
9
  6
CONTINUOUS
 10
148.298
 20
-61.836300000000001
 30
0.0
 11
134.328
 21
-61.836300000000001
 31
0.0
  0
LINE
  5
C4
100
AcDbEntity
100
AcDbLine
  8
0
 62
5
370
9
  6
CONTINUOUS
 10
134.328
 20
-61.836300000000001
 30
0.0
 11
134.328
 21
-47.866300000000003
 31
0.0
  0
LINE
  5
C5
100
AcDbEntity
100
AcDbLine
  8
0
 62
5
370
9
  6
CONTINUOUS
 10
115.27800000000001
 20
-19.2913
 30
0.0
 11
129.24799999999999
 21
-19.2913
 31
0.0
  0
LINE
  5
C6
100
AcDbEntity
100
AcDbLine
  8
0
 62
5
370
9
  6
CONTINUOUS
 10
129.24799999999999
 20
-19.2913
 30
0.0
 11
129.24799999999999
 21
-33.261299999999999
 31
0.0
  0
LINE
  5
C7
100
AcDbEntity
100
AcDbLine
  8
0
 62
5
370
9
  6
CONTINUOUS
 10
129.24799999999999
 20
-33.261299999999999
 30
0.0
 11
115.27800000000001
 21
-33.261299999999999
 31
0.0
  0
LINE
  5
C8
100
AcDbEntity
100
AcDbLine
  8
0
 62
5
370
9
  6
CONTINUOUS
 10
115.27800000000001
 20
-33.261299999999999
 30
0.0
 11
115.27800000000001
 21
-19.2913
 31
0.0
  0
LINE
  5
C9
100
AcDbEntity
100
AcDbLine
  8
0
 62
5
370
9
  6
CONTINUOUS
 10
120.04000000000001
 20
-105.01600000000001
 30
0.0
 11
134.00999999999999
 21
-105.01600000000001
 31
0.0
  0
LINE
  5
CA
100
AcDbEntity
100
AcDbLine
  8
0
 62
5
370
9
  6
CONTINUOUS
 10
134.00999999999999
 20
-105.01600000000001
 30
0.0
 11
134.00999999999999
 21
-118.986
 31
0.0
  0
LINE
  5
CB
100
AcDbEntity
100
AcDbLine
  8
0
 62
5
370
9
  6
CONTINUOUS
 10
134.00999999999999
 20
-118.986
 30
0.0
 11
120.04000000000001
 21
-118.986
 31
0.0
  0
LINE
  5
CC
100
AcDbEntity
100
AcDbLine
  8
0
 62
5
370
9
  6
CONTINUOUS
 10
120.04000000000001
 20
-118.986
 30
0.0
 11
120.04000000000001
 21
-105.01600000000001
 31
0.0
  0
LINE
  5
CD
100
AcDbEntity
100
AcDbLine
  8
0
 62
5
370
9
  6
CONTINUOUS
 10
110.515
 20
-85.966300000000004
 30
0.0
 11
124.485
 21
-85.966300000000004
 31
0.0
  0
LINE
  5
CE
100
AcDbEntity
100
AcDbLine
  8
0
 62
5
370
9
  6
CONTINUOUS
 10
124.485
 20
-85.966300000000004
 30
0.0
 11
124.485
 21
-99.936300000000003
 31
0.0
  0
LINE
  5
CF
100
AcDbEntity
100
AcDbLine
  8
0
 62
5
370
9
  6
CONTINUOUS
 10
124.485
 20
-99.936300000000003
 30
0.0
 11
110.515
 21
-99.936300000000003
 31
0.0
  0
LINE
  5
D0
100
AcDbEntity
100
AcDbLine
  8
0
 62
5
370
9
  6
CONTINUOUS
 10
110.515
 20
-99.936300000000003
 30
0.0
 11
110.515
 21
-85.966300000000004
 31
0.0
  0
LINE
  5
D1
100
AcDbEntity
100
AcDbLine
  8
0
 62
5
370
9
  6
CONTINUOUS
 10
124.803
 20
-66.916300000000007
 30
0.0
 11
138.773
 21
-66.916300000000007
 31
0.0
  0
LINE
  5
D2
100
AcDbEntity
100
AcDbLine
  8
0
 62
5
370
9
  6
CONTINUOUS
 10
138.773
 20
-66.916300000000007
 30
0.0
 11
138.773
 21
-80.886300000000006
 31
0.0
  0
LINE
  5
D3
100
AcDbEntity
100
AcDbLine
  8
0
 62
5
370
9
  6
CONTINUOUS
 10
138.773
 20
-80.886300000000006
 30
0.0
 11
124.803
 21
-80.886300000000006
 31
0.0
  0
LINE
  5
D4
100
AcDbEntity
100
AcDbLine
  8
0
 62
5
370
9
  6
CONTINUOUS
 10
124.803
 20
-80.886300000000006
 30
0.0
 11
124.803
 21
-66.916300000000007
 31
0.0
  0
LINE
  5
D5
100
AcDbEntity
100
AcDbLine
  8
0
 62
5
370
9
  6
CONTINUOUS
 10
115.27800000000001
 20
-47.866300000000003
 30
0.0
 11
129.24799999999999
 21
-47.866300000000003
 31
0.0
  0
LINE
  5
D6
100
AcDbEntity
100
AcDbLine
  8
0
 62
5
370
9
  6
CONTINUOUS
 10
129.24799999999999
 20
-47.866300000000003
 30
0.0
 11
129.24799999999999
 21
-61.836300000000001
 31
0.0
  0
LINE
  5
D7
100
AcDbEntity
100
AcDbLine
  8
0
 62
5
370
9
  6
CONTINUOUS
 10
129.24799999999999
 20
-61.836300000000001
 30
0.0
 11
115.27800000000001
 21
-61.836300000000001
 31
0.0
  0
LINE
  5
D8
100
AcDbEntity
100
AcDbLine
  8
0
 62
5
370
9
  6
CONTINUOUS
 10
115.27800000000001
 20
-61.836300000000001
 30
0.0
 11
115.27800000000001
 21
-47.866300000000003
 31
0.0
  0
LINE
  5
D9
100
AcDbEntity
100
AcDbLine
  8
0
 62
5
370
9
  6
CONTINUOUS
 10
96.227900000000005
 20
-19.2913
 30
0.0
 11
110.19799999999999
 21
-19.2913
 31
0.0
  0
LINE
  5
DA
100
AcDbEntity
100
AcDbLine
  8
0
 62
5
370
9
  6
CONTINUOUS
 10
110.19799999999999
 20
-19.2913
 30
0.0
 11
110.19799999999999
 21
-33.261299999999999
 31
0.0
  0
LINE
  5
DB
100
AcDbEntity
100
AcDbLine
  8
0
 62
5
370
9
  6
CONTINUOUS
 10
110.19799999999999
 20
-33.261299999999999
 30
0.0
 11
96.227900000000005
 21
-33.261299999999999
 31
0.0
  0
LINE
  5
DC
100
AcDbEntity
100
AcDbLine
  8
0
 62
5
370
9
  6
CONTINUOUS
 10
96.227900000000005
 20
-33.261299999999999
 30
0.0
 11
96.227900000000005
 21
-19.2913
 31
0.0
  0
LINE
  5
DD
100
AcDbEntity
100
AcDbLine
  8
0
 62
5
370
9
  6
CONTINUOUS
 10
100.98999999999999
 20
-105.01600000000001
 30
0.0
 11
114.95999999999999
 21
-105.01600000000001
 31
0.0
  0
LINE
  5
DE
100
AcDbEntity
100
AcDbLine
  8
0
 62
5
370
9
  6
CONTINUOUS
 10
114.95999999999999
 20
-105.01600000000001
 30
0.0
 11
114.95999999999999
 21
-118.986
 31
0.0
  0
LINE
  5
DF
100
AcDbEntity
100
AcDbLine
  8
0
 62
5
370
9
  6
CONTINUOUS
 10
114.95999999999999
 20
-118.986
 30
0.0
 11
100.98999999999999
 21
-118.986
 31
0.0
  0
LINE
  5
E0
100
AcDbEntity
100
AcDbLine
  8
0
 62
5
370
9
  6
CONTINUOUS
 10
100.98999999999999
 20
-118.986
 30
0.0
 11
100.98999999999999
 21
-105.01600000000001
 31
0.0
  0
LINE
  5
E1
100
AcDbEntity
100
AcDbLine
  8
0
 62
5
370
9
  6
CONTINUOUS
 10
91.465400000000002
 20
-85.966300000000004
 30
0.0
 11
105.435
 21
-85.966300000000004
 31
0.0
  0
LINE
  5
E2
100
AcDbEntity
100
AcDbLine
  8
0
 62
5
370
9
  6
CONTINUOUS
 10
105.435
 20
-85.966300000000004
 30
0.0
 11
105.435
 21
-99.936300000000003
 31
0.0
  0
LINE
  5
E3
100
AcDbEntity
100
AcDbLine
  8
0
 62
5
370
9
  6
CONTINUOUS
 10
105.435
 20
-99.936300000000003
 30
0.0
 11
91.465400000000002
 21
-99.936300000000003
 31
0.0
  0
LINE
  5
E4
100
AcDbEntity
100
AcDbLine
  8
0
 62
5
370
9
  6
CONTINUOUS
 10
91.465400000000002
 20
-99.936300000000003
 30
0.0
 11
91.465400000000002
 21
-85.966300000000004
 31
0.0
  0
LINE
  5
E5
100
AcDbEntity
100
AcDbLine
  8
0
 62
5
370
9
  6
CONTINUOUS
 10
105.753
 20
-66.916300000000007
 30
0.0
 11
119.723
 21
-66.916300000000007
 31
0.0
  0
LINE
  5
E6
100
AcDbEntity
100
AcDbLine
  8
0
 62
5
370
9
  6
CONTINUOUS
 10
119.723
 20
-66.916300000000007
 30
0.0
 11
119.723
 21
-80.886300000000006
 31
0.0
  0
LINE
  5
E7
100
AcDbEntity
100
AcDbLine
  8
0
 62
5
370
9
  6
CONTINUOUS
 10
119.723
 20
-80.886300000000006
 30
0.0
 11
105.753
 21
-80.886300000000006
 31
0.0
  0
LINE
  5
E8
100
AcDbEntity
100
AcDbLine
  8
0
 62
5
370
9
  6
CONTINUOUS
 10
105.753
 20
-80.886300000000006
 30
0.0
 11
105.753
 21
-66.916300000000007
 31
0.0
  0
LINE
  5
E9
100
AcDbEntity
100
AcDbLine
  8
0
 62
5
370
9
  6
CONTINUOUS
 10
96.227900000000005
 20
-47.866300000000003
 30
0.0
 11
110.19799999999999
 21
-47.866300000000003
 31
0.0
  0
LINE
  5
EA
100
AcDbEntity
100
AcDbLine
  8
0
 62
5
370
9
  6
CONTINUOUS
 10
110.19799999999999
 20
-47.866300000000003
 30
0.0
 11
110.19799999999999
 21
-61.836300000000001
 31
0.0
  0
LINE
  5
EB
100
AcDbEntity
100
AcDbLine
  8
0
 62
5
370
9
  6
CONTINUOUS
 10
110.19799999999999
 20
-61.836300000000001
 30
0.0
 11
96.227900000000005
 21
-61.836300000000001
 31
0.0
  0
LINE
  5
EC
100
AcDbEntity
100
AcDbLine
  8
0
 62
5
370
9
  6
CONTINUOUS
 10
96.227900000000005
 20
-61.836300000000001
 30
0.0
 11
96.227900000000005
 21
-47.866300000000003
 31
0.0
  0
LINE
  5
ED
100
AcDbEntity
100
AcDbLine
  8
0
 62
5
370
9
  6
CONTINUOUS
 10
77.177899999999994
 20
-19.2913
 30
0.0
 11
91.147900000000007
 21
-19.2913
 31
0.0
  0
LINE
  5
EE
100
AcDbEntity
100
AcDbLine
  8
0
 62
5
370
9
  6
CONTINUOUS
 10
91.147900000000007
 20
-19.2913
 30
0.0
 11
91.147900000000007
 21
-33.261299999999999
 31
0.0
  0
LINE
  5
EF
100
AcDbEntity
100
AcDbLine
  8
0
 62
5
370
9
  6
CONTINUOUS
 10
91.147900000000007
 20
-33.261299999999999
 30
0.0
 11
77.177899999999994
 21
-33.261299999999999
 31
0.0
  0
LINE
  5
F0
100
AcDbEntity
100
AcDbLine
  8
0
 62
5
370
9
  6
CONTINUOUS
 10
77.177899999999994
 20
-33.261299999999999
 30
0.0
 11
77.177899999999994
 21
-19.2913
 31
0.0
  0
LINE
  5
F1
100
AcDbEntity
100
AcDbLine
  8
0
 62
5
370
9
  6
CONTINUOUS
 10
248.62799999999999
 20
-19.2913
 30
0.0
 11
262.59800000000001
 21
-19.2913
 31
0.0
  0
LINE
  5
F2
100
AcDbEntity
100
AcDbLine
  8
0
 62
5
370
9
  6
CONTINUOUS
 10
262.59800000000001
 20
-19.2913
 30
0.0
 11
262.59800000000001
 21
-33.261299999999999
 31
0.0
  0
LINE
  5
F3
100
AcDbEntity
100
AcDbLine
  8
0
 62
5
370
9
  6
CONTINUOUS
 10
262.59800000000001
 20
-33.261299999999999
 30
0.0
 11
248.62799999999999
 21
-33.261299999999999
 31
0.0
  0
LINE
  5
F4
100
AcDbEntity
100
AcDbLine
  8
0
 62
5
370
9
  6
CONTINUOUS
 10
248.62799999999999
 20
-33.261299999999999
 30
0.0
 11
248.62799999999999
 21
-19.2913
 31
0.0
  0
LINE
  5
F5
100
AcDbEntity
100
AcDbLine
  8
0
 62
5
370
9
  6
CONTINUOUS
 10
72.415400000000005
 20
-85.966300000000004
 30
0.0
 11
86.385400000000004
 21
-85.966300000000004
 31
0.0
  0
LINE
  5
F6
100
AcDbEntity
100
AcDbLine
  8
0
 62
5
370
9
  6
CONTINUOUS
 10
86.385400000000004
 20
-85.966300000000004
 30
0.0
 11
86.385400000000004
 21
-99.936300000000003
 31
0.0
  0
LINE
  5
F7
100
AcDbEntity
100
AcDbLine
  8
0
 62
5
370
9
  6
CONTINUOUS
 10
86.385400000000004
 20
-99.936300000000003
 30
0.0
 11
72.415400000000005
 21
-99.936300000000003
 31
0.0
  0
LINE
  5
F8
100
AcDbEntity
100
AcDbLine
  8
0
 62
5
370
9
  6
CONTINUOUS
 10
72.415400000000005
 20
-99.936300000000003
 30
0.0
 11
72.415400000000005
 21
-85.966300000000004
 31
0.0
  0
LINE
  5
F9
100
AcDbEntity
100
AcDbLine
  8
0
 62
5
370
9
  6
CONTINUOUS
 10
86.7029
 20
-66.916300000000007
 30
0.0
 11
100.673
 21
-66.916300000000007
 31
0.0
  0
LINE
  5
FA
100
AcDbEntity
100
AcDbLine
  8
0
 62
5
370
9
  6
CONTINUOUS
 10
100.673
 20
-66.916300000000007
 30
0.0
 11
100.673
 21
-80.886300000000006
 31
0.0
  0
LINE
  5
FB
100
AcDbEntity
100
AcDbLine
  8
0
 62
5
370
9
  6
CONTINUOUS
 10
100.673
 20
-80.886300000000006
 30
0.0
 11
86.7029
 21
-80.886300000000006
 31
0.0
  0
LINE
  5
FC
100
AcDbEntity
100
AcDbLine
  8
0
 62
5
370
9
  6
CONTINUOUS
 10
86.7029
 20
-80.886300000000006
 30
0.0
 11
86.7029
 21
-66.916300000000007
 31
0.0
  0
LINE
  5
FD
100
AcDbEntity
100
AcDbLine
  8
0
 62
5
370
9
  6
CONTINUOUS
 10
77.177899999999994
 20
-47.866300000000003
 30
0.0
 11
91.147900000000007
 21
-47.866300000000003
 31
0.0
  0
LINE
  5
FE
100
AcDbEntity
100
AcDbLine
  8
0
 62
5
370
9
  6
CONTINUOUS
 10
91.147900000000007
 20
-47.866300000000003
 30
0.0
 11
91.147900000000007
 21
-61.836300000000001
 31
0.0
  0
LINE
  5
FF
100
AcDbEntity
100
AcDbLine
  8
0
 62
5
370
9
  6
CONTINUOUS
 10
91.147900000000007
 20
-61.836300000000001
 30
0.0
 11
77.177899999999994
 21
-61.836300000000001
 31
0.0
  0
LINE
  5
100
100
AcDbEntity
100
AcDbLine
  8
0
 62
5
370
9
  6
CONTINUOUS
 10
77.177899999999994
 20
-61.836300000000001
 30
0.0
 11
77.177899999999994
 21
-47.866300000000003
 31
0.0
  0
LINE
  5
101
100
AcDbEntity
100
AcDbLine
  8
0
 62
5
370
9
  6
CONTINUOUS
 10
58.127899999999997
 20
-19.2913
 30
0.0
 11
72.097899999999996
 21
-19.2913
 31
0.0
  0
LINE
  5
102
100
AcDbEntity
100
AcDbLine
  8
0
 62
5
370
9
  6
CONTINUOUS
 10
72.097899999999996
 20
-19.2913
 30
0.0
 11
72.097899999999996
 21
-33.261299999999999
 31
0.0
  0
LINE
  5
103
100
AcDbEntity
100
AcDbLine
  8
0
 62
5
370
9
  6
CONTINUOUS
 10
72.097899999999996
 20
-33.261299999999999
 30
0.0
 11
58.127899999999997
 21
-33.261299999999999
 31
0.0
  0
LINE
  5
104
100
AcDbEntity
100
AcDbLine
  8
0
 62
5
370
9
  6
CONTINUOUS
 10
58.127899999999997
 20
-33.261299999999999
 30
0.0
 11
58.127899999999997
 21
-19.2913
 31
0.0
  0
LINE
  5
105
100
AcDbEntity
100
AcDbLine
  8
0
 62
5
370
9
  6
CONTINUOUS
 10
62.8904
 20
-105.01600000000001
 30
0.0
 11
76.860399999999998
 21
-105.01600000000001
 31
0.0
  0
LINE
  5
106
100
AcDbEntity
100
AcDbLine
  8
0
 62
5
370
9
  6
CONTINUOUS
 10
76.860399999999998
 20
-105.01600000000001
 30
0.0
 11
76.860399999999998
 21
-118.986
 31
0.0
  0
LINE
  5
107
100
AcDbEntity
100
AcDbLine
  8
0
 62
5
370
9
  6
CONTINUOUS
 10
76.860399999999998
 20
-118.986
 30
0.0
 11
62.8904
 21
-118.986
 31
0.0
  0
LINE
  5
108
100
AcDbEntity
100
AcDbLine
  8
0
 62
5
370
9
  6
CONTINUOUS
 10
62.8904
 20
-118.986
 30
0.0
 11
62.8904
 21
-105.01600000000001
 31
0.0
  0
LINE
  5
109
100
AcDbEntity
100
AcDbLine
  8
0
 62
5
370
9
  6
CONTINUOUS
 10
53.365400000000001
 20
-85.966300000000004
 30
0.0
 11
67.335400000000007
 21
-85.966300000000004
 31
0.0
  0
LINE
  5
10A
100
AcDbEntity
100
AcDbLine
  8
0
 62
5
370
9
  6
CONTINUOUS
 10
67.335400000000007
 20
-85.966300000000004
 30
0.0
 11
67.335400000000007
 21
-99.936300000000003
 31
0.0
  0
LINE
  5
10B
100
AcDbEntity
100
AcDbLine
  8
0
 62
5
370
9
  6
CONTINUOUS
 10
67.335400000000007
 20
-99.936300000000003
 30
0.0
 11
53.365400000000001
 21
-99.936300000000003
 31
0.0
  0
LINE
  5
10C
100
AcDbEntity
100
AcDbLine
  8
0
 62
5
370
9
  6
CONTINUOUS
 10
53.365400000000001
 20
-99.936300000000003
 30
0.0
 11
53.365400000000001
 21
-85.966300000000004
 31
0.0
  0
LINE
  5
10D
100
AcDbEntity
100
AcDbLine
  8
0
 62
5
370
9
  6
CONTINUOUS
 10
67.652900000000002
 20
-66.916300000000007
 30
0.0
 11
81.622900000000001
 21
-66.916300000000007
 31
0.0
  0
LINE
  5
10E
100
AcDbEntity
100
AcDbLine
  8
0
 62
5
370
9
  6
CONTINUOUS
 10
81.622900000000001
 20
-66.916300000000007
 30
0.0
 11
81.622900000000001
 21
-80.886300000000006
 31
0.0
  0
LINE
  5
10F
100
AcDbEntity
100
AcDbLine
  8
0
 62
5
370
9
  6
CONTINUOUS
 10
81.622900000000001
 20
-80.886300000000006
 30
0.0
 11
67.652900000000002
 21
-80.886300000000006
 31
0.0
  0
LINE
  5
110
100
AcDbEntity
100
AcDbLine
  8
0
 62
5
370
9
  6
CONTINUOUS
 10
67.652900000000002
 20
-80.886300000000006
 30
0.0
 11
67.652900000000002
 21
-66.916300000000007
 31
0.0
  0
LINE
  5
111
100
AcDbEntity
100
AcDbLine
  8
0
 62
5
370
9
  6
CONTINUOUS
 10
58.127899999999997
 20
-47.866300000000003
 30
0.0
 11
72.097899999999996
 21
-47.866300000000003
 31
0.0
  0
LINE
  5
112
100
AcDbEntity
100
AcDbLine
  8
0
 62
5
370
9
  6
CONTINUOUS
 10
72.097899999999996
 20
-47.866300000000003
 30
0.0
 11
72.097899999999996
 21
-61.836300000000001
 31
0.0
  0
LINE
  5
113
100
AcDbEntity
100
AcDbLine
  8
0
 62
5
370
9
  6
CONTINUOUS
 10
72.097899999999996
 20
-61.836300000000001
 30
0.0
 11
58.127899999999997
 21
-61.836300000000001
 31
0.0
  0
LINE
  5
114
100
AcDbEntity
100
AcDbLine
  8
0
 62
5
370
9
  6
CONTINUOUS
 10
58.127899999999997
 20
-61.836300000000001
 30
0.0
 11
58.127899999999997
 21
-47.866300000000003
 31
0.0
  0
LINE
  5
115
100
AcDbEntity
100
AcDbLine
  8
0
 62
5
370
9
  6
CONTINUOUS
 10
48.602899999999998
 20
-66.916300000000007
 30
0.0
 11
62.572899999999997
 21
-66.916300000000007
 31
0.0
  0
LINE
  5
116
100
AcDbEntity
100
AcDbLine
  8
0
 62
5
370
9
  6
CONTINUOUS
 10
62.572899999999997
 20
-66.916300000000007
 30
0.0
 11
62.572899999999997
 21
-80.886300000000006
 31
0.0
  0
LINE
  5
117
100
AcDbEntity
100
AcDbLine
  8
0
 62
5
370
9
  6
CONTINUOUS
 10
62.572899999999997
 20
-80.886300000000006
 30
0.0
 11
48.602899999999998
 21
-80.886300000000006
 31
0.0
  0
LINE
  5
118
100
AcDbEntity
100
AcDbLine
  8
0
 62
5
370
9
  6
CONTINUOUS
 10
48.602899999999998
 20
-80.886300000000006
 30
0.0
 11
48.602899999999998
 21
-66.916300000000007
 31
0.0
  0
LINE
  5
119
100
AcDbEntity
100
AcDbLine
  8
0
 62
5
370
9
  6
CONTINUOUS
 10
39.0779
 20
-47.866300000000003
 30
0.0
 11
53.047899999999998
 21
-47.866300000000003
 31
0.0
  0
LINE
  5
11A
100
AcDbEntity
100
AcDbLine
  8
0
 62
5
370
9
  6
CONTINUOUS
 10
53.047899999999998
 20
-47.866300000000003
 30
0.0
 11
53.047899999999998
 21
-61.836300000000001
 31
0.0
  0
LINE
  5
11B
100
AcDbEntity
100
AcDbLine
  8
0
 62
5
370
9
  6
CONTINUOUS
 10
53.047899999999998
 20
-61.836300000000001
 30
0.0
 11
39.0779
 21
-61.836300000000001
 31
0.0
  0
LINE
  5
11C
100
AcDbEntity
100
AcDbLine
  8
0
 62
5
370
9
  6
CONTINUOUS
 10
39.0779
 20
-61.836300000000001
 30
0.0
 11
39.0779
 21
-47.866300000000003
 31
0.0
  0
LINE
  5
11D
100
AcDbEntity
100
AcDbLine
  8
0
 62
5
370
9
  6
CONTINUOUS
 10
20.027899999999999
 20
-19.2913
 30
0.0
 11
33.997900000000001
 21
-19.2913
 31
0.0
  0
LINE
  5
11E
100
AcDbEntity
100
AcDbLine
  8
0
 62
5
370
9
  6
CONTINUOUS
 10
33.997900000000001
 20
-19.2913
 30
0.0
 11
33.997900000000001
 21
-33.261299999999999
 31
0.0
  0
LINE
  5
11F
100
AcDbEntity
100
AcDbLine
  8
0
 62
5
370
9
  6
CONTINUOUS
 10
33.997900000000001
 20
-33.261299999999999
 30
0.0
 11
20.027899999999999
 21
-33.261299999999999
 31
0.0
  0
LINE
  5
120
100
AcDbEntity
100
AcDbLine
  8
0
 62
5
370
9
  6
CONTINUOUS
 10
20.027899999999999
 20
-33.261299999999999
 30
0.0
 11
20.027899999999999
 21
-19.2913
 31
0.0
  0
LINE
  5
121
100
AcDbEntity
100
AcDbLine
  8
0
 62
5
370
9
  6
CONTINUOUS
 10
129.565
 20
-85.966300000000004
 30
0.0
 11
143.535
 21
-85.966300000000004
 31
0.0
  0
LINE
  5
122
100
AcDbEntity
100
AcDbLine
  8
0
 62
5
370
9
  6
CONTINUOUS
 10
143.535
 20
-85.966300000000004
 30
0.0
 11
143.535
 21
-99.936300000000003
 31
0.0
  0
LINE
  5
123
100
AcDbEntity
100
AcDbLine
  8
0
 62
5
370
9
  6
CONTINUOUS
 10
143.535
 20
-99.936300000000003
 30
0.0
 11
129.565
 21
-99.936300000000003
 31
0.0
  0
LINE
  5
124
100
AcDbEntity
100
AcDbLine
  8
0
 62
5
370
9
  6
CONTINUOUS
 10
129.565
 20
-99.936300000000003
 30
0.0
 11
129.565
 21
-85.966300000000004
 31
0.0
  0
LINE
  5
125
100
AcDbEntity
100
AcDbLine
  8
0
 62
5
370
9
  6
CONTINUOUS
 10
234.34
 20
-105.01600000000001
 30
0.0
 11
248.31
 21
-105.01600000000001
 31
0.0
  0
LINE
  5
126
100
AcDbEntity
100
AcDbLine
  8
0
 62
5
370
9
  6
CONTINUOUS
 10
248.31
 20
-105.01600000000001
 30
0.0
 11
248.31
 21
-118.986
 31
0.0
  0
LINE
  5
127
100
AcDbEntity
100
AcDbLine
  8
0
 62
5
370
9
  6
CONTINUOUS
 10
248.31
 20
-118.986
 30
0.0
 11
234.34
 21
-118.986
 31
0.0
  0
LINE
  5
128
100
AcDbEntity
100
AcDbLine
  8
0
 62
5
370
9
  6
CONTINUOUS
 10
234.34
 20
-118.986
 30
0.0
 11
234.34
 21
-105.01600000000001
 31
0.0
  0
LINE
  5
129
100
AcDbEntity
100
AcDbLine
  8
0
 62
5
370
9
  6
CONTINUOUS
 10
224.815
 20
-85.966300000000004
 30
0.0
 11
238.785
 21
-85.966300000000004
 31
0.0
  0
LINE
  5
12A
100
AcDbEntity
100
AcDbLine
  8
0
 62
5
370
9
  6
CONTINUOUS
 10
238.785
 20
-85.966300000000004
 30
0.0
 11
238.785
 21
-99.936300000000003
 31
0.0
  0
LINE
  5
12B
100
AcDbEntity
100
AcDbLine
  8
0
 62
5
370
9
  6
CONTINUOUS
 10
238.785
 20
-99.936300000000003
 30
0.0
 11
224.815
 21
-99.936300000000003
 31
0.0
  0
LINE
  5
12C
100
AcDbEntity
100
AcDbLine
  8
0
 62
5
370
9
  6
CONTINUOUS
 10
224.815
 20
-99.936300000000003
 30
0.0
 11
224.815
 21
-85.966300000000004
 31
0.0
  0
LINE
  5
12D
100
AcDbEntity
100
AcDbLine
  8
0
 62
5
370
9
  6
CONTINUOUS
 10
239.10300000000001
 20
-66.916300000000007
 30
0.0
 11
253.07300000000001
 21
-66.916300000000007
 31
0.0
  0
LINE
  5
12E
100
AcDbEntity
100
AcDbLine
  8
0
 62
5
370
9
  6
CONTINUOUS
 10
253.07300000000001
 20
-66.916300000000007
 30
0.0
 11
253.07300000000001
 21
-80.886300000000006
 31
0.0
  0
LINE
  5
12F
100
AcDbEntity
100
AcDbLine
  8
0
 62
5
370
9
  6
CONTINUOUS
 10
253.07300000000001
 20
-80.886300000000006
 30
0.0
 11
239.10300000000001
 21
-80.886300000000006
 31
0.0
  0
LINE
  5
130
100
AcDbEntity
100
AcDbLine
  8
0
 62
5
370
9
  6
CONTINUOUS
 10
239.10300000000001
 20
-80.886300000000006
 30
0.0
 11
239.10300000000001
 21
-66.916300000000007
 31
0.0
  0
LINE
  5
131
100
AcDbEntity
100
AcDbLine
  8
0
 62
5
370
9
  6
CONTINUOUS
 10
229.578
 20
-47.866300000000003
 30
0.0
 11
243.548
 21
-47.866300000000003
 31
0.0
  0
LINE
  5
132
100
AcDbEntity
100
AcDbLine
  8
0
 62
5
370
9
  6
CONTINUOUS
 10
243.548
 20
-47.866300000000003
 30
0.0
 11
243.548
 21
-61.836300000000001
 31
0.0
  0
LINE
  5
133
100
AcDbEntity
100
AcDbLine
  8
0
 62
5
370
9
  6
CONTINUOUS
 10
243.548
 20
-61.836300000000001
 30
0.0
 11
229.578
 21
-61.836300000000001
 31
0.0
  0
LINE
  5
134
100
AcDbEntity
100
AcDbLine
  8
0
 62
5
370
9
  6
CONTINUOUS
 10
229.578
 20
-61.836300000000001
 30
0.0
 11
229.578
 21
-47.866300000000003
 31
0.0
  0
LINE
  5
135
100
AcDbEntity
100
AcDbLine
  8
0
 62
5
370
9
  6
CONTINUOUS
 10
229.578
 20
-19.2913
 30
0.0
 11
243.548
 21
-19.2913
 31
0.0
  0
LINE
  5
136
100
AcDbEntity
100
AcDbLine
  8
0
 62
5
370
9
  6
CONTINUOUS
 10
243.548
 20
-19.2913
 30
0.0
 11
243.548
 21
-33.261299999999999
 31
0.0
  0
LINE
  5
137
100
AcDbEntity
100
AcDbLine
  8
0
 62
5
370
9
  6
CONTINUOUS
 10
243.548
 20
-33.261299999999999
 30
0.0
 11
229.578
 21
-33.261299999999999
 31
0.0
  0
LINE
  5
138
100
AcDbEntity
100
AcDbLine
  8
0
 62
5
370
9
  6
CONTINUOUS
 10
229.578
 20
-33.261299999999999
 30
0.0
 11
229.578
 21
-19.2913
 31
0.0
  0
LINE
  5
139
100
AcDbEntity
100
AcDbLine
  8
0
 62
5
370
9
  6
CONTINUOUS
 10
215.28999999999999
 20
-105.01600000000001
 30
0.0
 11
229.25999999999999
 21
-105.01600000000001
 31
0.0
  0
LINE
  5
13A
100
AcDbEntity
100
AcDbLine
  8
0
 62
5
370
9
  6
CONTINUOUS
 10
229.25999999999999
 20
-105.01600000000001
 30
0.0
 11
229.25999999999999
 21
-118.986
 31
0.0
  0
LINE
  5
13B
100
AcDbEntity
100
AcDbLine
  8
0
 62
5
370
9
  6
CONTINUOUS
 10
229.25999999999999
 20
-118.986
 30
0.0
 11
215.28999999999999
 21
-118.986
 31
0.0
  0
LINE
  5
13C
100
AcDbEntity
100
AcDbLine
  8
0
 62
5
370
9
  6
CONTINUOUS
 10
215.28999999999999
 20
-118.986
 30
0.0
 11
215.28999999999999
 21
-105.01600000000001
 31
0.0
  0
LINE
  5
13D
100
AcDbEntity
100
AcDbLine
  8
0
 62
5
370
9
  6
CONTINUOUS
 10
205.76499999999999
 20
-85.966300000000004
 30
0.0
 11
219.73500000000001
 21
-85.966300000000004
 31
0.0
  0
LINE
  5
13E
100
AcDbEntity
100
AcDbLine
  8
0
 62
5
370
9
  6
CONTINUOUS
 10
219.73500000000001
 20
-85.966300000000004
 30
0.0
 11
219.73500000000001
 21
-99.936300000000003
 31
0.0
  0
LINE
  5
13F
100
AcDbEntity
100
AcDbLine
  8
0
 62
5
370
9
  6
CONTINUOUS
 10
219.73500000000001
 20
-99.936300000000003
 30
0.0
 11
205.76499999999999
 21
-99.936300000000003
 31
0.0
  0
LINE
  5
140
100
AcDbEntity
100
AcDbLine
  8
0
 62
5
370
9
  6
CONTINUOUS
 10
205.76499999999999
 20
-99.936300000000003
 30
0.0
 11
205.76499999999999
 21
-85.966300000000004
 31
0.0
  0
LINE
  5
141
100
AcDbEntity
100
AcDbLine
  8
0
 62
5
370
9
  6
CONTINUOUS
 10
220.053
 20
-66.916300000000007
 30
0.0
 11
234.023
 21
-66.916300000000007
 31
0.0
  0
LINE
  5
142
100
AcDbEntity
100
AcDbLine
  8
0
 62
5
370
9
  6
CONTINUOUS
 10
234.023
 20
-66.916300000000007
 30
0.0
 11
234.023
 21
-80.886300000000006
 31
0.0
  0
LINE
  5
143
100
AcDbEntity
100
AcDbLine
  8
0
 62
5
370
9
  6
CONTINUOUS
 10
234.023
 20
-80.886300000000006
 30
0.0
 11
220.053
 21
-80.886300000000006
 31
0.0
  0
LINE
  5
144
100
AcDbEntity
100
AcDbLine
  8
0
 62
5
370
9
  6
CONTINUOUS
 10
220.053
 20
-80.886300000000006
 30
0.0
 11
220.053
 21
-66.916300000000007
 31
0.0
  0
LINE
  5
145
100
AcDbEntity
100
AcDbLine
  8
0
 62
5
370
9
  6
CONTINUOUS
 10
210.52799999999999
 20
-47.866300000000003
 30
0.0
 11
224.49799999999999
 21
-47.866300000000003
 31
0.0
  0
LINE
  5
146
100
AcDbEntity
100
AcDbLine
  8
0
 62
5
370
9
  6
CONTINUOUS
 10
224.49799999999999
 20
-47.866300000000003
 30
0.0
 11
224.49799999999999
 21
-61.836300000000001
 31
0.0
  0
LINE
  5
147
100
AcDbEntity
100
AcDbLine
  8
0
 62
5
370
9
  6
CONTINUOUS
 10
224.49799999999999
 20
-61.836300000000001
 30
0.0
 11
210.52799999999999
 21
-61.836300000000001
 31
0.0
  0
LINE
  5
148
100
AcDbEntity
100
AcDbLine
  8
0
 62
5
370
9
  6
CONTINUOUS
 10
210.52799999999999
 20
-61.836300000000001
 30
0.0
 11
210.52799999999999
 21
-47.866300000000003
 31
0.0
  0
LINE
  5
149
100
AcDbEntity
100
AcDbLine
  8
0
 62
5
370
9
  6
CONTINUOUS
 10
201.00299999999999
 20
-19.2913
 30
0.0
 11
214.97300000000001
 21
-19.2913
 31
0.0
  0
LINE
  5
14A
100
AcDbEntity
100
AcDbLine
  8
0
 62
5
370
9
  6
CONTINUOUS
 10
214.97300000000001
 20
-19.2913
 30
0.0
 11
214.97300000000001
 21
-33.261299999999999
 31
0.0
  0
LINE
  5
14B
100
AcDbEntity
100
AcDbLine
  8
0
 62
5
370
9
  6
CONTINUOUS
 10
214.97300000000001
 20
-33.261299999999999
 30
0.0
 11
201.00299999999999
 21
-33.261299999999999
 31
0.0
  0
LINE
  5
14C
100
AcDbEntity
100
AcDbLine
  8
0
 62
5
370
9
  6
CONTINUOUS
 10
201.00299999999999
 20
-33.261299999999999
 30
0.0
 11
201.00299999999999
 21
-19.2913
 31
0.0
  0
LINE
  5
14D
100
AcDbEntity
100
AcDbLine
  8
0
 62
5
370
9
  6
CONTINUOUS
 10
196.24000000000001
 20
-105.01600000000001
 30
0.0
 11
210.21000000000001
 21
-105.01600000000001
 31
0.0
  0
LINE
  5
14E
100
AcDbEntity
100
AcDbLine
  8
0
 62
5
370
9
  6
CONTINUOUS
 10
210.21000000000001
 20
-105.01600000000001
 30
0.0
 11
210.21000000000001
 21
-118.986
 31
0.0
  0
LINE
  5
14F
100
AcDbEntity
100
AcDbLine
  8
0
 62
5
370
9
  6
CONTINUOUS
 10
210.21000000000001
 20
-118.986
 30
0.0
 11
196.24000000000001
 21
-118.986
 31
0.0
  0
LINE
  5
150
100
AcDbEntity
100
AcDbLine
  8
0
 62
5
370
9
  6
CONTINUOUS
 10
196.24000000000001
 20
-118.986
 30
0.0
 11
196.24000000000001
 21
-105.01600000000001
 31
0.0
  0
LINE
  5
151
100
AcDbEntity
100
AcDbLine
  8
0
 62
5
370
9
  6
CONTINUOUS
 10
186.715
 20
-85.966300000000004
 30
0.0
 11
200.685
 21
-85.966300000000004
 31
0.0
  0
LINE
  5
152
100
AcDbEntity
100
AcDbLine
  8
0
 62
5
370
9
  6
CONTINUOUS
 10
200.685
 20
-85.966300000000004
 30
0.0
 11
200.685
 21
-99.936300000000003
 31
0.0
  0
LINE
  5
153
100
AcDbEntity
100
AcDbLine
  8
0
 62
5
370
9
  6
CONTINUOUS
 10
200.685
 20
-99.936300000000003
 30
0.0
 11
186.715
 21
-99.936300000000003
 31
0.0
  0
LINE
  5
154
100
AcDbEntity
100
AcDbLine
  8
0
 62
5
370
9
  6
CONTINUOUS
 10
186.715
 20
-99.936300000000003
 30
0.0
 11
186.715
 21
-85.966300000000004
 31
0.0
  0
LINE
  5
155
100
AcDbEntity
100
AcDbLine
  8
0
 62
5
370
9
  6
CONTINUOUS
 10
201.00299999999999
 20
-66.916300000000007
 30
0.0
 11
214.97300000000001
 21
-66.916300000000007
 31
0.0
  0
LINE
  5
156
100
AcDbEntity
100
AcDbLine
  8
0
 62
5
370
9
  6
CONTINUOUS
 10
214.97300000000001
 20
-66.916300000000007
 30
0.0
 11
214.97300000000001
 21
-80.886300000000006
 31
0.0
  0
LINE
  5
157
100
AcDbEntity
100
AcDbLine
  8
0
 62
5
370
9
  6
CONTINUOUS
 10
214.97300000000001
 20
-80.886300000000006
 30
0.0
 11
201.00299999999999
 21
-80.886300000000006
 31
0.0
  0
LINE
  5
158
100
AcDbEntity
100
AcDbLine
  8
0
 62
5
370
9
  6
CONTINUOUS
 10
201.00299999999999
 20
-80.886300000000006
 30
0.0
 11
201.00299999999999
 21
-66.916300000000007
 31
0.0
  0
LINE
  5
159
100
AcDbEntity
100
AcDbLine
  8
0
 62
5
370
9
  6
CONTINUOUS
 10
181.953
 20
-19.2913
 30
0.0
 11
195.923
 21
-19.2913
 31
0.0
  0
LINE
  5
15A
100
AcDbEntity
100
AcDbLine
  8
0
 62
5
370
9
  6
CONTINUOUS
 10
195.923
 20
-19.2913
 30
0.0
 11
195.923
 21
-33.261299999999999
 31
0.0
  0
LINE
  5
15B
100
AcDbEntity
100
AcDbLine
  8
0
 62
5
370
9
  6
CONTINUOUS
 10
195.923
 20
-33.261299999999999
 30
0.0
 11
181.953
 21
-33.261299999999999
 31
0.0
  0
LINE
  5
15C
100
AcDbEntity
100
AcDbLine
  8
0
 62
5
370
9
  6
CONTINUOUS
 10
181.953
 20
-33.261299999999999
 30
0.0
 11
181.953
 21
-19.2913
 31
0.0
  0
LINE
  5
15D
100
AcDbEntity
100
AcDbLine
  8
0
 62
5
370
9
  6
CONTINUOUS
 10
177.19
 20
-105.01600000000001
 30
0.0
 11
191.16
 21
-105.01600000000001
 31
0.0
  0
LINE
  5
15E
100
AcDbEntity
100
AcDbLine
  8
0
 62
5
370
9
  6
CONTINUOUS
 10
191.16
 20
-105.01600000000001
 30
0.0
 11
191.16
 21
-118.986
 31
0.0
  0
LINE
  5
15F
100
AcDbEntity
100
AcDbLine
  8
0
 62
5
370
9
  6
CONTINUOUS
 10
191.16
 20
-118.986
 30
0.0
 11
177.19
 21
-118.986
 31
0.0
  0
LINE
  5
160
100
AcDbEntity
100
AcDbLine
  8
0
 62
5
370
9
  6
CONTINUOUS
 10
177.19
 20
-118.986
 30
0.0
 11
177.19
 21
-105.01600000000001
 31
0.0
  0
LINE
  5
161
100
AcDbEntity
100
AcDbLine
  8
0
 62
5
370
9
  6
CONTINUOUS
 10
167.66499999999999
 20
-85.966300000000004
 30
0.0
 11
181.63499999999999
 21
-85.966300000000004
 31
0.0
  0
LINE
  5
162
100
AcDbEntity
100
AcDbLine
  8
0
 62
5
370
9
  6
CONTINUOUS
 10
181.63499999999999
 20
-85.966300000000004
 30
0.0
 11
181.63499999999999
 21
-99.936300000000003
 31
0.0
  0
LINE
  5
163
100
AcDbEntity
100
AcDbLine
  8
0
 62
5
370
9
  6
CONTINUOUS
 10
181.63499999999999
 20
-99.936300000000003
 30
0.0
 11
167.66499999999999
 21
-99.936300000000003
 31
0.0
  0
LINE
  5
164
100
AcDbEntity
100
AcDbLine
  8
0
 62
5
370
9
  6
CONTINUOUS
 10
167.66499999999999
 20
-99.936300000000003
 30
0.0
 11
167.66499999999999
 21
-85.966300000000004
 31
0.0
  0
LINE
  5
165
100
AcDbEntity
100
AcDbLine
  8
0
 62
5
370
9
  6
CONTINUOUS
 10
181.953
 20
-66.916300000000007
 30
0.0
 11
195.923
 21
-66.916300000000007
 31
0.0
  0
LINE
  5
166
100
AcDbEntity
100
AcDbLine
  8
0
 62
5
370
9
  6
CONTINUOUS
 10
195.923
 20
-66.916300000000007
 30
0.0
 11
195.923
 21
-80.886300000000006
 31
0.0
  0
LINE
  5
167
100
AcDbEntity
100
AcDbLine
  8
0
 62
5
370
9
  6
CONTINUOUS
 10
195.923
 20
-80.886300000000006
 30
0.0
 11
181.953
 21
-80.886300000000006
 31
0.0
  0
LINE
  5
168
100
AcDbEntity
100
AcDbLine
  8
0
 62
5
370
9
  6
CONTINUOUS
 10
181.953
 20
-80.886300000000006
 30
0.0
 11
181.953
 21
-66.916300000000007
 31
0.0
  0
LINE
  5
169
100
AcDbEntity
100
AcDbLine
  8
0
 62
5
370
9
  6
CONTINUOUS
 10
172.428
 20
-47.866300000000003
 30
0.0
 11
186.398
 21
-47.866300000000003
 31
0.0
  0
LINE
  5
16A
100
AcDbEntity
100
AcDbLine
  8
0
 62
5
370
9
  6
CONTINUOUS
 10
186.398
 20
-47.866300000000003
 30
0.0
 11
186.398
 21
-61.836300000000001
 31
0.0
  0
LINE
  5
16B
100
AcDbEntity
100
AcDbLine
  8
0
 62
5
370
9
  6
CONTINUOUS
 10
186.398
 20
-61.836300000000001
 30
0.0
 11
172.428
 21
-61.836300000000001
 31
0.0
  0
LINE
  5
16C
100
AcDbEntity
100
AcDbLine
  8
0
 62
5
370
9
  6
CONTINUOUS
 10
172.428
 20
-61.836300000000001
 30
0.0
 11
172.428
 21
-47.866300000000003
 31
0.0
  0
LINE
  5
16D
100
AcDbEntity
100
AcDbLine
  8
0
 62
5
370
9
  6
CONTINUOUS
 10
162.90299999999999
 20
-19.2913
 30
0.0
 11
176.87299999999999
 21
-19.2913
 31
0.0
  0
LINE
  5
16E
100
AcDbEntity
100
AcDbLine
  8
0
 62
5
370
9
  6
CONTINUOUS
 10
176.87299999999999
 20
-19.2913
 30
0.0
 11
176.87299999999999
 21
-33.261299999999999
 31
0.0
  0
LINE
  5
16F
100
AcDbEntity
100
AcDbLine
  8
0
 62
5
370
9
  6
CONTINUOUS
 10
176.87299999999999
 20
-33.261299999999999
 30
0.0
 11
162.90299999999999
 21
-33.261299999999999
 31
0.0
  0
LINE
  5
170
100
AcDbEntity
100
AcDbLine
  8
0
 62
5
370
9
  6
CONTINUOUS
 10
162.90299999999999
 20
-33.261299999999999
 30
0.0
 11
162.90299999999999
 21
-19.2913
 31
0.0
  0
LINE
  5
171
100
AcDbEntity
100
AcDbLine
  8
0
 62
5
370
9
  6
CONTINUOUS
 10
158.13999999999999
 20
-105.01600000000001
 30
0.0
 11
172.11000000000001
 21
-105.01600000000001
 31
0.0
  0
LINE
  5
172
100
AcDbEntity
100
AcDbLine
  8
0
 62
5
370
9
  6
CONTINUOUS
 10
172.11000000000001
 20
-105.01600000000001
 30
0.0
 11
172.11000000000001
 21
-118.986
 31
0.0
  0
LINE
  5
173
100
AcDbEntity
100
AcDbLine
  8
0
 62
5
370
9
  6
CONTINUOUS
 10
172.11000000000001
 20
-118.986
 30
0.0
 11
158.13999999999999
 21
-118.986
 31
0.0
  0
LINE
  5
174
100
AcDbEntity
100
AcDbLine
  8
0
 62
5
370
9
  6
CONTINUOUS
 10
158.13999999999999
 20
-118.986
 30
0.0
 11
158.13999999999999
 21
-105.01600000000001
 31
0.0
  0
LINE
  5
175
100
AcDbEntity
100
AcDbLine
  8
0
 62
5
370
9
  6
CONTINUOUS
 10
148.61500000000001
 20
-85.966300000000004
 30
0.0
 11
162.58500000000001
 21
-85.966300000000004
 31
0.0
  0
LINE
  5
176
100
AcDbEntity
100
AcDbLine
  8
0
 62
5
370
9
  6
CONTINUOUS
 10
162.58500000000001
 20
-85.966300000000004
 30
0.0
 11
162.58500000000001
 21
-99.936300000000003
 31
0.0
  0
LINE
  5
177
100
AcDbEntity
100
AcDbLine
  8
0
 62
5
370
9
  6
CONTINUOUS
 10
162.58500000000001
 20
-99.936300000000003
 30
0.0
 11
148.61500000000001
 21
-99.936300000000003
 31
0.0
  0
LINE
  5
178
100
AcDbEntity
100
AcDbLine
  8
0
 62
5
370
9
  6
CONTINUOUS
 10
148.61500000000001
 20
-99.936300000000003
 30
0.0
 11
148.61500000000001
 21
-85.966300000000004
 31
0.0
  0
LINE
  5
179
100
AcDbEntity
100
AcDbLine
  8
0
 62
5
370
9
  6
CONTINUOUS
 10
162.90299999999999
 20
-66.916300000000007
 30
0.0
 11
176.87299999999999
 21
-66.916300000000007
 31
0.0
  0
LINE
  5
17A
100
AcDbEntity
100
AcDbLine
  8
0
 62
5
370
9
  6
CONTINUOUS
 10
176.87299999999999
 20
-66.916300000000007
 30
0.0
 11
176.87299999999999
 21
-80.886300000000006
 31
0.0
  0
LINE
  5
17B
100
AcDbEntity
100
AcDbLine
  8
0
 62
5
370
9
  6
CONTINUOUS
 10
176.87299999999999
 20
-80.886300000000006
 30
0.0
 11
162.90299999999999
 21
-80.886300000000006
 31
0.0
  0
LINE
  5
17C
100
AcDbEntity
100
AcDbLine
  8
0
 62
5
370
9
  6
CONTINUOUS
 10
162.90299999999999
 20
-80.886300000000006
 30
0.0
 11
162.90299999999999
 21
-66.916300000000007
 31
0.0
  0
LINE
  5
17D
100
AcDbEntity
100
AcDbLine
  8
0
 62
5
370
9
  6
CONTINUOUS
 10
153.37799999999999
 20
-47.866300000000003
 30
0.0
 11
167.34800000000001
 21
-47.866300000000003
 31
0.0
  0
LINE
  5
17E
100
AcDbEntity
100
AcDbLine
  8
0
 62
5
370
9
  6
CONTINUOUS
 10
167.34800000000001
 20
-47.866300000000003
 30
0.0
 11
167.34800000000001
 21
-61.836300000000001
 31
0.0
  0
LINE
  5
17F
100
AcDbEntity
100
AcDbLine
  8
0
 62
5
370
9
  6
CONTINUOUS
 10
167.34800000000001
 20
-61.836300000000001
 30
0.0
 11
153.37799999999999
 21
-61.836300000000001
 31
0.0
  0
LINE
  5
180
100
AcDbEntity
100
AcDbLine
  8
0
 62
5
370
9
  6
CONTINUOUS
 10
153.37799999999999
 20
-61.836300000000001
 30
0.0
 11
153.37799999999999
 21
-47.866300000000003
 31
0.0
  0
LINE
  5
181
100
AcDbEntity
100
AcDbLine
  8
0
 62
5
370
9
  6
CONTINUOUS
 10
143.85300000000001
 20
-19.2913
 30
0.0
 11
157.82300000000001
 21
-19.2913
 31
0.0
  0
LINE
  5
182
100
AcDbEntity
100
AcDbLine
  8
0
 62
5
370
9
  6
CONTINUOUS
 10
157.82300000000001
 20
-19.2913
 30
0.0
 11
157.82300000000001
 21
-33.261299999999999
 31
0.0
  0
LINE
  5
183
100
AcDbEntity
100
AcDbLine
  8
0
 62
5
370
9
  6
CONTINUOUS
 10
157.82300000000001
 20
-33.261299999999999
 30
0.0
 11
143.85300000000001
 21
-33.261299999999999
 31
0.0
  0
LINE
  5
184
100
AcDbEntity
100
AcDbLine
  8
0
 62
5
370
9
  6
CONTINUOUS
 10
143.85300000000001
 20
-33.261299999999999
 30
0.0
 11
143.85300000000001
 21
-19.2913
 31
0.0
  0
LINE
  5
185
100
AcDbEntity
100
AcDbLine
  8
0
 62
5
370
9
  6
CONTINUOUS
 10
139.09
 20
-105.01600000000001
 30
0.0
 11
153.06
 21
-105.01600000000001
 31
0.0
  0
LINE
  5
186
100
AcDbEntity
100
AcDbLine
  8
0
 62
5
370
9
  6
CONTINUOUS
 10
153.06
 20
-105.01600000000001
 30
0.0
 11
153.06
 21
-118.986
 31
0.0
  0
LINE
  5
187
100
AcDbEntity
100
AcDbLine
  8
0
 62
5
370
9
  6
CONTINUOUS
 10
153.06
 20
-118.986
 30
0.0
 11
139.09
 21
-118.986
 31
0.0
  0
LINE
  5
188
100
AcDbEntity
100
AcDbLine
  8
0
 62
5
370
9
  6
CONTINUOUS
 10
139.09
 20
-118.986
 30
0.0
 11
139.09
 21
-105.01600000000001
 31
0.0
  0
LINE
  5
189
100
AcDbEntity
100
AcDbLine
  8
0
 62
5
370
9
  6
CONTINUOUS
 10
329.58999999999997
 20
-124.066
 30
0.0
 11
343.56
 21
-124.066
 31
0.0
  0
LINE
  5
18A
100
AcDbEntity
100
AcDbLine
  8
0
 62
5
370
9
  6
CONTINUOUS
 10
343.56
 20
-124.066
 30
0.0
 11
343.56
 21
-138.036
 31
0.0
  0
LINE
  5
18B
100
AcDbEntity
100
AcDbLine
  8
0
 62
5
370
9
  6
CONTINUOUS
 10
343.56
 20
-138.036
 30
0.0
 11
329.58999999999997
 21
-138.036
 31
0.0
  0
LINE
  5
18C
100
AcDbEntity
100
AcDbLine
  8
0
 62
5
370
9
  6
CONTINUOUS
 10
329.58999999999997
 20
-138.036
 30
0.0
 11
329.58999999999997
 21
-124.066
 31
0.0
  0
LINE
  5
18D
100
AcDbEntity
100
AcDbLine
  8
0
 62
5
370
9
  6
CONTINUOUS
 10
329.58999999999997
 20
-105.01600000000001
 30
0.0
 11
343.56
 21
-105.01600000000001
 31
0.0
  0
LINE
  5
18E
100
AcDbEntity
100
AcDbLine
  8
0
 62
5
370
9
  6
CONTINUOUS
 10
343.56
 20
-105.01600000000001
 30
0.0
 11
343.56
 21
-118.986
 31
0.0
  0
LINE
  5
18F
100
AcDbEntity
100
AcDbLine
  8
0
 62
5
370
9
  6
CONTINUOUS
 10
343.56
 20
-118.986
 30
0.0
 11
329.58999999999997
 21
-118.986
 31
0.0
  0
LINE
  5
190
100
AcDbEntity
100
AcDbLine
  8
0
 62
5
370
9
  6
CONTINUOUS
 10
329.58999999999997
 20
-118.986
 30
0.0
 11
329.58999999999997
 21
-105.01600000000001
 31
0.0
  0
LINE
  5
191
100
AcDbEntity
100
AcDbLine
  8
0
 62
5
370
9
  6
CONTINUOUS
 10
310.54000000000002
 20
-124.066
 30
0.0
 11
324.50999999999999
 21
-124.066
 31
0.0
  0
LINE
  5
192
100
AcDbEntity
100
AcDbLine
  8
0
 62
5
370
9
  6
CONTINUOUS
 10
324.50999999999999
 20
-124.066
 30
0.0
 11
324.50999999999999
 21
-138.036
 31
0.0
  0
LINE
  5
193
100
AcDbEntity
100
AcDbLine
  8
0
 62
5
370
9
  6
CONTINUOUS
 10
324.50999999999999
 20
-138.036
 30
0.0
 11
310.54000000000002
 21
-138.036
 31
0.0
  0
LINE
  5
194
100
AcDbEntity
100
AcDbLine
  8
0
 62
5
370
9
  6
CONTINUOUS
 10
310.54000000000002
 20
-138.036
 30
0.0
 11
310.54000000000002
 21
-124.066
 31
0.0
  0
LINE
  5
195
100
AcDbEntity
100
AcDbLine
  8
0
 62
5
370
9
  6
CONTINUOUS
 10
310.54000000000002
 20
-47.866300000000003
 30
0.0
 11
324.50999999999999
 21
-47.866300000000003
 31
0.0
  0
LINE
  5
196
100
AcDbEntity
100
AcDbLine
  8
0
 62
5
370
9
  6
CONTINUOUS
 10
324.50999999999999
 20
-47.866300000000003
 30
0.0
 11
324.50999999999999
 21
-61.836300000000001
 31
0.0
  0
LINE
  5
197
100
AcDbEntity
100
AcDbLine
  8
0
 62
5
370
9
  6
CONTINUOUS
 10
324.50999999999999
 20
-61.836300000000001
 30
0.0
 11
310.54000000000002
 21
-61.836300000000001
 31
0.0
  0
LINE
  5
198
100
AcDbEntity
100
AcDbLine
  8
0
 62
5
370
9
  6
CONTINUOUS
 10
310.54000000000002
 20
-61.836300000000001
 30
0.0
 11
310.54000000000002
 21
-47.866300000000003
 31
0.0
  0
LINE
  5
199
100
AcDbEntity
100
AcDbLine
  8
0
 62
5
370
9
  6
CONTINUOUS
 10
348.63999999999999
 20
-19.2913
 30
0.0
 11
362.61000000000001
 21
-19.2913
 31
0.0
  0
LINE
  5
19A
100
AcDbEntity
100
AcDbLine
  8
0
 62
5
370
9
  6
CONTINUOUS
 10
362.61000000000001
 20
-19.2913
 30
0.0
 11
362.61000000000001
 21
-33.261299999999999
 31
0.0
  0
LINE
  5
19B
100
AcDbEntity
100
AcDbLine
  8
0
 62
5
370
9
  6
CONTINUOUS
 10
362.61000000000001
 20
-33.261299999999999
 30
0.0
 11
348.63999999999999
 21
-33.261299999999999
 31
0.0
  0
LINE
  5
19C
100
AcDbEntity
100
AcDbLine
  8
0
 62
5
370
9
  6
CONTINUOUS
 10
348.63999999999999
 20
-33.261299999999999
 30
0.0
 11
348.63999999999999
 21
-19.2913
 31
0.0
  0
LINE
  5
19D
100
AcDbEntity
100
AcDbLine
  8
0
 62
5
370
9
  6
CONTINUOUS
 10
348.63999999999999
 20
-47.866300000000003
 30
0.0
 11
362.61000000000001
 21
-47.866300000000003
 31
0.0
  0
LINE
  5
19E
100
AcDbEntity
100
AcDbLine
  8
0
 62
5
370
9
  6
CONTINUOUS
 10
362.61000000000001
 20
-47.866300000000003
 30
0.0
 11
362.61000000000001
 21
-61.836300000000001
 31
0.0
  0
LINE
  5
19F
100
AcDbEntity
100
AcDbLine
  8
0
 62
5
370
9
  6
CONTINUOUS
 10
362.61000000000001
 20
-61.836300000000001
 30
0.0
 11
348.63999999999999
 21
-61.836300000000001
 31
0.0
  0
LINE
  5
1A0
100
AcDbEntity
100
AcDbLine
  8
0
 62
5
370
9
  6
CONTINUOUS
 10
348.63999999999999
 20
-61.836300000000001
 30
0.0
 11
348.63999999999999
 21
-47.866300000000003
 31
0.0
  0
LINE
  5
1A1
100
AcDbEntity
100
AcDbLine
  8
0
 62
5
370
9
  6
CONTINUOUS
 10
348.63999999999999
 20
-66.916300000000007
 30
0.0
 11
362.61000000000001
 21
-66.916300000000007
 31
0.0
  0
LINE
  5
1A2
100
AcDbEntity
100
AcDbLine
  8
0
 62
5
370
9
  6
CONTINUOUS
 10
362.61000000000001
 20
-66.916300000000007
 30
0.0
 11
362.61000000000001
 21
-80.886300000000006
 31
0.0
  0
LINE
  5
1A3
100
AcDbEntity
100
AcDbLine
  8
0
 62
5
370
9
  6
CONTINUOUS
 10
362.61000000000001
 20
-80.886300000000006
 30
0.0
 11
348.63999999999999
 21
-80.886300000000006
 31
0.0
  0
LINE
  5
1A4
100
AcDbEntity
100
AcDbLine
  8
0
 62
5
370
9
  6
CONTINUOUS
 10
348.63999999999999
 20
-80.886300000000006
 30
0.0
 11
348.63999999999999
 21
-66.916300000000007
 31
0.0
  0
LINE
  5
1A5
100
AcDbEntity
100
AcDbLine
  8
0
 62
5
370
9
  6
CONTINUOUS
 10
281.96499999999997
 20
-66.916300000000007
 30
0.0
 11
295.935
 21
-66.916300000000007
 31
0.0
  0
LINE
  5
1A6
100
AcDbEntity
100
AcDbLine
  8
0
 62
5
370
9
  6
CONTINUOUS
 10
295.935
 20
-66.916300000000007
 30
0.0
 11
295.935
 21
-80.886300000000006
 31
0.0
  0
LINE
  5
1A7
100
AcDbEntity
100
AcDbLine
  8
0
 62
5
370
9
  6
CONTINUOUS
 10
295.935
 20
-80.886300000000006
 30
0.0
 11
281.96499999999997
 21
-80.886300000000006
 31
0.0
  0
LINE
  5
1A8
100
AcDbEntity
100
AcDbLine
  8
0
 62
5
370
9
  6
CONTINUOUS
 10
281.96499999999997
 20
-80.886300000000006
 30
0.0
 11
281.96499999999997
 21
-66.916300000000007
 31
0.0
  0
LINE
  5
1A9
100
AcDbEntity
100
AcDbLine
  8
0
 62
5
370
9
  6
CONTINUOUS
 10
24.790400000000002
 20
-66.916300000000007
 30
0.0
 11
38.760399999999997
 21
-66.916300000000007
 31
0.0
  0
LINE
  5
1AA
100
AcDbEntity
100
AcDbLine
  8
0
 62
5
370
9
  6
CONTINUOUS
 10
38.760399999999997
 20
-66.916300000000007
 30
0.0
 11
38.760399999999997
 21
-80.886300000000006
 31
0.0
  0
LINE
  5
1AB
100
AcDbEntity
100
AcDbLine
  8
0
 62
5
370
9
  6
CONTINUOUS
 10
38.760399999999997
 20
-80.886300000000006
 30
0.0
 11
24.790400000000002
 21
-80.886300000000006
 31
0.0
  0
LINE
  5
1AC
100
AcDbEntity
100
AcDbLine
  8
0
 62
5
370
9
  6
CONTINUOUS
 10
24.790400000000002
 20
-80.886300000000006
 30
0.0
 11
24.790400000000002
 21
-66.916300000000007
 31
0.0
  0
LINE
  5
1AD
100
AcDbEntity
100
AcDbLine
  8
0
 62
5
370
9
  6
CONTINUOUS
 10
70.034199999999998
 20
-124.066
 30
0.0
 11
84.004199999999997
 21
-124.066
 31
0.0
  0
LINE
  5
1AE
100
AcDbEntity
100
AcDbLine
  8
0
 62
5
370
9
  6
CONTINUOUS
 10
84.004199999999997
 20
-124.066
 30
0.0
 11
84.004199999999997
 21
-138.036
 31
0.0
  0
LINE
  5
1AF
100
AcDbEntity
100
AcDbLine
  8
0
 62
5
370
9
  6
CONTINUOUS
 10
84.004199999999997
 20
-138.036
 30
0.0
 11
70.034199999999998
 21
-138.036
 31
0.0
  0
LINE
  5
1B0
100
AcDbEntity
100
AcDbLine
  8
0
 62
5
370
9
  6
CONTINUOUS
 10
70.034199999999998
 20
-138.036
 30
0.0
 11
70.034199999999998
 21
-124.066
 31
0.0
  0
LINE
  5
1B1
100
AcDbEntity
100
AcDbLine
  8
0
 62
5
370
9
  6
CONTINUOUS
 10
46.221699999999998
 20
-124.066
 30
0.0
 11
60.191699999999997
 21
-124.066
 31
0.0
  0
LINE
  5
1B2
100
AcDbEntity
100
AcDbLine
  8
0
 62
5
370
9
  6
CONTINUOUS
 10
60.191699999999997
 20
-124.066
 30
0.0
 11
60.191699999999997
 21
-138.036
 31
0.0
  0
LINE
  5
1B3
100
AcDbEntity
100
AcDbLine
  8
0
 62
5
370
9
  6
CONTINUOUS
 10
60.191699999999997
 20
-138.036
 30
0.0
 11
46.221699999999998
 21
-138.036
 31
0.0
  0
LINE
  5
1B4
100
AcDbEntity
100
AcDbLine
  8
0
 62
5
370
9
  6
CONTINUOUS
 10
46.221699999999998
 20
-138.036
 30
0.0
 11
46.221699999999998
 21
-124.066
 31
0.0
  0
LINE
  5
1B5
100
AcDbEntity
100
AcDbLine
  8
0
 62
5
370
9
  6
CONTINUOUS
 10
22.409199999999998
 20
-124.066
 30
0.0
 11
36.379199999999997
 21
-124.066
 31
0.0
  0
LINE
  5
1B6
100
AcDbEntity
100
AcDbLine
  8
0
 62
5
370
9
  6
CONTINUOUS
 10
36.379199999999997
 20
-124.066
 30
0.0
 11
36.379199999999997
 21
-138.036
 31
0.0
  0
LINE
  5
1B7
100
AcDbEntity
100
AcDbLine
  8
0
 62
5
370
9
  6
CONTINUOUS
 10
36.379199999999997
 20
-138.036
 30
0.0
 11
22.409199999999998
 21
-138.036
 31
0.0
  0
LINE
  5
1B8
100
AcDbEntity
100
AcDbLine
  8
0
 62
5
370
9
  6
CONTINUOUS
 10
22.409199999999998
 20
-138.036
 30
0.0
 11
22.409199999999998
 21
-124.066
 31
0.0
  0
LINE
  5
1B9
100
AcDbEntity
100
AcDbLine
  8
0
 62
5
370
9
  6
CONTINUOUS
 10
260.53399999999999
 20
-124.066
 30
0.0
 11
274.50400000000002
 21
-124.066
 31
0.0
  0
LINE
  5
1BA
100
AcDbEntity
100
AcDbLine
  8
0
 62
5
370
9
  6
CONTINUOUS
 10
274.50400000000002
 20
-124.066
 30
0.0
 11
274.50400000000002
 21
-138.036
 31
0.0
  0
LINE
  5
1BB
100
AcDbEntity
100
AcDbLine
  8
0
 62
5
370
9
  6
CONTINUOUS
 10
274.50400000000002
 20
-138.036
 30
0.0
 11
260.53399999999999
 21
-138.036
 31
0.0
  0
LINE
  5
1BC
100
AcDbEntity
100
AcDbLine
  8
0
 62
5
370
9
  6
CONTINUOUS
 10
260.53399999999999
 20
-138.036
 30
0.0
 11
260.53399999999999
 21
-124.066
 31
0.0
  0
LINE
  5
1BD
100
AcDbEntity
100
AcDbLine
  8
0
 62
5
370
9
  6
CONTINUOUS
 10
284.34699999999998
 20
-124.066
 30
0.0
 11
298.31700000000001
 21
-124.066
 31
0.0
  0
LINE
  5
1BE
100
AcDbEntity
100
AcDbLine
  8
0
 62
5
370
9
  6
CONTINUOUS
 10
298.31700000000001
 20
-124.066
 30
0.0
 11
298.31700000000001
 21
-138.036
 31
0.0
  0
LINE
  5
1BF
100
AcDbEntity
100
AcDbLine
  8
0
 62
5
370
9
  6
CONTINUOUS
 10
298.31700000000001
 20
-138.036
 30
0.0
 11
284.34699999999998
 21
-138.036
 31
0.0
  0
LINE
  5
1C0
100
AcDbEntity
100
AcDbLine
  8
0
 62
5
370
9
  6
CONTINUOUS
 10
284.34699999999998
 20
-138.036
 30
0.0
 11
284.34699999999998
 21
-124.066
 31
0.0
  0
LINE
  5
1C1
100
AcDbEntity
100
AcDbLine
  8
0
 62
5
370
9
  6
CONTINUOUS
 10
236.72200000000001
 20
-124.066
 30
0.0
 11
250.69200000000001
 21
-124.066
 31
0.0
  0
LINE
  5
1C2
100
AcDbEntity
100
AcDbLine
  8
0
 62
5
370
9
  6
CONTINUOUS
 10
250.69200000000001
 20
-124.066
 30
0.0
 11
250.69200000000001
 21
-138.036
 31
0.0
  0
LINE
  5
1C3
100
AcDbEntity
100
AcDbLine
  8
0
 62
5
370
9
  6
CONTINUOUS
 10
250.69200000000001
 20
-138.036
 30
0.0
 11
236.72200000000001
 21
-138.036
 31
0.0
  0
LINE
  5
1C4
100
AcDbEntity
100
AcDbLine
  8
0
 62
5
370
9
  6
CONTINUOUS
 10
236.72200000000001
 20
-138.036
 30
0.0
 11
236.72200000000001
 21
-124.066
 31
0.0
  0
LINE
  5
1C5
100
AcDbEntity
100
AcDbLine
  8
0
 62
5
370
9
  6
CONTINUOUS
 10
212.90899999999999
 20
-124.066
 30
0.0
 11
226.87899999999999
 21
-124.066
 31
0.0
  0
LINE
  5
1C6
100
AcDbEntity
100
AcDbLine
  8
0
 62
5
370
9
  6
CONTINUOUS
 10
226.87899999999999
 20
-124.066
 30
0.0
 11
226.87899999999999
 21
-138.036
 31
0.0
  0
LINE
  5
1C7
100
AcDbEntity
100
AcDbLine
  8
0
 62
5
370
9
  6
CONTINUOUS
 10
226.87899999999999
 20
-138.036
 30
0.0
 11
212.90899999999999
 21
-138.036
 31
0.0
  0
LINE
  5
1C8
100
AcDbEntity
100
AcDbLine
  8
0
 62
5
370
9
  6
CONTINUOUS
 10
212.90899999999999
 20
-138.036
 30
0.0
 11
212.90899999999999
 21
-124.066
 31
0.0
  0
LINE
  5
1C9
100
AcDbEntity
100
AcDbLine
  8
0
 62
5
370
9
  6
CONTINUOUS
 10
155.44200000000001
 20
-138.036
 30
0.0
 11
155.44200000000001
 21
-131.559
 31
0.0
  0
LINE
  5
1CA
100
AcDbEntity
100
AcDbLine
  8
0
 62
5
370
9
  6
CONTINUOUS
 10
95.091300000000004
 20
-131.559
 30
0.0
 11
95.091300000000004
 21
-137.655
 31
0.0
  0
LINE
  5
1CB
100
AcDbEntity
100
AcDbLine
  8
0
 62
5
370
9
  6
CONTINUOUS
 10
94.227699999999999
 20
-131.559
 30
0.0
 11
95.091300000000004
 21
-131.559
 31
0.0
  0
LINE
  5
1CC
100
AcDbEntity
100
AcDbLine
  8
0
 62
5
370
9
  6
CONTINUOUS
 10
94.227699999999999
 20
-128.76499999999999
 30
0.0
 11
94.227699999999999
 21
-131.559
 31
0.0
  0
LINE
  5
1CD
100
AcDbEntity
100
AcDbLine
  8
0
 62
5
370
9
  6
CONTINUOUS
 10
95.091300000000004
 20
-128.76499999999999
 30
0.0
 11
94.227699999999999
 21
-128.76499999999999
 31
0.0
  0
LINE
  5
1CE
100
AcDbEntity
100
AcDbLine
  8
0
 62
5
370
9
  6
CONTINUOUS
 10
95.091300000000004
 20
-125.36199999999999
 30
0.0
 11
95.091300000000004
 21
-128.76499999999999
 31
0.0
  0
LINE
  5
1CF
100
AcDbEntity
100
AcDbLine
  8
0
 62
5
370
9
  6
CONTINUOUS
 10
101.746
 20
-128.76499999999999
 30
0.0
 11
101.746
 21
-125.36199999999999
 31
0.0
  0
LINE
  5
1D0
100
AcDbEntity
100
AcDbLine
  8
0
 62
5
370
9
  6
CONTINUOUS
 10
105.124
 20
-128.76499999999999
 30
0.0
 11
105.124
 21
-125.36199999999999
 31
0.0
  0
LINE
  5
1D1
100
AcDbEntity
100
AcDbLine
  8
0
 62
5
370
9
  6
CONTINUOUS
 10
111.779
 20
-128.76499999999999
 30
0.0
 11
111.779
 21
-125.36199999999999
 31
0.0
  0
LINE
  5
1D2
100
AcDbEntity
100
AcDbLine
  8
0
 62
5
370
9
  6
CONTINUOUS
 10
191.78899999999999
 20
-125.36199999999999
 30
0.0
 11
191.78899999999999
 21
-128.76499999999999
 31
0.0
  0
LINE
  5
1D3
100
AcDbEntity
100
AcDbLine
  8
0
 62
5
370
9
  6
CONTINUOUS
 10
185.13399999999999
 20
-128.76499999999999
 30
0.0
 11
185.13399999999999
 21
-125.36199999999999
 31
0.0
  0
LINE
  5
1D4
100
AcDbEntity
100
AcDbLine
  8
0
 62
5
370
9
  6
CONTINUOUS
 10
195.167
 20
-128.76499999999999
 30
0.0
 11
195.167
 21
-125.36199999999999
 31
0.0
  0
LINE
  5
1D5
100
AcDbEntity
100
AcDbLine
  8
0
 62
5
370
9
  6
CONTINUOUS
 10
201.822
 20
-131.559
 30
0.0
 11
201.822
 21
-137.655
 31
0.0
  0
LINE
  5
1D6
100
AcDbEntity
100
AcDbLine
  8
0
 62
5
370
9
  6
CONTINUOUS
 10
202.68600000000001
 20
-131.559
 30
0.0
 11
201.822
 21
-131.559
 31
0.0
  0
LINE
  5
1D7
100
AcDbEntity
100
AcDbLine
  8
0
 62
5
370
9
  6
CONTINUOUS
 10
202.68600000000001
 20
-128.76499999999999
 30
0.0
 11
202.68600000000001
 21
-131.559
 31
0.0
  0
LINE
  5
1D8
100
AcDbEntity
100
AcDbLine
  8
0
 62
5
370
9
  6
CONTINUOUS
 10
201.822
 20
-128.76499999999999
 30
0.0
 11
202.68600000000001
 21
-128.76499999999999
 31
0.0
  0
LINE
  5
1D9
100
AcDbEntity
100
AcDbLine
  8
0
 62
5
370
9
  6
CONTINUOUS
 10
201.822
 20
-125.36199999999999
 30
0.0
 11
201.822
 21
-128.76499999999999
 31
0.0
  0
LINE
  5
1DA
100
AcDbEntity
100
AcDbLine
  8
0
 62
5
370
9
  6
CONTINUOUS
 10
141.47200000000001
 20
-138.036
 30
0.0
 11
155.44200000000001
 21
-138.036
 31
0.0
  0
LINE
  5
1DB
100
AcDbEntity
100
AcDbLine
  8
0
 62
5
370
9
  6
CONTINUOUS
 10
141.47200000000001
 20
-138.036
 30
0.0
 11
141.47200000000001
 21
-131.559
 31
0.0
  0
LINE
  5
1DC
100
AcDbEntity
100
AcDbLine
  8
0
 62
5
370
9
  6
CONTINUOUS
 10
155.44200000000001
 20
-124.066
 30
0.0
 11
155.44200000000001
 21
-128.76499999999999
 31
0.0
  0
LINE
  5
1DD
100
AcDbEntity
100
AcDbLine
  8
0
 62
5
370
9
  6
CONTINUOUS
 10
141.47200000000001
 20
-124.066
 30
0.0
 11
155.44200000000001
 21
-124.066
 31
0.0
  0
LINE
  5
1DE
100
AcDbEntity
100
AcDbLine
  8
0
 62
5
370
9
  6
CONTINUOUS
 10
141.47200000000001
 20
-128.76499999999999
 30
0.0
 11
141.47200000000001
 21
-124.066
 31
0.0
  0
LINE
  5
1DF
100
AcDbEntity
100
AcDbLine
  8
0
 62
5
370
9
  6
CONTINUOUS
 10
191.78899999999999
 20
-137.655
 30
0.0
 11
190.113
 21
-137.655
 31
0.0
  0
LINE
  5
1E0
100
AcDbEntity
100
AcDbLine
  8
0
 62
5
370
9
  6
CONTINUOUS
 10
190.113
 20
-137.655
 30
0.0
 11
190.113
 21
-138.798
 31
0.0
  0
LINE
  5
1E1
100
AcDbEntity
100
AcDbLine
  8
0
 62
5
370
9
  6
CONTINUOUS
 10
190.113
 20
-138.798
 30
0.0
 11
186.81100000000001
 21
-138.798
 31
0.0
  0
LINE
  5
1E2
100
AcDbEntity
100
AcDbLine
  8
0
 62
5
370
9
  6
CONTINUOUS
 10
185.13399999999999
 20
-137.655
 30
0.0
 11
186.81100000000001
 21
-137.655
 31
0.0
  0
LINE
  5
1E3
100
AcDbEntity
100
AcDbLine
  8
0
 62
5
370
9
  6
CONTINUOUS
 10
186.81100000000001
 20
-137.655
 30
0.0
 11
186.81100000000001
 21
-138.798
 31
0.0
  0
LINE
  5
1E4
100
AcDbEntity
100
AcDbLine
  8
0
 62
5
370
9
  6
CONTINUOUS
 10
111.779
 20
-137.655
 30
0.0
 11
110.10299999999999
 21
-137.655
 31
0.0
  0
LINE
  5
1E5
100
AcDbEntity
100
AcDbLine
  8
0
 62
5
370
9
  6
CONTINUOUS
 10
110.10299999999999
 20
-137.655
 30
0.0
 11
110.10299999999999
 21
-138.798
 31
0.0
  0
LINE
  5
1E6
100
AcDbEntity
100
AcDbLine
  8
0
 62
5
370
9
  6
CONTINUOUS
 10
110.10299999999999
 20
-138.798
 30
0.0
 11
106.801
 21
-138.798
 31
0.0
  0
LINE
  5
1E7
100
AcDbEntity
100
AcDbLine
  8
0
 62
5
370
9
  6
CONTINUOUS
 10
105.124
 20
-137.655
 30
0.0
 11
106.801
 21
-137.655
 31
0.0
  0
LINE
  5
1E8
100
AcDbEntity
100
AcDbLine
  8
0
 62
5
370
9
  6
CONTINUOUS
 10
106.801
 20
-137.655
 30
0.0
 11
106.801
 21
-138.798
 31
0.0
  0
LINE
  5
1E9
100
AcDbEntity
100
AcDbLine
  8
0
 62
5
370
9
  6
CONTINUOUS
 10
201.822
 20
-137.655
 30
0.0
 11
200.14599999999999
 21
-137.655
 31
0.0
  0
LINE
  5
1EA
100
AcDbEntity
100
AcDbLine
  8
0
 62
5
370
9
  6
CONTINUOUS
 10
200.14599999999999
 20
-137.655
 30
0.0
 11
200.14599999999999
 21
-138.798
 31
0.0
  0
LINE
  5
1EB
100
AcDbEntity
100
AcDbLine
  8
0
 62
5
370
9
  6
CONTINUOUS
 10
200.14599999999999
 20
-138.798
 30
0.0
 11
196.84399999999999
 21
-138.798
 31
0.0
  0
LINE
  5
1EC
100
AcDbEntity
100
AcDbLine
  8
0
 62
5
370
9
  6
CONTINUOUS
 10
195.167
 20
-137.655
 30
0.0
 11
196.84399999999999
 21
-137.655
 31
0.0
  0
LINE
  5
1ED
100
AcDbEntity
100
AcDbLine
  8
0
 62
5
370
9
  6
CONTINUOUS
 10
196.84399999999999
 20
-137.655
 30
0.0
 11
196.84399999999999
 21
-138.798
 31
0.0
  0
LINE
  5
1EE
100
AcDbEntity
100
AcDbLine
  8
0
 62
5
370
9
  6
CONTINUOUS
 10
96.767700000000005
 20
-137.655
 30
0.0
 11
96.767700000000005
 21
-138.798
 31
0.0
  0
LINE
  5
1EF
100
AcDbEntity
100
AcDbLine
  8
0
 62
5
370
9
  6
CONTINUOUS
 10
96.767700000000005
 20
-138.798
 30
0.0
 11
100.06999999999999
 21
-138.798
 31
0.0
  0
LINE
  5
1F0
100
AcDbEntity
100
AcDbLine
  8
0
 62
5
370
9
  6
CONTINUOUS
 10
100.06999999999999
 20
-138.798
 30
0.0
 11
100.06999999999999
 21
-137.655
 31
0.0
  0
LINE
  5
1F1
100
AcDbEntity
100
AcDbLine
  8
0
 62
5
370
9
  6
CONTINUOUS
 10
101.746
 20
-137.655
 30
0.0
 11
100.06999999999999
 21
-137.655
 31
0.0
  0
LINE
  5
1F2
100
AcDbEntity
100
AcDbLine
  8
0
 62
5
370
9
  6
CONTINUOUS
 10
95.091300000000004
 20
-137.655
 30
0.0
 11
96.767700000000005
 21
-137.655
 31
0.0
  0
LINE
  5
1F3
100
AcDbEntity
100
AcDbLine
  8
0
 62
5
370
9
  6
CONTINUOUS
 10
191.78899999999999
 20
-125.36199999999999
 30
0.0
 11
190.113
 21
-125.36199999999999
 31
0.0
  0
LINE
  5
1F4
100
AcDbEntity
100
AcDbLine
  8
0
 62
5
370
9
  6
CONTINUOUS
 10
190.113
 20
-125.36199999999999
 30
0.0
 11
190.113
 21
-124.828
 31
0.0
  0
LINE
  5
1F5
100
AcDbEntity
100
AcDbLine
  8
0
 62
5
370
9
  6
CONTINUOUS
 10
190.113
 20
-124.828
 30
0.0
 11
186.81100000000001
 21
-124.828
 31
0.0
  0
LINE
  5
1F6
100
AcDbEntity
100
AcDbLine
  8
0
 62
5
370
9
  6
CONTINUOUS
 10
185.13399999999999
 20
-125.36199999999999
 30
0.0
 11
186.81100000000001
 21
-125.36199999999999
 31
0.0
  0
LINE
  5
1F7
100
AcDbEntity
100
AcDbLine
  8
0
 62
5
370
9
  6
CONTINUOUS
 10
186.81100000000001
 20
-125.36199999999999
 30
0.0
 11
186.81100000000001
 21
-124.828
 31
0.0
  0
LINE
  5
1F8
100
AcDbEntity
100
AcDbLine
  8
0
 62
5
370
9
  6
CONTINUOUS
 10
111.779
 20
-125.36199999999999
 30
0.0
 11
110.10299999999999
 21
-125.36199999999999
 31
0.0
  0
LINE
  5
1F9
100
AcDbEntity
100
AcDbLine
  8
0
 62
5
370
9
  6
CONTINUOUS
 10
110.10299999999999
 20
-125.36199999999999
 30
0.0
 11
110.10299999999999
 21
-124.828
 31
0.0
  0
LINE
  5
1FA
100
AcDbEntity
100
AcDbLine
  8
0
 62
5
370
9
  6
CONTINUOUS
 10
110.10299999999999
 20
-124.828
 30
0.0
 11
106.801
 21
-124.828
 31
0.0
  0
LINE
  5
1FB
100
AcDbEntity
100
AcDbLine
  8
0
 62
5
370
9
  6
CONTINUOUS
 10
106.801
 20
-125.36199999999999
 30
0.0
 11
106.801
 21
-124.828
 31
0.0
  0
LINE
  5
1FC
100
AcDbEntity
100
AcDbLine
  8
0
 62
5
370
9
  6
CONTINUOUS
 10
105.124
 20
-125.36199999999999
 30
0.0
 11
106.801
 21
-125.36199999999999
 31
0.0
  0
LINE
  5
1FD
100
AcDbEntity
100
AcDbLine
  8
0
 62
5
370
9
  6
CONTINUOUS
 10
195.167
 20
-125.36199999999999
 30
0.0
 11
196.84399999999999
 21
-125.36199999999999
 31
0.0
  0
LINE
  5
1FE
100
AcDbEntity
100
AcDbLine
  8
0
 62
5
370
9
  6
CONTINUOUS
 10
196.84399999999999
 20
-125.36199999999999
 30
0.0
 11
196.84399999999999
 21
-124.828
 31
0.0
  0
LINE
  5
1FF
100
AcDbEntity
100
AcDbLine
  8
0
 62
5
370
9
  6
CONTINUOUS
 10
196.84399999999999
 20
-124.828
 30
0.0
 11
200.14599999999999
 21
-124.828
 31
0.0
  0
LINE
  5
200
100
AcDbEntity
100
AcDbLine
  8
0
 62
5
370
9
  6
CONTINUOUS
 10
201.822
 20
-125.36199999999999
 30
0.0
 11
200.14599999999999
 21
-125.36199999999999
 31
0.0
  0
LINE
  5
201
100
AcDbEntity
100
AcDbLine
  8
0
 62
5
370
9
  6
CONTINUOUS
 10
200.14599999999999
 20
-125.36199999999999
 30
0.0
 11
200.14599999999999
 21
-124.828
 31
0.0
  0
LINE
  5
202
100
AcDbEntity
100
AcDbLine
  8
0
 62
5
370
9
  6
CONTINUOUS
 10
96.767700000000005
 20
-125.36199999999999
 30
0.0
 11
96.767700000000005
 21
-124.828
 31
0.0
  0
LINE
  5
203
100
AcDbEntity
100
AcDbLine
  8
0
 62
5
370
9
  6
CONTINUOUS
 10
96.767700000000005
 20
-124.828
 30
0.0
 11
100.06999999999999
 21
-124.828
 31
0.0
  0
LINE
  5
204
100
AcDbEntity
100
AcDbLine
  8
0
 62
5
370
9
  6
CONTINUOUS
 10
100.06999999999999
 20
-124.828
 30
0.0
 11
100.06999999999999
 21
-125.36199999999999
 31
0.0
  0
LINE
  5
205
100
AcDbEntity
100
AcDbLine
  8
0
 62
5
370
9
  6
CONTINUOUS
 10
95.091300000000004
 20
-125.36199999999999
 30
0.0
 11
96.767700000000005
 21
-125.36199999999999
 31
0.0
  0
LINE
  5
206
100
AcDbEntity
100
AcDbLine
  8
0
 62
5
370
9
  6
CONTINUOUS
 10
101.746
 20
-125.36199999999999
 30
0.0
 11
100.06999999999999
 21
-125.36199999999999
 31
0.0
  0
LINE
  5
207
100
AcDbEntity
100
AcDbLine
  8
0
 62
5
370
9
  6
CONTINUOUS
 10
185.13399999999999
 20
-137.655
 30
0.0
 11
185.13399999999999
 21
-131.559
 31
0.0
  0
LINE
  5
208
100
AcDbEntity
100
AcDbLine
  8
0
 62
5
370
9
  6
CONTINUOUS
 10
185.13399999999999
 20
-131.559
 30
0.0
 11
155.44200000000001
 21
-131.559
 31
0.0
  0
LINE
  5
209
100
AcDbEntity
100
AcDbLine
  8
0
 62
5
370
9
  6
CONTINUOUS
 10
195.167
 20
-137.655
 30
0.0
 11
195.167
 21
-131.559
 31
0.0
  0
LINE
  5
20A
100
AcDbEntity
100
AcDbLine
  8
0
 62
5
370
9
  6
CONTINUOUS
 10
195.167
 20
-131.559
 30
0.0
 11
191.78899999999999
 21
-131.559
 31
0.0
  0
LINE
  5
20B
100
AcDbEntity
100
AcDbLine
  8
0
 62
5
370
9
  6
CONTINUOUS
 10
191.78899999999999
 20
-131.559
 30
0.0
 11
191.78899999999999
 21
-137.655
 31
0.0
  0
LINE
  5
20C
100
AcDbEntity
100
AcDbLine
  8
0
 62
5
370
9
  6
CONTINUOUS
 10
111.779
 20
-137.655
 30
0.0
 11
111.779
 21
-131.559
 31
0.0
  0
LINE
  5
20D
100
AcDbEntity
100
AcDbLine
  8
0
 62
5
370
9
  6
CONTINUOUS
 10
111.779
 20
-131.559
 30
0.0
 11
141.47200000000001
 21
-131.559
 31
0.0
  0
LINE
  5
20E
100
AcDbEntity
100
AcDbLine
  8
0
 62
5
370
9
  6
CONTINUOUS
 10
101.746
 20
-137.655
 30
0.0
 11
101.746
 21
-131.559
 31
0.0
  0
LINE
  5
20F
100
AcDbEntity
100
AcDbLine
  8
0
 62
5
370
9
  6
CONTINUOUS
 10
101.746
 20
-131.559
 30
0.0
 11
105.124
 21
-131.559
 31
0.0
  0
LINE
  5
210
100
AcDbEntity
100
AcDbLine
  8
0
 62
5
370
9
  6
CONTINUOUS
 10
105.124
 20
-131.559
 30
0.0
 11
105.124
 21
-137.655
 31
0.0
  0
LINE
  5
211
100
AcDbEntity
100
AcDbLine
  8
0
 62
5
370
9
  6
CONTINUOUS
 10
191.78899999999999
 20
-128.76499999999999
 30
0.0
 11
195.167
 21
-128.76499999999999
 31
0.0
  0
LINE
  5
212
100
AcDbEntity
100
AcDbLine
  8
0
 62
5
370
9
  6
CONTINUOUS
 10
155.44200000000001
 20
-128.76499999999999
 30
0.0
 11
185.13399999999999
 21
-128.76499999999999
 31
0.0
  0
LINE
  5
213
100
AcDbEntity
100
AcDbLine
  8
0
 62
5
370
9
  6
CONTINUOUS
 10
111.779
 20
-128.76499999999999
 30
0.0
 11
141.47200000000001
 21
-128.76499999999999
 31
0.0
  0
LINE
  5
214
100
AcDbEntity
100
AcDbLine
  8
0
 62
5
370
9
  6
CONTINUOUS
 10
101.746
 20
-128.76499999999999
 30
0.0
 11
105.124
 21
-128.76499999999999
 31
0.0
  0
LINE
  5
215
100
AcDbEntity
100
AcDbLine
  8
0
 62
5
370
9
  6
CONTINUOUS
 10
274.822
 20
-85.966300000000004
 30
0.0
 11
288.79199999999997
 21
-85.966300000000004
 31
0.0
  0
LINE
  5
216
100
AcDbEntity
100
AcDbLine
  8
0
 62
5
370
9
  6
CONTINUOUS
 10
266.541
 20
-90.665300000000002
 30
0.0
 11
266.541
 21
-87.261700000000005
 31
0.0
  0
LINE
  5
217
100
AcDbEntity
100
AcDbLine
  8
0
 62
5
370
9
  6
CONTINUOUS
 10
265.678
 20
-90.665300000000002
 30
0.0
 11
266.541
 21
-90.665300000000002
 31
0.0
  0
LINE
  5
218
100
AcDbEntity
100
AcDbLine
  8
0
 62
5
370
9
  6
CONTINUOUS
 10
265.678
 20
-93.459299999999999
 30
0.0
 11
265.678
 21
-90.665300000000002
 31
0.0
  0
LINE
  5
219
100
AcDbEntity
100
AcDbLine
  8
0
 62
5
370
9
  6
CONTINUOUS
 10
266.541
 20
-93.459299999999999
 30
0.0
 11
265.678
 21
-93.459299999999999
 31
0.0
  0
LINE
  5
21A
100
AcDbEntity
100
AcDbLine
  8
0
 62
5
370
9
  6
CONTINUOUS
 10
266.541
 20
-99.555300000000003
 30
0.0
 11
266.541
 21
-93.459299999999999
 31
0.0
  0
LINE
  5
21B
100
AcDbEntity
100
AcDbLine
  8
0
 62
5
370
9
  6
CONTINUOUS
 10
288.79199999999997
 20
-99.936300000000003
 30
0.0
 11
274.822
 21
-99.936300000000003
 31
0.0
  0
LINE
  5
21C
100
AcDbEntity
100
AcDbLine
  8
0
 62
5
370
9
  6
CONTINUOUS
 10
297.072
 20
-93.459299999999999
 30
0.0
 11
297.072
 21
-99.555300000000003
 31
0.0
  0
LINE
  5
21D
100
AcDbEntity
100
AcDbLine
  8
0
 62
5
370
9
  6
CONTINUOUS
 10
297.93599999999998
 20
-93.459299999999999
 30
0.0
 11
297.072
 21
-93.459299999999999
 31
0.0
  0
LINE
  5
21E
100
AcDbEntity
100
AcDbLine
  8
0
 62
5
370
9
  6
CONTINUOUS
 10
297.93599999999998
 20
-90.665300000000002
 30
0.0
 11
297.93599999999998
 21
-93.459299999999999
 31
0.0
  0
LINE
  5
21F
100
AcDbEntity
100
AcDbLine
  8
0
 62
5
370
9
  6
CONTINUOUS
 10
297.072
 20
-90.665300000000002
 30
0.0
 11
297.93599999999998
 21
-90.665300000000002
 31
0.0
  0
LINE
  5
220
100
AcDbEntity
100
AcDbLine
  8
0
 62
5
370
9
  6
CONTINUOUS
 10
297.072
 20
-87.261700000000005
 30
0.0
 11
297.072
 21
-90.665300000000002
 31
0.0
  0
LINE
  5
221
100
AcDbEntity
100
AcDbLine
  8
0
 62
5
370
9
  6
CONTINUOUS
 10
297.072
 20
-99.555300000000003
 30
0.0
 11
295.39600000000002
 21
-99.555300000000003
 31
0.0
  0
LINE
  5
222
100
AcDbEntity
100
AcDbLine
  8
0
 62
5
370
9
  6
CONTINUOUS
 10
295.39600000000002
 20
-99.555300000000003
 30
0.0
 11
295.39600000000002
 21
-100.69799999999999
 31
0.0
  0
LINE
  5
223
100
AcDbEntity
100
AcDbLine
  8
0
 62
5
370
9
  6
CONTINUOUS
 10
295.39600000000002
 20
-100.69799999999999
 30
0.0
 11
292.09399999999999
 21
-100.69799999999999
 31
0.0
  0
LINE
  5
224
100
AcDbEntity
100
AcDbLine
  8
0
 62
5
370
9
  6
CONTINUOUS
 10
290.41699999999997
 20
-99.555300000000003
 30
0.0
 11
292.09399999999999
 21
-99.555300000000003
 31
0.0
  0
LINE
  5
225
100
AcDbEntity
100
AcDbLine
  8
0
 62
5
370
9
  6
CONTINUOUS
 10
292.09399999999999
 20
-99.555300000000003
 30
0.0
 11
292.09399999999999
 21
-100.69799999999999
 31
0.0
  0
LINE
  5
226
100
AcDbEntity
100
AcDbLine
  8
0
 62
5
370
9
  6
CONTINUOUS
 10
290.41699999999997
 20
-99.555300000000003
 30
0.0
 11
290.41699999999997
 21
-93.459299999999999
 31
0.0
  0
LINE
  5
227
100
AcDbEntity
100
AcDbLine
  8
0
 62
5
370
9
  6
CONTINUOUS
 10
290.41699999999997
 20
-93.459299999999999
 30
0.0
 11
288.79199999999997
 21
-93.459299999999999
 31
0.0
  0
LINE
  5
228
100
AcDbEntity
100
AcDbLine
  8
0
 62
5
370
9
  6
CONTINUOUS
 10
288.79199999999997
 20
-93.459299999999999
 30
0.0
 11
288.79199999999997
 21
-99.936300000000003
 31
0.0
  0
LINE
  5
229
100
AcDbEntity
100
AcDbLine
  8
0
 62
5
370
9
  6
CONTINUOUS
 10
290.41699999999997
 20
-87.261700000000005
 30
0.0
 11
290.41699999999997
 21
-90.665300000000002
 31
0.0
  0
LINE
  5
22A
100
AcDbEntity
100
AcDbLine
  8
0
 62
5
370
9
  6
CONTINUOUS
 10
290.41699999999997
 20
-90.665300000000002
 30
0.0
 11
288.79199999999997
 21
-90.665300000000002
 31
0.0
  0
LINE
  5
22B
100
AcDbEntity
100
AcDbLine
  8
0
 62
5
370
9
  6
CONTINUOUS
 10
288.79199999999997
 20
-90.665300000000002
 30
0.0
 11
288.79199999999997
 21
-85.966300000000004
 31
0.0
  0
LINE
  5
22C
100
AcDbEntity
100
AcDbLine
  8
0
 62
5
370
9
  6
CONTINUOUS
 10
297.072
 20
-87.261700000000005
 30
0.0
 11
295.39600000000002
 21
-87.261700000000005
 31
0.0
  0
LINE
  5
22D
100
AcDbEntity
100
AcDbLine
  8
0
 62
5
370
9
  6
CONTINUOUS
 10
295.39600000000002
 20
-87.261700000000005
 30
0.0
 11
295.39600000000002
 21
-86.728300000000004
 31
0.0
  0
LINE
  5
22E
100
AcDbEntity
100
AcDbLine
  8
0
 62
5
370
9
  6
CONTINUOUS
 10
295.39600000000002
 20
-86.728300000000004
 30
0.0
 11
292.09399999999999
 21
-86.728300000000004
 31
0.0
  0
LINE
  5
22F
100
AcDbEntity
100
AcDbLine
  8
0
 62
5
370
9
  6
CONTINUOUS
 10
290.41699999999997
 20
-87.261700000000005
 30
0.0
 11
292.09399999999999
 21
-87.261700000000005
 31
0.0
  0
LINE
  5
230
100
AcDbEntity
100
AcDbLine
  8
0
 62
5
370
9
  6
CONTINUOUS
 10
292.09399999999999
 20
-87.261700000000005
 30
0.0
 11
292.09399999999999
 21
-86.728300000000004
 31
0.0
  0
LINE
  5
231
100
AcDbEntity
100
AcDbLine
  8
0
 62
5
370
9
  6
CONTINUOUS
 10
273.19600000000003
 20
-99.555300000000003
 30
0.0
 11
271.51999999999998
 21
-99.555300000000003
 31
0.0
  0
LINE
  5
232
100
AcDbEntity
100
AcDbLine
  8
0
 62
5
370
9
  6
CONTINUOUS
 10
271.51999999999998
 20
-99.555300000000003
 30
0.0
 11
271.51999999999998
 21
-100.69799999999999
 31
0.0
  0
LINE
  5
233
100
AcDbEntity
100
AcDbLine
  8
0
 62
5
370
9
  6
CONTINUOUS
 10
271.51999999999998
 20
-100.69799999999999
 30
0.0
 11
268.21800000000002
 21
-100.69799999999999
 31
0.0
  0
LINE
  5
234
100
AcDbEntity
100
AcDbLine
  8
0
 62
5
370
9
  6
CONTINUOUS
 10
268.21800000000002
 20
-100.69799999999999
 30
0.0
 11
268.21800000000002
 21
-99.555300000000003
 31
0.0
  0
LINE
  5
235
100
AcDbEntity
100
AcDbLine
  8
0
 62
5
370
9
  6
CONTINUOUS
 10
266.541
 20
-99.555300000000003
 30
0.0
 11
268.21800000000002
 21
-99.555300000000003
 31
0.0
  0
LINE
  5
236
100
AcDbEntity
100
AcDbLine
  8
0
 62
5
370
9
  6
CONTINUOUS
 10
273.19600000000003
 20
-99.555300000000003
 30
0.0
 11
273.19600000000003
 21
-93.459299999999999
 31
0.0
  0
LINE
  5
237
100
AcDbEntity
100
AcDbLine
  8
0
 62
5
370
9
  6
CONTINUOUS
 10
273.19600000000003
 20
-93.459299999999999
 30
0.0
 11
274.822
 21
-93.459299999999999
 31
0.0
  0
LINE
  5
238
100
AcDbEntity
100
AcDbLine
  8
0
 62
5
370
9
  6
CONTINUOUS
 10
274.822
 20
-93.459299999999999
 30
0.0
 11
274.822
 21
-99.936300000000003
 31
0.0
  0
LINE
  5
239
100
AcDbEntity
100
AcDbLine
  8
0
 62
5
370
9
  6
CONTINUOUS
 10
273.19600000000003
 20
-87.261700000000005
 30
0.0
 11
273.19600000000003
 21
-90.665300000000002
 31
0.0
  0
LINE
  5
23A
100
AcDbEntity
100
AcDbLine
  8
0
 62
5
370
9
  6
CONTINUOUS
 10
273.19600000000003
 20
-90.665300000000002
 30
0.0
 11
274.822
 21
-90.665300000000002
 31
0.0
  0
LINE
  5
23B
100
AcDbEntity
100
AcDbLine
  8
0
 62
5
370
9
  6
CONTINUOUS
 10
274.822
 20
-90.665300000000002
 30
0.0
 11
274.822
 21
-85.966300000000004
 31
0.0
  0
LINE
  5
23C
100
AcDbEntity
100
AcDbLine
  8
0
 62
5
370
9
  6
CONTINUOUS
 10
271.51999999999998
 20
-87.261700000000005
 30
0.0
 11
271.51999999999998
 21
-86.728300000000004
 31
0.0
  0
LINE
  5
23D
100
AcDbEntity
100
AcDbLine
  8
0
 62
5
370
9
  6
CONTINUOUS
 10
271.51999999999998
 20
-86.728300000000004
 30
0.0
 11
268.21800000000002
 21
-86.728300000000004
 31
0.0
  0
LINE
  5
23E
100
AcDbEntity
100
AcDbLine
  8
0
 62
5
370
9
  6
CONTINUOUS
 10
268.21800000000002
 20
-87.261700000000005
 30
0.0
 11
268.21800000000002
 21
-86.728300000000004
 31
0.0
  0
LINE
  5
23F
100
AcDbEntity
100
AcDbLine
  8
0
 62
5
370
9
  6
CONTINUOUS
 10
266.541
 20
-87.261700000000005
 30
0.0
 11
268.21800000000002
 21
-87.261700000000005
 31
0.0
  0
LINE
  5
240
100
AcDbEntity
100
AcDbLine
  8
0
 62
5
370
9
  6
CONTINUOUS
 10
273.19600000000003
 20
-87.261700000000005
 30
0.0
 11
271.51999999999998
 21
-87.261700000000005
 31
0.0
  0
LINE
  5
241
100
AcDbEntity
100
AcDbLine
  8
0
 62
5
370
9
  6
CONTINUOUS
 10
31.934200000000001
 20
-105.01600000000001
 30
0.0
 11
45.904200000000003
 21
-105.01600000000001
 31
0.0
  0
LINE
  5
242
100
AcDbEntity
100
AcDbLine
  8
0
 62
5
370
9
  6
CONTINUOUS
 10
23.6538
 20
-109.715
 30
0.0
 11
23.6538
 21
-106.312
 31
0.0
  0
LINE
  5
243
100
AcDbEntity
100
AcDbLine
  8
0
 62
5
370
9
  6
CONTINUOUS
 10
22.790199999999999
 20
-109.715
 30
0.0
 11
23.6538
 21
-109.715
 31
0.0
  0
LINE
  5
244
100
AcDbEntity
100
AcDbLine
  8
0
 62
5
370
9
  6
CONTINUOUS
 10
22.790199999999999
 20
-112.509
 30
0.0
 11
22.790199999999999
 21
-109.715
 31
0.0
  0
LINE
  5
245
100
AcDbEntity
100
AcDbLine
  8
0
 62
5
370
9
  6
CONTINUOUS
 10
23.6538
 20
-112.509
 30
0.0
 11
22.790199999999999
 21
-112.509
 31
0.0
  0
LINE
  5
246
100
AcDbEntity
100
AcDbLine
  8
0
 62
5
370
9
  6
CONTINUOUS
 10
23.6538
 20
-118.605
 30
0.0
 11
23.6538
 21
-112.509
 31
0.0
  0
LINE
  5
247
100
AcDbEntity
100
AcDbLine
  8
0
 62
5
370
9
  6
CONTINUOUS
 10
45.904200000000003
 20
-118.986
 30
0.0
 11
31.934200000000001
 21
-118.986
 31
0.0
  0
LINE
  5
248
100
AcDbEntity
100
AcDbLine
  8
0
 62
5
370
9
  6
CONTINUOUS
 10
54.184600000000003
 20
-112.509
 30
0.0
 11
54.184600000000003
 21
-118.605
 31
0.0
  0
LINE
  5
249
100
AcDbEntity
100
AcDbLine
  8
0
 62
5
370
9
  6
CONTINUOUS
 10
55.048200000000001
 20
-112.509
 30
0.0
 11
54.184600000000003
 21
-112.509
 31
0.0
  0
LINE
  5
24A
100
AcDbEntity
100
AcDbLine
  8
0
 62
5
370
9
  6
CONTINUOUS
 10
55.048200000000001
 20
-109.715
 30
0.0
 11
55.048200000000001
 21
-112.509
 31
0.0
  0
LINE
  5
24B
100
AcDbEntity
100
AcDbLine
  8
0
 62
5
370
9
  6
CONTINUOUS
 10
54.184600000000003
 20
-109.715
 30
0.0
 11
55.048200000000001
 21
-109.715
 31
0.0
  0
LINE
  5
24C
100
AcDbEntity
100
AcDbLine
  8
0
 62
5
370
9
  6
CONTINUOUS
 10
54.184600000000003
 20
-106.312
 30
0.0
 11
54.184600000000003
 21
-109.715
 31
0.0
  0
LINE
  5
24D
100
AcDbEntity
100
AcDbLine
  8
0
 62
5
370
9
  6
CONTINUOUS
 10
54.184600000000003
 20
-118.605
 30
0.0
 11
52.508200000000002
 21
-118.605
 31
0.0
  0
LINE
  5
24E
100
AcDbEntity
100
AcDbLine
  8
0
 62
5
370
9
  6
CONTINUOUS
 10
52.508200000000002
 20
-118.605
 30
0.0
 11
52.508200000000002
 21
-119.748
 31
0.0
  0
LINE
  5
24F
100
AcDbEntity
100
AcDbLine
  8
0
 62
5
370
9
  6
CONTINUOUS
 10
52.508200000000002
 20
-119.748
 30
0.0
 11
49.206200000000003
 21
-119.748
 31
0.0
  0
LINE
  5
250
100
AcDbEntity
100
AcDbLine
  8
0
 62
5
370
9
  6
CONTINUOUS
 10
47.529800000000002
 20
-118.605
 30
0.0
 11
49.206200000000003
 21
-118.605
 31
0.0
  0
LINE
  5
251
100
AcDbEntity
100
AcDbLine
  8
0
 62
5
370
9
  6
CONTINUOUS
 10
49.206200000000003
 20
-118.605
 30
0.0
 11
49.206200000000003
 21
-119.748
 31
0.0
  0
LINE
  5
252
100
AcDbEntity
100
AcDbLine
  8
0
 62
5
370
9
  6
CONTINUOUS
 10
47.529800000000002
 20
-118.605
 30
0.0
 11
47.529800000000002
 21
-112.509
 31
0.0
  0
LINE
  5
253
100
AcDbEntity
100
AcDbLine
  8
0
 62
5
370
9
  6
CONTINUOUS
 10
47.529800000000002
 20
-112.509
 30
0.0
 11
45.904200000000003
 21
-112.509
 31
0.0
  0
LINE
  5
254
100
AcDbEntity
100
AcDbLine
  8
0
 62
5
370
9
  6
CONTINUOUS
 10
45.904200000000003
 20
-112.509
 30
0.0
 11
45.904200000000003
 21
-118.986
 31
0.0
  0
LINE
  5
255
100
AcDbEntity
100
AcDbLine
  8
0
 62
5
370
9
  6
CONTINUOUS
 10
47.529800000000002
 20
-106.312
 30
0.0
 11
47.529800000000002
 21
-109.715
 31
0.0
  0
LINE
  5
256
100
AcDbEntity
100
AcDbLine
  8
0
 62
5
370
9
  6
CONTINUOUS
 10
47.529800000000002
 20
-109.715
 30
0.0
 11
45.904200000000003
 21
-109.715
 31
0.0
  0
LINE
  5
257
100
AcDbEntity
100
AcDbLine
  8
0
 62
5
370
9
  6
CONTINUOUS
 10
45.904200000000003
 20
-109.715
 30
0.0
 11
45.904200000000003
 21
-105.01600000000001
 31
0.0
  0
LINE
  5
258
100
AcDbEntity
100
AcDbLine
  8
0
 62
5
370
9
  6
CONTINUOUS
 10
54.184600000000003
 20
-106.312
 30
0.0
 11
52.508200000000002
 21
-106.312
 31
0.0
  0
LINE
  5
259
100
AcDbEntity
100
AcDbLine
  8
0
 62
5
370
9
  6
CONTINUOUS
 10
52.508200000000002
 20
-106.312
 30
0.0
 11
52.508200000000002
 21
-105.77800000000001
 31
0.0
  0
LINE
  5
25A
100
AcDbEntity
100
AcDbLine
  8
0
 62
5
370
9
  6
CONTINUOUS
 10
52.508200000000002
 20
-105.77800000000001
 30
0.0
 11
49.206200000000003
 21
-105.77800000000001
 31
0.0
  0
LINE
  5
25B
100
AcDbEntity
100
AcDbLine
  8
0
 62
5
370
9
  6
CONTINUOUS
 10
47.529800000000002
 20
-106.312
 30
0.0
 11
49.206200000000003
 21
-106.312
 31
0.0
  0
LINE
  5
25C
100
AcDbEntity
100
AcDbLine
  8
0
 62
5
370
9
  6
CONTINUOUS
 10
49.206200000000003
 20
-106.312
 30
0.0
 11
49.206200000000003
 21
-105.77800000000001
 31
0.0
  0
LINE
  5
25D
100
AcDbEntity
100
AcDbLine
  8
0
 62
5
370
9
  6
CONTINUOUS
 10
30.308599999999998
 20
-118.605
 30
0.0
 11
28.632200000000001
 21
-118.605
 31
0.0
  0
LINE
  5
25E
100
AcDbEntity
100
AcDbLine
  8
0
 62
5
370
9
  6
CONTINUOUS
 10
28.632200000000001
 20
-118.605
 30
0.0
 11
28.632200000000001
 21
-119.748
 31
0.0
  0
LINE
  5
25F
100
AcDbEntity
100
AcDbLine
  8
0
 62
5
370
9
  6
CONTINUOUS
 10
28.632200000000001
 20
-119.748
 30
0.0
 11
25.330200000000001
 21
-119.748
 31
0.0
  0
LINE
  5
260
100
AcDbEntity
100
AcDbLine
  8
0
 62
5
370
9
  6
CONTINUOUS
 10
25.330200000000001
 20
-119.748
 30
0.0
 11
25.330200000000001
 21
-118.605
 31
0.0
  0
LINE
  5
261
100
AcDbEntity
100
AcDbLine
  8
0
 62
5
370
9
  6
CONTINUOUS
 10
23.6538
 20
-118.605
 30
0.0
 11
25.330200000000001
 21
-118.605
 31
0.0
  0
LINE
  5
262
100
AcDbEntity
100
AcDbLine
  8
0
 62
5
370
9
  6
CONTINUOUS
 10
30.308599999999998
 20
-118.605
 30
0.0
 11
30.308599999999998
 21
-112.509
 31
0.0
  0
LINE
  5
263
100
AcDbEntity
100
AcDbLine
  8
0
 62
5
370
9
  6
CONTINUOUS
 10
30.308599999999998
 20
-112.509
 30
0.0
 11
31.934200000000001
 21
-112.509
 31
0.0
  0
LINE
  5
264
100
AcDbEntity
100
AcDbLine
  8
0
 62
5
370
9
  6
CONTINUOUS
 10
31.934200000000001
 20
-112.509
 30
0.0
 11
31.934200000000001
 21
-118.986
 31
0.0
  0
LINE
  5
265
100
AcDbEntity
100
AcDbLine
  8
0
 62
5
370
9
  6
CONTINUOUS
 10
30.308599999999998
 20
-106.312
 30
0.0
 11
30.308599999999998
 21
-109.715
 31
0.0
  0
LINE
  5
266
100
AcDbEntity
100
AcDbLine
  8
0
 62
5
370
9
  6
CONTINUOUS
 10
30.308599999999998
 20
-109.715
 30
0.0
 11
31.934200000000001
 21
-109.715
 31
0.0
  0
LINE
  5
267
100
AcDbEntity
100
AcDbLine
  8
0
 62
5
370
9
  6
CONTINUOUS
 10
31.934200000000001
 20
-109.715
 30
0.0
 11
31.934200000000001
 21
-105.01600000000001
 31
0.0
  0
LINE
  5
268
100
AcDbEntity
100
AcDbLine
  8
0
 62
5
370
9
  6
CONTINUOUS
 10
28.632200000000001
 20
-106.312
 30
0.0
 11
28.632200000000001
 21
-105.77800000000001
 31
0.0
  0
LINE
  5
269
100
AcDbEntity
100
AcDbLine
  8
0
 62
5
370
9
  6
CONTINUOUS
 10
28.632200000000001
 20
-105.77800000000001
 30
0.0
 11
25.330200000000001
 21
-105.77800000000001
 31
0.0
  0
LINE
  5
26A
100
AcDbEntity
100
AcDbLine
  8
0
 62
5
370
9
  6
CONTINUOUS
 10
25.330200000000001
 20
-106.312
 30
0.0
 11
25.330200000000001
 21
-105.77800000000001
 31
0.0
  0
LINE
  5
26B
100
AcDbEntity
100
AcDbLine
  8
0
 62
5
370
9
  6
CONTINUOUS
 10
23.6538
 20
-106.312
 30
0.0
 11
25.330200000000001
 21
-106.312
 31
0.0
  0
LINE
  5
26C
100
AcDbEntity
100
AcDbLine
  8
0
 62
5
370
9
  6
CONTINUOUS
 10
30.308599999999998
 20
-106.312
 30
0.0
 11
28.632200000000001
 21
-106.312
 31
0.0
  0
LINE
  5
26D
100
AcDbEntity
100
AcDbLine
  8
0
 62
5
370
9
  6
CONTINUOUS
 10
41.1417
 20
-99.936300000000003
 30
0.0
 11
22.409199999999998
 21
-99.936300000000003
 31
0.0
  0
LINE
  5
26E
100
AcDbEntity
100
AcDbLine
  8
0
 62
5
370
9
  6
CONTINUOUS
 10
41.1417
 20
-85.966300000000004
 30
0.0
 11
41.1417
 21
-99.936300000000003
 31
0.0
  0
LINE
  5
26F
100
AcDbEntity
100
AcDbLine
  8
0
 62
5
370
9
  6
CONTINUOUS
 10
22.409199999999998
 20
-85.966300000000004
 30
0.0
 11
41.1417
 21
-85.966300000000004
 31
0.0
  0
LINE
  5
270
100
AcDbEntity
100
AcDbLine
  8
0
 62
5
370
9
  6
CONTINUOUS
 10
22.409199999999998
 20
-99.936300000000003
 30
0.0
 11
22.409199999999998
 21
-85.966300000000004
 31
0.0
  0
LINE
  5
271
100
AcDbEntity
100
AcDbLine
  8
0
 62
5
370
9
  6
CONTINUOUS
 10
268.923
 20
-55.359299999999998
 30
0.0
 11
268.923
 21
-61.455300000000001
 31
0.0
  0
LINE
  5
272
100
AcDbEntity
100
AcDbLine
  8
0
 62
5
370
9
  6
CONTINUOUS
 10
268.05900000000003
 20
-55.359299999999998
 30
0.0
 11
268.923
 21
-55.359299999999998
 31
0.0
  0
LINE
  5
273
100
AcDbEntity
100
AcDbLine
  8
0
 62
5
370
9
  6
CONTINUOUS
 10
268.05900000000003
 20
-52.565300000000001
 30
0.0
 11
268.05900000000003
 21
-55.359299999999998
 31
0.0
  0
LINE
  5
274
100
AcDbEntity
100
AcDbLine
  8
0
 62
5
370
9
  6
CONTINUOUS
 10
268.923
 20
-52.565300000000001
 30
0.0
 11
268.05900000000003
 21
-52.565300000000001
 31
0.0
  0
LINE
  5
275
100
AcDbEntity
100
AcDbLine
  8
0
 62
5
370
9
  6
CONTINUOUS
 10
268.923
 20
-49.161700000000003
 30
0.0
 11
268.923
 21
-52.565300000000001
 31
0.0
  0
LINE
  5
276
100
AcDbEntity
100
AcDbLine
  8
0
 62
5
370
9
  6
CONTINUOUS
 10
299.45299999999997
 20
-55.359299999999998
 30
0.0
 11
299.45299999999997
 21
-61.455300000000001
 31
0.0
  0
LINE
  5
277
100
AcDbEntity
100
AcDbLine
  8
0
 62
5
370
9
  6
CONTINUOUS
 10
300.31700000000001
 20
-55.359299999999998
 30
0.0
 11
299.45299999999997
 21
-55.359299999999998
 31
0.0
  0
LINE
  5
278
100
AcDbEntity
100
AcDbLine
  8
0
 62
5
370
9
  6
CONTINUOUS
 10
300.31700000000001
 20
-52.565300000000001
 30
0.0
 11
300.31700000000001
 21
-55.359299999999998
 31
0.0
  0
LINE
  5
279
100
AcDbEntity
100
AcDbLine
  8
0
 62
5
370
9
  6
CONTINUOUS
 10
299.45299999999997
 20
-52.565300000000001
 30
0.0
 11
300.31700000000001
 21
-52.565300000000001
 31
0.0
  0
LINE
  5
27A
100
AcDbEntity
100
AcDbLine
  8
0
 62
5
370
9
  6
CONTINUOUS
 10
299.45299999999997
 20
-49.161700000000003
 30
0.0
 11
299.45299999999997
 21
-52.565300000000001
 31
0.0
  0
LINE
  5
27B
100
AcDbEntity
100
AcDbLine
  8
0
 62
5
370
9
  6
CONTINUOUS
 10
291.173
 20
-61.836300000000001
 30
0.0
 11
277.20299999999997
 21
-61.836300000000001
 31
0.0
  0
LINE
  5
27C
100
AcDbEntity
100
AcDbLine
  8
0
 62
5
370
9
  6
CONTINUOUS
 10
291.173
 20
-47.866300000000003
 30
0.0
 11
277.20299999999997
 21
-47.866300000000003
 31
0.0
  0
LINE
  5
27D
100
AcDbEntity
100
AcDbLine
  8
0
 62
5
370
9
  6
CONTINUOUS
 10
297.77699999999999
 20
-61.455300000000001
 30
0.0
 11
297.77699999999999
 21
-62.598300000000002
 31
0.0
  0
LINE
  5
27E
100
AcDbEntity
100
AcDbLine
  8
0
 62
5
370
9
  6
CONTINUOUS
 10
297.77699999999999
 20
-62.598300000000002
 30
0.0
 11
294.47500000000002
 21
-62.598300000000002
 31
0.0
  0
LINE
  5
27F
100
AcDbEntity
100
AcDbLine
  8
0
 62
5
370
9
  6
CONTINUOUS
 10
294.47500000000002
 20
-61.455300000000001
 30
0.0
 11
294.47500000000002
 21
-62.598300000000002
 31
0.0
  0
LINE
  5
280
100
AcDbEntity
100
AcDbLine
  8
0
 62
5
370
9
  6
CONTINUOUS
 10
273.90100000000001
 20
-61.455300000000001
 30
0.0
 11
273.90100000000001
 21
-62.598300000000002
 31
0.0
  0
LINE
  5
281
100
AcDbEntity
100
AcDbLine
  8
0
 62
5
370
9
  6
CONTINUOUS
 10
273.90100000000001
 20
-62.598300000000002
 30
0.0
 11
270.59899999999999
 21
-62.598300000000002
 31
0.0
  0
LINE
  5
282
100
AcDbEntity
100
AcDbLine
  8
0
 62
5
370
9
  6
CONTINUOUS
 10
299.45299999999997
 20
-61.455300000000001
 30
0.0
 11
297.77699999999999
 21
-61.455300000000001
 31
0.0
  0
LINE
  5
283
100
AcDbEntity
100
AcDbLine
  8
0
 62
5
370
9
  6
CONTINUOUS
 10
292.79899999999998
 20
-61.455300000000001
 30
0.0
 11
294.47500000000002
 21
-61.455300000000001
 31
0.0
  0
LINE
  5
284
100
AcDbEntity
100
AcDbLine
  8
0
 62
5
370
9
  6
CONTINUOUS
 10
291.173
 20
-47.866300000000003
 30
0.0
 11
291.173
 21
-52.565300000000001
 31
0.0
  0
LINE
  5
285
100
AcDbEntity
100
AcDbLine
  8
0
 62
5
370
9
  6
CONTINUOUS
 10
291.173
 20
-52.565300000000001
 30
0.0
 11
292.79899999999998
 21
-52.565300000000001
 31
0.0
  0
LINE
  5
286
100
AcDbEntity
100
AcDbLine
  8
0
 62
5
370
9
  6
CONTINUOUS
 10
292.79899999999998
 20
-49.161700000000003
 30
0.0
 11
292.79899999999998
 21
-52.565300000000001
 31
0.0
  0
LINE
  5
287
100
AcDbEntity
100
AcDbLine
  8
0
 62
5
370
9
  6
CONTINUOUS
 10
291.173
 20
-61.836300000000001
 30
0.0
 11
291.173
 21
-55.359299999999998
 31
0.0
  0
LINE
  5
288
100
AcDbEntity
100
AcDbLine
  8
0
 62
5
370
9
  6
CONTINUOUS
 10
291.173
 20
-55.359299999999998
 30
0.0
 11
292.79899999999998
 21
-55.359299999999998
 31
0.0
  0
LINE
  5
289
100
AcDbEntity
100
AcDbLine
  8
0
 62
5
370
9
  6
CONTINUOUS
 10
292.79899999999998
 20
-61.455300000000001
 30
0.0
 11
292.79899999999998
 21
-55.359299999999998
 31
0.0
  0
LINE
  5
28A
100
AcDbEntity
100
AcDbLine
  8
0
 62
5
370
9
  6
CONTINUOUS
 10
297.77699999999999
 20
-48.628300000000003
 30
0.0
 11
294.47500000000002
 21
-48.628300000000003
 31
0.0
  0
LINE
  5
28B
100
AcDbEntity
100
AcDbLine
  8
0
 62
5
370
9
  6
CONTINUOUS
 10
297.77699999999999
 20
-49.161700000000003
 30
0.0
 11
297.77699999999999
 21
-48.628300000000003
 31
0.0
  0
LINE
  5
28C
100
AcDbEntity
100
AcDbLine
  8
0
 62
5
370
9
  6
CONTINUOUS
 10
294.47500000000002
 20
-49.161700000000003
 30
0.0
 11
294.47500000000002
 21
-48.628300000000003
 31
0.0
  0
LINE
  5
28D
100
AcDbEntity
100
AcDbLine
  8
0
 62
5
370
9
  6
CONTINUOUS
 10
299.45299999999997
 20
-49.161700000000003
 30
0.0
 11
297.77699999999999
 21
-49.161700000000003
 31
0.0
  0
LINE
  5
28E
100
AcDbEntity
100
AcDbLine
  8
0
 62
5
370
9
  6
CONTINUOUS
 10
292.79899999999998
 20
-49.161700000000003
 30
0.0
 11
294.47500000000002
 21
-49.161700000000003
 31
0.0
  0
LINE
  5
28F
100
AcDbEntity
100
AcDbLine
  8
0
 62
5
370
9
  6
CONTINUOUS
 10
277.20299999999997
 20
-52.565300000000001
 30
0.0
 11
277.20299999999997
 21
-47.866300000000003
 31
0.0
  0
LINE
  5
290
100
AcDbEntity
100
AcDbLine
  8
0
 62
5
370
9
  6
CONTINUOUS
 10
277.20299999999997
 20
-61.836300000000001
 30
0.0
 11
277.20299999999997
 21
-55.359299999999998
 31
0.0
  0
LINE
  5
291
100
AcDbEntity
100
AcDbLine
  8
0
 62
5
370
9
  6
CONTINUOUS
 10
275.577
 20
-49.161700000000003
 30
0.0
 11
275.577
 21
-52.565300000000001
 31
0.0
  0
LINE
  5
292
100
AcDbEntity
100
AcDbLine
  8
0
 62
5
370
9
  6
CONTINUOUS
 10
268.923
 20
-61.455300000000001
 30
0.0
 11
270.59899999999999
 21
-61.455300000000001
 31
0.0
  0
LINE
  5
293
100
AcDbEntity
100
AcDbLine
  8
0
 62
5
370
9
  6
CONTINUOUS
 10
275.577
 20
-61.455300000000001
 30
0.0
 11
273.90100000000001
 21
-61.455300000000001
 31
0.0
  0
LINE
  5
294
100
AcDbEntity
100
AcDbLine
  8
0
 62
5
370
9
  6
CONTINUOUS
 10
275.577
 20
-61.455300000000001
 30
0.0
 11
275.577
 21
-55.359299999999998
 31
0.0
  0
LINE
  5
295
100
AcDbEntity
100
AcDbLine
  8
0
 62
5
370
9
  6
CONTINUOUS
 10
277.20299999999997
 20
-55.359299999999998
 30
0.0
 11
275.577
 21
-55.359299999999998
 31
0.0
  0
LINE
  5
296
100
AcDbEntity
100
AcDbLine
  8
0
 62
5
370
9
  6
CONTINUOUS
 10
277.20299999999997
 20
-52.565300000000001
 30
0.0
 11
275.577
 21
-52.565300000000001
 31
0.0
  0
LINE
  5
297
100
AcDbEntity
100
AcDbLine
  8
0
 62
5
370
9
  6
CONTINUOUS
 10
270.59899999999999
 20
-61.455300000000001
 30
0.0
 11
270.59899999999999
 21
-62.598300000000002
 31
0.0
  0
LINE
  5
298
100
AcDbEntity
100
AcDbLine
  8
0
 62
5
370
9
  6
CONTINUOUS
 10
273.90100000000001
 20
-48.628300000000003
 30
0.0
 11
270.59899999999999
 21
-48.628300000000003
 31
0.0
  0
LINE
  5
299
100
AcDbEntity
100
AcDbLine
  8
0
 62
5
370
9
  6
CONTINUOUS
 10
273.90100000000001
 20
-49.161700000000003
 30
0.0
 11
273.90100000000001
 21
-48.628300000000003
 31
0.0
  0
LINE
  5
29A
100
AcDbEntity
100
AcDbLine
  8
0
 62
5
370
9
  6
CONTINUOUS
 10
270.59899999999999
 20
-49.161700000000003
 30
0.0
 11
270.59899999999999
 21
-48.628300000000003
 31
0.0
  0
LINE
  5
29B
100
AcDbEntity
100
AcDbLine
  8
0
 62
5
370
9
  6
CONTINUOUS
 10
275.577
 20
-49.161700000000003
 30
0.0
 11
273.90100000000001
 21
-49.161700000000003
 31
0.0
  0
LINE
  5
29C
100
AcDbEntity
100
AcDbLine
  8
0
 62
5
370
9
  6
CONTINUOUS
 10
268.923
 20
-49.161700000000003
 30
0.0
 11
270.59899999999999
 21
-49.161700000000003
 31
0.0
  0
ENDSEC
  0
SECTION
  2
OBJECTS
  0
DICTIONARY
  5
C
100
AcDbDictionary
280
0
281
1
  3
ACAD_GROUP
350
D
  3
ACAD_LAYOUT
350
1A
  3
ACAD_MLINESTYLE
350
17
  3
ACAD_PLOTSETTINGS
350
19
  3
ACAD_PLOTSTYLENAME
350
E
  3
AcDbVariableDictionary
350
29D
  0
DICTIONARY
  5
D
100
AcDbDictionary
280
0
281
1
  0
ACDBDICTIONARYWDFLT
  5
E
100
AcDbDictionary
281
1
  3
Normal
350
F
100
AcDbDictionaryWithDefault
340
F
  0
ACDBPLACEHOLDER
  5
F
  0
DICTIONARY
  5
17
100
AcDbDictionary
280
0
281
1
  3
Standard
350
18
  0
MLINESTYLE
  5
18
100
AcDbMlineStyle
  2
STANDARD
 70
0
  3

 62
256
 51
90.0
 52
90.0
 71
2
 49
0.5
 62
256
  6
BYLAYER
 49
-0.5
 62
256
  6
BYLAYER
  0
DICTIONARY
  5
19
100
AcDbDictionary
280
0
281
1
  0
DICTIONARY
  5
1A
100
AcDbDictionary
281
1
  3
Layout1
350
1E
  3
Layout2
350
26
  3
Model
350
22
  0
LAYOUT
  5
1E
100
AcDbPlotSettings
  1

  2
C:\Program Files\AutoCAD 2002\plotters\DWF ePlot (optimized for plotting).pc3
  4

  6

 40
0.0
 41
0.0
 42
0.0
 43
0.0
 44
0.0
 45
0.0
 46
0.0
 47
0.0
 48
0.0
 49
0.0
140
0.0
141
0.0
142
1.0
143
1.0
 70
688
 72
0
 73
0
 74
5
  7

 75
16
147
1.0
148
0.0
149
0.0
100
AcDbLayout
  1
Layout1
 70
1
 71
1
 10
0.0
 20
0.0
 11
420.0
 21
297.0
 12
0.0
 22
0.0
 32
0.0
 14
100000000000000000000.0
 24
100000000000000000000.0
 34
100000000000000000000.0
 15
-100000000000000000000.0
 25
-100000000000000000000.0
 35
-100000000000000000000.0
146
0.0
 13
0.0
 23
0.0
 33
0.0
 16
1.0
 26
0.0
 36
0.0
 17
0.0
 27
1.0
 37
0.0
 76
0
330
1B
  0
LAYOUT
  5
22
100
AcDbPlotSettings
  1

  2
C:\Program Files\AutoCAD 2002\plotters\DWF ePlot (optimized for plotting).pc3
  4

  6

 40
0.0
 41
0.0
 42
0.0
 43
0.0
 44
0.0
 45
0.0
 46
0.0
 47
0.0
 48
0.0
 49
0.0
140
0.0
141
0.0
142
1.0
143
1.0
 70
1712
 72
0
 73
0
 74
0
  7

 75
0
147
1.0
148
0.0
149
0.0
100
AcDbLayout
  1
Model
 70
1
 71
0
 10
0.0
 20
0.0
 11
12.0
 21
9.0
 12
0.0
 22
0.0
 32
0.0
 14
0.0
 24
0.0
 34
0.0
 15
0.0
 25
0.0
 35
0.0
146
0.0
 13
0.0
 23
0.0
 33
0.0
 16
1.0
 26
0.0
 36
0.0
 17
0.0
 27
1.0
 37
0.0
 76
0
330
1F
  0
LAYOUT
  5
26
100
AcDbPlotSettings
  1

  2
C:\Program Files\AutoCAD 2002\plotters\DWF ePlot (optimized for plotting).pc3
  4

  6

 40
0.0
 41
0.0
 42
0.0
 43
0.0
 44
0.0
 45
0.0
 46
0.0
 47
0.0
 48
0.0
 49
0.0
140
0.0
141
0.0
142
1.0
143
1.0
 70
688
 72
0
 73
0
 74
5
  7

 75
16
147
1.0
148
0.0
149
0.0
100
AcDbLayout
  1
Layout2
 70
1
 71
2
 10
0.0
 20
0.0
 11
12.0
 21
9.0
 12
0.0
 22
0.0
 32
0.0
 14
0.0
 24
0.0
 34
0.0
 15
0.0
 25
0.0
 35
0.0
146
0.0
 13
0.0
 23
0.0
 33
0.0
 16
1.0
 26
0.0
 36
0.0
 17
0.0
 27
1.0
 37
0.0
 76
0
330
23
  0
DICTIONARY
  5
29D
100
AcDbDictionary
281
1
  3
DIMASSOC
350
29F
  3
HIDETEXT
350
29E
  0
DICTIONARYVAR
  5
29E
100
DictionaryVariables
280
0
  1
2
  0
DICTIONARYVAR
  5
29F
100
DictionaryVariables
280
0
  1
1
  0
ENDSEC
  0
EOF
