  0
SECTION
  2
HEADER
  9
$ANGBASE
  50
0.0
  9
$ANGDIR
  70
  1
  9
$MEASUREMENT
  70
0
  0
ENDSEC
  0
SECTION
  2
TABLES
  0
TABLE
  2
LTYPE
  70
1
  0
LTYPE
  2
CONTINUOUS
  70
0
  3
Solid line
  72
65
  73
0
  40
0.0
  0
ENDTAB
  0
TABLE
  2
STYLE
  70
4
  0
STYLE
  2
KICAD
  70
0
  40
0
  41
1
  42
1
  50
0
  71
0
  3
isocp.shx
  0
STYLE
  2
KICADB
  70
0
  40
0
  41
1
  42
1
  50
0
  71
0
  3
isocp.shx
  0
STYLE
  2
KICADI
  70
0
  40
0
  41
1
  42
1
  50
15
  71
0
  3
isocp.shx
  0
STYLE
  2
KICADBI
  70
0
  40
0
  41
1
  42
1
  50
15
  71
0
  3
isocp.shx
  0
ENDTAB
  0
TABLE
  2
LAYER
  70
24
  0
LAYER
  2
BLACK
  70
0
  62
250
  6
CONTINUOUS
  0
LAYER
  2
BLUE
  70
0
  62
5
  6
CONTINUOUS
  0
LAYER
  2
GREEN
  70
0
  62
3
  6
CONTINUOUS
  0
LAYER
  2
CYAN
  70
0
  62
4
  6
CONTINUOUS
  0
LAYER
  2
RED
  70
0
  62
1
  6
CONTINUOUS
  0
LAYER
  2
MAGENTA
  70
0
  62
6
  6
CONTINUOUS
  0
LAYER
  2
BROWN
  70
0
  62
54
  6
CONTINUOUS
  0
LAYER
  2
LIGHTGRAY
  70
0
  62
9
  6
CONTINUOUS
  0
LAYER
  2
DARKGRAY
  70
0
  62
8
  6
CONTINUOUS
  0
LAYER
  2
LIGHTBLUE
  70
0
  62
171
  6
CONTINUOUS
  0
LAYER
  2
LIGHTGREEN
  70
0
  62
91
  6
CONTINUOUS
  0
LAYER
  2
LIGHTCYAN
  70
0
  62
131
  6
CONTINUOUS
  0
LAYER
  2
LIGHTRED
  70
0
  62
11
  6
CONTINUOUS
  0
LAYER
  2
LIGHTMAGENTA
  70
0
  62
221
  6
CONTINUOUS
  0
LAYER
  2
YELLOW
  70
0
  62
2
  6
CONTINUOUS
  0
LAYER
  2
WHITE
  70
0
  62
7
  6
CONTINUOUS
  0
LAYER
  2
DARKDARKGRAY
  70
0
  62
251
  6
CONTINUOUS
  0
LAYER
  2
DARKBLUE
  70
0
  62
178
  6
CONTINUOUS
  0
LAYER
  2
DARKGREEN
  70
0
  62
98
  6
CONTINUOUS
  0
LAYER
  2
DARKCYAN
  70
0
  62
138
  6
CONTINUOUS
  0
LAYER
  2
DARKRED
  70
0
  62
18
  6
CONTINUOUS
  0
LAYER
  2
DARKMAGENTA
  70
0
  62
228
  6
CONTINUOUS
  0
LAYER
  2
DARKBROWN
  70
0
  62
58
  6
CONTINUOUS
  0
LAYER
  2
LIGHTYELLOW
  70
0
  62
51
  6
CONTINUOUS
  0
ENDTAB
  0
ENDSEC
  0
SECTION
  2
ENTITIES
0
CIRCLE
8
BLACK
10
371.831
20
-10.0711
40
1.143
0
CIRCLE
8
BLACK
10
371.831
20
-147.257
40
1.143
0
LINE
8
BLACK
10
376.466
20
-4.0894
11
195.961
21
-4.0894
0
LINE
8
BLACK
10
377.812
20
-151.867
11
377.812
21
-5.4356
0
LINE
8
BLACK
10
376.466
20
-153.238
11
6.0706
21
-153.238
0
ARC
8
BLACK
10
376.466
20
-5.4356
40
1.3462
50
0
51
90
0
ARC
8
BLACK
10
376.466
20
-151.892
40
1.34626
50
-89.5
51
0.5
0
CIRCLE
8
BLACK
10
205.55
20
-10.0711
40
1.143
0
CIRCLE
8
BLACK
10
177.076
20
-10.0711
40
1.143
0
LINE
8
BLACK
10
186.665
20
-15.3162
11
195.961
21
-15.3162
0
LINE
8
BLACK
10
195.961
20
-15.3162
11
195.961
21
-4.0894
0
LINE
8
BLACK
10
186.665
20
-15.3162
11
186.665
21
-4.0894
0
LINE
8
BLACK
10
186.665
20
-4.0894
11
6.0706
21
-4.0894
0
CIRCLE
8
BLACK
10
251.498
20
-147.257
40
1.143
0
CIRCLE
8
BLACK
10
131.153
20
-147.257
40
1.143
0
CIRCLE
8
BLACK
10
10.8077
20
-147.257
40
1.1557
0
CIRCLE
8
BLACK
10
10.8077
20
-10.0711
40
1.143
0
LINE
8
BLACK
10
4.826
20
-5.334
11
4.826
21
-151.994
0
ARC
8
BLACK
10
6.0706
20
-151.994
40
1.2446
50
-180
51
-90
0
ARC
8
BLACK
10
6.0706
20
-5.334
40
1.2446
50
90
51
180
0
LINE
8
BLACK
10
20.0279
20
-47.8663
11
33.9979
21
-47.8663
0
LINE
8
BLACK
10
33.9979
20
-47.8663
11
33.9979
21
-61.8363
0
LINE
8
BLACK
10
33.9979
20
-61.8363
11
20.0279
21
-61.8363
0
LINE
8
BLACK
10
20.0279
20
-61.8363
11
20.0279
21
-47.8663
0
LINE
8
BLACK
10
348.64
20
-124.066
11
362.61
21
-124.066
0
LINE
8
BLACK
10
362.61
20
-124.066
11
362.61
21
-138.036
0
LINE
8
BLACK
10
362.61
20
-138.036
11
348.64
21
-138.036
0
LINE
8
BLACK
10
348.64
20
-138.036
11
348.64
21
-124.066
0
LINE
8
BLACK
10
329.59
20
-66.9163
11
343.56
21
-66.9163
0
LINE
8
BLACK
10
343.56
20
-66.9163
11
343.56
21
-80.8863
0
LINE
8
BLACK
10
343.56
20
-80.8863
11
329.59
21
-80.8863
0
LINE
8
BLACK
10
329.59
20
-80.8863
11
329.59
21
-66.9163
0
LINE
8
BLACK
10
267.678
20
-19.2913
11
281.648
21
-19.2913
0
LINE
8
BLACK
10
281.648
20
-19.2913
11
281.648
21
-33.2613
0
LINE
8
BLACK
10
281.648
20
-33.2613
11
267.678
21
-33.2613
0
LINE
8
BLACK
10
267.678
20
-33.2613
11
267.678
21
-19.2913
0
LINE
8
BLACK
10
258.153
20
-66.9163
11
272.123
21
-66.9163
0
LINE
8
BLACK
10
272.123
20
-66.9163
11
272.123
21
-80.8863
0
LINE
8
BLACK
10
272.123
20
-80.8863
11
258.153
21
-80.8863
0
LINE
8
BLACK
10
258.153
20
-80.8863
11
258.153
21
-66.9163
0
LINE
8
BLACK
10
248.628
20
-47.8663
11
262.598
21
-47.8663
0
LINE
8
BLACK
10
262.598
20
-47.8663
11
262.598
21
-61.8363
0
LINE
8
BLACK
10
262.598
20
-61.8363
11
248.628
21
-61.8363
0
LINE
8
BLACK
10
248.628
20
-61.8363
11
248.628
21
-47.8663
0
LINE
8
BLACK
10
310.54
20
-19.2913
11
324.51
21
-19.2913
0
LINE
8
BLACK
10
324.51
20
-19.2913
11
324.51
21
-33.2613
0
LINE
8
BLACK
10
324.51
20
-33.2613
11
310.54
21
-33.2613
0
LINE
8
BLACK
10
310.54
20
-33.2613
11
310.54
21
-19.2913
0
LINE
8
BLACK
10
329.59
20
-47.8663
11
343.56
21
-47.8663
0
LINE
8
BLACK
10
343.56
20
-47.8663
11
343.56
21
-61.8363
0
LINE
8
BLACK
10
343.56
20
-61.8363
11
329.59
21
-61.8363
0
LINE
8
BLACK
10
329.59
20
-61.8363
11
329.59
21
-47.8663
0
LINE
8
BLACK
10
243.865
20
-85.9663
11
257.835
21
-85.9663
0
LINE
8
BLACK
10
257.835
20
-85.9663
11
257.835
21
-99.9363
0
LINE
8
BLACK
10
257.835
20
-99.9363
11
243.865
21
-99.9363
0
LINE
8
BLACK
10
243.865
20
-99.9363
11
243.865
21
-85.9663
0
LINE
8
BLACK
10
191.478
20
-47.8663
11
205.448
21
-47.8663
0
LINE
8
BLACK
10
205.448
20
-47.8663
11
205.448
21
-61.8363
0
LINE
8
BLACK
10
205.448
20
-61.8363
11
191.478
21
-61.8363
0
LINE
8
BLACK
10
191.478
20
-61.8363
11
191.478
21
-47.8663
0
LINE
8
BLACK
10
310.54
20
-66.9163
11
324.51
21
-66.9163
0
LINE
8
BLACK
10
324.51
20
-66.9163
11
324.51
21
-80.8863
0
LINE
8
BLACK
10
324.51
20
-80.8863
11
310.54
21
-80.8863
0
LINE
8
BLACK
10
310.54
20
-80.8863
11
310.54
21
-66.9163
0
LINE
8
BLACK
10
329.59
20
-19.2913
11
343.56
21
-19.2913
0
LINE
8
BLACK
10
343.56
20
-19.2913
11
343.56
21
-33.2613
0
LINE
8
BLACK
10
343.56
20
-33.2613
11
329.59
21
-33.2613
0
LINE
8
BLACK
10
329.59
20
-33.2613
11
329.59
21
-19.2913
0
LINE
8
BLACK
10
286.728
20
-19.2913
11
300.698
21
-19.2913
0
LINE
8
BLACK
10
300.698
20
-19.2913
11
300.698
21
-33.2613
0
LINE
8
BLACK
10
300.698
20
-33.2613
11
286.728
21
-33.2613
0
LINE
8
BLACK
10
286.728
20
-33.2613
11
286.728
21
-19.2913
0
LINE
8
BLACK
10
81.9404
20
-105.016
11
95.9104
21
-105.016
0
LINE
8
BLACK
10
95.9104
20
-105.016
11
95.9104
21
-118.986
0
LINE
8
BLACK
10
95.9104
20
-118.986
11
81.9404
21
-118.986
0
LINE
8
BLACK
10
81.9404
20
-118.986
11
81.9404
21
-105.016
0
LINE
8
BLACK
10
143.853
20
-66.9163
11
157.823
21
-66.9163
0
LINE
8
BLACK
10
157.823
20
-66.9163
11
157.823
21
-80.8863
0
LINE
8
BLACK
10
157.823
20
-80.8863
11
143.853
21
-80.8863
0
LINE
8
BLACK
10
143.853
20
-80.8863
11
143.853
21
-66.9163
0
LINE
8
BLACK
10
134.328
20
-47.8663
11
148.298
21
-47.8663
0
LINE
8
BLACK
10
148.298
20
-47.8663
11
148.298
21
-61.8363
0
LINE
8
BLACK
10
148.298
20
-61.8363
11
134.328
21
-61.8363
0
LINE
8
BLACK
10
134.328
20
-61.8363
11
134.328
21
-47.8663
0
LINE
8
BLACK
10
115.278
20
-19.2913
11
129.248
21
-19.2913
0
LINE
8
BLACK
10
129.248
20
-19.2913
11
129.248
21
-33.2613
0
LINE
8
BLACK
10
129.248
20
-33.2613
11
115.278
21
-33.2613
0
LINE
8
BLACK
10
115.278
20
-33.2613
11
115.278
21
-19.2913
0
LINE
8
BLACK
10
120.04
20
-105.016
11
134.01
21
-105.016
0
LINE
8
BLACK
10
134.01
20
-105.016
11
134.01
21
-118.986
0
LINE
8
BLACK
10
134.01
20
-118.986
11
120.04
21
-118.986
0
LINE
8
BLACK
10
120.04
20
-118.986
11
120.04
21
-105.016
0
LINE
8
BLACK
10
110.515
20
-85.9663
11
124.485
21
-85.9663
0
LINE
8
BLACK
10
124.485
20
-85.9663
11
124.485
21
-99.9363
0
LINE
8
BLACK
10
124.485
20
-99.9363
11
110.515
21
-99.9363
0
LINE
8
BLACK
10
110.515
20
-99.9363
11
110.515
21
-85.9663
0
LINE
8
BLACK
10
124.803
20
-66.9163
11
138.773
21
-66.9163
0
LINE
8
BLACK
10
138.773
20
-66.9163
11
138.773
21
-80.8863
0
LINE
8
BLACK
10
138.773
20
-80.8863
11
124.803
21
-80.8863
0
LINE
8
BLACK
10
124.803
20
-80.8863
11
124.803
21
-66.9163
0
LINE
8
BLACK
10
115.278
20
-47.8663
11
129.248
21
-47.8663
0
LINE
8
BLACK
10
129.248
20
-47.8663
11
129.248
21
-61.8363
0
LINE
8
BLACK
10
129.248
20
-61.8363
11
115.278
21
-61.8363
0
LINE
8
BLACK
10
115.278
20
-61.8363
11
115.278
21
-47.8663
0
LINE
8
BLACK
10
96.2279
20
-19.2913
11
110.198
21
-19.2913
0
LINE
8
BLACK
10
110.198
20
-19.2913
11
110.198
21
-33.2613
0
LINE
8
BLACK
10
110.198
20
-33.2613
11
96.2279
21
-33.2613
0
LINE
8
BLACK
10
96.2279
20
-33.2613
11
96.2279
21
-19.2913
0
LINE
8
BLACK
10
100.99
20
-105.016
11
114.96
21
-105.016
0
LINE
8
BLACK
10
114.96
20
-105.016
11
114.96
21
-118.986
0
LINE
8
BLACK
10
114.96
20
-118.986
11
100.99
21
-118.986
0
LINE
8
BLACK
10
100.99
20
-118.986
11
100.99
21
-105.016
0
LINE
8
BLACK
10
91.4654
20
-85.9663
11
105.435
21
-85.9663
0
LINE
8
BLACK
10
105.435
20
-85.9663
11
105.435
21
-99.9363
0
LINE
8
BLACK
10
105.435
20
-99.9363
11
91.4654
21
-99.9363
0
LINE
8
BLACK
10
91.4654
20
-99.9363
11
91.4654
21
-85.9663
0
LINE
8
BLACK
10
105.753
20
-66.9163
11
119.723
21
-66.9163
0
LINE
8
BLACK
10
119.723
20
-66.9163
11
119.723
21
-80.8863
0
LINE
8
BLACK
10
119.723
20
-80.8863
11
105.753
21
-80.8863
0
LINE
8
BLACK
10
105.753
20
-80.8863
11
105.753
21
-66.9163
0
LINE
8
BLACK
10
96.2279
20
-47.8663
11
110.198
21
-47.8663
0
LINE
8
BLACK
10
110.198
20
-47.8663
11
110.198
21
-61.8363
0
LINE
8
BLACK
10
110.198
20
-61.8363
11
96.2279
21
-61.8363
0
LINE
8
BLACK
10
96.2279
20
-61.8363
11
96.2279
21
-47.8663
0
LINE
8
BLACK
10
77.1779
20
-19.2913
11
91.1479
21
-19.2913
0
LINE
8
BLACK
10
91.1479
20
-19.2913
11
91.1479
21
-33.2613
0
LINE
8
BLACK
10
91.1479
20
-33.2613
11
77.1779
21
-33.2613
0
LINE
8
BLACK
10
77.1779
20
-33.2613
11
77.1779
21
-19.2913
0
LINE
8
BLACK
10
248.628
20
-19.2913
11
262.598
21
-19.2913
0
LINE
8
BLACK
10
262.598
20
-19.2913
11
262.598
21
-33.2613
0
LINE
8
BLACK
10
262.598
20
-33.2613
11
248.628
21
-33.2613
0
LINE
8
BLACK
10
248.628
20
-33.2613
11
248.628
21
-19.2913
0
LINE
8
BLACK
10
72.4154
20
-85.9663
11
86.3854
21
-85.9663
0
LINE
8
BLACK
10
86.3854
20
-85.9663
11
86.3854
21
-99.9363
0
LINE
8
BLACK
10
86.3854
20
-99.9363
11
72.4154
21
-99.9363
0
LINE
8
BLACK
10
72.4154
20
-99.9363
11
72.4154
21
-85.9663
0
LINE
8
BLACK
10
86.7029
20
-66.9163
11
100.673
21
-66.9163
0
LINE
8
BLACK
10
100.673
20
-66.9163
11
100.673
21
-80.8863
0
LINE
8
BLACK
10
100.673
20
-80.8863
11
86.7029
21
-80.8863
0
LINE
8
BLACK
10
86.7029
20
-80.8863
11
86.7029
21
-66.9163
0
LINE
8
BLACK
10
77.1779
20
-47.8663
11
91.1479
21
-47.8663
0
LINE
8
BLACK
10
91.1479
20
-47.8663
11
91.1479
21
-61.8363
0
LINE
8
BLACK
10
91.1479
20
-61.8363
11
77.1779
21
-61.8363
0
LINE
8
BLACK
10
77.1779
20
-61.8363
11
77.1779
21
-47.8663
0
LINE
8
BLACK
10
58.1279
20
-19.2913
11
72.0979
21
-19.2913
0
LINE
8
BLACK
10
72.0979
20
-19.2913
11
72.0979
21
-33.2613
0
LINE
8
BLACK
10
72.0979
20
-33.2613
11
58.1279
21
-33.2613
0
LINE
8
BLACK
10
58.1279
20
-33.2613
11
58.1279
21
-19.2913
0
LINE
8
BLACK
10
62.8904
20
-105.016
11
76.8604
21
-105.016
0
LINE
8
BLACK
10
76.8604
20
-105.016
11
76.8604
21
-118.986
0
LINE
8
BLACK
10
76.8604
20
-118.986
11
62.8904
21
-118.986
0
LINE
8
BLACK
10
62.8904
20
-118.986
11
62.8904
21
-105.016
0
LINE
8
BLACK
10
53.3654
20
-85.9663
11
67.3354
21
-85.9663
0
LINE
8
BLACK
10
67.3354
20
-85.9663
11
67.3354
21
-99.9363
0
LINE
8
BLACK
10
67.3354
20
-99.9363
11
53.3654
21
-99.9363
0
LINE
8
BLACK
10
53.3654
20
-99.9363
11
53.3654
21
-85.9663
0
LINE
8
BLACK
10
67.6529
20
-66.9163
11
81.6229
21
-66.9163
0
LINE
8
BLACK
10
81.6229
20
-66.9163
11
81.6229
21
-80.8863
0
LINE
8
BLACK
10
81.6229
20
-80.8863
11
67.6529
21
-80.8863
0
LINE
8
BLACK
10
67.6529
20
-80.8863
11
67.6529
21
-66.9163
0
LINE
8
BLACK
10
58.1279
20
-47.8663
11
72.0979
21
-47.8663
0
LINE
8
BLACK
10
72.0979
20
-47.8663
11
72.0979
21
-61.8363
0
LINE
8
BLACK
10
72.0979
20
-61.8363
11
58.1279
21
-61.8363
0
LINE
8
BLACK
10
58.1279
20
-61.8363
11
58.1279
21
-47.8663
0
LINE
8
BLACK
10
48.6029
20
-66.9163
11
62.5729
21
-66.9163
0
LINE
8
BLACK
10
62.5729
20
-66.9163
11
62.5729
21
-80.8863
0
LINE
8
BLACK
10
62.5729
20
-80.8863
11
48.6029
21
-80.8863
0
LINE
8
BLACK
10
48.6029
20
-80.8863
11
48.6029
21
-66.9163
0
LINE
8
BLACK
10
39.0779
20
-47.8663
11
53.0479
21
-47.8663
0
LINE
8
BLACK
10
53.0479
20
-47.8663
11
53.0479
21
-61.8363
0
LINE
8
BLACK
10
53.0479
20
-61.8363
11
39.0779
21
-61.8363
0
LINE
8
BLACK
10
39.0779
20
-61.8363
11
39.0779
21
-47.8663
0
LINE
8
BLACK
10
20.0279
20
-19.2913
11
33.9979
21
-19.2913
0
LINE
8
BLACK
10
33.9979
20
-19.2913
11
33.9979
21
-33.2613
0
LINE
8
BLACK
10
33.9979
20
-33.2613
11
20.0279
21
-33.2613
0
LINE
8
BLACK
10
20.0279
20
-33.2613
11
20.0279
21
-19.2913
0
LINE
8
BLACK
10
129.565
20
-85.9663
11
143.535
21
-85.9663
0
LINE
8
BLACK
10
143.535
20
-85.9663
11
143.535
21
-99.9363
0
LINE
8
BLACK
10
143.535
20
-99.9363
11
129.565
21
-99.9363
0
LINE
8
BLACK
10
129.565
20
-99.9363
11
129.565
21
-85.9663
0
LINE
8
BLACK
10
234.34
20
-105.016
11
248.31
21
-105.016
0
LINE
8
BLACK
10
248.31
20
-105.016
11
248.31
21
-118.986
0
LINE
8
BLACK
10
248.31
20
-118.986
11
234.34
21
-118.986
0
LINE
8
BLACK
10
234.34
20
-118.986
11
234.34
21
-105.016
0
LINE
8
BLACK
10
224.815
20
-85.9663
11
238.785
21
-85.9663
0
LINE
8
BLACK
10
238.785
20
-85.9663
11
238.785
21
-99.9363
0
LINE
8
BLACK
10
238.785
20
-99.9363
11
224.815
21
-99.9363
0
LINE
8
BLACK
10
224.815
20
-99.9363
11
224.815
21
-85.9663
0
LINE
8
BLACK
10
239.103
20
-66.9163
11
253.073
21
-66.9163
0
LINE
8
BLACK
10
253.073
20
-66.9163
11
253.073
21
-80.8863
0
LINE
8
BLACK
10
253.073
20
-80.8863
11
239.103
21
-80.8863
0
LINE
8
BLACK
10
239.103
20
-80.8863
11
239.103
21
-66.9163
0
LINE
8
BLACK
10
229.578
20
-47.8663
11
243.548
21
-47.8663
0
LINE
8
BLACK
10
243.548
20
-47.8663
11
243.548
21
-61.8363
0
LINE
8
BLACK
10
243.548
20
-61.8363
11
229.578
21
-61.8363
0
LINE
8
BLACK
10
229.578
20
-61.8363
11
229.578
21
-47.8663
0
LINE
8
BLACK
10
229.578
20
-19.2913
11
243.548
21
-19.2913
0
LINE
8
BLACK
10
243.548
20
-19.2913
11
243.548
21
-33.2613
0
LINE
8
BLACK
10
243.548
20
-33.2613
11
229.578
21
-33.2613
0
LINE
8
BLACK
10
229.578
20
-33.2613
11
229.578
21
-19.2913
0
LINE
8
BLACK
10
215.29
20
-105.016
11
229.26
21
-105.016
0
LINE
8
BLACK
10
229.26
20
-105.016
11
229.26
21
-118.986
0
LINE
8
BLACK
10
229.26
20
-118.986
11
215.29
21
-118.986
0
LINE
8
BLACK
10
215.29
20
-118.986
11
215.29
21
-105.016
0
LINE
8
BLACK
10
205.765
20
-85.9663
11
219.735
21
-85.9663
0
LINE
8
BLACK
10
219.735
20
-85.9663
11
219.735
21
-99.9363
0
LINE
8
BLACK
10
219.735
20
-99.9363
11
205.765
21
-99.9363
0
LINE
8
BLACK
10
205.765
20
-99.9363
11
205.765
21
-85.9663
0
LINE
8
BLACK
10
220.053
20
-66.9163
11
234.023
21
-66.9163
0
LINE
8
BLACK
10
234.023
20
-66.9163
11
234.023
21
-80.8863
0
LINE
8
BLACK
10
234.023
20
-80.8863
11
220.053
21
-80.8863
0
LINE
8
BLACK
10
220.053
20
-80.8863
11
220.053
21
-66.9163
0
LINE
8
BLACK
10
210.528
20
-47.8663
11
224.498
21
-47.8663
0
LINE
8
BLACK
10
224.498
20
-47.8663
11
224.498
21
-61.8363
0
LINE
8
BLACK
10
224.498
20
-61.8363
11
210.528
21
-61.8363
0
LINE
8
BLACK
10
210.528
20
-61.8363
11
210.528
21
-47.8663
0
LINE
8
BLACK
10
201.003
20
-19.2913
11
214.973
21
-19.2913
0
LINE
8
BLACK
10
214.973
20
-19.2913
11
214.973
21
-33.2613
0
LINE
8
BLACK
10
214.973
20
-33.2613
11
201.003
21
-33.2613
0
LINE
8
BLACK
10
201.003
20
-33.2613
11
201.003
21
-19.2913
0
LINE
8
BLACK
10
196.24
20
-105.016
11
210.21
21
-105.016
0
LINE
8
BLACK
10
210.21
20
-105.016
11
210.21
21
-118.986
0
LINE
8
BLACK
10
210.21
20
-118.986
11
196.24
21
-118.986
0
LINE
8
BLACK
10
196.24
20
-118.986
11
196.24
21
-105.016
0
LINE
8
BLACK
10
186.715
20
-85.9663
11
200.685
21
-85.9663
0
LINE
8
BLACK
10
200.685
20
-85.9663
11
200.685
21
-99.9363
0
LINE
8
BLACK
10
200.685
20
-99.9363
11
186.715
21
-99.9363
0
LINE
8
BLACK
10
186.715
20
-99.9363
11
186.715
21
-85.9663
0
LINE
8
BLACK
10
201.003
20
-66.9163
11
214.973
21
-66.9163
0
LINE
8
BLACK
10
214.973
20
-66.9163
11
214.973
21
-80.8863
0
LINE
8
BLACK
10
214.973
20
-80.8863
11
201.003
21
-80.8863
0
LINE
8
BLACK
10
201.003
20
-80.8863
11
201.003
21
-66.9163
0
LINE
8
BLACK
10
181.953
20
-19.2913
11
195.923
21
-19.2913
0
LINE
8
BLACK
10
195.923
20
-19.2913
11
195.923
21
-33.2613
0
LINE
8
BLACK
10
195.923
20
-33.2613
11
181.953
21
-33.2613
0
LINE
8
BLACK
10
181.953
20
-33.2613
11
181.953
21
-19.2913
0
LINE
8
BLACK
10
177.19
20
-105.016
11
191.16
21
-105.016
0
LINE
8
BLACK
10
191.16
20
-105.016
11
191.16
21
-118.986
0
LINE
8
BLACK
10
191.16
20
-118.986
11
177.19
21
-118.986
0
LINE
8
BLACK
10
177.19
20
-118.986
11
177.19
21
-105.016
0
LINE
8
BLACK
10
167.665
20
-85.9663
11
181.635
21
-85.9663
0
LINE
8
BLACK
10
181.635
20
-85.9663
11
181.635
21
-99.9363
0
LINE
8
BLACK
10
181.635
20
-99.9363
11
167.665
21
-99.9363
0
LINE
8
BLACK
10
167.665
20
-99.9363
11
167.665
21
-85.9663
0
LINE
8
BLACK
10
181.953
20
-66.9163
11
195.923
21
-66.9163
0
LINE
8
BLACK
10
195.923
20
-66.9163
11
195.923
21
-80.8863
0
LINE
8
BLACK
10
195.923
20
-80.8863
11
181.953
21
-80.8863
0
LINE
8
BLACK
10
181.953
20
-80.8863
11
181.953
21
-66.9163
0
LINE
8
BLACK
10
172.428
20
-47.8663
11
186.398
21
-47.8663
0
LINE
8
BLACK
10
186.398
20
-47.8663
11
186.398
21
-61.8363
0
LINE
8
BLACK
10
186.398
20
-61.8363
11
172.428
21
-61.8363
0
LINE
8
BLACK
10
172.428
20
-61.8363
11
172.428
21
-47.8663
0
LINE
8
BLACK
10
162.903
20
-19.2913
11
176.873
21
-19.2913
0
LINE
8
BLACK
10
176.873
20
-19.2913
11
176.873
21
-33.2613
0
LINE
8
BLACK
10
176.873
20
-33.2613
11
162.903
21
-33.2613
0
LINE
8
BLACK
10
162.903
20
-33.2613
11
162.903
21
-19.2913
0
LINE
8
BLACK
10
158.14
20
-105.016
11
172.11
21
-105.016
0
LINE
8
BLACK
10
172.11
20
-105.016
11
172.11
21
-118.986
0
LINE
8
BLACK
10
172.11
20
-118.986
11
158.14
21
-118.986
0
LINE
8
BLACK
10
158.14
20
-118.986
11
158.14
21
-105.016
0
LINE
8
BLACK
10
148.615
20
-85.9663
11
162.585
21
-85.9663
0
LINE
8
BLACK
10
162.585
20
-85.9663
11
162.585
21
-99.9363
0
LINE
8
BLACK
10
162.585
20
-99.9363
11
148.615
21
-99.9363
0
LINE
8
BLACK
10
148.615
20
-99.9363
11
148.615
21
-85.9663
0
LINE
8
BLACK
10
162.903
20
-66.9163
11
176.873
21
-66.9163
0
LINE
8
BLACK
10
176.873
20
-66.9163
11
176.873
21
-80.8863
0
LINE
8
BLACK
10
176.873
20
-80.8863
11
162.903
21
-80.8863
0
LINE
8
BLACK
10
162.903
20
-80.8863
11
162.903
21
-66.9163
0
LINE
8
BLACK
10
153.378
20
-47.8663
11
167.348
21
-47.8663
0
LINE
8
BLACK
10
167.348
20
-47.8663
11
167.348
21
-61.8363
0
LINE
8
BLACK
10
167.348
20
-61.8363
11
153.378
21
-61.8363
0
LINE
8
BLACK
10
153.378
20
-61.8363
11
153.378
21
-47.8663
0
LINE
8
BLACK
10
143.853
20
-19.2913
11
157.823
21
-19.2913
0
LINE
8
BLACK
10
157.823
20
-19.2913
11
157.823
21
-33.2613
0
LINE
8
BLACK
10
157.823
20
-33.2613
11
143.853
21
-33.2613
0
LINE
8
BLACK
10
143.853
20
-33.2613
11
143.853
21
-19.2913
0
LINE
8
BLACK
10
139.09
20
-105.016
11
153.06
21
-105.016
0
LINE
8
BLACK
10
153.06
20
-105.016
11
153.06
21
-118.986
0
LINE
8
BLACK
10
153.06
20
-118.986
11
139.09
21
-118.986
0
LINE
8
BLACK
10
139.09
20
-118.986
11
139.09
21
-105.016
0
LINE
8
BLACK
10
329.59
20
-124.066
11
343.56
21
-124.066
0
LINE
8
BLACK
10
343.56
20
-124.066
11
343.56
21
-138.036
0
LINE
8
BLACK
10
343.56
20
-138.036
11
329.59
21
-138.036
0
LINE
8
BLACK
10
329.59
20
-138.036
11
329.59
21
-124.066
0
LINE
8
BLACK
10
329.59
20
-105.016
11
343.56
21
-105.016
0
LINE
8
BLACK
10
343.56
20
-105.016
11
343.56
21
-118.986
0
LINE
8
BLACK
10
343.56
20
-118.986
11
329.59
21
-118.986
0
LINE
8
BLACK
10
329.59
20
-118.986
11
329.59
21
-105.016
0
LINE
8
BLACK
10
310.54
20
-124.066
11
324.51
21
-124.066
0
LINE
8
BLACK
10
324.51
20
-124.066
11
324.51
21
-138.036
0
LINE
8
BLACK
10
324.51
20
-138.036
11
310.54
21
-138.036
0
LINE
8
BLACK
10
310.54
20
-138.036
11
310.54
21
-124.066
0
LINE
8
BLACK
10
310.54
20
-47.8663
11
324.51
21
-47.8663
0
LINE
8
BLACK
10
324.51
20
-47.8663
11
324.51
21
-61.8363
0
LINE
8
BLACK
10
324.51
20
-61.8363
11
310.54
21
-61.8363
0
LINE
8
BLACK
10
310.54
20
-61.8363
11
310.54
21
-47.8663
0
LINE
8
BLACK
10
348.64
20
-19.2913
11
362.61
21
-19.2913
0
LINE
8
BLACK
10
362.61
20
-19.2913
11
362.61
21
-33.2613
0
LINE
8
BLACK
10
362.61
20
-33.2613
11
348.64
21
-33.2613
0
LINE
8
BLACK
10
348.64
20
-33.2613
11
348.64
21
-19.2913
0
LINE
8
BLACK
10
348.64
20
-47.8663
11
362.61
21
-47.8663
0
LINE
8
BLACK
10
362.61
20
-47.8663
11
362.61
21
-61.8363
0
LINE
8
BLACK
10
362.61
20
-61.8363
11
348.64
21
-61.8363
0
LINE
8
BLACK
10
348.64
20
-61.8363
11
348.64
21
-47.8663
0
LINE
8
BLACK
10
348.64
20
-66.9163
11
362.61
21
-66.9163
0
LINE
8
BLACK
10
362.61
20
-66.9163
11
362.61
21
-80.8863
0
LINE
8
BLACK
10
362.61
20
-80.8863
11
348.64
21
-80.8863
0
LINE
8
BLACK
10
348.64
20
-80.8863
11
348.64
21
-66.9163
0
LINE
8
BLACK
10
281.965
20
-66.9163
11
295.935
21
-66.9163
0
LINE
8
BLACK
10
295.935
20
-66.9163
11
295.935
21
-80.8863
0
LINE
8
BLACK
10
295.935
20
-80.8863
11
281.965
21
-80.8863
0
LINE
8
BLACK
10
281.965
20
-80.8863
11
281.965
21
-66.9163
0
LINE
8
BLACK
10
24.7904
20
-66.9163
11
38.7604
21
-66.9163
0
LINE
8
BLACK
10
38.7604
20
-66.9163
11
38.7604
21
-80.8863
0
LINE
8
BLACK
10
38.7604
20
-80.8863
11
24.7904
21
-80.8863
0
LINE
8
BLACK
10
24.7904
20
-80.8863
11
24.7904
21
-66.9163
0
LINE
8
BLACK
10
70.0342
20
-124.066
11
84.0042
21
-124.066
0
LINE
8
BLACK
10
84.0042
20
-124.066
11
84.0042
21
-138.036
0
LINE
8
BLACK
10
84.0042
20
-138.036
11
70.0342
21
-138.036
0
LINE
8
BLACK
10
70.0342
20
-138.036
11
70.0342
21
-124.066
0
LINE
8
BLACK
10
46.2217
20
-124.066
11
60.1917
21
-124.066
0
LINE
8
BLACK
10
60.1917
20
-124.066
11
60.1917
21
-138.036
0
LINE
8
BLACK
10
60.1917
20
-138.036
11
46.2217
21
-138.036
0
LINE
8
BLACK
10
46.2217
20
-138.036
11
46.2217
21
-124.066
0
LINE
8
BLACK
10
22.4092
20
-124.066
11
36.3792
21
-124.066
0
LINE
8
BLACK
10
36.3792
20
-124.066
11
36.3792
21
-138.036
0
LINE
8
BLACK
10
36.3792
20
-138.036
11
22.4092
21
-138.036
0
LINE
8
BLACK
10
22.4092
20
-138.036
11
22.4092
21
-124.066
0
LINE
8
BLACK
10
260.534
20
-124.066
11
274.504
21
-124.066
0
LINE
8
BLACK
10
274.504
20
-124.066
11
274.504
21
-138.036
0
LINE
8
BLACK
10
274.504
20
-138.036
11
260.534
21
-138.036
0
LINE
8
BLACK
10
260.534
20
-138.036
11
260.534
21
-124.066
0
LINE
8
BLACK
10
284.347
20
-124.066
11
298.317
21
-124.066
0
LINE
8
BLACK
10
298.317
20
-124.066
11
298.317
21
-138.036
0
LINE
8
BLACK
10
298.317
20
-138.036
11
284.347
21
-138.036
0
LINE
8
BLACK
10
284.347
20
-138.036
11
284.347
21
-124.066
0
LINE
8
BLACK
10
236.722
20
-124.066
11
250.692
21
-124.066
0
LINE
8
BLACK
10
250.692
20
-124.066
11
250.692
21
-138.036
0
LINE
8
BLACK
10
250.692
20
-138.036
11
236.722
21
-138.036
0
LINE
8
BLACK
10
236.722
20
-138.036
11
236.722
21
-124.066
0
LINE
8
BLACK
10
212.909
20
-124.066
11
226.879
21
-124.066
0
LINE
8
BLACK
10
226.879
20
-124.066
11
226.879
21
-138.036
0
LINE
8
BLACK
10
226.879
20
-138.036
11
212.909
21
-138.036
0
LINE
8
BLACK
10
212.909
20
-138.036
11
212.909
21
-124.066
0
LINE
8
BLACK
10
155.442
20
-138.036
11
155.442
21
-131.559
0
LINE
8
BLACK
10
95.0913
20
-131.559
11
95.0913
21
-137.655
0
LINE
8
BLACK
10
94.2277
20
-131.559
11
95.0913
21
-131.559
0
LINE
8
BLACK
10
94.2277
20
-128.765
11
94.2277
21
-131.559
0
LINE
8
BLACK
10
95.0913
20
-128.765
11
94.2277
21
-128.765
0
LINE
8
BLACK
10
95.0913
20
-125.362
11
95.0913
21
-128.765
0
LINE
8
BLACK
10
101.746
20
-128.765
11
101.746
21
-125.362
0
LINE
8
BLACK
10
105.124
20
-128.765
11
105.124
21
-125.362
0
LINE
8
BLACK
10
111.779
20
-128.765
11
111.779
21
-125.362
0
LINE
8
BLACK
10
191.789
20
-125.362
11
191.789
21
-128.765
0
LINE
8
BLACK
10
185.134
20
-128.765
11
185.134
21
-125.362
0
LINE
8
BLACK
10
195.167
20
-128.765
11
195.167
21
-125.362
0
LINE
8
BLACK
10
201.822
20
-131.559
11
201.822
21
-137.655
0
LINE
8
BLACK
10
202.686
20
-131.559
11
201.822
21
-131.559
0
LINE
8
BLACK
10
202.686
20
-128.765
11
202.686
21
-131.559
0
LINE
8
BLACK
10
201.822
20
-128.765
11
202.686
21
-128.765
0
LINE
8
BLACK
10
201.822
20
-125.362
11
201.822
21
-128.765
0
LINE
8
BLACK
10
141.472
20
-138.036
11
155.442
21
-138.036
0
LINE
8
BLACK
10
141.472
20
-138.036
11
141.472
21
-131.559
0
LINE
8
BLACK
10
155.442
20
-124.066
11
155.442
21
-128.765
0
LINE
8
BLACK
10
141.472
20
-124.066
11
155.442
21
-124.066
0
LINE
8
BLACK
10
141.472
20
-128.765
11
141.472
21
-124.066
0
LINE
8
BLACK
10
191.789
20
-137.655
11
190.113
21
-137.655
0
LINE
8
BLACK
10
190.113
20
-137.655
11
190.113
21
-138.798
0
LINE
8
BLACK
10
190.113
20
-138.798
11
186.811
21
-138.798
0
LINE
8
BLACK
10
185.134
20
-137.655
11
186.811
21
-137.655
0
LINE
8
BLACK
10
186.811
20
-137.655
11
186.811
21
-138.798
0
LINE
8
BLACK
10
111.779
20
-137.655
11
110.103
21
-137.655
0
LINE
8
BLACK
10
110.103
20
-137.655
11
110.103
21
-138.798
0
LINE
8
BLACK
10
110.103
20
-138.798
11
106.801
21
-138.798
0
LINE
8
BLACK
10
105.124
20
-137.655
11
106.801
21
-137.655
0
LINE
8
BLACK
10
106.801
20
-137.655
11
106.801
21
-138.798
0
LINE
8
BLACK
10
201.822
20
-137.655
11
200.146
21
-137.655
0
LINE
8
BLACK
10
200.146
20
-137.655
11
200.146
21
-138.798
0
LINE
8
BLACK
10
200.146
20
-138.798
11
196.844
21
-138.798
0
LINE
8
BLACK
10
195.167
20
-137.655
11
196.844
21
-137.655
0
LINE
8
BLACK
10
196.844
20
-137.655
11
196.844
21
-138.798
0
LINE
8
BLACK
10
96.7677
20
-137.655
11
96.7677
21
-138.798
0
LINE
8
BLACK
10
96.7677
20
-138.798
11
100.07
21
-138.798
0
LINE
8
BLACK
10
100.07
20
-138.798
11
100.07
21
-137.655
0
LINE
8
BLACK
10
101.746
20
-137.655
11
100.07
21
-137.655
0
LINE
8
BLACK
10
95.0913
20
-137.655
11
96.7677
21
-137.655
0
LINE
8
BLACK
10
191.789
20
-125.362
11
190.113
21
-125.362
0
LINE
8
BLACK
10
190.113
20
-125.362
11
190.113
21
-124.828
0
LINE
8
BLACK
10
190.113
20
-124.828
11
186.811
21
-124.828
0
LINE
8
BLACK
10
185.134
20
-125.362
11
186.811
21
-125.362
0
LINE
8
BLACK
10
186.811
20
-125.362
11
186.811
21
-124.828
0
LINE
8
BLACK
10
111.779
20
-125.362
11
110.103
21
-125.362
0
LINE
8
BLACK
10
110.103
20
-125.362
11
110.103
21
-124.828
0
LINE
8
BLACK
10
110.103
20
-124.828
11
106.801
21
-124.828
0
LINE
8
BLACK
10
106.801
20
-125.362
11
106.801
21
-124.828
0
LINE
8
BLACK
10
105.124
20
-125.362
11
106.801
21
-125.362
0
LINE
8
BLACK
10
195.167
20
-125.362
11
196.844
21
-125.362
0
LINE
8
BLACK
10
196.844
20
-125.362
11
196.844
21
-124.828
0
LINE
8
BLACK
10
196.844
20
-124.828
11
200.146
21
-124.828
0
LINE
8
BLACK
10
201.822
20
-125.362
11
200.146
21
-125.362
0
LINE
8
BLACK
10
200.146
20
-125.362
11
200.146
21
-124.828
0
LINE
8
BLACK
10
96.7677
20
-125.362
11
96.7677
21
-124.828
0
LINE
8
BLACK
10
96.7677
20
-124.828
11
100.07
21
-124.828
0
LINE
8
BLACK
10
100.07
20
-124.828
11
100.07
21
-125.362
0
LINE
8
BLACK
10
95.0913
20
-125.362
11
96.7677
21
-125.362
0
LINE
8
BLACK
10
101.746
20
-125.362
11
100.07
21
-125.362
0
LINE
8
BLACK
10
185.134
20
-137.655
11
185.134
21
-131.559
0
LINE
8
BLACK
10
185.134
20
-131.559
11
155.442
21
-131.559
0
LINE
8
BLACK
10
195.167
20
-137.655
11
195.167
21
-131.559
0
LINE
8
BLACK
10
195.167
20
-131.559
11
191.789
21
-131.559
0
LINE
8
BLACK
10
191.789
20
-131.559
11
191.789
21
-137.655
0
LINE
8
BLACK
10
111.779
20
-137.655
11
111.779
21
-131.559
0
LINE
8
BLACK
10
111.779
20
-131.559
11
141.472
21
-131.559
0
LINE
8
BLACK
10
101.746
20
-137.655
11
101.746
21
-131.559
0
LINE
8
BLACK
10
101.746
20
-131.559
11
105.124
21
-131.559
0
LINE
8
BLACK
10
105.124
20
-131.559
11
105.124
21
-137.655
0
LINE
8
BLACK
10
191.789
20
-128.765
11
195.167
21
-128.765
0
LINE
8
BLACK
10
155.442
20
-128.765
11
185.134
21
-128.765
0
LINE
8
BLACK
10
111.779
20
-128.765
11
141.472
21
-128.765
0
LINE
8
BLACK
10
101.746
20
-128.765
11
105.124
21
-128.765
0
LINE
8
BLACK
10
270.059
20
-105.016
11
284.029
21
-105.016
0
LINE
8
BLACK
10
261.779
20
-109.715
11
261.779
21
-106.312
0
LINE
8
BLACK
10
260.915
20
-109.715
11
261.779
21
-109.715
0
LINE
8
BLACK
10
260.915
20
-112.509
11
260.915
21
-109.715
0
LINE
8
BLACK
10
261.779
20
-112.509
11
260.915
21
-112.509
0
LINE
8
BLACK
10
261.779
20
-118.605
11
261.779
21
-112.509
0
LINE
8
BLACK
10
284.029
20
-118.986
11
270.059
21
-118.986
0
LINE
8
BLACK
10
292.31
20
-112.509
11
292.31
21
-118.605
0
LINE
8
BLACK
10
293.173
20
-112.509
11
292.31
21
-112.509
0
LINE
8
BLACK
10
293.173
20
-109.715
11
293.173
21
-112.509
0
LINE
8
BLACK
10
292.31
20
-109.715
11
293.173
21
-109.715
0
LINE
8
BLACK
10
292.31
20
-106.312
11
292.31
21
-109.715
0
LINE
8
BLACK
10
292.31
20
-118.605
11
290.633
21
-118.605
0
LINE
8
BLACK
10
290.633
20
-118.605
11
290.633
21
-119.748
0
LINE
8
BLACK
10
290.633
20
-119.748
11
287.331
21
-119.748
0
LINE
8
BLACK
10
285.655
20
-118.605
11
287.331
21
-118.605
0
LINE
8
BLACK
10
287.331
20
-118.605
11
287.331
21
-119.748
0
LINE
8
BLACK
10
263.455
20
-118.605
11
263.455
21
-119.748
0
LINE
8
BLACK
10
263.455
20
-119.748
11
266.757
21
-119.748
0
LINE
8
BLACK
10
266.757
20
-119.748
11
266.757
21
-118.605
0
LINE
8
BLACK
10
268.434
20
-118.605
11
266.757
21
-118.605
0
LINE
8
BLACK
10
261.779
20
-118.605
11
263.455
21
-118.605
0
LINE
8
BLACK
10
285.655
20
-118.605
11
285.655
21
-112.509
0
LINE
8
BLACK
10
285.655
20
-112.509
11
284.029
21
-112.509
0
LINE
8
BLACK
10
284.029
20
-112.509
11
284.029
21
-118.986
0
LINE
8
BLACK
10
268.434
20
-118.605
11
268.434
21
-112.509
0
LINE
8
BLACK
10
268.434
20
-112.509
11
270.059
21
-112.509
0
LINE
8
BLACK
10
270.059
20
-112.509
11
270.059
21
-118.986
0
LINE
8
BLACK
10
292.31
20
-106.312
11
290.633
21
-106.312
0
LINE
8
BLACK
10
290.633
20
-106.312
11
290.633
21
-105.778
0
LINE
8
BLACK
10
290.633
20
-105.778
11
287.331
21
-105.778
0
LINE
8
BLACK
10
287.331
20
-105.778
11
287.331
21
-106.312
0
LINE
8
BLACK
10
285.655
20
-109.715
11
285.655
21
-106.312
0
LINE
8
BLACK
10
285.655
20
-106.312
11
287.331
21
-106.312
0
LINE
8
BLACK
10
284.029
20
-105.016
11
284.029
21
-109.715
0
LINE
8
BLACK
10
284.029
20
-109.715
11
285.655
21
-109.715
0
LINE
8
BLACK
10
268.434
20
-106.312
11
268.434
21
-109.715
0
LINE
8
BLACK
10
268.434
20
-109.715
11
270.059
21
-109.715
0
LINE
8
BLACK
10
270.059
20
-109.715
11
270.059
21
-105.016
0
LINE
8
BLACK
10
261.779
20
-106.312
11
263.455
21
-106.312
0
LINE
8
BLACK
10
263.455
20
-106.312
11
263.455
21
-105.778
0
LINE
8
BLACK
10
263.455
20
-105.778
11
266.757
21
-105.778
0
LINE
8
BLACK
10
268.434
20
-106.312
11
266.757
21
-106.312
0
LINE
8
BLACK
10
266.757
20
-106.312
11
266.757
21
-105.778
0
LINE
8
BLACK
10
274.822
20
-85.9663
11
288.792
21
-85.9663
0
LINE
8
BLACK
10
266.541
20
-90.6653
11
266.541
21
-87.2617
0
LINE
8
BLACK
10
265.678
20
-90.6653
11
266.541
21
-90.6653
0
LINE
8
BLACK
10
265.678
20
-93.4593
11
265.678
21
-90.6653
0
LINE
8
BLACK
10
266.541
20
-93.4593
11
265.678
21
-93.4593
0
LINE
8
BLACK
10
266.541
20
-99.5553
11
266.541
21
-93.4593
0
LINE
8
BLACK
10
288.792
20
-99.9363
11
274.822
21
-99.9363
0
LINE
8
BLACK
10
297.072
20
-93.4593
11
297.072
21
-99.5553
0
LINE
8
BLACK
10
297.936
20
-93.4593
11
297.072
21
-93.4593
0
LINE
8
BLACK
10
297.936
20
-90.6653
11
297.936
21
-93.4593
0
LINE
8
BLACK
10
297.072
20
-90.6653
11
297.936
21
-90.6653
0
LINE
8
BLACK
10
297.072
20
-87.2617
11
297.072
21
-90.6653
0
LINE
8
BLACK
10
297.072
20
-99.5553
11
295.396
21
-99.5553
0
LINE
8
BLACK
10
295.396
20
-99.5553
11
295.396
21
-100.698
0
LINE
8
BLACK
10
295.396
20
-100.698
11
292.094
21
-100.698
0
LINE
8
BLACK
10
290.417
20
-99.5553
11
292.094
21
-99.5553
0
LINE
8
BLACK
10
292.094
20
-99.5553
11
292.094
21
-100.698
0
LINE
8
BLACK
10
290.417
20
-99.5553
11
290.417
21
-93.4593
0
LINE
8
BLACK
10
290.417
20
-93.4593
11
288.792
21
-93.4593
0
LINE
8
BLACK
10
288.792
20
-93.4593
11
288.792
21
-99.9363
0
LINE
8
BLACK
10
290.417
20
-87.2617
11
290.417
21
-90.6653
0
LINE
8
BLACK
10
290.417
20
-90.6653
11
288.792
21
-90.6653
0
LINE
8
BLACK
10
288.792
20
-90.6653
11
288.792
21
-85.9663
0
LINE
8
BLACK
10
297.072
20
-87.2617
11
295.396
21
-87.2617
0
LINE
8
BLACK
10
295.396
20
-87.2617
11
295.396
21
-86.7283
0
LINE
8
BLACK
10
295.396
20
-86.7283
11
292.094
21
-86.7283
0
LINE
8
BLACK
10
290.417
20
-87.2617
11
292.094
21
-87.2617
0
LINE
8
BLACK
10
292.094
20
-87.2617
11
292.094
21
-86.7283
0
LINE
8
BLACK
10
273.196
20
-99.5553
11
271.52
21
-99.5553
0
LINE
8
BLACK
10
271.52
20
-99.5553
11
271.52
21
-100.698
0
LINE
8
BLACK
10
271.52
20
-100.698
11
268.218
21
-100.698
0
LINE
8
BLACK
10
268.218
20
-100.698
11
268.218
21
-99.5553
0
LINE
8
BLACK
10
266.541
20
-99.5553
11
268.218
21
-99.5553
0
LINE
8
BLACK
10
273.196
20
-99.5553
11
273.196
21
-93.4593
0
LINE
8
BLACK
10
273.196
20
-93.4593
11
274.822
21
-93.4593
0
LINE
8
BLACK
10
274.822
20
-93.4593
11
274.822
21
-99.9363
0
LINE
8
BLACK
10
273.196
20
-87.2617
11
273.196
21
-90.6653
0
LINE
8
BLACK
10
273.196
20
-90.6653
11
274.822
21
-90.6653
0
LINE
8
BLACK
10
274.822
20
-90.6653
11
274.822
21
-85.9663
0
LINE
8
BLACK
10
271.52
20
-87.2617
11
271.52
21
-86.7283
0
LINE
8
BLACK
10
271.52
20
-86.7283
11
268.218
21
-86.7283
0
LINE
8
BLACK
10
268.218
20
-87.2617
11
268.218
21
-86.7283
0
LINE
8
BLACK
10
266.541
20
-87.2617
11
268.218
21
-87.2617
0
LINE
8
BLACK
10
273.196
20
-87.2617
11
271.52
21
-87.2617
0
LINE
8
BLACK
10
31.9342
20
-105.016
11
45.9042
21
-105.016
0
LINE
8
BLACK
10
23.6538
20
-109.715
11
23.6538
21
-106.312
0
LINE
8
BLACK
10
22.7902
20
-109.715
11
23.6538
21
-109.715
0
LINE
8
BLACK
10
22.7902
20
-112.509
11
22.7902
21
-109.715
0
LINE
8
BLACK
10
23.6538
20
-112.509
11
22.7902
21
-112.509
0
LINE
8
BLACK
10
23.6538
20
-118.605
11
23.6538
21
-112.509
0
LINE
8
BLACK
10
45.9042
20
-118.986
11
31.9342
21
-118.986
0
LINE
8
BLACK
10
54.1846
20
-112.509
11
54.1846
21
-118.605
0
LINE
8
BLACK
10
55.0482
20
-112.509
11
54.1846
21
-112.509
0
LINE
8
BLACK
10
55.0482
20
-109.715
11
55.0482
21
-112.509
0
LINE
8
BLACK
10
54.1846
20
-109.715
11
55.0482
21
-109.715
0
LINE
8
BLACK
10
54.1846
20
-106.312
11
54.1846
21
-109.715
0
LINE
8
BLACK
10
54.1846
20
-118.605
11
52.5082
21
-118.605
0
LINE
8
BLACK
10
52.5082
20
-118.605
11
52.5082
21
-119.748
0
LINE
8
BLACK
10
52.5082
20
-119.748
11
49.2062
21
-119.748
0
LINE
8
BLACK
10
47.5298
20
-118.605
11
49.2062
21
-118.605
0
LINE
8
BLACK
10
49.2062
20
-118.605
11
49.2062
21
-119.748
0
LINE
8
BLACK
10
47.5298
20
-118.605
11
47.5298
21
-112.509
0
LINE
8
BLACK
10
47.5298
20
-112.509
11
45.9042
21
-112.509
0
LINE
8
BLACK
10
45.9042
20
-112.509
11
45.9042
21
-118.986
0
LINE
8
BLACK
10
47.5298
20
-106.312
11
47.5298
21
-109.715
0
LINE
8
BLACK
10
47.5298
20
-109.715
11
45.9042
21
-109.715
0
LINE
8
BLACK
10
45.9042
20
-109.715
11
45.9042
21
-105.016
0
LINE
8
BLACK
10
54.1846
20
-106.312
11
52.5082
21
-106.312
0
LINE
8
BLACK
10
52.5082
20
-106.312
11
52.5082
21
-105.778
0
LINE
8
BLACK
10
52.5082
20
-105.778
11
49.2062
21
-105.778
0
LINE
8
BLACK
10
47.5298
20
-106.312
11
49.2062
21
-106.312
0
LINE
8
BLACK
10
49.2062
20
-106.312
11
49.2062
21
-105.778
0
LINE
8
BLACK
10
30.3086
20
-118.605
11
28.6322
21
-118.605
0
LINE
8
BLACK
10
28.6322
20
-118.605
11
28.6322
21
-119.748
0
LINE
8
BLACK
10
28.6322
20
-119.748
11
25.3302
21
-119.748
0
LINE
8
BLACK
10
25.3302
20
-119.748
11
25.3302
21
-118.605
0
LINE
8
BLACK
10
23.6538
20
-118.605
11
25.3302
21
-118.605
0
LINE
8
BLACK
10
30.3086
20
-118.605
11
30.3086
21
-112.509
0
LINE
8
BLACK
10
30.3086
20
-112.509
11
31.9342
21
-112.509
0
LINE
8
BLACK
10
31.9342
20
-112.509
11
31.9342
21
-118.986
0
LINE
8
BLACK
10
30.3086
20
-106.312
11
30.3086
21
-109.715
0
LINE
8
BLACK
10
30.3086
20
-109.715
11
31.9342
21
-109.715
0
LINE
8
BLACK
10
31.9342
20
-109.715
11
31.9342
21
-105.016
0
LINE
8
BLACK
10
28.6322
20
-106.312
11
28.6322
21
-105.778
0
LINE
8
BLACK
10
28.6322
20
-105.778
11
25.3302
21
-105.778
0
LINE
8
BLACK
10
25.3302
20
-106.312
11
25.3302
21
-105.778
0
LINE
8
BLACK
10
23.6538
20
-106.312
11
25.3302
21
-106.312
0
LINE
8
BLACK
10
30.3086
20
-106.312
11
28.6322
21
-106.312
0
LINE
8
BLACK
10
41.1417
20
-99.9363
11
22.4092
21
-99.9363
0
LINE
8
BLACK
10
41.1417
20
-85.9663
11
41.1417
21
-99.9363
0
LINE
8
BLACK
10
22.4092
20
-85.9663
11
41.1417
21
-85.9663
0
LINE
8
BLACK
10
22.4092
20
-99.9363
11
22.4092
21
-85.9663
0
LINE
8
BLACK
10
268.923
20
-55.3593
11
268.923
21
-61.4553
0
LINE
8
BLACK
10
268.059
20
-55.3593
11
268.923
21
-55.3593
0
LINE
8
BLACK
10
268.059
20
-52.5653
11
268.059
21
-55.3593
0
LINE
8
BLACK
10
268.923
20
-52.5653
11
268.059
21
-52.5653
0
LINE
8
BLACK
10
268.923
20
-49.1617
11
268.923
21
-52.5653
0
LINE
8
BLACK
10
299.453
20
-55.3593
11
299.453
21
-61.4553
0
LINE
8
BLACK
10
300.317
20
-55.3593
11
299.453
21
-55.3593
0
LINE
8
BLACK
10
300.317
20
-52.5653
11
300.317
21
-55.3593
0
LINE
8
BLACK
10
299.453
20
-52.5653
11
300.317
21
-52.5653
0
LINE
8
BLACK
10
299.453
20
-49.1617
11
299.453
21
-52.5653
0
LINE
8
BLACK
10
291.173
20
-61.8363
11
277.203
21
-61.8363
0
LINE
8
BLACK
10
291.173
20
-47.8663
11
277.203
21
-47.8663
0
LINE
8
BLACK
10
297.777
20
-61.4553
11
297.777
21
-62.5983
0
LINE
8
BLACK
10
297.777
20
-62.5983
11
294.475
21
-62.5983
0
LINE
8
BLACK
10
294.475
20
-61.4553
11
294.475
21
-62.5983
0
LINE
8
BLACK
10
273.901
20
-61.4553
11
273.901
21
-62.5983
0
LINE
8
BLACK
10
273.901
20
-62.5983
11
270.599
21
-62.5983
0
LINE
8
BLACK
10
299.453
20
-61.4553
11
297.777
21
-61.4553
0
LINE
8
BLACK
10
292.799
20
-61.4553
11
294.475
21
-61.4553
0
LINE
8
BLACK
10
291.173
20
-47.8663
11
291.173
21
-52.5653
0
LINE
8
BLACK
10
291.173
20
-52.5653
11
292.799
21
-52.5653
0
LINE
8
BLACK
10
292.799
20
-49.1617
11
292.799
21
-52.5653
0
LINE
8
BLACK
10
291.173
20
-61.8363
11
291.173
21
-55.3593
0
LINE
8
BLACK
10
291.173
20
-55.3593
11
292.799
21
-55.3593
0
LINE
8
BLACK
10
292.799
20
-61.4553
11
292.799
21
-55.3593
0
LINE
8
BLACK
10
297.777
20
-48.6283
11
294.475
21
-48.6283
0
LINE
8
BLACK
10
297.777
20
-49.1617
11
297.777
21
-48.6283
0
LINE
8
BLACK
10
294.475
20
-49.1617
11
294.475
21
-48.6283
0
LINE
8
BLACK
10
299.453
20
-49.1617
11
297.777
21
-49.1617
0
LINE
8
BLACK
10
292.799
20
-49.1617
11
294.475
21
-49.1617
0
LINE
8
BLACK
10
277.203
20
-52.5653
11
277.203
21
-47.8663
0
LINE
8
BLACK
10
277.203
20
-61.8363
11
277.203
21
-55.3593
0
LINE
8
BLACK
10
275.577
20
-49.1617
11
275.577
21
-52.5653
0
LINE
8
BLACK
10
268.923
20
-61.4553
11
270.599
21
-61.4553
0
LINE
8
BLACK
10
275.577
20
-61.4553
11
273.901
21
-61.4553
0
LINE
8
BLACK
10
275.577
20
-61.4553
11
275.577
21
-55.3593
0
LINE
8
BLACK
10
277.203
20
-55.3593
11
275.577
21
-55.3593
0
LINE
8
BLACK
10
277.203
20
-52.5653
11
275.577
21
-52.5653
0
LINE
8
BLACK
10
270.599
20
-61.4553
11
270.599
21
-62.5983
0
LINE
8
BLACK
10
273.901
20
-48.6283
11
270.599
21
-48.6283
0
LINE
8
BLACK
10
273.901
20
-49.1617
11
273.901
21
-48.6283
0
LINE
8
BLACK
10
270.599
20
-49.1617
11
270.599
21
-48.6283
0
LINE
8
BLACK
10
275.577
20
-49.1617
11
273.901
21
-49.1617
0
LINE
8
BLACK
10
268.923
20
-49.1617
11
270.599
21
-49.1617
  0
ENDSEC
  0
EOF
