  0
SECTION
  2
HEADER
  9
$ANGBASE
  50
0.0
  9
$ANGDIR
  70
  1
  9
$MEASUREMENT
  70
0
  0
ENDSEC
  0
SECTION
  2
TABLES
  0
TABLE
  2
LTYPE
  70
1
  0
LTYPE
  2
CONTINUOUS
  70
0
  3
Solid line
  72
65
  73
0
  40
0.0
  0
ENDTAB
  0
TABLE
  2
STYLE
  70
4
  0
STYLE
  2
KICAD
  70
0
  40
0
  41
1
  42
1
  50
0
  71
0
  3
isocp.shx
  0
STYLE
  2
KICADB
  70
0
  40
0
  41
1
  42
1
  50
0
  71
0
  3
isocp.shx
  0
STYLE
  2
KICADI
  70
0
  40
0
  41
1
  42
1
  50
15
  71
0
  3
isocp.shx
  0
STYLE
  2
KICADBI
  70
0
  40
0
  41
1
  42
1
  50
15
  71
0
  3
isocp.shx
  0
ENDTAB
  0
TABLE
  2
LAYER
  70
24
  0
LAYER
  2
BLACK
  70
0
  62
250
  6
CONTINUOUS
  0
LAYER
  2
BLUE
  70
0
  62
5
  6
CONTINUOUS
  0
LAYER
  2
GREEN
  70
0
  62
3
  6
CONTINUOUS
  0
LAYER
  2
CYAN
  70
0
  62
4
  6
CONTINUOUS
  0
LAYER
  2
RED
  70
0
  62
1
  6
CONTINUOUS
  0
LAYER
  2
MAGENTA
  70
0
  62
6
  6
CONTINUOUS
  0
LAYER
  2
BROWN
  70
0
  62
54
  6
CONTINUOUS
  0
LAYER
  2
LIGHTGRAY
  70
0
  62
9
  6
CONTINUOUS
  0
LAYER
  2
DARKGRAY
  70
0
  62
8
  6
CONTINUOUS
  0
LAYER
  2
LIGHTBLUE
  70
0
  62
171
  6
CONTINUOUS
  0
LAYER
  2
LIGHTGREEN
  70
0
  62
91
  6
CONTINUOUS
  0
LAYER
  2
LIGHTCYAN
  70
0
  62
131
  6
CONTINUOUS
  0
LAYER
  2
LIGHTRED
  70
0
  62
11
  6
CONTINUOUS
  0
LAYER
  2
LIGHTMAGENTA
  70
0
  62
221
  6
CONTINUOUS
  0
LAYER
  2
YELLOW
  70
0
  62
2
  6
CONTINUOUS
  0
LAYER
  2
WHITE
  70
0
  62
7
  6
CONTINUOUS
  0
LAYER
  2
DARKDARKGRAY
  70
0
  62
251
  6
CONTINUOUS
  0
LAYER
  2
DARKBLUE
  70
0
  62
178
  6
CONTINUOUS
  0
LAYER
  2
DARKGREEN
  70
0
  62
98
  6
CONTINUOUS
  0
LAYER
  2
DARKCYAN
  70
0
  62
138
  6
CONTINUOUS
  0
LAYER
  2
DARKRED
  70
0
  62
18
  6
CONTINUOUS
  0
LAYER
  2
DARKMAGENTA
  70
0
  62
228
  6
CONTINUOUS
  0
LAYER
  2
DARKBROWN
  70
0
  62
58
  6
CONTINUOUS
  0
LAYER
  2
LIGHTYELLOW
  70
0
  62
51
  6
CONTINUOUS
  0
ENDTAB
  0
ENDSEC
  0
SECTION
  2
ENTITIES
0
LINE
8
BLACK
10
366.547
20
13.1191
11
306.603
21
13.1191
0
LINE
8
BLACK
10
366.547
20
34.9631
11
366.547
21
13.1191
0
LINE
8
BLACK
10
347.497
20
34.9631
11
366.547
21
34.9631
0
LINE
8
BLACK
10
347.497
20
54.0131
11
347.497
21
34.9631
0
LINE
8
BLACK
10
325.653
20
54.0131
11
347.497
21
54.0131
0
LINE
8
BLACK
10
325.653
20
34.9631
11
325.653
21
54.0131
0
LINE
8
BLACK
10
306.603
20
34.9631
11
325.653
21
34.9631
0
LINE
8
BLACK
10
306.603
20
111.163
11
306.603
21
111.15
0
LINE
8
BLACK
10
366.547
20
111.163
11
306.603
21
111.163
0
LINE
8
BLACK
10
366.547
20
70.2691
11
366.547
21
111.163
0
LINE
8
BLACK
10
306.603
20
70.2691
11
366.547
21
70.2691
0
LINE
8
BLACK
10
306.603
20
111.163
11
306.603
21
70.2691
0
LINE
8
BLACK
10
366.547
20
117.894
11
306.603
21
117.894
0
LINE
8
BLACK
10
366.547
20
139.738
11
366.547
21
117.894
0
LINE
8
BLACK
10
306.603
20
139.738
11
366.547
21
139.738
0
LINE
8
BLACK
10
306.603
20
117.894
11
306.603
21
139.738
0
LINE
8
BLACK
10
304.635
20
117.894
11
225.641
21
117.894
0
LINE
8
BLACK
10
304.635
20
139.738
11
304.635
21
117.894
0
LINE
8
BLACK
10
225.641
20
139.738
11
304.635
21
139.738
0
LINE
8
BLACK
10
225.641
20
117.894
11
225.641
21
139.738
0
LINE
8
BLACK
10
16.0909
20
13.1191
11
304.635
21
13.1191
0
LINE
8
BLACK
10
16.0909
20
111.163
11
16.0909
21
13.1191
0
LINE
8
BLACK
10
304.635
20
111.163
11
16.0909
21
111.163
0
LINE
8
BLACK
10
306.603
20
13.1191
11
306.603
21
34.9631
0
LINE
8
BLACK
10
304.635
20
13.1191
11
304.635
21
111.163
0
LINE
8
BLACK
10
218.91
20
139.738
11
139.916
21
139.738
0
LINE
8
BLACK
10
218.91
20
117.894
11
218.91
21
139.738
0
LINE
8
BLACK
10
139.916
20
117.894
11
218.91
21
117.894
0
LINE
8
BLACK
10
139.916
20
139.738
11
139.916
21
117.894
0
LINE
8
BLACK
10
133.185
20
139.738
11
54.1909
21
139.738
0
LINE
8
BLACK
10
133.185
20
117.894
11
133.185
21
139.738
0
LINE
8
BLACK
10
54.1909
20
117.894
11
133.185
21
117.894
0
LINE
8
BLACK
10
54.1909
20
139.738
11
54.1909
21
117.894
0
LINE
8
BLACK
10
37.9349
20
139.738
11
37.9349
21
117.894
0
LINE
8
BLACK
10
37.9349
20
139.738
11
16.0909
21
139.738
0
LINE
8
BLACK
10
16.0909
20
117.894
11
37.9349
21
117.894
0
LINE
8
BLACK
10
16.0909
20
139.738
11
16.0909
21
117.894
0
CIRCLE
8
BLACK
10
371.018
20
-466.789
40
1.5875
0
CIRCLE
8
BLACK
10
371.018
20
-329.603
40
1.5875
0
CIRCLE
8
BLACK
10
371.17
20
-310.909
40
1.143
0
CIRCLE
8
BLACK
10
371.17
20
-173.723
40
1.143
0
CIRCLE
8
BLACK
10
371.831
20
7.8359
40
1.143
0
CIRCLE
8
BLACK
10
371.831
20
145.021
40
1.143
0
CIRCLE
8
BLACK
10
9.9949
20
-466.789
40
1.5875
0
CIRCLE
8
BLACK
10
130.34
20
-466.789
40
1.58755
0
CIRCLE
8
BLACK
10
250.685
20
-466.789
40
1.5875
0
CIRCLE
8
BLACK
10
204.737
20
-329.603
40
1.5875
0
CIRCLE
8
BLACK
10
176.263
20
-329.603
40
1.5875
0
CIRCLE
8
BLACK
10
9.9949
20
-329.603
40
1.5875
0
LINE
8
BLACK
10
377
20
-471.399
11
377
21
-324.968
0
LINE
8
BLACK
10
375.653
20
-472.77
11
5.2578
21
-472.77
0
ARC
8
BLACK
10
375.653
20
-324.968
40
1.3462
50
0
51
90
0
ARC
8
BLACK
10
375.653
20
-471.424
40
1.34626
50
-89.5
51
0.5
0
LINE
8
BLACK
10
4.0132
20
-324.866
11
4.0132
21
-471.526
0
ARC
8
BLACK
10
5.2578
20
-471.526
40
1.2446
50
-180
51
-90
0
ARC
8
BLACK
10
5.2578
20
-324.866
40
1.2446
50
90
51
180
0
LINE
8
BLACK
10
5.2578
20
-323.621
11
375.653
21
-323.621
0
LINE
8
BLACK
10
6.0706
20
151.003
11
376.466
21
151.003
0
LINE
8
BLACK
10
377.152
20
-315.519
11
377.152
21
-169.088
0
LINE
8
BLACK
10
375.806
20
-316.89
11
5.4102
21
-316.89
0
ARC
8
BLACK
10
375.806
20
-169.088
40
1.3462
50
0
51
90
0
ARC
8
BLACK
10
375.806
20
-315.544
40
1.34626
50
-89.5
51
0.5
0
CIRCLE
8
BLACK
10
204.889
20
-173.723
40
1.143
0
CIRCLE
8
BLACK
10
176.416
20
-173.723
40
1.143
0
CIRCLE
8
BLACK
10
250.838
20
-310.909
40
1.143
0
CIRCLE
8
BLACK
10
130.493
20
-310.909
40
1.143
0
CIRCLE
8
BLACK
10
10.1473
20
-310.909
40
1.1557
0
CIRCLE
8
BLACK
10
10.1473
20
-173.723
40
1.143
0
LINE
8
BLACK
10
4.1656
20
-168.986
11
4.1656
21
-315.646
0
ARC
8
BLACK
10
5.4102
20
-315.646
40
1.2446
50
-180
51
-90
0
ARC
8
BLACK
10
5.4102
20
-168.986
40
1.2446
50
90
51
180
0
LINE
8
BLACK
10
182.397
20
-167.742
11
182.397
21
-179.705
0
LINE
8
BLACK
10
182.397
20
-167.742
11
5.4102
21
-167.742
0
LINE
8
BLACK
10
198.907
20
-179.705
11
198.907
21
-167.742
0
LINE
8
BLACK
10
198.907
20
-167.742
11
375.806
21
-167.742
0
LINE
8
BLACK
10
182.397
20
-179.705
11
16.129
21
-179.705
0
LINE
8
BLACK
10
16.129
20
-179.705
11
16.129
21
-304.927
0
LINE
8
BLACK
10
16.129
20
-304.927
11
365.201
21
-304.927
0
LINE
8
BLACK
10
365.201
20
-304.927
11
365.201
21
-179.705
0
LINE
8
BLACK
10
365.201
20
-179.705
11
198.907
21
-179.705
0
ARC
8
BLACK
10
6.0706
20
149.758
40
1.2446
50
90
51
180
0
ARC
8
BLACK
10
6.0706
20
3.0988
40
1.2446
50
-180
51
-90
0
LINE
8
BLACK
10
4.826
20
149.758
11
4.826
21
3.0988
0
CIRCLE
8
BLACK
10
10.8077
20
145.021
40
1.143
0
CIRCLE
8
BLACK
10
10.8077
20
7.8359
40
1.1557
0
CIRCLE
8
BLACK
10
131.153
20
7.8359
40
1.143
0
CIRCLE
8
BLACK
10
251.498
20
7.8359
40
1.143
0
CIRCLE
8
BLACK
10
177.076
20
145.021
40
1.143
0
CIRCLE
8
BLACK
10
205.55
20
145.021
40
1.143
0
ARC
8
BLACK
10
376.466
20
3.2004
40
1.34626
50
-89.5
51
0.5
0
ARC
8
BLACK
10
376.466
20
149.657
40
1.3462
50
0
51
90
0
LINE
8
BLACK
10
376.466
20
1.8542
11
6.0706
21
1.8542
0
LINE
8
BLACK
10
377.812
20
3.2258
11
377.812
21
149.657
  0
ENDSEC
  0
EOF
