<?xml version="1.0" standalone="no"?>
 <!DOCTYPE svg PUBLIC "-//W3C//DTD SVG 1.1//EN" 
 "http://www.w3.org/Graphics/SVG/1.1/DTD/svg11.dtd"> 
<svg xmlns="http://www.w3.org/2000/svg" version="1.1" 
    width="43.18cm" height="27.94cm" viewBox="0 0 170000 110000 ">
<title>SVG Picture created as toasty-tkl-Eco1_User.svg date 2013/06/14 19:04:44 </title>
  <desc>Picture generated by PCBNEW </desc>
<g style="fill:#000000; fill-opacity:1;stroke:#000000; stroke-opacity:1;
stroke-linecap:round; stroke-linejoin:round; "
 transform="translate(0 0) scale(1 1)">
</g>
<g style="fill:#000000; fill-opacity:0.0; 
stroke:#000000; stroke-width:78.7402; stroke-opacity:1; 
stroke-linecap:round; stroke-linejoin:round;">
<path d="M144310 -5165
L120710 -5165
" />
<path d="M144310 -13765
L144310 -5165
" />
<path d="M136810 -13765
L144310 -13765
" />
<path d="M136810 -21265
L136810 -13765
" />
<path d="M128210 -21265
L136810 -21265
" />
<path d="M128210 -13765
L128210 -21265
" />
<path d="M120710 -13765
L128210 -13765
" />
<path d="M120710 -43765
L120710 -43760
" />
<path d="M144310 -43765
L120710 -43765
" />
<path d="M144310 -27665
L144310 -43765
" />
<path d="M120710 -27665
L144310 -27665
" />
<path d="M120710 -43765
L120710 -27665
" />
<path d="M144310 -46415
L120710 -46415
" />
<path d="M144310 -55015
L144310 -46415
" />
<path d="M120710 -55015
L144310 -55015
" />
<path d="M120710 -46415
L120710 -55015
" />
<path d="M119935 -46415
L88835 -46415
" />
<path d="M119935 -55015
L119935 -46415
" />
<path d="M88835 -55015
L119935 -55015
" />
<path d="M88835 -46415
L88835 -55015
" />
<path d="M6335 -5165
L119935 -5165
" />
<path d="M6335 -43765
L6335 -5165
" />
<path d="M119935 -43765
L6335 -43765
" />
<path d="M120710 -5165
L120710 -13765
" />
<path d="M119935 -5165
L119935 -43765
" />
<path d="M86185 -55015
L55085 -55015
" />
<path d="M86185 -46415
L86185 -55015
" />
<path d="M55085 -46415
L86185 -46415
" />
<path d="M55085 -55015
L55085 -46415
" />
<path d="M52435 -55015
L21335 -55015
" />
<path d="M52435 -46415
L52435 -55015
" />
<path d="M21335 -46415
L52435 -46415
" />
<path d="M21335 -55015
L21335 -46415
" />
<path d="M14935 -55015
L14935 -46415
" />
<path d="M14935 -55015
L6335 -55015
" />
<path d="M6335 -46415
L14935 -46415
" />
<path d="M6335 -55015
L6335 -46415
" />
<circle cx="146070" cy="183775" r="625" /> 
<circle cx="146070" cy="129765" r="625" /> 
<circle cx="146130" cy="122405" r="450" /> 
<circle cx="146130" cy="68395" r="450" /> 
<circle cx="146390" cy="-3085" r="450" /> 
<circle cx="146390" cy="-57095" r="450" /> 
<circle cx="3935" cy="183775" r="625" /> 
<circle cx="51315" cy="183775" r="625.02" /> 
<circle cx="98695" cy="183775" r="625" /> 
<circle cx="80605" cy="129765" r="625" /> 
<circle cx="69395" cy="129765" r="625" /> 
<circle cx="3935" cy="129765" r="625" /> 
<path d="M148425 185590
L148425 127940
" />
<path d="M147895 186130
L2070 186130
" />
<path d="M148425 127940 A530 530 0.0 0 0 147895 127410 " />
<path d="M147900 186130 A530.023 530.023 0.0 0 0 148425 185595 " />
<path d="M1580 127900
L1580 185640
" />
<path d="M1580 185640 A490 490 0.0 0 0 2070 186130 " />
<path d="M2070 127410 A490 490 0.0 0 0 1580 127900 " />
<path d="M2070 127410
L147895 127410
" />
<path d="M2390 -59450
L148215 -59450
" />
<path d="M148485 124220
L148485 66570
" />
<path d="M147955 124760
L2130 124760
" />
<path d="M148485 66570 A530 530 0.0 0 0 147955 66040 " />
<path d="M147960 124760 A530.023 530.023 0.0 0 0 148485 124225 " />
<circle cx="80665" cy="68395" r="450" /> 
<circle cx="69455" cy="68395" r="450" /> 
<circle cx="98755" cy="122405" r="450" /> 
<circle cx="51375" cy="122405" r="450" /> 
<circle cx="3995" cy="122405" r="455" /> 
<circle cx="3995" cy="68395" r="450" /> 
<path d="M1640 66530
L1640 124270
" />
<path d="M1640 124270 A490 490 0.0 0 0 2130 124760 " />
<path d="M2130 66040 A490 490 0.0 0 0 1640 66530 " />
<path d="M71810 66040
L71810 70750
" />
<path d="M71810 66040
L2130 66040
" />
<path d="M78310 70750
L78310 66040
" />
<path d="M78310 66040
L147955 66040
" />
<path d="M71810 70750
L6350 70750
" />
<path d="M6350 70750
L6350 120050
" />
<path d="M6350 120050
L143780 120050
" />
<path d="M143780 120050
L143780 70750
" />
<path d="M143780 70750
L78310 70750
" />
<path d="M2390 -59450 A490 490 0.0 0 0 1900 -58960 " />
<path d="M1900 -1220 A490 490 0.0 0 0 2390 -730 " />
<path d="M1900 -58960
L1900 -1220
" />
<circle cx="4255" cy="-57095" r="450" /> 
<circle cx="4255" cy="-3085" r="455" /> 
<circle cx="51635" cy="-3085" r="450" /> 
<circle cx="99015" cy="-3085" r="450" /> 
<circle cx="69715" cy="-57095" r="450" /> 
<circle cx="80925" cy="-57095" r="450" /> 
<path d="M148220 -729.997 A530.023 530.023 0.0 0 0 148745 -1264.63 " />
<path d="M148745 -58920 A530 530 0.0 0 0 148215 -59450 " />
<path d="M148215 -730
L2390 -730
" />
<path d="M148745 -1270
L148745 -58920
" />
</g> 
</svg>
