G04 (created by PCBNEW (2013-04-19 BZR 4011)-stable) date 14/07/2013 10:02:36 PM*
%MOIN*%
G04 Gerber Fmt 3.4, Leading zero omitted, Abs format*
%FSLAX34Y34*%
G01*
G70*
G90*
G04 APERTURE LIST*
%ADD10C,0*%
%ADD11C,0.105748*%
%ADD12R,0.081748X0.074748*%
%ADD13C,0.081748*%
%ADD14C,0.089748*%
%ADD15R,0.089748X0.089748*%
%ADD16C,0.070748*%
%ADD17R,0.070748X0.070748*%
%ADD18R,0.102248X0.102248*%
%ADD19R,0.035348X0.102248*%
%ADD20C,0.051148*%
%ADD21C,0.075748*%
%ADD22R,0.075748X0.075748*%
%ADD23C,0.074848*%
%ADD24C,0.060748*%
G04 APERTURE END LIST*
G54D10*
G54D11*
X110072Y-42095D03*
X107572Y-43095D03*
G54D12*
X109572Y-46095D03*
G54D13*
X108572Y-46095D03*
X128260Y-15970D03*
X129260Y-15970D03*
X135760Y-15970D03*
X136760Y-15970D03*
G54D14*
X123010Y-39595D03*
X124010Y-39595D03*
X125010Y-39595D03*
X126010Y-39595D03*
X127010Y-39595D03*
X128010Y-39595D03*
X129010Y-39595D03*
X130010Y-39595D03*
X131010Y-39595D03*
X132010Y-39595D03*
X133010Y-39595D03*
X134010Y-39595D03*
X135010Y-39595D03*
X136010Y-39595D03*
X137010Y-39595D03*
X138010Y-39595D03*
X139010Y-39595D03*
X140010Y-39595D03*
X141010Y-39595D03*
X142010Y-39595D03*
X142010Y-33595D03*
X141010Y-33595D03*
X140010Y-33595D03*
X139010Y-33595D03*
X138010Y-33595D03*
X137010Y-33595D03*
X136010Y-33595D03*
X135010Y-33595D03*
X134010Y-33595D03*
X133010Y-33595D03*
X132010Y-33595D03*
X131010Y-33595D03*
X130010Y-33595D03*
X129010Y-33595D03*
X128010Y-33595D03*
X127010Y-33595D03*
X126010Y-33595D03*
X125010Y-33595D03*
X124010Y-33595D03*
G54D15*
X123010Y-33595D03*
G54D16*
X65100Y-50900D03*
X65100Y-47900D03*
X69100Y-50900D03*
X69100Y-47900D03*
X71100Y-50900D03*
X71100Y-47900D03*
X111400Y-47700D03*
X114400Y-47700D03*
X118500Y-14900D03*
X118500Y-17900D03*
X119600Y-14900D03*
X119600Y-17900D03*
X120700Y-14900D03*
X120700Y-17900D03*
X98800Y-43700D03*
X98800Y-46700D03*
X121800Y-14900D03*
X121800Y-17900D03*
G54D11*
X11635Y-19595D03*
X9135Y-20595D03*
G54D12*
X11135Y-23595D03*
G54D13*
X10135Y-23595D03*
G54D11*
X141010Y-49595D03*
X138510Y-50595D03*
G54D12*
X140510Y-53595D03*
G54D13*
X139510Y-53595D03*
G54D11*
X133510Y-27095D03*
X131010Y-28095D03*
G54D12*
X133010Y-31095D03*
G54D13*
X132010Y-31095D03*
G54D11*
X109135Y-8345D03*
X106635Y-9345D03*
G54D12*
X108635Y-12345D03*
G54D13*
X107635Y-12345D03*
G54D11*
X105385Y-27095D03*
X102885Y-28095D03*
G54D12*
X104885Y-31095D03*
G54D13*
X103885Y-31095D03*
G54D11*
X101635Y-19595D03*
X99135Y-20595D03*
G54D12*
X101135Y-23595D03*
G54D13*
X100135Y-23595D03*
G54D11*
X126010Y-8345D03*
X123510Y-9345D03*
G54D12*
X125510Y-12345D03*
G54D13*
X124510Y-12345D03*
G54D11*
X133510Y-19595D03*
X131010Y-20595D03*
G54D12*
X133010Y-23595D03*
G54D13*
X132010Y-23595D03*
G54D11*
X99760Y-34595D03*
X97260Y-35595D03*
G54D12*
X99260Y-38595D03*
G54D13*
X98260Y-38595D03*
G54D11*
X79135Y-19595D03*
X76635Y-20595D03*
G54D12*
X78635Y-23595D03*
G54D13*
X77635Y-23595D03*
G54D11*
X126010Y-27095D03*
X123510Y-28095D03*
G54D12*
X125510Y-31095D03*
G54D13*
X124510Y-31095D03*
G54D11*
X133510Y-8345D03*
X131010Y-9345D03*
G54D12*
X133010Y-12345D03*
G54D13*
X132010Y-12345D03*
G54D11*
X116635Y-8345D03*
X114135Y-9345D03*
G54D12*
X116135Y-12345D03*
G54D13*
X115135Y-12345D03*
G54D11*
X36010Y-42095D03*
X33510Y-43095D03*
G54D12*
X35510Y-46095D03*
G54D13*
X34510Y-46095D03*
G54D11*
X60385Y-27095D03*
X57885Y-28095D03*
G54D12*
X59885Y-31095D03*
G54D13*
X58885Y-31095D03*
G54D11*
X56635Y-19595D03*
X54135Y-20595D03*
G54D12*
X56135Y-23595D03*
G54D13*
X55135Y-23595D03*
G54D11*
X49135Y-8345D03*
X46635Y-9345D03*
G54D12*
X48635Y-12345D03*
G54D13*
X47635Y-12345D03*
G54D11*
X51010Y-42095D03*
X48510Y-43095D03*
G54D12*
X50510Y-46095D03*
G54D13*
X49510Y-46095D03*
G54D11*
X47260Y-34595D03*
X44760Y-35595D03*
G54D12*
X46760Y-38595D03*
G54D13*
X45760Y-38595D03*
G54D11*
X52885Y-27095D03*
X50385Y-28095D03*
G54D12*
X52385Y-31095D03*
G54D13*
X51385Y-31095D03*
G54D11*
X49135Y-19595D03*
X46635Y-20595D03*
G54D12*
X48635Y-23595D03*
G54D13*
X47635Y-23595D03*
G54D11*
X41635Y-8345D03*
X39135Y-9345D03*
G54D12*
X41135Y-12345D03*
G54D13*
X40135Y-12345D03*
G54D11*
X43510Y-42095D03*
X41010Y-43095D03*
G54D12*
X43010Y-46095D03*
G54D13*
X42010Y-46095D03*
G54D11*
X39760Y-34595D03*
X37260Y-35595D03*
G54D12*
X39260Y-38595D03*
G54D13*
X38260Y-38595D03*
G54D11*
X45385Y-27095D03*
X42885Y-28095D03*
G54D12*
X44885Y-31095D03*
G54D13*
X43885Y-31095D03*
G54D11*
X41635Y-19595D03*
X39135Y-20595D03*
G54D12*
X41135Y-23595D03*
G54D13*
X40135Y-23595D03*
G54D11*
X34135Y-8345D03*
X31635Y-9345D03*
G54D12*
X33635Y-12345D03*
G54D13*
X32635Y-12345D03*
G54D11*
X101635Y-8345D03*
X99135Y-9345D03*
G54D12*
X101135Y-12345D03*
G54D13*
X100135Y-12345D03*
G54D11*
X32260Y-34595D03*
X29760Y-35595D03*
G54D12*
X31760Y-38595D03*
G54D13*
X30760Y-38595D03*
G54D11*
X37885Y-27095D03*
X35385Y-28095D03*
G54D12*
X37385Y-31095D03*
G54D13*
X36385Y-31095D03*
G54D11*
X34135Y-19595D03*
X31635Y-20595D03*
G54D12*
X33635Y-23595D03*
G54D13*
X32635Y-23595D03*
G54D11*
X26635Y-8345D03*
X24135Y-9345D03*
G54D12*
X26135Y-12345D03*
G54D13*
X25135Y-12345D03*
G54D11*
X28510Y-42095D03*
X26010Y-43095D03*
G54D12*
X28010Y-46095D03*
G54D13*
X27010Y-46095D03*
G54D11*
X24760Y-34595D03*
X22260Y-35595D03*
G54D12*
X24260Y-38595D03*
G54D13*
X23260Y-38595D03*
G54D11*
X30385Y-27095D03*
X27885Y-28095D03*
G54D12*
X29885Y-31095D03*
G54D13*
X28885Y-31095D03*
G54D11*
X26635Y-19595D03*
X24135Y-20595D03*
G54D12*
X26135Y-23595D03*
G54D13*
X25135Y-23595D03*
G54D11*
X22885Y-27095D03*
X20385Y-28095D03*
G54D12*
X22385Y-31095D03*
G54D13*
X21385Y-31095D03*
G54D11*
X19135Y-19595D03*
X16635Y-20595D03*
G54D12*
X18635Y-23595D03*
G54D13*
X17635Y-23595D03*
G54D11*
X11635Y-8345D03*
X9135Y-9345D03*
G54D12*
X11135Y-12345D03*
G54D13*
X10135Y-12345D03*
G54D11*
X54760Y-34595D03*
X52260Y-35595D03*
G54D12*
X54260Y-38595D03*
G54D13*
X53260Y-38595D03*
G54D11*
X96010Y-42095D03*
X93510Y-43095D03*
G54D12*
X95510Y-46095D03*
G54D13*
X94510Y-46095D03*
G54D11*
X92260Y-34595D03*
X89760Y-35595D03*
G54D12*
X91760Y-38595D03*
G54D13*
X90760Y-38595D03*
G54D11*
X97885Y-27095D03*
X95385Y-28095D03*
G54D12*
X97385Y-31095D03*
G54D13*
X96385Y-31095D03*
G54D11*
X94135Y-19595D03*
X91635Y-20595D03*
G54D12*
X93635Y-23595D03*
G54D13*
X92635Y-23595D03*
G54D11*
X94135Y-8345D03*
X91635Y-9345D03*
G54D12*
X93635Y-12345D03*
G54D13*
X92635Y-12345D03*
G54D11*
X88510Y-42095D03*
X86010Y-43095D03*
G54D12*
X88010Y-46095D03*
G54D13*
X87010Y-46095D03*
G54D11*
X84760Y-34595D03*
X82260Y-35595D03*
G54D12*
X84260Y-38595D03*
G54D13*
X83260Y-38595D03*
G54D11*
X90385Y-27095D03*
X87885Y-28095D03*
G54D12*
X89885Y-31095D03*
G54D13*
X88885Y-31095D03*
G54D11*
X86635Y-19595D03*
X84135Y-20595D03*
G54D12*
X86135Y-23595D03*
G54D13*
X85135Y-23595D03*
G54D11*
X82885Y-8345D03*
X80385Y-9345D03*
G54D12*
X82385Y-12345D03*
G54D13*
X81385Y-12345D03*
G54D11*
X81010Y-42095D03*
X78510Y-43095D03*
G54D12*
X80510Y-46095D03*
G54D13*
X79510Y-46095D03*
G54D11*
X77260Y-34595D03*
X74760Y-35595D03*
G54D12*
X76760Y-38595D03*
G54D13*
X75760Y-38595D03*
G54D11*
X82885Y-27095D03*
X80385Y-28095D03*
G54D12*
X82385Y-31095D03*
G54D13*
X81385Y-31095D03*
G54D11*
X75385Y-8345D03*
X72885Y-9345D03*
G54D12*
X74885Y-12345D03*
G54D13*
X73885Y-12345D03*
G54D11*
X73510Y-42095D03*
X71010Y-43095D03*
G54D12*
X73010Y-46095D03*
G54D13*
X72010Y-46095D03*
G54D11*
X69760Y-34595D03*
X67260Y-35595D03*
G54D12*
X69260Y-38595D03*
G54D13*
X68260Y-38595D03*
G54D11*
X75385Y-27095D03*
X72885Y-28095D03*
G54D12*
X74885Y-31095D03*
G54D13*
X73885Y-31095D03*
G54D11*
X71635Y-19595D03*
X69135Y-20595D03*
G54D12*
X71135Y-23595D03*
G54D13*
X70135Y-23595D03*
G54D11*
X67885Y-8345D03*
X65385Y-9345D03*
G54D12*
X67385Y-12345D03*
G54D13*
X66385Y-12345D03*
G54D11*
X66010Y-42095D03*
X63510Y-43095D03*
G54D12*
X65510Y-46095D03*
G54D13*
X64510Y-46095D03*
G54D11*
X62260Y-34595D03*
X59760Y-35595D03*
G54D12*
X61760Y-38595D03*
G54D13*
X60760Y-38595D03*
G54D11*
X67885Y-27095D03*
X65385Y-28095D03*
G54D12*
X67385Y-31095D03*
G54D13*
X66385Y-31095D03*
G54D11*
X64135Y-19595D03*
X61635Y-20595D03*
G54D12*
X63635Y-23595D03*
G54D13*
X62635Y-23595D03*
G54D11*
X60385Y-8345D03*
X57885Y-9345D03*
G54D12*
X59885Y-12345D03*
G54D13*
X58885Y-12345D03*
G54D11*
X58510Y-42095D03*
X56010Y-43095D03*
G54D12*
X58010Y-46095D03*
G54D13*
X57010Y-46095D03*
G54D11*
X133510Y-49595D03*
X131010Y-50595D03*
G54D12*
X133010Y-53595D03*
G54D13*
X132010Y-53595D03*
G54D11*
X133510Y-42095D03*
X131010Y-43095D03*
G54D12*
X133010Y-46095D03*
G54D13*
X132010Y-46095D03*
G54D11*
X126010Y-49595D03*
X123510Y-50595D03*
G54D12*
X125510Y-53595D03*
G54D13*
X124510Y-53595D03*
G54D11*
X126010Y-19595D03*
X123510Y-20595D03*
G54D12*
X125510Y-23595D03*
G54D13*
X124510Y-23595D03*
G54D11*
X141010Y-8345D03*
X138510Y-9345D03*
G54D12*
X140510Y-12345D03*
G54D13*
X139510Y-12345D03*
G54D11*
X141010Y-19595D03*
X138510Y-20595D03*
G54D12*
X140510Y-23595D03*
G54D13*
X139510Y-23595D03*
G54D11*
X141010Y-27095D03*
X138510Y-28095D03*
G54D12*
X140510Y-31095D03*
G54D13*
X139510Y-31095D03*
G54D11*
X114760Y-27095D03*
X112260Y-28095D03*
G54D12*
X114260Y-31095D03*
G54D13*
X113260Y-31095D03*
G54D11*
X13510Y-27095D03*
X11010Y-28095D03*
G54D12*
X13010Y-31095D03*
G54D13*
X12010Y-31095D03*
G54D11*
X31322Y-49595D03*
X28822Y-50595D03*
G54D12*
X30822Y-53595D03*
G54D13*
X29822Y-53595D03*
G54D11*
X21947Y-49595D03*
X19447Y-50595D03*
G54D12*
X21447Y-53595D03*
G54D13*
X20447Y-53595D03*
G54D11*
X12572Y-49595D03*
X10072Y-50595D03*
G54D12*
X12072Y-53595D03*
G54D13*
X11072Y-53595D03*
G54D11*
X106322Y-49595D03*
X103822Y-50595D03*
G54D12*
X105822Y-53595D03*
G54D13*
X104822Y-53595D03*
G54D11*
X115697Y-49595D03*
X113197Y-50595D03*
G54D12*
X115197Y-53595D03*
G54D13*
X114197Y-53595D03*
G54D11*
X96947Y-49595D03*
X94447Y-50595D03*
G54D12*
X96447Y-53595D03*
G54D13*
X95447Y-53595D03*
G54D11*
X87572Y-49595D03*
X85072Y-50595D03*
G54D12*
X87072Y-53595D03*
G54D13*
X86072Y-53595D03*
G54D11*
X59447Y-49595D03*
X56947Y-50595D03*
G54D12*
X58947Y-53595D03*
G54D13*
X57947Y-53595D03*
G54D11*
X111947Y-34595D03*
X109447Y-35595D03*
G54D12*
X111447Y-38595D03*
G54D13*
X110447Y-38595D03*
G54D11*
X16322Y-42095D03*
X13822Y-43095D03*
G54D12*
X15822Y-46095D03*
G54D13*
X14822Y-46095D03*
X12947Y-38595D03*
G54D12*
X13947Y-38595D03*
G54D11*
X11947Y-35595D03*
X14447Y-34595D03*
X12572Y-34595D03*
X10072Y-35595D03*
G54D12*
X12072Y-38595D03*
G54D13*
X11072Y-38595D03*
G54D11*
X112885Y-19595D03*
X110385Y-20595D03*
G54D12*
X112385Y-23595D03*
G54D13*
X111385Y-23595D03*
G54D17*
X65400Y-25400D03*
G54D16*
X68400Y-25400D03*
G54D17*
X76600Y-17900D03*
G54D16*
X79600Y-17900D03*
G54D17*
X70600Y-9300D03*
G54D16*
X70600Y-12300D03*
G54D17*
X71000Y-40400D03*
G54D16*
X74000Y-40400D03*
G54D17*
X67300Y-32900D03*
G54D16*
X70300Y-32900D03*
G54D17*
X72900Y-25400D03*
G54D16*
X75900Y-25400D03*
G54D17*
X69100Y-17900D03*
G54D16*
X72100Y-17900D03*
G54D17*
X63100Y-9300D03*
G54D16*
X63100Y-12300D03*
G54D17*
X111900Y-9300D03*
G54D16*
X111900Y-12300D03*
G54D17*
X63500Y-40400D03*
G54D16*
X66500Y-40400D03*
G54D17*
X59800Y-32900D03*
G54D16*
X62800Y-32900D03*
G54D17*
X123500Y-17900D03*
G54D16*
X126500Y-17900D03*
G54D17*
X80400Y-25400D03*
G54D16*
X83400Y-25400D03*
G54D17*
X61600Y-17900D03*
G54D16*
X64600Y-17900D03*
G54D17*
X123500Y-25400D03*
G54D16*
X126500Y-25400D03*
G54D17*
X55700Y-9300D03*
G54D16*
X55700Y-12300D03*
G54D17*
X56000Y-40400D03*
G54D16*
X59000Y-40400D03*
G54D17*
X57900Y-25400D03*
G54D16*
X60900Y-25400D03*
G54D17*
X121300Y-9300D03*
G54D16*
X121300Y-12300D03*
G54D17*
X54100Y-17900D03*
G54D16*
X57100Y-17900D03*
G54D17*
X44400Y-9300D03*
G54D16*
X44400Y-12300D03*
G54D17*
X131000Y-17900D03*
G54D16*
X134000Y-17900D03*
G54D17*
X86000Y-40400D03*
G54D16*
X89000Y-40400D03*
G54D17*
X99200Y-17900D03*
G54D16*
X102200Y-17900D03*
G54D17*
X96900Y-9300D03*
G54D16*
X96900Y-12300D03*
G54D17*
X56885Y-47845D03*
G54D16*
X59885Y-47845D03*
G54D17*
X93500Y-40400D03*
G54D16*
X96500Y-40400D03*
G54D17*
X101400Y-25400D03*
G54D16*
X104400Y-25400D03*
G54D17*
X89800Y-32900D03*
G54D16*
X92800Y-32900D03*
G54D17*
X95400Y-25400D03*
G54D16*
X98400Y-25400D03*
G54D17*
X97300Y-32900D03*
G54D16*
X100300Y-32900D03*
G54D17*
X91600Y-17900D03*
G54D16*
X94600Y-17900D03*
G54D17*
X89400Y-9300D03*
G54D16*
X89400Y-12300D03*
G54D17*
X14400Y-9300D03*
G54D16*
X14400Y-12300D03*
G54D17*
X82300Y-32900D03*
G54D16*
X85300Y-32900D03*
G54D17*
X104400Y-9300D03*
G54D16*
X104400Y-12300D03*
G54D17*
X87900Y-25400D03*
G54D16*
X90900Y-25400D03*
G54D17*
X84100Y-17900D03*
G54D16*
X87100Y-17900D03*
G54D17*
X110300Y-17900D03*
G54D16*
X113300Y-17900D03*
G54D17*
X78100Y-9300D03*
G54D16*
X78100Y-12300D03*
G54D17*
X78500Y-40400D03*
G54D16*
X81500Y-40400D03*
G54D17*
X112200Y-25400D03*
G54D16*
X115200Y-25400D03*
G54D17*
X74800Y-32900D03*
G54D16*
X77800Y-32900D03*
G54D17*
X52300Y-32900D03*
G54D16*
X55300Y-32900D03*
G54D17*
X26000Y-40400D03*
G54D16*
X29000Y-40400D03*
G54D17*
X29400Y-9300D03*
G54D16*
X29400Y-12300D03*
G54D17*
X28900Y-47900D03*
G54D16*
X31900Y-47900D03*
G54D17*
X33500Y-40400D03*
G54D16*
X36500Y-40400D03*
G54D17*
X29800Y-32900D03*
G54D16*
X32800Y-32900D03*
G54D17*
X48500Y-40400D03*
G54D16*
X51500Y-40400D03*
G54D17*
X31600Y-17900D03*
G54D16*
X34600Y-17900D03*
G54D17*
X94400Y-47900D03*
G54D16*
X97400Y-47900D03*
G54D17*
X21900Y-9300D03*
G54D16*
X21900Y-12300D03*
G54D17*
X19500Y-47900D03*
G54D16*
X22500Y-47900D03*
G54D17*
X35400Y-25400D03*
G54D16*
X38400Y-25400D03*
G54D17*
X22300Y-32900D03*
G54D16*
X25300Y-32900D03*
G54D17*
X11000Y-25400D03*
G54D16*
X14000Y-25400D03*
G54D17*
X27900Y-25400D03*
G54D16*
X30900Y-25400D03*
G54D17*
X24100Y-17900D03*
G54D16*
X27100Y-17900D03*
G54D17*
X9100Y-17900D03*
G54D16*
X12100Y-17900D03*
G54D17*
X10100Y-47900D03*
G54D16*
X13100Y-47900D03*
G54D17*
X13800Y-40400D03*
G54D16*
X16800Y-40400D03*
G54D17*
X10100Y-32900D03*
G54D16*
X13100Y-32900D03*
G54D17*
X20400Y-25400D03*
G54D16*
X23400Y-25400D03*
G54D17*
X16600Y-17900D03*
G54D16*
X19600Y-17900D03*
G54D17*
X85100Y-47900D03*
G54D16*
X88100Y-47900D03*
G54D17*
X46600Y-17900D03*
G54D16*
X49600Y-17900D03*
G54D17*
X50400Y-25400D03*
G54D16*
X53400Y-25400D03*
G54D17*
X36900Y-9300D03*
G54D16*
X36900Y-12300D03*
G54D17*
X131000Y-25400D03*
G54D16*
X134000Y-25400D03*
G54D17*
X41000Y-40400D03*
G54D16*
X44000Y-40400D03*
G54D17*
X37300Y-32900D03*
G54D16*
X40300Y-32900D03*
G54D17*
X44800Y-32900D03*
G54D16*
X47800Y-32900D03*
G54D17*
X42900Y-25400D03*
G54D16*
X45900Y-25400D03*
G54D17*
X128700Y-9300D03*
G54D16*
X128700Y-12300D03*
G54D17*
X39100Y-17900D03*
G54D16*
X42100Y-17900D03*
G54D17*
X106400Y-32800D03*
G54D16*
X109400Y-32800D03*
G54D17*
X116700Y-43100D03*
G54D16*
X116700Y-46100D03*
G54D17*
X118600Y-50700D03*
G54D16*
X118600Y-53700D03*
G54D17*
X123500Y-47900D03*
G54D16*
X126500Y-47900D03*
G54D17*
X100635Y-50595D03*
G54D16*
X100635Y-47595D03*
G54D17*
X128885Y-43095D03*
G54D16*
X128885Y-46095D03*
G54D17*
X131000Y-47900D03*
G54D16*
X134000Y-47900D03*
G54D17*
X136300Y-9300D03*
G54D16*
X136300Y-12300D03*
G54D17*
X138500Y-17900D03*
G54D16*
X141500Y-17900D03*
G54D17*
X138500Y-25400D03*
G54D16*
X141500Y-25400D03*
G54D17*
X138500Y-47900D03*
G54D16*
X141500Y-47900D03*
G54D18*
X73576Y-5165D03*
G54D19*
X75949Y-5275D03*
X75634Y-5275D03*
X75320Y-5275D03*
X75006Y-5275D03*
X74691Y-5275D03*
G54D20*
X76185Y-4280D03*
X74454Y-4280D03*
G54D18*
X77064Y-5165D03*
X77064Y-3000D03*
X73576Y-3000D03*
G54D13*
X73720Y-6820D03*
X74520Y-7320D03*
X75320Y-6820D03*
X76120Y-7320D03*
X76920Y-6820D03*
G54D21*
X136150Y-46000D03*
X136150Y-42000D03*
G54D16*
X117300Y-39950D03*
X120300Y-39950D03*
X102500Y-41850D03*
X99500Y-41850D03*
X99500Y-40350D03*
X102500Y-40350D03*
G54D22*
X137450Y-46000D03*
G54D21*
X137450Y-42000D03*
G54D23*
X126800Y-45400D03*
X126800Y-43400D03*
G54D16*
X127250Y-14900D03*
X130250Y-14900D03*
X134750Y-14900D03*
X137750Y-14900D03*
X63100Y-50900D03*
X63100Y-47900D03*
X67100Y-50900D03*
X67100Y-47900D03*
G54D24*
X121000Y-47800D03*
X121000Y-51800D03*
M02*
