M48
;DRILL file {Pcbnew (2013-04-19 BZR 4011)-stable} date 14/07/2013 10:02:50 PM
;FORMAT={-:-/ absolute / inch / decimal}
FMAT,2
INCH,TZ
T1C0.035
T2C0.067
T3C0.157
%
G90
G05
M72
T1
X7.4454Y-0.428
X7.6185Y-0.428
T2
X0.8635Y-1.0345
X0.8635Y-2.1595
X0.9572Y-5.1595
X1.051Y-2.9095
X1.2635Y-1.0345
X1.2635Y-2.1595
X1.3322Y-4.4095
X1.3573Y-5.1595
X1.451Y-2.9095
X1.6135Y-2.1595
X1.7323Y-4.4095
X1.8947Y-5.1595
X1.9885Y-2.9095
X2.0135Y-2.1595
X2.176Y-3.6595
X2.2948Y-5.1595
X2.3635Y-1.0345
X2.3635Y-2.1595
X2.3885Y-2.9095
X2.551Y-4.4095
X2.576Y-3.6595
X2.7385Y-2.9095
X2.7635Y-1.0345
X2.7635Y-2.1595
X2.8323Y-5.1595
X2.926Y-3.6595
X2.951Y-4.4095
X3.1135Y-1.0345
X3.1135Y-2.1595
X3.1385Y-2.9095
X3.2323Y-5.1595
X3.301Y-4.4095
X3.326Y-3.6595
X3.4885Y-2.9095
X3.5135Y-1.0345
X3.5135Y-2.1595
X3.676Y-3.6595
X3.701Y-4.4095
X3.8635Y-1.0345
X3.8635Y-2.1595
X3.8885Y-2.9095
X4.051Y-4.4095
X4.076Y-3.6595
X4.2385Y-2.9095
X4.2635Y-1.0345
X4.2635Y-2.1595
X4.426Y-3.6595
X4.451Y-4.4095
X4.6135Y-1.0345
X4.6135Y-2.1595
X4.6385Y-2.9095
X4.801Y-4.4095
X4.826Y-3.6595
X4.9885Y-2.9095
X5.0135Y-1.0345
X5.0135Y-2.1595
X5.176Y-3.6595
X5.201Y-4.4095
X5.3635Y-2.1595
X5.3885Y-2.9095
X5.551Y-4.4095
X5.576Y-3.6595
X5.6448Y-5.1595
X5.7385Y-1.0345
X5.7385Y-2.9095
X5.7635Y-2.1595
X5.926Y-3.6595
X5.951Y-4.4095
X6.0447Y-5.1595
X6.1135Y-2.1595
X6.1385Y-1.0345
X6.1385Y-2.9095
X6.301Y-4.4095
X6.326Y-3.6595
X6.4885Y-1.0345
X6.4885Y-2.9095
X6.5135Y-2.1595
X6.676Y-3.6595
X6.701Y-4.4095
X6.8635Y-2.1595
X6.8885Y-1.0345
X6.8885Y-2.9095
X7.051Y-4.4095
X7.076Y-3.6595
X7.2385Y-1.0345
X7.2385Y-2.9095
X7.2635Y-2.1595
X7.426Y-3.6595
X7.451Y-4.4095
X7.6135Y-2.1595
X7.6385Y-1.0345
X7.6385Y-2.9095
X7.801Y-4.4095
X7.826Y-3.6595
X7.9885Y-1.0345
X7.9885Y-2.9095
X8.0135Y-2.1595
X8.176Y-3.6595
X8.201Y-4.4095
X8.3635Y-2.1595
X8.3885Y-1.0345
X8.3885Y-2.9095
X8.4573Y-5.1595
X8.551Y-4.4095
X8.576Y-3.6595
X8.7385Y-2.9095
X8.7635Y-2.1595
X8.8573Y-5.1595
X8.926Y-3.6595
X8.951Y-4.4095
X9.1135Y-1.0345
X9.1135Y-2.1595
X9.1385Y-2.9095
X9.301Y-4.4095
X9.326Y-3.6595
X9.3948Y-5.1595
X9.4885Y-2.9095
X9.5135Y-1.0345
X9.5135Y-2.1595
X9.676Y-3.6595
X9.701Y-4.4095
X9.7948Y-5.1595
X9.8635Y-1.0345
X9.8635Y-2.1595
X9.8885Y-2.9095
X10.076Y-3.6595
X10.2385Y-2.9095
X10.2635Y-1.0345
X10.2635Y-2.1595
X10.3323Y-5.1595
X10.6135Y-1.0345
X10.6385Y-2.9095
X10.7073Y-4.4095
X10.7323Y-5.1595
X10.8948Y-3.6595
X10.9885Y-2.1595
X11.0135Y-1.0345
X11.1073Y-4.4095
X11.176Y-2.9095
X11.2698Y-5.1595
X11.2948Y-3.6595
X11.3635Y-1.0345
X11.3885Y-2.1595
X11.576Y-2.9095
X11.6698Y-5.1595
X11.7635Y-1.0345
X12.301Y-1.0345
X12.301Y-2.1595
X12.301Y-2.9095
X12.301Y-5.1595
X12.701Y-1.0345
X12.701Y-2.1595
X12.701Y-2.9095
X12.701Y-5.1595
X13.051Y-1.0345
X13.051Y-2.1595
X13.051Y-2.9095
X13.051Y-4.4095
X13.051Y-5.1595
X13.451Y-1.0345
X13.451Y-2.1595
X13.451Y-2.9095
X13.451Y-4.4095
X13.451Y-5.1595
X13.801Y-1.0345
X13.801Y-2.1595
X13.801Y-2.9095
X13.801Y-5.1595
X14.201Y-1.0345
X14.201Y-2.1595
X14.201Y-2.9095
X14.201Y-5.1595
T3
X1.0635Y-1.0345
X1.0635Y-2.1595
X1.1572Y-3.6595
X1.1572Y-5.1595
X1.251Y-2.9095
X1.3447Y-3.6595
X1.5322Y-4.4095
X1.8135Y-2.1595
X2.0947Y-5.1595
X2.1885Y-2.9095
X2.376Y-3.6595
X2.5635Y-1.0345
X2.5635Y-2.1595
X2.751Y-4.4095
X2.9385Y-2.9095
X3.0322Y-5.1595
X3.126Y-3.6595
X3.3135Y-1.0345
X3.3135Y-2.1595
X3.501Y-4.4095
X3.6885Y-2.9095
X3.876Y-3.6595
X4.0635Y-1.0345
X4.0635Y-2.1595
X4.251Y-4.4095
X4.4385Y-2.9095
X4.626Y-3.6595
X4.8135Y-1.0345
X4.8135Y-2.1595
X5.001Y-4.4095
X5.1885Y-2.9095
X5.376Y-3.6595
X5.5635Y-2.1595
X5.751Y-4.4095
X5.8447Y-5.1595
X5.9385Y-1.0345
X5.9385Y-2.9095
X6.126Y-3.6595
X6.3135Y-2.1595
X6.501Y-4.4095
X6.6885Y-1.0345
X6.6885Y-2.9095
X6.876Y-3.6595
X7.0635Y-2.1595
X7.251Y-4.4095
X7.4385Y-1.0345
X7.4385Y-2.9095
X7.626Y-3.6595
X7.8135Y-2.1595
X8.001Y-4.4095
X8.1885Y-1.0345
X8.1885Y-2.9095
X8.376Y-3.6595
X8.5635Y-2.1595
X8.6572Y-5.1595
X8.751Y-4.4095
X8.9385Y-2.9095
X9.126Y-3.6595
X9.3135Y-1.0345
X9.3135Y-2.1595
X9.501Y-4.4095
X9.5947Y-5.1595
X9.6885Y-2.9095
X9.876Y-3.6595
X10.0635Y-1.0345
X10.0635Y-2.1595
X10.4385Y-2.9095
X10.5322Y-5.1595
X10.8135Y-1.0345
X10.9072Y-4.4095
X11.0947Y-3.6595
X11.1885Y-2.1595
X11.376Y-2.9095
X11.4697Y-5.1595
X11.5635Y-1.0345
X12.501Y-1.0345
X12.501Y-2.1595
X12.501Y-2.9095
X12.501Y-5.1595
X13.251Y-1.0345
X13.251Y-2.1595
X13.251Y-2.9095
X13.251Y-4.4095
X13.251Y-5.1595
X14.001Y-1.0345
X14.001Y-2.1595
X14.001Y-2.9095
X14.001Y-5.1595
T0
M30
